<svg xmlns="http://www.w3.org/2000/svg" width="40.595" height="51.5" viewBox="0 0 40.595 51.5">
  <g id="logo_mobile" transform="translate(-99.398 -19.614)">
    <g id="Logo" transform="translate(107.117 19.614)">
      <g id="Red_ribbon" data-name="Red ribbon" transform="translate(0 0)">
        <path id="Main_ribbon" data-name="Main ribbon" d="M215.428,45.391l3.928-3.941h0a12.3,12.3,0,1,0-15.315.2l-.058-.013,3.846,3.862-8.561,8.549,3.677,3.866,8.628-8.655,8.563,8.6,3.819-3.819Zm-5.374-1.756.48-2.231-4-4.046h0a7.655,7.655,0,1,1,9.915-.057h0Z" transform="translate(-199.261 -19.614)" fill="#db3131"/>
        <path id="highlight" d="M217.4,235.448l-9.979,9.7-8.154,8.035.774.784,15.18-15.18A22.529,22.529,0,0,0,217.4,235.448Z" transform="translate(-199.265 -218.752)" fill="#ec4b4b"/>
        <path id="Shadow" d="M358.662,356.579c.165-.316,3.832-3.928,3.834-3.89.645.67,8.594,8.741,8.594,8.741l-3.795,3.811-.187-.188,3.526-3.541-8.259-8.294-3.53,3.546Z" transform="translate(-346.326 -326.924)" fill="#c2222d"/>
        <path id="Shadow-2" d="M273.218,81.641A7.655,7.655,0,1,0,260.64,87.5h0l4,4.046-.48,2.231,6.394-6.334h0A7.637,7.637,0,0,0,273.218,81.641ZM270.249,87h0l-5.838,5.784.438-2.037-3.653-3.694h0A6.99,6.99,0,1,1,270.249,87Z" transform="translate(-253.366 -69.781)" fill="#a41600"/>
        <path id="Highlight-2" d="M211.491,19.634a12.3,12.3,0,0,0-7.532,22.035l-.058-.013s-6.177-7.45-2.633-14.795C205.253,19.19,214.89,19.634,211.491,19.634Z" transform="translate(-199.186 -19.628)" fill="#ec4b4b"/>
      </g>
      <g id="Chatbox" transform="translate(5.33 4.856)">
        <path id="white_chat_box" data-name="white chat box" d="M282.134,89.417A7.025,7.025,0,1,0,270.589,94.8h0l3.672,3.713-.44,2.048,5.868-5.813h0A7.009,7.009,0,0,0,282.134,89.417Z" transform="translate(-268.083 -82.392)" fill="#fff"/>
        <g id="Dots" transform="translate(2.885 6.908)">
          <path id="dot" d="M352.146,172.45a.751.751,0,1,1-.751-.751.751.751,0,0,1,.751.751" transform="translate(-347.144 -171.699)"/>
          <path id="dot-2" d="M395.91,172.45a.751.751,0,1,1-.751-.751h0a.751.751,0,0,1,.751.751" transform="translate(-387.521 -171.699)"/>
          <path id="dot-3" d="M306.883,172.45a.75.75,0,1,1-.75-.751.75.75,0,0,1,.75.751h0" transform="translate(-305.382 -171.699)"/>
        </g>
      </g>
    </g>
    <g id="_teentalks" data-name=" teentalks" transform="translate(99.398 65.336)" style="isolation: isolate">
      <g id="Group_416" data-name="Group 416" transform="translate(0 0.325)" style="isolation: isolate">
        <path id="Path_11144" data-name="Path 11144" d="M103.181,616.773l-.2,1.625h1.1v.426h-1.153l-.178,1.47h-.418l.178-1.47h-1.586l-.186,1.47h-.418l.178-1.47H99.4V618.4h1.153l.2-1.625H99.646v-.425h1.16l.178-1.47h.426l-.186,1.47h1.594l.178-1.47h.418l-.178,1.47h1.091v.425Zm-.418,0h-1.586l-.209,1.625h1.594Z" transform="translate(-99.398 -614.878)"/>
      </g>
      <g id="Group_417" data-name="Group 417" transform="translate(5.291 0.781)" style="isolation: isolate">
        <path id="Path_11145" data-name="Path 11145" d="M170.575,625.489a1.309,1.309,0,0,1-.859.286,1.078,1.078,0,0,1-1.191-1.184v-2.46H167.8v-.464h.727v-.89h.549v.89h1.238v.464h-1.238v2.429a.652.652,0,0,0,.7.743.908.908,0,0,0,.6-.209Z" transform="translate(-167.798 -620.778)"/>
      </g>
      <g id="Group_418" data-name="Group 418" transform="translate(8.517 0)" style="isolation: isolate">
        <path id="Path_11146" data-name="Path 11146" d="M213.45,634.115h-3.4a1.506,1.506,0,0,0,1.6,1.416,1.6,1.6,0,0,0,1.245-.534l.309.356a2.151,2.151,0,0,1-3.706-1.408,1.96,1.96,0,0,1,1.988-2.065,1.939,1.939,0,0,1,1.973,2.065C213.458,633.991,213.45,634.053,213.45,634.115Zm-3.4-.41h2.885a1.446,1.446,0,0,0-2.885,0Z" transform="translate(-209.497 -630.239)"/>
        <path id="Path_11147" data-name="Path 11147" d="M273.849,634.115h-3.4a1.506,1.506,0,0,0,1.6,1.416,1.6,1.6,0,0,0,1.246-.534l.309.356a2.151,2.151,0,0,1-3.706-1.408,1.96,1.96,0,0,1,1.988-2.065,1.939,1.939,0,0,1,1.973,2.065C273.857,633.991,273.849,634.053,273.849,634.115Zm-3.4-.41h2.886a1.446,1.446,0,0,0-2.886,0Z" transform="translate(-265.224 -630.239)"/>
        <path id="Path_11148" data-name="Path 11148" d="M339.339,633.62v2.359h-.549v-2.305a1.136,1.136,0,0,0-1.222-1.3,1.334,1.334,0,0,0-1.423,1.47v2.135H335.6V631.91h.526v.75a1.71,1.71,0,0,1,1.547-.781A1.558,1.558,0,0,1,339.339,633.62Z" transform="translate(-325.841 -630.239)"/>
        <path id="Path_11149" data-name="Path 11149" d="M397.871,625.489a1.308,1.308,0,0,1-.859.286,1.078,1.078,0,0,1-1.191-1.184v-2.46h-.727v-.464h.727v-.89h.549v.89h1.238v.464H396.37v2.429a.652.652,0,0,0,.7.743.908.908,0,0,0,.6-.209Z" transform="translate(-380.737 -619.997)"/>
        <path id="Path_11150" data-name="Path 11150" d="M442.9,633.457v2.522h-.526v-.634a1.528,1.528,0,0,1-1.4.673c-.921,0-1.485-.48-1.485-1.184,0-.627.4-1.153,1.57-1.153h1.292v-.248c0-.7-.395-1.075-1.153-1.075a2.073,2.073,0,0,0-1.354.48l-.248-.41a2.584,2.584,0,0,1,1.656-.549A1.445,1.445,0,0,1,442.9,633.457Zm-.549,1.3v-.665h-1.276c-.789,0-1.044.309-1.044.727,0,.472.379.766,1.029.766A1.3,1.3,0,0,0,442.355,634.757Z" transform="translate(-421.702 -630.239)"/>
        <path id="Path_11151" data-name="Path 11151" d="M502.892,610.678h.549v5.74h-.549Z" transform="translate(-480.196 -610.678)"/>
      </g>
      <g id="Group_419" data-name="Group 419" transform="translate(33.293 0)" style="isolation: isolate">
        <path id="Path_11152" data-name="Path 11152" d="M531.3,614.376l-.959.882v1.16h-.549v-5.74h.549v3.891l2.429-2.22h.681l-1.741,1.663,1.9,2.406h-.673Z" transform="translate(-529.792 -610.678)"/>
      </g>
      <g id="Group_420" data-name="Group 420" transform="translate(37.261 1.64)" style="isolation: isolate">
        <path id="Path_11153" data-name="Path 11153" d="M581.092,635.515l.248-.433a2.458,2.458,0,0,0,1.447.456c.774,0,1.091-.263,1.091-.665,0-1.06-2.638-.224-2.638-1.833,0-.665.572-1.16,1.609-1.16a2.756,2.756,0,0,1,1.439.379l-.24.441a2.086,2.086,0,0,0-1.2-.348c-.735,0-1.06.286-1.06.673,0,1.1,2.638.271,2.638,1.833,0,.7-.619,1.16-1.679,1.16A2.718,2.718,0,0,1,581.092,635.515Z" transform="translate(-581.092 -631.879)"/>
      </g>
    </g>
  </g>
</svg>
