<svg xmlns="http://www.w3.org/2000/svg" width="1920.344" height="983.768" viewBox="0 0 1920.344 983.768">
  <path id="bg" d="M296.551,311.439c-36.663,14.727-76.611,32.371-90.591,64.492-30.162,69.188,81.958,133.431,70.25,206.318-10,62.749-99.329,88.468-149.1,135.6C87.618,755.272,73.6,810.587,91.463,858.36S158.6,944.587,216.48,956.148c91.115,18.177,196.6-25.541,276.107,16.114,58.332,30.628,80.7,98.393,143.016,122.795,66.965,26.217,143.61-9.889,203.41-46.244s130.854-76.836,201.488-58.658c68.118,17.5,111.317,85.586,182.475,88.468s120.788-61.4,189.36-78.259c69.691-17.217,141.129,17.288,212.987,26.252,104.187,12.984,215.189-34.327,264.364-112.728,12.931-20.667,21.809-42.9,30.616-65.026q21.495-53.963,42.954-107.855c19.817-49.8,39.808-100.385,40.857-152.96,1.4-70.113-33.2-140.225-93.177-188.888S1766.418,324,1683.236,327.8c-36.872,1.672-80.385,7.114-104.85-16.221-35.195-33.26,5.278-86.583-7.829-129.732-10.485-34.185-54.278-55.137-96.183-56.6s-82.2,12.308-120.613,26.395S1276,180.782,1234.126,182.1c-68.608,2.17-130.19-32.015-195.022-51.224s-152.8-15.367-182.615,36.675c-18.8,32.8-10.708,35.145-49.678,50.9-38.061,15.367-79.568,28.742-104.418,0-18.139-20.952-48.336-52.718-83.112-46.813-24.465,4.162-56.2,32.548-79.512,42.4C459.454,247.765,377.53,279.032,296.551,311.439Z" transform="translate(-83.811 -120.254)" fill="rgba(226,238,255,0.5)"/>
</svg>
