<svg xmlns="http://www.w3.org/2000/svg" xmlns:xlink="http://www.w3.org/1999/xlink" width="192.034" height="208.734" viewBox="0 0 192.034 208.734">
  <defs>
    <linearGradient id="linear-gradient" y1="0.5" x2="1" y2="0.5" gradientUnits="objectBoundingBox">
      <stop offset="0" stop-color="#3ddeed"/>
      <stop offset="1" stop-color="#3ddeed" stop-opacity="0"/>
    </linearGradient>
  </defs>
  <g id="blue_character" data-name="blue character" transform="matrix(0.966, -0.259, 0.259, 0.966, -0.035, 39.3)">
    <g id="body" transform="translate(0 0)">
      <g id="main_body" data-name="main body" transform="translate(0 0.135)">
        <path id="Path_9979" data-name="Path 9979" d="M1.987,104.971C.834,111.62-2.779,128.8,4.062,143.289c7.341,15.45,25.327,28.095,32.207,30.285s68.757,2.152,72.369.538c6.226-.346,16.949-7.533,24.943-14.951a64.148,64.148,0,0,0,11.069-14.451,75.848,75.848,0,0,0,6.995-36.973c-1.076-13.605-12.26-27.1-15.373-31.63C134,72.764,125.011,65.193,121.936,61.042c-.038-.077-1.422-2.46.077-4.5.961-1.345,4.689-2.537,5.457-2.921s7.61-3.036,11.491-7.072c3.19-3.305,5.8-11.837,5.88-12.183C147.532,23.532,142.19,11.195,133,4.776S109.83-1.68,100.529,5.2a20.293,20.293,0,0,0-6.111,6.918c-.769,1.46-3.92,5.88-4.3,11.261-.5,6.995,2.075,15.335,4.266,18.217,1.537,2.037,7.533,7.763,7.917,9.877s.538,2.075-1.153,3.5c-2.652,2.191-28.4-.922-33.321-7.763-.961-1.345-1.691-3.267-.576-4.5s3-.769,4.574-1.115c3.344-.73,4.727-4.689,5.15-8.071.577-4.5.423-9.378-2.268-12.99a15.336,15.336,0,0,0-8.417-5.188c-6.341-1.653-13.682-.538-18.371,4S40.842,33.6,45.032,38.636a15.211,15.211,0,0,0,6.457,4.881c2.844.922,6.726-.154,7.494.154,1.806.73,1.307,2.806.807,3.882s-4.3,3.766-5.5,4.65C50.6,54.97,27.583,63.464,17.59,72.918,3.793,85.985,2.717,100.9,1.987,104.971Z" transform="translate(0 0)" fill="#2988e7"/>
      </g>
      <g id="main_body-2" data-name="main body" transform="translate(0.766 0)" opacity="0.39">
        <path id="Path_9980" data-name="Path 9980" d="M1.22,104.953C-1.2,118.712-.164,133.278,5.64,145.961S22.2,169.328,35.5,173.594c6.341,2.037,68.757,2.114,72.369.5,6.226-.346,16.949-7.533,24.943-14.912a65.01,65.01,0,0,0,11.069-14.451,75.916,75.916,0,0,0,6.995-37.011C149.8,94.114,138.618,80.663,135.5,76.128c-2.268-3.382-11.261-10.953-14.335-15.066-.038-.115-1.422-2.5.077-4.535.961-1.307,4.689-2.5,5.457-2.882s7.61-3.036,11.491-7.11c3.19-3.305,5.8-11.837,5.88-12.183,2.69-10.838-2.652-23.175-11.837-29.593s-23.175-6.418-32.476.461a20.293,20.293,0,0,0-6.111,6.918c-.769,1.422-3.92,5.842-4.3,11.261-.5,6.995,2.075,15.335,4.266,18.217,1.537,2,7.533,7.725,7.917,9.839s.538,2.075-1.153,3.5c-2.652,2.191-28.4-.922-33.321-7.763-.961-1.307-1.691-3.267-.576-4.458s3-.807,4.574-1.153c3.344-.692,4.727-4.689,5.15-8.071.576-4.458.423-9.378-2.268-12.99a15.064,15.064,0,0,0-8.417-5.15c-6.341-1.691-13.682-.576-18.371,3.959s-7.072,14.3-2.882,19.332c.423.5,2.959,3.69,6.457,4.843,2.844.922,6.726-.115,7.494.154,1.806.73,1.307,2.806.807,3.882s-4.3,3.766-5.5,4.689c-3.69,2.729-26.711,11.261-36.7,20.715C3.026,86.005,1.95,100.879,1.22,104.953Z" transform="translate(0)" fill="url(#linear-gradient)"/>
      </g>
      <g id="highlight" transform="translate(69.783 64.879)">
        <path id="Path_9981" data-name="Path 9981" d="M.806,3.178A43.007,43.007,0,0,1,22.674.372C38.586,2.447,52.191,13.4,61.569,26.43a38.168,38.168,0,0,1,4.881,8.378A24.6,24.6,0,0,1,65.6,54.447c-1.46,2.959-3.882,5.88-7.187,6.3A9.9,9.9,0,0,1,53,59.6a41.627,41.627,0,0,1-6.418-4.151c-1.422-1.038,1.422-12.3-7.687-20.984C28.439,24.431,5.764,16.552,2.266,11.518.806,9.365-.693,6.713.345,4.331" transform="translate(0 0)" fill="#60b3ec"/>
      </g>
      <g id="highlight-2" data-name="highlight" transform="translate(98.6 73.393)">
        <path id="Path_9982" data-name="Path 9982" d="M.425.083A16.832,16.832,0,0,1,9.841,1.7c2.844,1.537,5.112,4.381,5.227,7.571a1.038,1.038,0,0,1-.077.5.769.769,0,0,1-.576.307c-1.576.269-3.075-.692-4.381-1.614L.655,1.851A1.422,1.422,0,0,1,0,1.082.884.884,0,0,1,.694.16a1.768,1.768,0,0,1,1.23.269" transform="translate(0.581 0.576)" fill="#fff"/>
        <path id="Path_9983" data-name="Path 9983" d="M1.006,1.235c4.535-.346,9.685.5,12.529,4.42a8.341,8.341,0,0,1,1.307,2.69,3.958,3.958,0,0,1,.231,1.5c.038-.269-.038.231,0,.154s-.307.115-.423.115a2.767,2.767,0,0,1-.961-.077A10.407,10.407,0,0,1,10.5,8.269L7.155,5.886,3.389,3.272c-.615-.461-1.268-.884-1.845-1.345s-.538-.346-.269-.538A.893.893,0,0,1,2.2,1.5c.231.154,1.268-.653.615-1a2.079,2.079,0,0,0-2-.192A1.422,1.422,0,0,0,.007,1.735c.154.73.846,1.115,1.422,1.537l2,1.422L7.655,7.654c1.307.922,2.613,1.96,4,2.767a6.765,6.765,0,0,0,2.075.769A2.752,2.752,0,0,0,15.649,11a1.71,1.71,0,0,0,.5-1.768,7.227,7.227,0,0,0-.384-1.806,10.646,10.646,0,0,0-5.035-5.65A17.317,17.317,0,0,0,1.006.082C.276.121.276,1.274,1.006,1.235Z" transform="translate(0 0)" fill="#fff"/>
      </g>
      <g id="highlight-3" data-name="highlight" transform="translate(121.469 86.619)">
        <path id="Path_9984" data-name="Path 9984" d="M2.088,3.584A5.189,5.189,0,0,1,.051.855a1.115,1.115,0,0,1-.038-.5A.653.653,0,0,1,.7.009a1.807,1.807,0,0,1,.769.384L5.047,2.969a6,6,0,0,1,1.076.884,3.305,3.305,0,0,1,.807,1.96.846.846,0,0,1-.077.423.769.769,0,0,1-.423.231c-.73.077-1.307-.5-1.845-.961S1.819,3.776,1.435,3.084" transform="translate(0.185 0.184)" fill="#fff"/>
        <path id="Path_9985" data-name="Path 9985" d="M2.35,3.614A5.112,5.112,0,0,1,1,2.231a5.8,5.8,0,0,1-.423-.846C.467,1.116.236.655.544.463s.615,0,.846.154l.961.692L4.272,2.692A13.106,13.106,0,0,1,6.116,4.114a3,3,0,0,1,.807,1.845c0,.154,0,.346-.154.423a.884.884,0,0,1-.461.077,2.191,2.191,0,0,1-.846-.423,14.023,14.023,0,0,0-1.191-.922l-1.422-1a3.228,3.228,0,0,1-1.076-.961c-.115-.192-.461,0-.307.192a3.652,3.652,0,0,0,1.038,1L4.079,5.42c.538.384.961.846,1.5,1.153s1.46.5,1.691-.231a1.922,1.922,0,0,0-.077-1.038,3.19,3.19,0,0,0-.461-1.038A7.336,7.336,0,0,0,4.81,2.576L2.465.924A5.724,5.724,0,0,0,1.351.155,1,1,0,0,0,.428.078C-.417.424.2,1.539.505,2.115A5.418,5.418,0,0,0,2.158,3.96c.192.115.384-.192.192-.346Z" transform="translate(0 0)" fill="#fff"/>
      </g>
      <path id="hightlight" d="M0,0S29.786,29.786,59.379,40.124c31.131,10.877,50.539,8.84,50.539,8.84L77.4,50.194l-9.993-.231H56.035s-15.6,1.5-29.363-6.149S4,18.448,2.5,11.914Z" transform="translate(0.334 124.784)" fill="#2988e7"/>
      <ellipse id="hightlight-2" data-name="hightlight" cx="2.306" cy="12.222" rx="2.306" ry="12.222" transform="translate(36.49 169.66) rotate(-79)" fill="#93e0f6"/>
      <ellipse id="hightlight-3" data-name="hightlight" cx="1.967" cy="3.394" rx="1.967" ry="3.394" transform="translate(25.617 161.887) rotate(-60.113)" fill="#93e0f6"/>
      <path id="hightlight-4" data-name="hightlight" d="M.227.066c2.729,3.267,12.26,13.029,24.1,9.493,0,0-9.3,4.42-14.374,2.344A21.932,21.932,0,0,1,1.764,5.677C.073,3.294-.311-.549.227.066Z" transform="translate(44.113 30.365)" fill="#60b3ec"/>
      <g id="hightlight-5" data-name="hightlight" transform="translate(53.261 18.097)">
        <path id="Path_9986" data-name="Path 9986" d="M5.107,7.684C4.3,7.53,3.493,7.607,2.686,7.53A3.267,3.267,0,0,1,.533,6.493,3.732,3.732,0,0,1,.418,2.841,4.381,4.381,0,0,1,1.11,1.688,4.189,4.189,0,0,1,2.57.728C5.376-.425,8.489.036,11.448.459a7.187,7.187,0,0,1,2.69.73A8.324,8.324,0,0,1,16.56,3.918a9.623,9.623,0,0,1,1.614,3.267A3.5,3.5,0,0,1,18.1,9.26a3.574,3.574,0,0,1-1.384,1.614,3.421,3.421,0,0,1-2.46.653c-1.5-.269-2.383-1.922-3.728-2.729a6.227,6.227,0,0,0-1.845-.653A33.246,33.246,0,0,0,5.376,7.53" transform="translate(0 0)" fill="#39aef3"/>
      </g>
      <g id="hightlight-6" data-name="hightlight" transform="translate(55.024 18.616)">
        <path id="Path_9987" data-name="Path 9987" d="M.384.733A13.518,13.518,0,0,1,6.572.079,4.736,4.736,0,0,1,9.185.848,45.813,45.813,0,0,1,0,1.078" transform="translate(0.192 0.206)" fill="#fff"/>
        <path id="Path_9988" data-name="Path 9988" d="M.653,1.131A11.683,11.683,0,0,1,5.112.4L7.3.516a3.728,3.728,0,0,1,1.922.653L9.378.861a45.812,45.812,0,0,1-9.185.231.192.192,0,0,0,0,.384,45.812,45.812,0,0,0,9.185-.231c.115-.038.269-.231.115-.346A4.189,4.189,0,0,0,7.571.17,15.141,15.141,0,0,0,5.265.016,11.722,11.722,0,0,0,.538.746c-.231.115-.115.461.115.384Z" transform="translate(0 0)" fill="#fff"/>
      </g>
      <g id="hightlight-7" data-name="hightlight" transform="translate(65.923 19.341)">
        <path id="Path_9989" data-name="Path 9989" d="M.209.367a3.036,3.036,0,0,1,1.46.961L1.823.982A2.575,2.575,0,0,1,.324.136C.247.021.132.06.055.136a.192.192,0,0,0,0,.269,2.883,2.883,0,0,0,1.691.961c.077,0,.154,0,.192-.077a.192.192,0,0,0,0-.231A3.19,3.19,0,0,0,.324.021.154.154,0,0,0,.093.136C.055.252.132.367.209.367Z" transform="translate(0 0)" fill="#fff"/>
      </g>
      <g id="hightlight-8" data-name="hightlight" transform="translate(115.589 5.623)">
        <path id="Path_9990" data-name="Path 9990" d="M1.043.864a3.518,3.518,0,0,0-.922,3.5c.115.5,1.614,1.806,3.5,3.421,2.729,2.306,6.226,5.188,7.571,7.072.73,1.038,4.151,5.88,5.073,8.378,1.345,3.459,4,6.918,5.65,6.534s3.382-2.421,3.8-4.42a13.612,13.612,0,0,0-.461-6.072c-1.345-5.5-3.69-10.953-7.84-14.8S6.309-1.212,1.043.864" transform="translate(0 0)" fill="#3aadf7"/>
      </g>
      <g id="hightlight-9" data-name="hightlight" transform="translate(116.017 6.335)">
        <path id="Path_9991" data-name="Path 9991" d="M.584.842A16.257,16.257,0,0,1,9.577.458,10.953,10.953,0,0,1,12.46,1.572a13.913,13.913,0,0,1,1.46,1A18.755,18.755,0,0,1,16.88,5.108a6.534,6.534,0,0,1,1.768,3.421,1.038,1.038,0,0,1-.192.884.692.692,0,0,1-.538.231A2.421,2.421,0,0,1,15.8,8.721a11.8,11.8,0,0,1-1.345-1.96,11.146,11.146,0,0,0-5.611-4.3,10.877,10.877,0,0,0-7.072.038c-.538.192-1.23.384-1.614,0S.123,1.188.738.919" transform="translate(0.223 0.194)" fill="#fff"/>
        <path id="Path_9992" data-name="Path 9992" d="M.846,1.228A15.911,15.911,0,0,1,10.223.959a11.377,11.377,0,0,1,2.152.846,13.608,13.608,0,0,1,1.96,1.345A14.485,14.485,0,0,1,17.679,6.3a6.418,6.418,0,0,1,.884,1.96A1.921,1.921,0,0,1,18.64,9.3c-.115.384-.615.384-.922.346-1.537-.154-2.229-1.845-3-2.959A11.223,11.223,0,0,0,8.071,2.151a11.607,11.607,0,0,0-4.458-.077L2.46,2.343l-1,.307a1,1,0,0,1-.884-.038.577.577,0,0,1-.115-.73,1.268,1.268,0,0,1,.576-.615c.231-.115.038-.423-.192-.307A1.5,1.5,0,0,0,0,2.3a1.008,1.008,0,0,0,1.307.769,6.609,6.609,0,0,0,1.076-.307l1.191-.307A10.569,10.569,0,0,1,14.028,6.417c.922,1.153,1.5,2.806,2.959,3.459.576.231,1.46.346,1.883-.192s.115-1.46-.077-2a8.993,8.993,0,0,0-2.806-3.728,18.869,18.869,0,0,0-1.96-1.5,8.956,8.956,0,0,0-2.152-1.307A14.336,14.336,0,0,0,6.995.037,15.911,15.911,0,0,0,1.96.5L.769.883C.538.959.615,1.305.846,1.228Z" transform="translate(0 0)" fill="#fff"/>
      </g>
      <g id="hightlight-10" data-name="hightlight" transform="translate(136.085 17.241)">
        <path id="Path_9993" data-name="Path 9993" d="M.456.231A4.5,4.5,0,0,1,2.8,4.3c0,.154,0,.307-.115.384a.423.423,0,0,1-.576-.038,1.575,1.575,0,0,1-.269-.576,4.574,4.574,0,0,0-.769-1.96,9.6,9.6,0,0,1-.846-.922A.983.983,0,0,1,.187,0" transform="translate(0 0.2)" fill="#fff"/>
        <path id="Path_9994" data-name="Path 9994" d="M.332.584A4.535,4.535,0,0,1,2.562,3.7c0,.154.038.307.038.461a2.192,2.192,0,0,1,0,.5c-.077.231-.307.115-.423,0a2.5,2.5,0,0,1-.154-.5A5.188,5.188,0,0,0,1.216,2.2C.986,1.891.64,1.66.409,1.353A.884.884,0,0,1,.332.315C.486.161.217-.108.063.046a2.459,2.459,0,0,0,.461,1.96A4.075,4.075,0,0,1,1.332,3.2c.154.423.231.846.384,1.268a.846.846,0,0,0,.73.73c.384,0,.538-.346.538-.692A4.728,4.728,0,0,0,2.446,2.2,4.881,4.881,0,0,0,.525.276C.294.161.1.469.332.584Z" transform="translate(0.008 0)" fill="#fff"/>
      </g>
      <path id="hightlight-11" data-name="hightlight" d="M.022,0s23.29,22.637,43.2,13.913c0,0-7.072,7.879-19.87,4.42A49.843,49.843,0,0,1,2.789,7.11S-.286,2.191.022,0Z" transform="translate(92.244 34.505)" fill="#50adee"/>
      <g id="body_left" data-name="body left" transform="translate(4.773 56.258)">
        <g id="circle_outside" data-name="circle outside" transform="translate(0 0)">
          <path id="Path_9995" data-name="Path 9995" d="M9.281.115A10.09,10.09,0,0,0,.019,10.454,12.145,12.145,0,0,0,2.594,16.8a13.171,13.171,0,0,0,8.686,5.15A11.243,11.243,0,0,0,22.733,15.1a10.855,10.855,0,0,0-4-12.644C15.892.615,12.433.307,9.089,0" fill="#2988e7"/>
        </g>
        <g id="hightlight-12" data-name="hightlight" transform="translate(8.282 2.643)">
          <path id="Path_9996" data-name="Path 9996" d="M.192.547a11.8,11.8,0,0,1,4-.538A4.62,4.62,0,0,1,7.648,1.815a6.235,6.235,0,0,1,.807,3.8,3.036,3.036,0,0,1-.192,1.153A2.394,2.394,0,0,1,5.688,7.849a6.226,6.226,0,0,1-4-2.46A9.57,9.57,0,0,1,0,.969" transform="translate(0 0)" fill="#60b3ec"/>
        </g>
        <g id="hightlight-13" data-name="hightlight" transform="translate(8.683 3.206)">
          <path id="Path_9997" data-name="Path 9997" d="M.115.329A13.606,13.606,0,0,1,3.843.021,3.728,3.728,0,0,1,5.15.252,4.18,4.18,0,0,1,6.61,1.635a2.191,2.191,0,0,1-1.076-.307A10.683,10.683,0,0,0,3.613.905L0,.405" transform="translate(0.175 0.193)" fill="#fff"/>
          <path id="Path_9998" data-name="Path 9998" d="M.329.714A12.913,12.913,0,0,1,3.98.406,2.844,2.844,0,0,1,5.556.791,4.958,4.958,0,0,1,6.593,1.944l.192-.307a5.454,5.454,0,0,1-1.537-.461A10.377,10.377,0,0,0,3.672.906L.252.406C-.017.368-.094.752.137.791l3.5.5a11.8,11.8,0,0,1,1.614.269,5.1,5.1,0,0,0,1.537.461c.576,0,.231-.154.154-.269A5.3,5.3,0,0,0,5.863.56,3,3,0,0,0,4.249.022,15.756,15.756,0,0,0,.213.329C-.017.406.1.752.329.714Z" transform="translate(0 0)" fill="#fff"/>
        </g>
        <path id="hightlight-14" data-name="hightlight" d="M0,0S5.15,9.993,7.11,10.262C7.11,10.262.154,6.918,0,0Z" transform="translate(0.634 9.954)" fill="#60b3ec"/>
      </g>
      <g id="body_right" data-name="body right" transform="translate(139.461 54.375)">
        <ellipse id="Ellipse_108" data-name="Ellipse 108" cx="11.146" cy="11.837" rx="11.146" ry="11.837" fill="#2988e7"/>
        <g id="hightlight-15" data-name="hightlight" transform="translate(5.647 2.741)">
          <path id="Path_9999" data-name="Path 9999" d="M0,1.857A12.8,12.8,0,0,1,7.187.012a7.455,7.455,0,0,1,2.729.5c2.46,1,3.92,3.69,4.189,6.341a2.344,2.344,0,0,1-.115,1.153,1.038,1.038,0,0,1-.884.653,1.345,1.345,0,0,1-.769-.461C10.953,6.814,10.492,4.547,8.8,3.624A6.456,6.456,0,0,0,6.072,3.01L1.96,2.779C1.23,2.7.307,2.51.154,1.78" transform="translate(0.195 0.207)" fill="#3db0f4"/>
          <path id="Path_10000" data-name="Path 10000" d="M.272,2.255A12.837,12.837,0,0,1,7.651.411a6.611,6.611,0,0,1,3.5,1.115,7.149,7.149,0,0,1,2.037,2.383,8.88,8.88,0,0,1,.922,3.075c.038.577.077,1.422-.576,1.653s-1.038-.5-1.307-.884c-1.191-1.576-1.768-3.766-3.843-4.42a12.724,12.724,0,0,0-2.114-.307L3.885,2.87a20.254,20.254,0,0,1-2.152-.154C1.233,2.64.656,2.486.541,1.948a.192.192,0,1,0-.346.077C.387,3.139,1.886,3.139,2.732,3.216l2.421.115c.692.077,1.422.077,2.114.192a4.189,4.189,0,0,1,1.922.615,5.113,5.113,0,0,1,1.076,1.153c.615.884,1.038,1.922,1.691,2.767s.73.922,1.268.961A1.153,1.153,0,0,0,14.415,8.1a3.459,3.459,0,0,0-.038-1.768,6.226,6.226,0,0,0-.461-1.653,7.955,7.955,0,0,0-1.806-2.844A6.265,6.265,0,0,0,8.958.18,12.837,12.837,0,0,0,.08,1.909c-.192.115,0,.461.192.346Z" transform="translate(0 0)" fill="#3db0f4"/>
        </g>
        <g id="hightlight-16" data-name="hightlight" transform="translate(9.914 2.339)">
          <path id="Path_10001" data-name="Path 10001" d="M1.116.159A10.185,10.185,0,0,1,6.189.543C7.65,1.12,8.611,2.042,8.726,3a.538.538,0,0,1-.5.615,1.114,1.114,0,0,1-.846-.269,1.613,1.613,0,0,1-.154-.577A2.44,2.44,0,0,0,5.421,1.389,16.209,16.209,0,0,0,1.654,1.12,4.726,4.726,0,0,1,.617,1.043C.309.966.04.812,0,.62S.578.082,1.039.2" transform="translate(0 0)" fill="#f5fff7"/>
        </g>
        <path id="Path_10002" data-name="Path 10002" d="M0,0S5.458,7.571,14.835,5.88A10.069,10.069,0,0,1,4.8,5.8,12.757,12.757,0,0,1,0,0Z" transform="translate(1.422 15.219)" fill="#3db0f4"/>
      </g>
    </g>
    <g id="face" transform="translate(30.235 75.936)">
      <g id="cheek" transform="translate(0 43.007)">
        <ellipse id="pink_cheek" data-name="pink cheek" cx="8.878" cy="5.15" rx="8.878" ry="5.15" transform="translate(0 0)" fill="#d78bca"/>
        <ellipse id="pink_cheek-2" data-name="pink cheek" cx="8.878" cy="5.15" rx="8.878" ry="5.15" transform="translate(70.332 0)" fill="#d78bca"/>
      </g>
      <g id="eye_left" data-name="eye left" transform="translate(12.99 0.038)">
        <ellipse id="Ellipse_109" data-name="Ellipse 109" cx="9.301" cy="19.409" rx="9.301" ry="19.409" transform="translate(0 0)" fill="#125d9b" stroke="#254252" stroke-miterlimit="10" stroke-width="1"/>
        <ellipse id="Ellipse_110" data-name="Ellipse 110" cx="8.263" cy="15.796" rx="8.263" ry="15.796" transform="translate(2.075 0)" fill="#0f3656" stroke="#254252" stroke-miterlimit="10" stroke-width="1"/>
        <ellipse id="Ellipse_111" data-name="Ellipse 111" cx="2.575" cy="3.574" rx="2.575" ry="3.574" transform="translate(10.338 6.88)" fill="#fff"/>
        <ellipse id="Ellipse_112" data-name="Ellipse 112" cx="2.306" cy="1.922" rx="2.306" ry="1.922" transform="translate(5.727 30.055)" fill="#fff"/>
      </g>
      <g id="eye_right" data-name="eye right" transform="translate(54.882 0)">
        <ellipse id="Ellipse_113" data-name="Ellipse 113" cx="9.301" cy="19.409" rx="9.301" ry="19.409" transform="translate(0 0)" fill="#125d9b" stroke="#254252" stroke-miterlimit="10" stroke-width="1"/>
        <ellipse id="Ellipse_114" data-name="Ellipse 114" cx="8.263" cy="15.796" rx="8.263" ry="15.796" transform="translate(2.075 0)" fill="#0f3656" stroke="#254252" stroke-miterlimit="10" stroke-width="1"/>
        <ellipse id="Ellipse_115" data-name="Ellipse 115" cx="2.575" cy="3.574" rx="2.575" ry="3.574" transform="translate(10.338 6.88)" fill="#fff"/>
        <ellipse id="Ellipse_116" data-name="Ellipse 116" cx="2.306" cy="1.922" rx="2.306" ry="1.922" transform="translate(5.727 30.055)" fill="#fff"/>
      </g>
      <g id="mouth" transform="translate(30.939 57.772)">
        <path id="Path_10003" data-name="Path 10003" d="M0,.916A14.475,14.475,0,0,0,7.956,9.486,12.944,12.944,0,0,0,20.331,7.18a9.954,9.954,0,0,0,3.421-5.842.807.807,0,0,0-.538-.961.807.807,0,0,0-.961.538,10.076,10.076,0,0,1-.346,1.46l-.115.307a.154.154,0,0,0-.038.115v.077l-.346.653-.346.577-.154.231-.115.192c-.038,0-.154.192-.077.077a10.954,10.954,0,0,1-.884,1l-.461.423-.269.231-.115.077-.077.077a10.3,10.3,0,0,1-1.076.692l-1.384.73c.115-.077-.154.038-.115.038l-.154.077-.346.115-.807.231-.73.192-.307.077h-.384a9.842,9.842,0,0,1-1.5.115H10.684a10.531,10.531,0,0,1-1.5-.346L8.494,8.1,8.34,8.026c-.038,0-.192-.077-.038,0l-.307-.154a8.108,8.108,0,0,1-1.153-.615L6.3,6.911l-.231-.154-.154-.115-.077-.077c.038.038.038.077,0,.038L4.8,5.681a13.759,13.759,0,0,1-1-1.115L3.69,4.451,3.574,4.3c.077.115-.077-.077-.077-.077l-.115-.192-.423-.615a10.413,10.413,0,0,1-.807-1.422l-.346-.769c-.038,0-.077-.115-.038,0A.538.538,0,0,0,1.691.993C1.653.839,1.576.723,1.537.57A.769.769,0,0,0,.577.032.807.807,0,0,0,.038.992Z" transform="translate(0 0)" fill="#254252"/>
      </g>
    </g>
  </g>
</svg>
