<svg xmlns="http://www.w3.org/2000/svg" xmlns:xlink="http://www.w3.org/1999/xlink" width="1689" height="1147.798" viewBox="0 0 1689 1147.798">
  <defs>
    <filter id="Path_346" x="0" y="0" width="1689" height="875.633" filterUnits="userSpaceOnUse">
      <feOffset dy="10" input="SourceAlpha"/>
      <feGaussianBlur stdDeviation="8" result="blur"/>
      <feFlood flood-opacity="0.161"/>
      <feComposite operator="in" in2="blur"/>
      <feComposite in="SourceGraphic"/>
    </filter>
    <filter id="Path_345" x="778.994" y="628.654" width="442.206" height="443.467" filterUnits="userSpaceOnUse">
      <feOffset dy="10" input="SourceAlpha"/>
      <feGaussianBlur stdDeviation="8" result="blur-2"/>
      <feFlood flood-opacity="0.161"/>
      <feComposite operator="in" in2="blur-2"/>
      <feComposite in="SourceGraphic"/>
    </filter>
  </defs>
  <g id="Group_195" data-name="Group 195" transform="translate(-104.523 -6883.5)">
    <g transform="matrix(1, 0, 0, 1, 104.52, 6883.5)" filter="url(#Path_346)">
      <path id="Path_346-2" data-name="Path 346" d="M22.808,0H1618.192C1630.788,0,1641,8.334,1641,18.615v790.4c0,10.28-10.211,18.615-22.808,18.615H22.808C10.211,827.633,0,819.3,0,809.018V18.615C0,8.334,10.211,0,22.808,0Z" transform="translate(24 14)" fill="#f5f5f5"/>
    </g>
    <g transform="matrix(1, 0, 0, 1, 104.52, 6883.5)" filter="url(#Path_345)">
      <path id="Path_345-2" data-name="Path 345" d="M0,0S20.429,205.459,139.282,304.794c-29.05-124.938,2.322-168.951,114.392-59.824" transform="matrix(0.72, -0.69, 0.69, 0.72, 802.99, 818.87)" fill="#f5f5f5"/>
    </g>
    <g id="body" transform="translate(1695.518 8031.35) rotate(-171)">
      <g id="main_body" data-name="main body" transform="translate(0.335 0)">
        <path id="Path_10036" data-name="Path 10036" d="M210.207,399.48c-42.338-7.587-83.7-22.148-119.061-46.5s-64.486-58.735-78.313-99.36C2.431,223.4.6,190.971.107,159.034c-.367-20.313-.122-41.115,6.363-60.326C16.748,67.872,42.322,43.889,71.445,29.45S132.995,9.015,165.3,5.221A803,803,0,0,1,268.208.082c55.431.979,116.124,10.523,153.078,52,22.515,25.452,32.916,59.959,33.773,93.976s-7.1,67.545-17.621,99.85c-15.051,46.5-37.444,93.731-78.436,120.162-20.924,13.582-45.275,20.557-69.258,27.41-36.832,10.646-76.967,6.852-92.875,3.3" transform="translate(0 0)" fill="#d93b39"/>
      </g>
      <g id="main_body-2" data-name="main body" transform="translate(0.335 0.328)">
        <path id="Path_10037" data-name="Path 10037" d="M210.207,399.52c-42.338-7.587-83.7-22.148-119.061-46.5S26.66,294.164,12.832,253.539C2.431,223.437.6,191.01.107,159.073c-.367-20.312-.122-41.115,6.363-60.326C16.748,67.912,42.322,43.928,71.445,29.367S132.995,9.054,165.3,5.261A760.849,760.849,0,0,1,268.208.121c55.431.979,116.124,10.523,153.078,52.005C443.8,77.578,454.2,112.085,455.058,146.1s-7.1,67.545-17.621,99.85c-15.051,46.5-37.444,93.731-78.436,120.162-20.924,13.46-45.275,20.557-69.258,27.41-36.832,10.646-76.967,6.73-92.875,3.181" transform="translate(0 0)" fill="#c2222d"/>
      </g>
      <path id="shadow" d="M0,122.413s33.406-49.68,125.791-79.292C190.032,22.441,282.54,3.474,412.124,51.2c0,0-6.485-32.916-111.229-47.722C241.058-4.846,129.584.9,65.343,30.272,17.131,52.42,7.342,92.923,0,122.413Z" transform="translate(3.011 2.726)" fill="#a82443"/>
      <g id="Highlight" transform="translate(174.348 157.543)">
        <path id="Path_10038" data-name="Path 10038" d="M78.654,94.243a99.115,99.115,0,0,1-30.836,31.692c-9.055,5.873-19.211,10.279-28.144,16.4S2.788,157.138.586,167.784c-3.059,14.684,6.241,29.979,19.089,37.811s28.633,9.3,43.807,8.933A190.032,190.032,0,0,0,239.2,81.762c3.671-11.869,6.241-24.351,5.262-36.709s-5.873-24.84-15.173-33.161A49.557,49.557,0,0,0,210.441,2.1C188.9-3.771,165.411,3.2,147.3,16.3s-31.693,31.448-43.684,50.292A84.431,84.431,0,0,1,80.49,91.429" transform="translate(0 0)" fill="#e07c7c"/>
        <path id="Path_10039" data-name="Path 10039" d="M2.7,54.11c-4.038-3.916-3.181-10.89.122-15.418s8.566-6.975,13.582-9.422C30.848,22.295,45.532,15.2,61.439,12.75c6.73-.979,13.7-1.224,20.19-3.3S96.191,1.86,104.144.269a4.65,4.65,0,0,1,3.426.122,3.916,3.916,0,0,1,1.591,4.527A11.992,11.992,0,0,1,106.1,9.2,164.213,164.213,0,0,1,12.126,54.966c-3.916.489-8.2.857-11.5-1.346" transform="translate(73.503 156.135)" fill="#fff"/>
        <path id="Path_10040" data-name="Path 10040" d="M7.124,34.833c9.177-.122,17.131-6.241,23.861-12.481a25.943,25.943,0,0,0,4.895-5.506,22.881,22.881,0,0,0,2.692-8.321,9.667,9.667,0,0,0-.245-5.873C37.593.816,35.39-.53,33.677.2s-2.325,2.57-2.937,4.283c-1.958,5.139-5.751,9.422-9.544,13.46s-6.485,6.852-10.89,8.2L4.432,27.614A6.363,6.363,0,0,0,.149,31.407c-.612,1.958.734,4.405,2.692,4.405" transform="translate(186.676 105.908)" fill="#fff"/>
      </g>
      <ellipse id="highlight-2" data-name="highlight" cx="7.342" cy="27.043" rx="7.342" ry="27.043" transform="translate(131.811 19.044) rotate(69.2)" fill="#e07c7c"/>
      <ellipse id="highlight-3" data-name="highlight" cx="3.173" cy="9.396" rx="3.173" ry="9.396" transform="translate(160.621 14.685) rotate(68.839)" fill="#e07c7c"/>
      <g id="left_circle" data-name="left circle" transform="translate(0 377.299)">
        <ellipse id="Ellipse_129" data-name="Ellipse 129" cx="84.677" cy="81.128" rx="84.677" ry="81.128" transform="translate(0.85 0) rotate(0.3)" fill="#ef48a0"/>
        <ellipse id="Ellipse_130" data-name="Ellipse 130" cx="84.677" cy="81.128" rx="84.677" ry="81.128" transform="translate(0.85 0) rotate(0.3)" fill="#c2222d"/>
        <path id="Path_10041" data-name="Path 10041" d="M5.39,52.092c-3.181.489-5.262,3.793-5.384,7.1S1.6,65.43,3.677,67.877s4.772,4.283,7.22,6.485,5.017,5.017,8.076,6.73a26.676,26.676,0,0,0,9.177,2.814,82.963,82.963,0,0,0,88.1-46.254,42.7,42.7,0,0,0,4.65-15.785A21.536,21.536,0,0,0,116.375,6.45,18.232,18.232,0,0,0,96.674.944a32.671,32.671,0,0,0-7.954,4.772c-10.646,8.2-19.578,18.477-30.713,26.064a157.479,157.479,0,0,1-17.865,9.789c-11.258,5.506-23,11.135-35.486,10.646" transform="translate(42.774 61.985)" fill="#e07c7c"/>
        <g id="shadow-2" data-name="shadow" transform="translate(4.861 14.963)">
          <path id="Path_10042" data-name="Path 10042" d="M2.8,72.316c-4.65-9.544-2.937-21.047.979-30.836A75.621,75.621,0,0,1,18.463,18.231a33.039,33.039,0,0,1,9.544-7.464A40.014,40.014,0,0,1,38.9,7.586c14.928-2.937,29.857-6,45.03-7.1C95.8-.491,108.156-.246,119.536,3.547a58.613,58.613,0,0,1,35.975,35.241c-6.118-2.325-10.523-7.342-15.54-11.5-11.258-9.422-25.7-14.317-40.136-15.418s-29.245,1.713-42.95,6.485c-9.789,3.3-19.578,7.954-26.064,15.907S22.378,51.27,21.767,60.814a10.034,10.034,0,0,1-.979,5.017,8.81,8.81,0,0,1-2.937,3.059A27.043,27.043,0,0,1,4.636,73.662" transform="translate(0 0)" fill="#a82443"/>
        </g>
        <g id="highlight-4" data-name="highlight" transform="translate(71.06 111.73)">
          <path id="Path_10043" data-name="Path 10043" d="M17.362,19.6A21.047,21.047,0,0,0,3.167,25.107C.842,27.309-.993,30.858.6,33.672s4.038,2.814,6.485,3.3c7.464,1.224,15.051,1.958,22.393.489s12.114-4.16,17.743-7.22,10.768-6,14.561-10.646S67.286,7.976,64.594,2.591A3.671,3.671,0,0,0,62.881.511a4.65,4.65,0,0,0-2.57-.489C50.522.389,43.67,9.2,35.349,14.338A35.853,35.853,0,0,1,17.362,19.6" transform="translate(0 0)" fill="#fff"/>
        </g>
        <g id="highlight-5" data-name="highlight" transform="translate(143.284 96.484)">
          <path id="Path_10044" data-name="Path 10044" d="M3.639,15.672a6.485,6.485,0,0,0,5.629-.979,11.258,11.258,0,0,0,3.793-4.527,9.055,9.055,0,0,0,.979-5.873A5.139,5.139,0,0,0,10.124.009,6.73,6.73,0,0,0,5.719,1.355,13.338,13.338,0,0,0,.457,8.7a6.485,6.485,0,0,0-.245,4.038A3.916,3.916,0,0,0,3.027,15.55" transform="translate(0.601 0.575)" fill="#fff"/>
          <path id="Path_10045" data-name="Path 10045" d="M4.362,15.635C7.3,16.492,9.991,14.9,11.7,12.7s3.059-5.384,2.325-8.2a5.017,5.017,0,0,0-2.2-2.814,4.283,4.283,0,0,0-4.038.122A11.5,11.5,0,0,0,2.4,7.437C1.181,9.884.2,14.656,3.873,15.513c.734.122.367,1.346-.367,1.1A4.038,4.038,0,0,1,.447,13.922,7.1,7.1,0,0,1,.569,8.66,13.95,13.95,0,0,1,6.442,1.074,6.73,6.73,0,0,1,11.215.095a5.384,5.384,0,0,1,3.3,2.57c1.835,3.059.612,6.852-1.1,9.667s-5.506,5.629-9.3,4.528c-.734-.245-.489-1.468.245-1.224Z" transform="translate(0 0)" fill="#fff"/>
        </g>
      </g>
      <g id="middle_circle" data-name="middle circle" transform="translate(241.859 418.171)">
        <path id="Path_10046" data-name="Path 10046" d="M29.5,83.239C18.485,80.547,9.675,71.492,5.025,60.969S-.359,38.7.13,27.319c.245-4.772.734-9.667,3.181-13.827,3.793-6.363,11.5-9.422,18.722-11.013A97.279,97.279,0,0,1,49.321.154,35.241,35.241,0,0,1,63.148,2.846c5.384,2.325,9.667,6.608,13.215,11.38,7.831,10.89,11.625,25.452,7.1,38.178-3.182,8.566-9.667,15.418-16.519,21.536a34.874,34.874,0,0,1-9.3,6.363A38.669,38.669,0,0,1,47,82.872c-5.751.734-11.5,1.591-17.253.612" transform="translate(0 0.122)" fill="#ef48a0"/>
        <path id="Path_10047" data-name="Path 10047" d="M29.5,83.362C18.485,80.547,9.675,71.492,5.025,61.091S-.359,38.821.13,27.319c.245-4.65.734-9.667,3.181-13.7,3.793-6.485,11.5-9.422,18.722-11.135A97.28,97.28,0,0,1,49.321.154,40.259,40.259,0,0,1,63.148,2.846c5.384,2.447,9.667,6.73,13.215,11.38,7.831,10.89,11.625,25.574,7.1,38.178-3.182,8.566-9.667,15.54-16.519,21.536a32.673,32.673,0,0,1-9.3,6.485A38.546,38.546,0,0,1,47,82.872c-5.751.857-11.5,1.591-17.253.612" transform="translate(0 0)" fill="#c2222d"/>
        <path id="Path_10048" data-name="Path 10048" d="M1.96,30.082A3.182,3.182,0,0,0,0,33.141a7.1,7.1,0,0,0,1.346,3.793L4.04,39.749A23.01,23.01,0,0,0,7.1,42.685a12.847,12.847,0,0,0,3.426,1.224A27.9,27.9,0,0,0,30.1,40.116c3.181-1.835,18.966-12.848,24.84-22.76s.612-15.907-1.1-17.009C49.8-2.1,34.387,9.158,33.408,10.014c-4.038,3.549-7.342,7.954-11.5,11.258a79.915,79.915,0,0,1-6.852,4.283c-4.16,2.325-8.688,4.772-13.338,4.65" transform="translate(23.377 33.09)" fill="#e07c7c"/>
        <path id="Path_10049" data-name="Path 10049" d="M1.014,13.606a5.139,5.139,0,0,0,4.528,1.346,13.093,13.093,0,0,0,4.528-1.835,27.409,27.409,0,0,0,6.241-4.405,11.5,11.5,0,0,0,3.426-6.852A2.2,2.2,0,0,0,19.491.635,1.468,1.468,0,0,0,18.022.023,7.709,7.709,0,0,0,12.271,2.47C10.68,4.061,9.457,5.9,7.988,7.61a8.2,8.2,0,0,1-5.506,3.181c-.979.122-2.2.122-2.447,1.1s.857,1.591,1.835,1.835" transform="translate(40.231 59.6)" fill="#fff"/>
        <path id="Path_10050" data-name="Path 10050" d="M2.127,13.847c2.692,2.57,6.608.245,9.3-1.224s5.751-3.671,7.342-6.73A7.342,7.342,0,0,0,19.5,3.568c.245-.612.489-1.835-.245-2.2s-3.426.245-4.528.979S10.447,7.606,7.878,9.809a8.443,8.443,0,0,1-4.283,2.2,3.549,3.549,0,0,0-2.2.367c-.734.612.734,1.224,1.224,1.346s.367,1.468-.367,1.224S-.81,13.235.291,11.766A2.57,2.57,0,0,1,2,10.91,8.443,8.443,0,0,0,4.941,10.3c3.916-1.713,5.384-6.241,8.688-8.688A7.709,7.709,0,0,1,18.891.019a2.325,2.325,0,0,1,1.835,1.1,4.527,4.527,0,0,1,.122,2.57c-.857,4.038-4.038,6.975-7.342,9.055S4.819,18.129,1.27,14.7a.612.612,0,1,1,.857-.857Z" transform="translate(39.608 58.992)" fill="#fff"/>
        <path id="Path_10051" data-name="Path 10051" d="M.892,9.409A14.562,14.562,0,0,0,5.052,5.86C6.031,4.514,7.5,2.679,6.643.966h1.1L6.031,3.536A18.226,18.226,0,0,1,4.2,5.983c-.979.979-2.57,1.835-2.937,3.426S-.21,9.776.035,9.042A14.525,14.525,0,0,1,3.094,5.371a13.464,13.464,0,0,0,1.713-2.2L6.643.232c.245-.245.857-.367,1.1,0a10.184,10.184,0,0,1-1.468,6A14.194,14.194,0,0,1,1.5,10.388c-.734.367-1.346-.734-.612-.979Z" transform="translate(66.417 47.644)" fill="#fff"/>
        <path id="Path_10052" data-name="Path 10052" d="M.122,35.509A34.875,34.875,0,0,0,11.38,34.9a18.966,18.966,0,0,0,9.789-5.384A34.988,34.988,0,0,0,24.6,24.618a43.074,43.074,0,0,1,6.73-8.81,21.414,21.414,0,0,1,9.3-5.629l5.506-.734L50.537,9.2c4.405-.367,9.055-.734,12.971,1.468C57.389,8.221,52.984,2.47,46.743.635c-4.283-1.224-8.933-.489-13.215.612A37.444,37.444,0,0,0,22.27,5.774a54.7,54.7,0,0,0-9.544,8.076A17.5,17.5,0,0,0,10.4,16.787c-.612,1.1-.979,2.325-1.468,3.426a11.012,11.012,0,0,1-2.814,3.916c-.857.979-1.958,1.713-2.814,2.692a11.746,11.746,0,0,0-1.591,3.3A20.677,20.677,0,0,0,0,35.631" transform="translate(7.35 10.777)" fill="#a82443"/>
      </g>
      <g id="right_circle" data-name="right circle" transform="translate(355.023 309.316)">
        <g id="ear" transform="translate(0 0)">
          <path id="Path_10053" data-name="Path 10053" d="M1.989,58.227C7.618,75.848,24.749,88.7,43.226,90.776s37.2-6.118,49.558-19.823,17.621-33.038,8.81-48.089A38.668,38.668,0,0,0,90.948,11.239,58,58,0,0,0,30.5,6.222C11.656,16.011-.7,37.3.031,58.594" transform="translate(0 0)" fill="#ef48a0"/>
        </g>
        <g id="ear-2" data-name="ear" transform="translate(0 0)">
          <path id="Path_10054" data-name="Path 10054" d="M1.989,58.227C7.618,75.848,24.749,88.7,43.226,90.776s37.2-6.118,49.558-19.823,17.621-33.038,8.81-48.089A38.668,38.668,0,0,0,90.948,11.239,58,58,0,0,0,30.5,6.222C11.656,16.011-.7,37.3.031,58.594" transform="translate(0 0)" fill="#c2222d"/>
        </g>
        <path id="Path_10055" data-name="Path 10055" d="M14.629,36.612l-12.6-.489a2.814,2.814,0,0,0-1.468.245c-.734.489-.612,1.468-.367,2.2C1.413,42,5.574,43.219,9.122,43.709a117.739,117.739,0,0,0,11.747.857c9.667.367,19.7.612,28.266-3.671S64.8,26.7,67,16.544A19.579,19.579,0,0,0,67.368,8.1a10.279,10.279,0,0,0-4.65-6.975C58.557-1.321,52.929.514,49.38,3.818s-5.629,7.954-8.2,11.992a56.907,56.907,0,0,1-8.2,10.4C27.232,32.207,19.4,37.1,11.2,36.245" transform="translate(24.804 38.379)" fill="#e07c7c"/>
        <path id="Path_10056" data-name="Path 10056" d="M0,16.56a19.946,19.946,0,0,0,14.194-1.836,60.325,60.325,0,0,0,11.869-8.2,9.791,9.791,0,0,0,2.2-2.325,2.814,2.814,0,0,0,.122-3.059C27.532-.326,25.329-.2,23.739.53,19.089,2.978,17.5,9.1,12.971,11.91S4.038,13.5.367,16.071" transform="translate(54.239 61.857)" fill="#fff"/>
        <path id="Path_10057" data-name="Path 10057" d="M.767,16.53a19.823,19.823,0,0,0,14.439-2.08,42.947,42.947,0,0,0,6.363-4.038A71.457,71.457,0,0,0,27.443,5.64a3.3,3.3,0,0,0,1.346-3.181,2.08,2.08,0,0,0-2.2-1.346,7.464,7.464,0,0,0-4.772,2.814c-2.57,2.692-4.038,6.363-7.22,8.566s-9.3,1.958-13.215,4.772a.662.662,0,0,1-.734-1.1c4.038-2.814,9.3-1.835,13.215-4.527s5.017-6.852,8.076-9.544A6.73,6.73,0,0,1,27.2.011a3.059,3.059,0,0,1,2.57,4.405,6.851,6.851,0,0,1-2.2,2.814L24.384,9.8c-2.2,1.713-4.405,3.3-6.73,4.772C12.514,17.509,6.4,19.345.4,17.754c-.734-.245-.367-1.346.367-1.224Z" transform="translate(53.594 61.275)" fill="#fff"/>
        <path id="Path_10058" data-name="Path 10058" d="M1.468,39.607a22.515,22.515,0,0,1,7.709,7.464c1.224,2.08,2.2,4.283,4.038,5.874s6.241,2.937,9.544,2.447a12.358,12.358,0,0,0,5.506-1.958,11.134,11.134,0,0,0,2.815-3.426c3.059-5.384,2.325-11.992,2.57-18.232a50.537,50.537,0,0,1,2.937-14.684,12.849,12.849,0,0,1,3.426-5.874A11.5,11.5,0,0,1,48.089,8.4a34.019,34.019,0,0,1,8.566,1.468l11.38,3.059c0-2.325-1.958-4.283-3.793-5.751C59.836,3.632,54.7.695,49.191.083a49.076,49.076,0,0,0-7.342.122c-3.671.367-7.587.979-10.4,3.3a22.022,22.022,0,0,0-3.671,4.527A134.844,134.844,0,0,1,0,38.628" transform="translate(26.217 6.996)" fill="#a82443"/>
      </g>
    </g>
    <g id="Face" transform="translate(1641.125 7937.044) rotate(-171)">
      <g id="Cheek" transform="translate(35.608 45.03)">
        <ellipse id="Ellipse_131" data-name="Ellipse 131" cx="28.756" cy="16.519" rx="28.756" ry="16.519" transform="translate(0 0)" fill="#f377ba"/>
        <ellipse id="Ellipse_132" data-name="Ellipse 132" cx="28.756" cy="16.519" rx="28.756" ry="16.519" transform="translate(234.328 3.549)" fill="#f47fbe"/>
      </g>
      <g id="eye_Glasses" data-name="eye Glasses" transform="translate(0 58.613)">
        <ellipse id="Ellipse_133" data-name="Ellipse 133" cx="81.005" cy="81.005" rx="81.005" ry="81.005" transform="translate(0 0)" fill="#e2fcff" stroke="#000" stroke-miterlimit="10" stroke-width="3" opacity="0.52"/>
        <ellipse id="Ellipse_134" data-name="Ellipse 134" cx="81.005" cy="81.005" rx="81.005" ry="81.005" transform="translate(184.648 6.363)" fill="#e2fcff" stroke="#000" stroke-miterlimit="10" stroke-width="3" opacity="0.52"/>
        <g id="Group_132" data-name="Group 132" transform="translate(159.931 85.533)" opacity="0.52">
          <path id="Path_10059" data-name="Path 10059" d="M1.835,0H24.718a1.835,1.835,0,1,1,0,3.671H1.835A1.835,1.835,0,1,1,1.835,0Z" transform="translate(0 0)"/>
        </g>
      </g>
      <g id="mouth" transform="translate(137.529 0)">
        <path id="Path_10060" data-name="Path 10060" d="M.489,52.264c.734,4.038,5.384,6.241,9.422,6s7.831-2.2,11.625-3.793a63.264,63.264,0,0,1,38.3-3.549c8.443,1.958,16.642,5.506,25.207,5.506a9.3,9.3,0,0,0,5.506-1.1c2.325-1.468,3.3-4.527,3.549-7.342.857-9.544-5.017-18.232-10.523-26.064S73.908,8.58,66.811,4.542,51.516-.108,43.562.014,30.958.626,25.207,3.2C16.764,7.111,10.523,14.942,6.852,23.508S1.591,41.373,0,50.673" transform="translate(0.62 0.598)" fill="#541339"/>
        <path id="Path_10061" data-name="Path 10061" d="M1.6,52.739c.734,3.3,4.16,5.139,7.342,5.506s8.2-1.591,11.869-3.3a66.076,66.076,0,0,1,24.718-5.506,63.145,63.145,0,0,1,12.726,1.1,114.3,114.3,0,0,1,12.726,3.3,59.105,59.105,0,0,0,13.093,2.57,11.748,11.748,0,0,0,6.118-.734,6,6,0,0,0,3.3-4.16,19.823,19.823,0,0,0-.367-11.625,49.191,49.191,0,0,0-5.384-11.135c-2.2-3.426-4.65-6.73-7.1-9.912a61.188,61.188,0,0,0-7.831-9.055A29.735,29.735,0,0,0,62.659,3.671,40.876,40.876,0,0,0,50.545,1.346a88.234,88.234,0,0,0-12.726.123,36.953,36.953,0,0,0-12.481,3.3A35.976,35.976,0,0,0,9.92,20.435C5.76,28.022,3.8,36.465,2.333,44.908l-1.1,6.485c-.122.734-1.346.489-1.224-.367C2.7,34.752,6.127,16.274,20.688,6.118,27.908,1.1,36.718,0,45.283,0S62.537.979,69.634,5.751,81.259,17.376,85.909,23.983s9.667,14.439,9.544,23.127c0,3.426-.979,7.587-4.283,9.422a10.035,10.035,0,0,1-6,1.1,31.454,31.454,0,0,1-6.73-.734c-4.527-.857-8.933-2.325-13.46-3.549a63.848,63.848,0,0,0-39.891,1.224c-6.852,2.447-15.54,8.321-22.27,2.447A6.853,6.853,0,0,1,.5,52.984a.612.612,0,1,1,1.1-.245Z" transform="translate(0 0)" fill="#9f4068"/>
        <path id="Path_10062" data-name="Path 10062" d="M4.83,15.907a91.284,91.284,0,0,1,51.883.734c.612.245,1.591.245,1.713-.367v-.612c-1.468-4.772-5.873-7.954-10.279-10.156A49.558,49.558,0,0,0,25.387,0,36.832,36.832,0,0,0,3.361,7.831,8.566,8.566,0,0,0,.18,11.869c-.489,1.713,0,3.916,1.713,4.65A5.75,5.75,0,0,0,5.686,16.4l8.321-2.2" transform="translate(16.593 34.017)" fill="#fff"/>
        <path id="Path_10063" data-name="Path 10063" d="M5.364,15.92a87.98,87.98,0,0,1,27.654-3.3,89.928,89.928,0,0,1,13.95,1.468l6.852,1.468L57,16.532a2.692,2.692,0,0,0,1.346.245c.245-.122.122,0,.122-.367l-.367-.857c-1.468-3.671-4.895-6.241-8.2-8.076A49.19,49.19,0,0,0,37.179,2.46,40.5,40.5,0,0,0,10.87,4.785,29,29,0,0,0,4.752,8.7C3.039,10.047,1.081,11.76,1.2,14.085a3.3,3.3,0,0,0,1.468,2.447c1.1.612,2.57.122,3.793-.245l8.076-2.08c.734-.245,1.1.979.367,1.224l-7.954,2.08C5,18,2.55,18.612,1.081,16.777A4.65,4.65,0,0,1,.469,11.76,11.992,11.992,0,0,1,4.752,7.11,38.667,38.667,0,0,1,31.55.257,52.491,52.491,0,0,1,45.989,4.173c4.038,1.713,8.076,3.793,10.89,7.1a16.763,16.763,0,0,1,1.836,2.57,7.709,7.709,0,0,1,.979,2.814c.122,2.447-3.549.857-4.65.612a79.78,79.78,0,0,0-15.051-2.937A91.65,91.65,0,0,0,9.4,16.165l-3.671.857c-.857.245-1.1-.979-.367-1.1Z" transform="translate(15.936 33.393)" fill="#fff"/>
        <path id="Path_10064" data-name="Path 10064" d="M0,5.718c2.937,6,9.789,9.422,16.519,10.034s13.46-1.346,19.823-3.426c2.692-.857,5.506-1.835,7.342-4.038a3.915,3.915,0,0,0,1.1-3.548C44.3,2.9,42.093,2.169,40.258,1.68A77.947,77.947,0,0,0,.245,3.76" transform="translate(21.912 4.683)" fill="#d151aa"/>
        <path id="Path_10065" data-name="Path 10065" d="M1.06,5.919c2.447,4.895,7.464,7.954,12.6,9.177s13.46.122,19.7-1.713c2.937-.979,6.118-1.713,8.688-3.426a5.384,5.384,0,0,0,2.692-3.426c.367-1.468-.734-2.447-1.958-3.059A17.987,17.987,0,0,0,38.5,2.493l-5.139-.857a90.323,90.323,0,0,0-10.034-.49A77.462,77.462,0,0,0,.938,4.94C.2,5.185-.164,3.961.57,3.717A76.6,76.6,0,0,1,22.229.046,82.849,82.849,0,0,1,33.242.413l5.262.734a24.471,24.471,0,0,1,4.528,1.224A4.9,4.9,0,0,1,45.845,4.7a4.65,4.65,0,0,1-.734,4.038c-1.836,2.57-5.017,3.671-7.831,4.65-6.852,2.2-14.317,4.283-21.659,3.3S3.018,12.527.081,6.531C-.286,5.919.693,5.307,1.06,5.919Z" transform="translate(21.341 4.115)" fill="#d151aa"/>
      </g>
      <g id="eyes" transform="translate(65.954 96.179)">
        <g id="left_eye" data-name="left eye" transform="translate(0 0)">
          <g id="eye_outside" data-name="eye outside" transform="translate(0 0.245)">
            <path id="Path_10066" data-name="Path 10066" d="M.006,0A305.053,305.053,0,0,0,4.289,52.862c1.468,8.321,3.3,17.009,8.443,23.739S25.7,86.879,32.922,84.187c3.793-1.468,6.73-4.65,8.933-7.954,7.22-11.013,8.566-24.718,9.667-37.688L54.825,0" transform="translate(0.606 0.612)" fill="#9f4068"/>
            <path id="Path_10067" data-name="Path 10067" d="M1.224.612A322.424,322.424,0,0,0,3.671,41.359c.856,6.363,1.713,12.848,3.181,19.089s3.181,11.258,6.608,15.907A21.047,21.047,0,0,0,26.431,84.8a12.971,12.971,0,0,0,7.709-.979A17.5,17.5,0,0,0,40.5,78.558c7.342-9.177,9.3-21.659,10.4-32.916C52.25,32.3,53.229,19.089,54.33,5.751L54.819.612a.612.612,0,0,1,1.224,0c-1.224,13.95-2.325,27.9-3.549,41.849-1.1,11.869-2.692,24.228-9.3,34.384-3.059,4.65-7.22,8.688-12.971,9.3s-10.4-1.836-14.317-5.262S8.933,71.706,7.22,66.2A105.358,105.358,0,0,1,3.426,47.722,321.693,321.693,0,0,1,0,5.751V.612a.612.612,0,0,1,1.224,0Z" transform="translate(0)" fill="#631438"/>
          </g>
          <g id="eye_outside-2" data-name="eye outside" transform="translate(6.363 0)">
            <path id="Path_10068" data-name="Path 10068" d="M0,0A275.937,275.937,0,0,0,3.8,47.11c1.224,7.464,2.937,15.173,7.464,21.169s11.5,9.177,17.865,6.73a17.5,17.5,0,0,0,7.831-7.1c6.485-9.789,7.587-21.9,8.566-33.65L48.46,0" transform="translate(0.608 0.612)" fill="#541339"/>
            <path id="Path_10069" data-name="Path 10069" d="M1.224.612a255.865,255.865,0,0,0,2.2,36.22c.734,5.751,1.468,11.38,2.692,17.009a40.992,40.992,0,0,0,6,14.317,17.988,17.988,0,0,0,11.38,7.464,10.646,10.646,0,0,0,6.73-.979,14.439,14.439,0,0,0,5.506-4.65c6.485-8.2,8.321-19.211,9.3-29.245,1.224-11.869,1.958-23.739,2.937-35.608L48.456.612a.612.612,0,0,1,1.224,0c-1.1,12.481-2.08,24.962-3.181,37.444-.979,10.523-2.325,21.536-8.2,30.591-2.692,4.038-6.363,7.709-11.38,8.321s-9.3-1.713-12.726-4.65-6.241-8.2-7.831-13.093A110.013,110.013,0,0,1,2.937,42.705,272.393,272.393,0,0,1,0,5.384V.612a.612.612,0,0,1,1.224,0Z" transform="translate(0 0)" fill="#9f4068"/>
          </g>
          <ellipse id="eye" cx="9.667" cy="17.009" rx="9.667" ry="17.009" transform="translate(24.84 29.612)" fill="#fff"/>
          <ellipse id="eye_hightligh" data-name="eye hightligh" cx="4.65" cy="4.65" rx="4.65" ry="4.65" transform="translate(9.667 18.232)" fill="#fff"/>
        </g>
        <g id="right_eye" data-name="right eye" transform="translate(177.306 8.81)">
          <g id="eye_outside-3" data-name="eye outside" transform="translate(0 0.245)">
            <path id="Path_10070" data-name="Path 10070" d="M0,0A318.758,318.758,0,0,0,4.284,52.862c1.468,8.321,3.3,17.009,8.566,23.739S25.82,86.879,32.917,84.187c3.793-1.468,6.73-4.65,8.933-8.076,7.342-10.89,8.566-24.6,9.667-37.688L54.82,0" transform="translate(0.611 0.612)" fill="#9f4068"/>
            <path id="Path_10071" data-name="Path 10071" d="M1.224.612a322.445,322.445,0,0,0,2.57,40.747c.734,6.363,1.713,12.848,3.059,19.089a43.685,43.685,0,0,0,6.73,15.907A20.435,20.435,0,0,0,26.431,84.8a13.7,13.7,0,0,0,7.709-.979A19.089,19.089,0,0,0,40.5,78.558c7.342-9.3,9.3-21.659,10.523-33.039,1.224-13.215,2.2-26.553,3.3-39.768L54.819.612a.612.612,0,1,1,1.224,0c-1.224,13.95-2.325,27.9-3.549,41.849-1.1,11.869-2.692,24.228-9.3,34.385-3.059,4.65-7.22,8.688-12.848,9.3S19.823,84.309,16.03,80.883A31.814,31.814,0,0,1,7.22,66.2,107.68,107.68,0,0,1,3.426,47.722,321.669,321.669,0,0,1,0,5.751V.612a.612.612,0,1,1,1.224,0Z" transform="translate(0)" fill="#631438"/>
          </g>
          <g id="eye_outside-4" data-name="eye outside" transform="translate(6.363 0)">
            <path id="Path_10072" data-name="Path 10072" d="M0,0A275.925,275.925,0,0,0,3.8,47.11c1.224,7.464,2.937,15.173,7.464,21.169s11.5,9.177,17.865,6.73c3.3-1.346,5.873-4.16,7.954-7.1,6.363-9.789,7.464-22.026,8.443-33.65L48.46,0" transform="translate(0.608 0.612)" fill="#541339"/>
            <path id="Path_10073" data-name="Path 10073" d="M1.224.612A298.4,298.4,0,0,0,3.432,36.875,164.238,164.238,0,0,0,6.241,53.84a38.546,38.546,0,0,0,5.874,14.317,18.477,18.477,0,0,0,11.5,7.464,11.135,11.135,0,0,0,6.608-.979,15.786,15.786,0,0,0,5.629-4.65c6.485-8.2,8.2-19.211,9.177-29.245s2.08-23.739,3.059-35.608L48.456.612a.612.612,0,0,1,1.224,0c-1.1,12.481-2.08,24.962-3.182,37.444-.857,10.4-2.325,21.536-8.2,30.469-2.57,4.16-6.363,7.831-11.38,8.321s-9.3-1.591-12.726-4.65S7.954,64.119,6.363,59.224a96.293,96.293,0,0,1-3.3-16.519A272.619,272.619,0,0,1,0,5.262V.612a.612.612,0,1,1,1.224,0Z" transform="translate(0)" fill="#9f4068"/>
          </g>
          <ellipse id="eye-2" data-name="eye" cx="9.667" cy="17.009" rx="9.667" ry="17.009" transform="translate(24.84 29.612)" fill="#fff"/>
          <ellipse id="eye_hightligh-2" data-name="eye hightligh" cx="3.304" cy="3.304" rx="3.304" ry="3.304" transform="translate(22.026 18.722)" fill="#fff"/>
          <ellipse id="eye_hightligh-3" data-name="eye hightligh" cx="2.814" cy="2.814" rx="2.814" ry="2.814" transform="translate(16.397 32.916)" fill="#fff"/>
        </g>
      </g>
    </g>
  </g>
</svg>
