<svg xmlns="http://www.w3.org/2000/svg" width="583.391" height="570.399" viewBox="0 0 583.391 570.399">
  <g id="Group_305" data-name="Group 305" transform="translate(-88.393 -1202.403)">
    <g id="yellow_circle" data-name="yellow circle" transform="translate(121.679 1188.383) rotate(3)">
      <path id="yellow_circle-2" data-name="yellow circle" d="M216.493,0C336.059,0,432.986,96.927,432.986,216.493S336.059,432.986,216.493,432.986,0,336.059,0,216.493,96.927,0,216.493,0Z" transform="matrix(0.978, 0.208, -0.208, 0.978, 90.023, 49.479)" fill="#bfd82c"/>
      <path id="yellow_shadow" data-name="yellow shadow" d="M225.8.1C330.74,3.488,435.961,108.176,430.522,207.538s10.8-166.364-206.877-158.261S-7.157,300.51,2.066,188.708,120.856-3.281,225.8.1Z" transform="matrix(0.695, 0.719, -0.719, 0.695, 267.892, 0)" fill="#9ab422"/>
    </g>
    <g id="pills_1_" data-name="pills (1)" transform="translate(29.611 1399.32) rotate(-25)">
      <circle id="Ellipse_144" data-name="Ellipse 144" cx="14.901" cy="14.901" r="14.901" transform="translate(230.831 388.388)" fill="#954599"/>
      <g id="Group_295" data-name="Group 295" transform="translate(250.008 324.136)">
        <circle id="Ellipse_145" data-name="Ellipse 145" cx="14.179" cy="14.179" r="14.179" transform="translate(43.961 82.07)" fill="#fed831"/>
        <circle id="Ellipse_146" data-name="Ellipse 146" cx="14.179" cy="14.179" r="14.179" fill="#fed831"/>
      </g>
      <circle id="Ellipse_147" data-name="Ellipse 147" cx="17.87" cy="17.87" r="17.87" transform="translate(301.011 346.896)" fill="#954599"/>
      <circle id="Ellipse_148" data-name="Ellipse 148" cx="19.143" cy="19.143" r="19.143" transform="translate(245.043 445.033)" fill="#fd0d1b"/>
      <path id="Path_10913" data-name="Path 10913" d="M190.411,83.123l-64.854,57.753,82.161,92.261,64.854-57.753a61.771,61.771,0,0,0,5.05-87.211h0A61.771,61.771,0,0,0,190.411,83.123Z" transform="translate(-5.076 -3.78)" fill="#fed831"/>
      <path id="Path_10914" data-name="Path 10914" d="M55.628,202.985l64.854-57.753,82.161,92.261-64.854,57.753a61.771,61.771,0,0,1-87.211-5.05h0A61.77,61.77,0,0,1,55.628,202.985Z" transform="translate(0 -8.135)" fill="#954599"/>
      <path id="Path_10915" data-name="Path 10915" d="M272.558,88.174A61.641,61.641,0,0,0,223.686,67.55a61.611,61.611,0,0,0,6.631,50.851l20.452,32.762a13.347,13.347,0,0,1-2.741,17.308c-38.267,31.976-87.21,66.482-112.808,76.97-39.147,16.038-73.35-24.54-67.828-57.275l-11.064,9.852c-25.353,22.577-28.526,61.564-6.279,87.207a61.77,61.77,0,0,0,87.752,5.667L267.508,175.385a61.771,61.771,0,0,0,5.05-87.211Z" transform="translate(-0.013 -3.781)" opacity="0.1"/>
      <path id="Path_10916" data-name="Path 10916" d="M258.12,94.49l45.988,73.665,104.8-65.423L362.917,29.067A61.771,61.771,0,0,0,277.807,9.38h0A61.771,61.771,0,0,0,258.12,94.49Z" transform="translate(-11.976 0)" fill="#50c2f4"/>
      <path id="Path_10917" data-name="Path 10917" d="M353.382,247.917l-45.988-73.665,104.8-65.423,45.988,73.665a61.771,61.771,0,0,1-19.687,85.11h0A61.771,61.771,0,0,1,353.382,247.917Z" transform="translate(-15.262 -6.096)" fill="#93e0f6"/>
      <path id="Path_10918" data-name="Path 10918" d="M435.206,262.053a62.261,62.261,0,0,0,7.775-5.74C369.547,245.521,273.815,70.221,278.129,9.736c-.107.065-.215.124-.322.19h0a61.771,61.771,0,0,0-19.687,85.11L350.1,242.366a61.772,61.772,0,0,0,85.111,19.687Z" transform="translate(-11.976 -0.545)" opacity="0.1"/>
      <path id="Path_10919" data-name="Path 10919" d="M165.829,349.174l75.208,31.152a5.436,5.436,0,0,0,7.1-2.942l43.117-104.092a5.436,5.436,0,0,0-2.942-7.1l-75.208-31.152a61.77,61.77,0,0,0-80.707,33.43h0A61.77,61.77,0,0,0,165.829,349.174Z" transform="translate(-5.195 -12.901)" fill="#fd0d1b"/>
      <path id="Path_10920" data-name="Path 10920" d="M248.141,378.387l10.619-25.636c-88.828-16.906-118.653-69.4-111.7-104.55A61.513,61.513,0,0,0,132.4,269.469h0a61.77,61.77,0,0,0,33.43,80.707l75.208,31.152A5.436,5.436,0,0,0,248.141,378.387Z" transform="translate(-5.195 -13.903)" opacity="0.1"/>
      <path id="Path_10921" data-name="Path 10921" d="M427.363,349.174l-75.208,31.152a5.436,5.436,0,0,1-7.1-2.942L301.935,273.292a5.435,5.435,0,0,1,2.942-7.1l75.208-31.152a61.77,61.77,0,0,1,80.707,33.43h0A61.771,61.771,0,0,1,427.363,349.174Z" transform="translate(-14.933 -12.901)" fill="#2c99e8"/>
    </g>
  </g>
</svg>
