<svg xmlns="http://www.w3.org/2000/svg" width="370.23" height="370.465" viewBox="0 0 370.23 370.465">
  <g id="condoms_icon" data-name="condoms icon" transform="translate(-14.002 -20.29)">
    <g id="red_circle" data-name="red circle" transform="matrix(-0.998, -0.07, 0.07, -0.998, 376.417, 403.555)">
      <path id="red_circle-2" data-name="red circle" d="M139.907,0A139.907,139.907,0,1,1,0,139.907,139.907,139.907,0,0,1,139.907,0Z" transform="matrix(-0.951, 0.309, -0.309, -0.951, 352.587, 291.687)" fill="#fd0d1b"/>
      <path id="red_shadow" data-name="red shadow" d="M146.282.067c67.986,2.193,136.153,70.015,132.63,134.386s7-107.778-134.025-102.529S-4.637,194.684,1.338,122.254,78.3-2.126,146.282.067Z" transform="matrix(0.695, 0.719, -0.719, 0.695, 183.497, 0)" fill="#c30510"/>
    </g>
    <g id="Group_327" data-name="Group 327" transform="translate(59.338 87.56) rotate(-7)">
      <g id="Group_323" data-name="Group 323" transform="matrix(0.588, -0.809, 0.809, 0.588, 0, 159.482)">
        <g id="Group_321" data-name="Group 321" transform="translate(0 0)">
          <path id="Path_10955" data-name="Path 10955" d="M21.35,0h.688l9.343,9.337L40.718,0h.688l9.341,9.337L60.087,0h.688l9.339,9.337L79.454,0h.688l9.339,9.337L98.82,0h.686l9.341,9.337L118.187,0h.688l9.339,9.337L137.553,0h2.67V140.223h-3.055l-8.956-8.956-8.958,8.956H117.8l-8.958-8.956-8.958,8.956H98.435l-8.956-8.956-8.958,8.956H79.068l-8.956-8.956-8.958,8.956H59.7l-8.96-8.956-8.954,8.956H40.336l-8.958-8.956-8.96,8.956H20.967l-8.954-8.956-8.96,8.956H0V0H2.674l9.339,9.337Z" fill="#1ba6ed"/>
          <g id="Group_320" data-name="Group 320" transform="translate(23.366 23.37)">
            <path id="Path_10956" data-name="Path 10956" d="M46.746,93.485A46.742,46.742,0,1,1,93.489,46.742,46.8,46.8,0,0,1,46.746,93.485Zm0-90.226A43.481,43.481,0,1,0,90.226,46.742,43.531,43.531,0,0,0,46.746,3.259Z" transform="translate(0 0)" fill="#fff"/>
          </g>
          <path id="Path_10957" data-name="Path 10957" d="M0,41.854A41.852,41.852,0,1,0,41.854,0,41.849,41.849,0,0,0,0,41.854Z" transform="translate(28.259 28.258)" fill="#8fe261"/>
          <path id="Path_10958" data-name="Path 10958" d="M37.545.326l-1.2.237A32.886,32.886,0,0,0,33,1.315a39.652,39.652,0,0,0-4.9,1.646,44.585,44.585,0,0,0-5.836,3.063,38.422,38.422,0,0,0-5.906,4.848,35.659,35.659,0,0,0-5.138,6.62,36.378,36.378,0,0,0-3.484,8.131,34.555,34.555,0,0,0-1.217,8.993,36.817,36.817,0,0,0,.331,4.644,31.521,31.521,0,0,0,.89,4.35,36.325,36.325,0,0,0,3.488,8.123,35.815,35.815,0,0,0,5.134,6.62A38.62,38.62,0,0,0,22.266,63.2,45.128,45.128,0,0,0,28.1,66.268a38.73,38.73,0,0,0,4.921,1.646c1.4.441,2.544.564,3.32.751.784.155,1.2.237,1.2.237l-1.217.118a21.121,21.121,0,0,1-3.48.18,28.61,28.61,0,0,1-5.46-.539A33.928,33.928,0,0,1,20.5,66.5a32.588,32.588,0,0,1-7.38-4.517,32.8,32.8,0,0,1-6.7-7.114,35.534,35.534,0,0,1-4.709-9.442A38.182,38.182,0,0,1,.482,40.011,41.747,41.747,0,0,1,0,34.616,41.023,41.023,0,0,1,1.711,23.806,35.967,35.967,0,0,1,6.42,14.363a33.18,33.18,0,0,1,6.706-7.11A32.955,32.955,0,0,1,20.5,2.736,34.238,34.238,0,0,1,27.388.575,28.694,28.694,0,0,1,32.869.032a21.244,21.244,0,0,1,3.459.18C37.12.29,37.545.326,37.545.326Z" transform="translate(32.568 35.496)" fill="#fdbd7f"/>
        </g>
      </g>
      <g id="Group_324" data-name="Group 324" transform="matrix(0.998, -0.07, 0.07, 0.998, 101.424, 9.781)">
        <g id="Group_321-2" data-name="Group 321" transform="translate(0 0)">
          <path id="Path_10955-2" data-name="Path 10955" d="M21.35,0h.688l9.343,9.337L40.718,0h.688l9.341,9.337L60.087,0h.688l9.339,9.337L79.454,0h.688l9.339,9.337L98.82,0h.686l9.341,9.337L118.187,0h.688l9.339,9.337L137.553,0h2.67V140.223h-3.055l-8.956-8.956-8.958,8.956H117.8l-8.958-8.956-8.958,8.956H98.435l-8.956-8.956-8.958,8.956H79.067l-8.956-8.956-8.958,8.956H59.7l-8.96-8.956-8.954,8.956H40.336l-8.958-8.956-8.96,8.956H20.967l-8.954-8.956-8.96,8.956H0V0H2.674l9.339,9.337Z" transform="translate(0)" fill="#954599"/>
          <g id="Group_320-2" data-name="Group 320" transform="translate(23.366 23.37)">
            <path id="Path_10956-2" data-name="Path 10956" d="M46.746,93.485A46.742,46.742,0,1,1,93.489,46.742,46.8,46.8,0,0,1,46.746,93.485Zm0-90.226A43.481,43.481,0,1,0,90.226,46.742,43.531,43.531,0,0,0,46.746,3.259Z" transform="translate(0 0)" fill="#fff"/>
          </g>
          <path id="Path_10957-2" data-name="Path 10957" d="M0,41.854A41.852,41.852,0,1,0,41.854,0,41.849,41.849,0,0,0,0,41.854Z" transform="translate(28.259 28.258)" fill="#fed831"/>
          <path id="Path_10958-2" data-name="Path 10958" d="M37.545.326l-1.2.237A32.886,32.886,0,0,0,33,1.315a39.652,39.652,0,0,0-4.9,1.646,44.584,44.584,0,0,0-5.836,3.063,38.422,38.422,0,0,0-5.906,4.848,35.659,35.659,0,0,0-5.138,6.62,36.378,36.378,0,0,0-3.484,8.131,34.555,34.555,0,0,0-1.217,8.993,36.817,36.817,0,0,0,.331,4.644,31.522,31.522,0,0,0,.89,4.35,36.325,36.325,0,0,0,3.488,8.123,35.815,35.815,0,0,0,5.134,6.62A38.62,38.62,0,0,0,22.266,63.2,45.128,45.128,0,0,0,28.1,66.268a38.731,38.731,0,0,0,4.921,1.646c1.4.441,2.544.564,3.32.751.784.155,1.2.237,1.2.237l-1.217.118a21.126,21.126,0,0,1-3.48.18,28.612,28.612,0,0,1-5.46-.539A33.928,33.928,0,0,1,20.5,66.5a32.589,32.589,0,0,1-7.38-4.517,32.8,32.8,0,0,1-6.7-7.114,35.534,35.534,0,0,1-4.709-9.442A38.182,38.182,0,0,1,.482,40.011,41.747,41.747,0,0,1,0,34.616,41.023,41.023,0,0,1,1.711,23.806,35.967,35.967,0,0,1,6.42,14.363a33.18,33.18,0,0,1,6.706-7.11A32.955,32.955,0,0,1,20.5,2.736,34.238,34.238,0,0,1,27.388.575,28.694,28.694,0,0,1,32.869.032a21.244,21.244,0,0,1,3.459.18C37.12.29,37.545.326,37.545.326Z" transform="translate(32.568 35.496)" fill="#fdbd7f"/>
        </g>
      </g>
    </g>
  </g>
</svg>
