<svg id="facebook" xmlns="http://www.w3.org/2000/svg" width="31.574" height="31.574" viewBox="0 0 31.574 31.574">
  <g id="Group_10" data-name="Group 10">
    <path id="Path_6" data-name="Path 6" d="M27.627,0H3.947A3.951,3.951,0,0,0,0,3.947v23.68a3.951,3.951,0,0,0,3.947,3.947h11.84V20.72H11.84V15.787h3.947V11.84a5.92,5.92,0,0,1,5.92-5.92h3.947v4.933H23.68c-1.089,0-1.973-.1-1.973.987v3.947H26.64L24.667,20.72h-2.96V31.574h5.92a3.951,3.951,0,0,0,3.947-3.947V3.947A3.951,3.951,0,0,0,27.627,0Z" fill="#db3131"/>
  </g>
</svg>
