<svg id="_021-snapchat" data-name="021-snapchat" xmlns="http://www.w3.org/2000/svg" width="30" viewBox="0 0 37.282 34.953">
  <g id="Group_3" data-name="Group 3">
    <path id="Path_3" data-name="Path 3" d="M36.551,42.089c-4.984-.82-7.231-5.926-7.322-6.142a.353.353,0,0,0-.021-.042,1.541,1.541,0,0,1-.175-1.268c.273-.638,1.317-.969,2.006-1.188.2-.063.389-.124.545-.184a4.219,4.219,0,0,0,1.487-.888,1.412,1.412,0,0,0,.452-1.016,1.6,1.6,0,0,0-1.2-1.386,2.165,2.165,0,0,0-.811-.154,1.806,1.806,0,0,0-.755.154,4.237,4.237,0,0,1-1.554.443,1.427,1.427,0,0,1-.515-.112c.014-.233.028-.473.044-.72l.007-.107c.161-2.524.359-5.662-.475-7.527a10.125,10.125,0,0,0-2.281-3.265,9.54,9.54,0,0,0-2.729-1.8,10.782,10.782,0,0,0-4.257-.9h-.093L18.266,16a10.823,10.823,0,0,0-4.262.9,9.487,9.487,0,0,0-2.719,1.8,10.157,10.157,0,0,0-2.272,3.258c-.834,1.862-.636,5-.478,7.522v0c.016.27.035.552.051.827a1.493,1.493,0,0,1-.611.114,4.043,4.043,0,0,1-1.661-.445,1.493,1.493,0,0,0-.631-.13,2.233,2.233,0,0,0-1.116.312,1.544,1.544,0,0,0-.79,1.009,1.392,1.392,0,0,0,.531,1.307,4.582,4.582,0,0,0,1.389.795c.158.063.347.121.545.184.69.219,1.736.55,2.009,1.188A1.552,1.552,0,0,1,8.073,35.9a.33.33,0,0,0-.019.042,12.339,12.339,0,0,1-1.878,2.9,10.539,10.539,0,0,1-2.265,2A8.335,8.335,0,0,1,.731,42.086.87.87,0,0,0,0,43a1.1,1.1,0,0,0,.091.38v0a2.329,2.329,0,0,0,1.263,1.079A14.423,14.423,0,0,0,5,45.4a4.424,4.424,0,0,1,.224.8c.061.28.124.569.214.874a.955.955,0,0,0,1,.727,4.868,4.868,0,0,0,.858-.119,9.752,9.752,0,0,1,1.955-.221,8.5,8.5,0,0,1,1.4.119,6.641,6.641,0,0,1,2.612,1.349,8.457,8.457,0,0,0,5.15,2.006q.094,0,.189-.007c.075,0,.17.007.268.007a8.47,8.47,0,0,0,5.15-2l0,0a6.665,6.665,0,0,1,2.612-1.347,8.5,8.5,0,0,1,1.4-.119,9.8,9.8,0,0,1,1.955.207,4.724,4.724,0,0,0,.858.1h.042a.944.944,0,0,0,.958-.715c.089-.3.151-.58.214-.867a4.576,4.576,0,0,1,.221-.8,14.523,14.523,0,0,0,3.647-.948,2.338,2.338,0,0,0,1.261-1.077,1.108,1.108,0,0,0,.093-.384A.867.867,0,0,0,36.551,42.089Z" transform="translate(0 -15.988)" fill="#fff"/>
  </g>
</svg>
