<svg id="_002-youtube" data-name="002-youtube" xmlns="http://www.w3.org/2000/svg" width="30"  viewBox="0 0 37.284 25.632">
  <g id="Group_1" data-name="Group 1">
    <path id="Path_1" data-name="Path 1" d="M35.7,82.47c-1.011-1.8-2.109-2.13-4.344-2.256C29.123,80.063,23.51,80,18.646,80s-10.488.063-12.718.212c-2.23.128-3.33.457-4.351,2.258C.536,84.267,0,87.361,0,92.809v.019c0,5.425.536,8.543,1.578,10.32,1.021,1.8,2.118,2.125,4.348,2.277,2.232.13,7.848.207,12.721.207s10.477-.077,12.711-.205c2.235-.151,3.332-.478,4.344-2.277,1.051-1.778,1.582-4.9,1.582-10.32v-.019C37.284,87.361,36.752,84.267,35.7,82.47ZM13.981,99.807V85.826l11.651,6.991Z" transform="translate(0 -80)" fill="#fff"/>
  </g>
</svg>
