<svg id="instagram" data-name="034-instagram" xmlns="http://www.w3.org/2000/svg" width="30" viewBox="0 0 37.284 37.283">
<style type="text/css">
	.st5{fill-rule:evenodd;clip-rule:evenodd;fill:#fff;}

  #instagram:hover .st5{
    cursor:pointer !important;
    fill:#c92c32!important;
    transition: 600ms cubic-bezier(.99,0,.57,.94) !important;
  
 
    }
    </style>
  <g id="Group_5" data-name="Group 5">
    <g id="Group_4" data-name="Group 4">
      <path id="Path_4" class="st5" data-name="Path 4" d="M25.632,0H11.651A11.652,11.652,0,0,0,0,11.651V25.632A11.652,11.652,0,0,0,11.651,37.283H25.632A11.652,11.652,0,0,0,37.284,25.632V11.651A11.652,11.652,0,0,0,25.632,0Zm8.156,25.632a8.165,8.165,0,0,1-8.156,8.156H11.651A8.165,8.165,0,0,1,3.5,25.632V11.651A8.165,8.165,0,0,1,11.651,3.5H25.632a8.165,8.165,0,0,1,8.156,8.156Z" fill="#fff"/>
    </g>
  </g>
  <g id="Group_7" data-name="Group 7" transform="translate(9.321 9.321)">
    <g id="Group_6" data-name="Group 6">
      <path id="Path_5" class="st5" data-name="Path 5" d="M137.321,128a9.321,9.321,0,1,0,9.321,9.321A9.321,9.321,0,0,0,137.321,128Zm0,15.146a5.826,5.826,0,1,1,5.826-5.826A5.834,5.834,0,0,1,137.321,143.146Z" transform="translate(-128 -128)" fill="#fff"/>
    </g>
  </g>
  <g id="Group_9" data-name="Group 9" transform="translate(27.42 7.38)">
    <g id="Group_8" data-name="Group 8">
      <ellipse id="Ellipse_1" class="st5" data-name="Ellipse 1" cx="1.242" cy="1.242" rx="1.242" ry="1.242" fill="#fff"/>
    </g>
  </g>
</svg>
