<svg id="twitter" data-name="013-twitter-1" xmlns="http://www.w3.org/2000/svg" width="30" viewBox="0 0 37.284 30.292">
<style type="text/css">
	.st3{fill-rule:evenodd;clip-rule:evenodd;fill:#B9B9B9;}

  #twitter:hover .st3{
    cursor:pointer !important;
    fill:#EC4B4B!important;
    transition: 600ms cubic-bezier(.99,0,.57,.94) !important;
  
 
    }
    </style>
  <g id="Group_11" data-name="Group 11">
    <path id="Path_7" class="st3" data-name="Path 7" d="M37.284,51.586a15.936,15.936,0,0,1-4.4,1.207,7.6,7.6,0,0,0,3.363-4.225,15.275,15.275,0,0,1-4.847,1.85,7.643,7.643,0,0,0-13.222,5.227,7.87,7.87,0,0,0,.177,1.743A21.635,21.635,0,0,1,2.6,49.393,7.645,7.645,0,0,0,4.945,59.609a7.549,7.549,0,0,1-3.453-.941v.084a7.679,7.679,0,0,0,6.124,7.51,7.629,7.629,0,0,1-2,.252,6.758,6.758,0,0,1-1.447-.13,7.716,7.716,0,0,0,7.142,5.325,15.358,15.358,0,0,1-9.477,3.26A14.316,14.316,0,0,1,0,74.863a21.519,21.519,0,0,0,11.726,3.43c14.065,0,21.755-11.651,21.755-21.75,0-.338-.012-.664-.028-.988A15.248,15.248,0,0,0,37.284,51.586Z" transform="translate(0 -48)" fill="#fff"/>
  </g>
</svg>
