<svg xmlns="http://www.w3.org/2000/svg" width="193.905" height="188.085" viewBox="0 0 193.905 188.085">
  <g id="yellow_on_green" data-name="yellow on green" transform="translate(22.81 -18.361) rotate(8)">
    <g id="green_circle" data-name="green circle" transform="translate(0 23.158)">
      <path id="green_circle-2" data-name="green circle" d="M64.535,0A64.535,64.535,0,1,1,0,64.535,64.535,64.535,0,0,1,64.535,0Z" transform="matrix(0.978, 0.208, -0.208, 0.978, 26.835, 14.489)" fill="#bfd82c"/>
      <path id="green_shadow" data-name="green shadow" d="M67.309.031c31.283,1.009,62.648,32.216,61.027,61.835s3.221-49.592-61.669-47.177S-2.134,89.58.616,56.253,36.026-.978,67.309.031Z" transform="translate(77.685 0) rotate(45)" fill="#9ab405"/>
    </g>
    <g id="Q5" transform="matrix(0.891, 0.454, -0.454, 0.891, 99.385, 0)" opacity="0">
      <path id="Path_329" data-name="Path 329" d="M0,59.532,9.374,81.617l59.9-61.25L36.588,0Z" transform="matrix(0.996, 0.087, -0.087, 0.996, 20.565, 2.505)" stroke="#000" stroke-width="4"/>
      <path id="Path_330" data-name="Path 330" d="M0,66.093,10.408,90.612l66.5-68L40.62,0Z" transform="matrix(0.996, 0.087, -0.087, 0.996, 7.897, 0)" fill="#fff"/>
      <path id="text" d="M12.068-6.949,9.644.463H7.8L6.171-4.556,4.487.463H2.655L.22-6.949H2L3.672-1.739,5.419-6.949H7.007L8.7-1.7l1.726-5.252Zm4.458,1.631a2.344,2.344,0,0,1,1.71.635A2.519,2.519,0,0,1,18.887-2.8V.463H17.235V-2.544a1.485,1.485,0,0,0-.3-1.011,1.087,1.087,0,0,0-.858-.334,1.315,1.315,0,0,0-1,.386,1.6,1.6,0,0,0-.371,1.149V.463H13.064V-7.394h1.652v2.753a2.2,2.2,0,0,1,.794-.5A2.873,2.873,0,0,1,16.526-5.318Zm6.152,0a2.965,2.965,0,0,1,2.033.63,2.411,2.411,0,0,1,.709,1.9V.463H23.874V-.246a1.841,1.841,0,0,1-1.736.794A2.7,2.7,0,0,1,21,.325a1.7,1.7,0,0,1-.736-.614,1.6,1.6,0,0,1-.254-.889,1.484,1.484,0,0,1,.6-1.249,3.049,3.049,0,0,1,1.848-.455h1.313a1.053,1.053,0,0,0-.328-.831,1.446,1.446,0,0,0-.985-.291,2.875,2.875,0,0,0-.895.143,2.367,2.367,0,0,0-.746.386L20.221-4.63a3.578,3.578,0,0,1,1.117-.508A5,5,0,0,1,22.678-5.318ZM22.551-.564a1.439,1.439,0,0,0,.752-.2,1.072,1.072,0,0,0,.466-.577v-.582H22.635q-1.016,0-1.016.667a.594.594,0,0,0,.249.5A1.121,1.121,0,0,0,22.551-.564Zm8.037.752a1.7,1.7,0,0,1-.6.27,3.025,3.025,0,0,1-.746.09A2.218,2.218,0,0,1,27.67.029,1.985,1.985,0,0,1,27.114-1.5v-2.34h-.879V-5.106h.879V-6.494h1.652v1.387h1.419v1.271H28.766v2.319a.778.778,0,0,0,.185.556.687.687,0,0,0,.524.2,1.062,1.062,0,0,0,.667-.212Zm3.928-5.421h1.652v5.7H34.516Zm.826-.794a1.048,1.048,0,0,1-.741-.265.859.859,0,0,1-.286-.656.859.859,0,0,1,.286-.656,1.048,1.048,0,0,1,.741-.265,1.074,1.074,0,0,1,.741.254.815.815,0,0,1,.286.635.9.9,0,0,1-.286.683A1.036,1.036,0,0,1,35.341-6.028ZM41.377.188a1.7,1.7,0,0,1-.6.27,3.025,3.025,0,0,1-.746.09A2.218,2.218,0,0,1,38.46.029,1.985,1.985,0,0,1,37.9-1.5v-2.34h-.879V-5.106H37.9V-6.494h1.652v1.387h1.419v1.271H39.556v2.319a.778.778,0,0,0,.185.556.687.687,0,0,0,.524.2,1.062,1.062,0,0,0,.667-.212Zm3.928-5.421h1.652v5.7H45.305Zm.826-.794a1.048,1.048,0,0,1-.741-.265.859.859,0,0,1-.286-.656.859.859,0,0,1,.286-.656,1.048,1.048,0,0,1,.741-.265,1.074,1.074,0,0,1,.741.254.815.815,0,0,1,.286.635.9.9,0,0,1-.286.683A1.036,1.036,0,0,1,46.131-6.028ZM50.409.548A5.534,5.534,0,0,1,49.022.373a3.624,3.624,0,0,1-1.08-.439l.551-1.186a3.465,3.465,0,0,0,.921.4A3.861,3.861,0,0,0,50.472-.7q1.048,0,1.048-.519a.367.367,0,0,0-.286-.349,4.235,4.235,0,0,0-.879-.18A8.478,8.478,0,0,1,49.2-1.993a1.791,1.791,0,0,1-.789-.487,1.385,1.385,0,0,1-.334-1,1.559,1.559,0,0,1,.312-.958,2.01,2.01,0,0,1,.911-.651,3.889,3.889,0,0,1,1.414-.233,5.548,5.548,0,0,1,1.2.132,3.359,3.359,0,0,1,.99.365l-.551,1.175a3.287,3.287,0,0,0-1.641-.424,1.67,1.67,0,0,0-.794.148.436.436,0,0,0-.265.381.378.378,0,0,0,.286.371,5.061,5.061,0,0,0,.911.2A9.747,9.747,0,0,1,52-2.719a1.718,1.718,0,0,1,.773.482,1.367,1.367,0,0,1,.328.974,1.5,1.5,0,0,1-.318.942,2.028,2.028,0,0,1-.926.641A4.128,4.128,0,0,1,50.409.548ZM55.5-2.11a1.566,1.566,0,0,1,.249-.911,4.866,4.866,0,0,1,.725-.794,4.226,4.226,0,0,0,.514-.535.8.8,0,0,0,.164-.492.726.726,0,0,0-.312-.619,1.381,1.381,0,0,0-.831-.228,1.847,1.847,0,0,0-.884.206,1.885,1.885,0,0,0-.651.577l-1.281-.752a2.966,2.966,0,0,1,1.2-1.048,4.042,4.042,0,0,1,1.795-.371,3.325,3.325,0,0,1,1.954.519,1.664,1.664,0,0,1,.736,1.44,1.9,1.9,0,0,1-.143.762,2.019,2.019,0,0,1-.349.556q-.206.228-.535.524a4.45,4.45,0,0,0-.572.588.93.93,0,0,0-.18.577Zm.8,2.658a1,1,0,0,1-.725-.281.913.913,0,0,1-.291-.683.887.887,0,0,1,.286-.672,1.021,1.021,0,0,1,.731-.27,1.021,1.021,0,0,1,.731.27.887.887,0,0,1,.286.672.913.913,0,0,1-.291.683A1,1,0,0,1,56.306.548Z" transform="translate(20.265 67.439) rotate(-46)"/>
    </g>
    <g id="yellow_character" data-name="yellow character" transform="matrix(-0.978, 0.208, -0.208, -0.978, 120.431, 150.874)">
      <g id="body" transform="translate(0 0)">
        <g id="left_bottom_circle" data-name="left bottom circle" transform="translate(0 0)">
          <path id="Path_10074" data-name="Path 10074" d="M5.45,15.363A7.03,7.03,0,0,1,.932,11.25a13.787,13.787,0,0,1-.9-6.207A5.428,5.428,0,0,1,.614,2.5,5.194,5.194,0,0,1,4.076.454,18.344,18.344,0,0,1,9.1.024a7.176,7.176,0,0,1,2.557.5,6.211,6.211,0,0,1,2.418,2.1A7.766,7.766,0,0,1,15.388,9.66a10.192,10.192,0,0,1-3.04,3.97,6.693,6.693,0,0,1-1.706,1.191,7.476,7.476,0,0,1-1.968.461,10.057,10.057,0,0,1-3.19.106" transform="translate(0 0.012)" fill="#ef48a0"/>
          <path id="Path_10075" data-name="Path 10075" d="M5.45,15.363A7.031,7.031,0,0,1,.932,11.25a13.785,13.785,0,0,1-.9-6.207A5.427,5.427,0,0,1,.614,2.5,5.194,5.194,0,0,1,4.076.454,18.354,18.354,0,0,1,9.1.024a7.181,7.181,0,0,1,2.557.5,6.21,6.21,0,0,1,2.418,2.1A7.766,7.766,0,0,1,15.388,9.66a10.192,10.192,0,0,1-3.04,3.97,6.692,6.692,0,0,1-1.706,1.191,7.466,7.466,0,0,1-1.968.461,10.049,10.049,0,0,1-3.19.106" transform="translate(0 0)" fill="#f1b05b"/>
          <path id="Path_10076" data-name="Path 10076" d="M.378,5.54A.574.574,0,0,0,0,6.106,1.13,1.13,0,0,0,.256,6.8a6.019,6.019,0,0,0,.5.518,3.519,3.519,0,0,0,.568.543,1.72,1.72,0,0,0,.631.22A5.167,5.167,0,0,0,5.55,7.4a16.843,16.843,0,0,0,4.582-4.2A2.562,2.562,0,0,0,9.927.063C9.2-.384,6.335,1.683,6.163,1.836c-.737.655-1.357,1.478-2.13,2.076A10.141,10.141,0,0,1,2.788,4.7a4.854,4.854,0,0,1-2.467.857" transform="translate(4.308 6.102)" fill="#ffd19f"/>
          <path id="Path_10077" data-name="Path 10077" d="M.2,2.526a.955.955,0,0,0,.827.234,2.547,2.547,0,0,0,.826-.326,4.925,4.925,0,0,0,1.165-.82A2.054,2.054,0,0,0,3.638.36.367.367,0,0,0,3.6.13.343.343,0,0,0,3.338,0,1.4,1.4,0,0,0,2.262.471c-.287.284-.5.631-.774.932A1.617,1.617,0,0,1,.467,2c-.179.014-.416.021-.461.194s.165.3.336.353" transform="translate(7.416 10.975)" fill="#fff" stroke="#fff" stroke-miterlimit="10" stroke-width="1"/>
          <path id="Path_10078" data-name="Path 10078" d="M.109,1.713a2.316,2.316,0,0,0,.809-.7,1.788,1.788,0,0,0,.3-.468.688.688,0,0,0,0-.542L.874.521A2.51,2.51,0,0,1,.589.9c-.214.22-.523.387-.589.687" transform="translate(12.361 8.89)" fill="none" stroke="#fff" stroke-miterlimit="10" stroke-width="1"/>
          <path id="Path_10079" data-name="Path 10079" d="M.025,6.547A6.817,6.817,0,0,0,2.1,6.437a3.514,3.514,0,0,0,1.8-1,6.3,6.3,0,0,0,.647-.917A8.871,8.871,0,0,1,5.781,2.912,3.863,3.863,0,0,1,7.5,1.881a6.024,6.024,0,0,1,1.022-.138l.8-.062a4.256,4.256,0,0,1,2.4.281C10.6,1.519,9.781.46,8.621.121A4.642,4.642,0,0,0,6.19.228a7.4,7.4,0,0,0-2.076.821A9.833,9.833,0,0,0,2.361,2.559a2.646,2.646,0,0,0-.437.525,6.206,6.206,0,0,0-.266.635,2.31,2.31,0,0,1-.509.735,5.3,5.3,0,0,0-.519.5,2.467,2.467,0,0,0-.311.6A4.243,4.243,0,0,0,0,6.556" transform="translate(1.348 1.988)" fill="#dd6d2f"/>
        </g>
        <g id="top_small_circle" data-name="top small circle" transform="translate(15.631 73.282)">
          <path id="Path_10080" data-name="Path 10080" d="M10.361,8.914A4.975,4.975,0,0,1,6.6,11.049a9.755,9.755,0,0,1-4.374-.757A3.841,3.841,0,0,1,.646,9.338,3.676,3.676,0,0,1,.032,6.56,12.973,12.973,0,0,1,.846,3.088a5.076,5.076,0,0,1,.9-1.609A4.394,4.394,0,0,1,3.69.314,5.5,5.5,0,0,1,8.711.976a7.212,7.212,0,0,1,2,2.918,4.733,4.733,0,0,1,.426,1.41,5.288,5.288,0,0,1-.123,1.424,7.119,7.119,0,0,1-.63,2.169" transform="translate(0 0)" fill="#f1b05b"/>
          <path id="Path_10081" data-name="Path 10081" d="M1.731,7.782a.406.406,0,0,0,.3.378.8.8,0,0,0,.523-.02,4.219,4.219,0,0,0,.457-.22,2.491,2.491,0,0,0,.49-.263,1.213,1.213,0,0,0,.287-.376A3.656,3.656,0,0,0,4.12,4.712,11.918,11.918,0,0,0,2.3.706,1.813,1.813,0,0,0,.148.155c-.461.391.3,2.772.365,2.921.279.64.7,1.238.928,1.889a7.175,7.175,0,0,1,.254,1.01,3.435,3.435,0,0,1,.034,1.847" transform="translate(5.959 0.828)" fill="#ffd19f"/>
          <path id="Path_10082" data-name="Path 10082" d="M1.065,2.82a.676.676,0,0,0,.339-.5,1.8,1.8,0,0,0-.037-.627,3.49,3.49,0,0,0-.3-.964A1.452,1.452,0,0,0,.365.03.257.257,0,0,0,.2.006.242.242,0,0,0,.06.153.992.992,0,0,0,.137.98c.128.256.314.478.457.726a1.144,1.144,0,0,1,.177.818c-.03.124-.078.285.029.353s.236-.046.311-.148" transform="translate(8.519 4.229)" fill="#fff" stroke="#fff" stroke-miterlimit="10" stroke-width="1"/>
          <path id="Path_10083" data-name="Path 10083" d="M.909,1.124a1.636,1.636,0,0,0-.294-.7,1.26,1.26,0,0,0-.25-.3A.486.486,0,0,0,0,0L.275.347A1.776,1.776,0,0,1,.469.623c.1.192.146.437.333.547" transform="translate(7.794 2.022)" fill="none" stroke="#fff" stroke-miterlimit="10" stroke-width="1"/>
          <path id="Path_10084" data-name="Path 10084" d="M2.913,8.876A4.822,4.822,0,0,0,3.3,7.455a2.487,2.487,0,0,0-.275-1.429,4.472,4.472,0,0,0-.474-.637,6.265,6.265,0,0,1-.813-1.182,2.734,2.734,0,0,1-.314-1.386A4.231,4.231,0,0,1,1.55,2.1l.134-.55A3.011,3.011,0,0,1,2.4,0C1.856.659.964.977.481,1.682A3.284,3.284,0,0,0,.018,3.34a5.237,5.237,0,0,0,.1,1.577A6.953,6.953,0,0,0,.744,6.428,1.865,1.865,0,0,0,1,6.838a4.36,4.36,0,0,0,.368.319,1.638,1.638,0,0,1,.383.5,3.736,3.736,0,0,0,.22.458,1.741,1.741,0,0,0,.332.34,3,3,0,0,0,.61.437" transform="translate(1.96 1.278)" fill="#dd6d2f"/>
        </g>
        <g id="right_bottom_circle" data-name="right bottom circle" transform="translate(68.184 0.834)">
          <path id="ear" d="M.348,10.737a9.127,9.127,0,0,0,7.6,6A10.962,10.962,0,0,0,17.1,13.075c2.148-2.392,3.236-6.088,1.625-8.87a7.348,7.348,0,0,0-1.969-2.137A10.7,10.7,0,0,0,5.621,1.145,10.7,10.7,0,0,0,.007,10.805" transform="translate(0 0)" fill="#ef48a0"/>
          <path id="ear-2" data-name="ear" d="M.348,10.737a9.127,9.127,0,0,0,7.6,6A10.962,10.962,0,0,0,17.1,13.075c2.148-2.392,3.236-6.088,1.625-8.87a7.348,7.348,0,0,0-1.969-2.137A10.7,10.7,0,0,0,5.621,1.145,10.7,10.7,0,0,0,.007,10.805" transform="translate(0 0)" fill="#f1b05b"/>
          <path id="Path_10085" data-name="Path 10085" d="M2.7,6.745.367,6.652A.427.427,0,0,0,.1,6.7a.359.359,0,0,0-.066.416c.229.631.995.857,1.66.944.715.094,1.437.126,2.158.154a10.7,10.7,0,0,0,5.214-.69,6.5,6.5,0,0,0,3.292-4.47,3.818,3.818,0,0,0,.062-1.566A1.912,1.912,0,0,0,11.574.211,2.167,2.167,0,0,0,9.109.7,10.224,10.224,0,0,0,7.586,2.919a11.087,11.087,0,0,1-1.5,1.917A5.206,5.206,0,0,1,2.058,6.679" transform="translate(4.561 7.081)" fill="#ffd19f"/>
          <path id="Path_10086" data-name="Path 10086" d="M0,3.068a3.777,3.777,0,0,0,2.612-.333A11.229,11.229,0,0,0,4.818,1.2,1.656,1.656,0,0,0,5.227.776.561.561,0,0,0,5.251.21c-.171-.271-.583-.25-.869-.1C3.52.548,3.233,1.7,2.4,2.2c-.706.428-1.662.3-2.33.78" transform="translate(9.985 11.394)" fill="#fff" stroke="#fff" stroke-miterlimit="10" stroke-width="1"/>
          <path id="Path_10087" data-name="Path 10087" d="M.28,7.3a4.291,4.291,0,0,1,1.4,1.383A4.983,4.983,0,0,0,2.429,9.77a2.185,2.185,0,0,0,1.772.45,2.16,2.16,0,0,0,1-.371,1.969,1.969,0,0,0,.529-.619A7.382,7.382,0,0,0,6.2,5.869a9.25,9.25,0,0,1,.541-2.718,2.724,2.724,0,0,1,.636-1.093A2.142,2.142,0,0,1,8.866,1.55a6.369,6.369,0,0,1,1.579.281l2.1.562a1.525,1.525,0,0,0-.713-1.077A5.592,5.592,0,0,0,9.062.026,6.666,6.666,0,0,0,7.718.048,3.387,3.387,0,0,0,5.8.653a3.829,3.829,0,0,0-.67.838A25.406,25.406,0,0,1,0,7.125" transform="translate(4.824 1.287)" fill="#dd6d2f"/>
        </g>
        <path id="body-2" data-name="body" d="M80.656,45.338c-2.772,8.564-6.9,17.282-14.471,22.155-3.865,2.488-8.355,3.789-12.773,5.057-.317.091-.636.175-.956.254A14.851,14.851,0,0,1,60.21,85.812c-.046,8.261-7.073,14.918-15.695,14.87S28.943,93.9,28.989,85.637a14.8,14.8,0,0,1,7.18-12.5A54.474,54.474,0,0,1,16.8,65.085,37.529,37.529,0,0,1,2.354,46.749C.444,41.18.11,35.206.017,29.32-.043,25.571,0,21.745,1.189,18.19c1.9-5.68,6.612-10.1,11.975-12.772S24.527,1.654,30.477.961A143.22,143.22,0,0,1,49.436.02C59.672.192,70.868,1.949,77.665,9.6c4.158,4.683,6.07,11.058,6.229,17.319S82.584,39.38,80.656,45.338Z" transform="translate(0.733 2.46)" fill="#f1b05b"/>
        <g id="Highlight" transform="translate(32.805 31.441)">
          <path id="Path_10088" data-name="Path 10088" d="M14.506,17.374a18.132,18.132,0,0,1-5.674,5.843C7.147,24.3,5.289,25.1,3.64,26.243A7.983,7.983,0,0,0,.108,30.925c-.563,2.723,1.154,5.542,3.537,6.976a14.744,14.744,0,0,0,8.061,1.645,35.26,35.26,0,0,0,20.113-7.059A35.26,35.26,0,0,0,44.1,15.067,17.887,17.887,0,0,0,45.081,8.3a9.1,9.1,0,0,0-2.809-6.1A8.68,8.68,0,0,0,38.816.394C34.848-.7,30.5.594,27.159,3s-5.833,5.8-8.036,9.277a15.484,15.484,0,0,1-4.27,4.582" transform="translate(0 0)" fill="#ffd19f"/>
          <path id="Path_10089" data-name="Path 10089" d="M.494,9.97A2.234,2.234,0,0,1,.522,7.138a6.518,6.518,0,0,1,2.511-1.75,29.96,29.96,0,0,1,8.284-3.032,23.889,23.889,0,0,0,3.739-.619c1.425-.46,2.682-1.4,4.15-1.7a.958.958,0,0,1,.636.03.717.717,0,0,1,.274.846,2,2,0,0,1-.558.776A30.3,30.3,0,0,1,2.243,10.137,3.194,3.194,0,0,1,.108,9.889" transform="translate(13.562 28.787)" fill="#fff"/>
          <path id="Path_10090" data-name="Path 10090" d="M1.315,6.416c1.694-.015,3.156-1.144,4.4-2.3a4.9,4.9,0,0,0,.911-1.033,4.366,4.366,0,0,0,.495-1.53A1.91,1.91,0,0,0,7.08.484.726.726,0,0,0,6.2.04c-.3.125-.413.473-.53.772A8.278,8.278,0,0,1,3.921,3.3,4.921,4.921,0,0,1,1.906,4.817c-.353.11-.728.143-1.078.261a1.2,1.2,0,0,0-.8.706.623.623,0,0,0,.5.811" transform="translate(34.423 19.534)" fill="#fff"/>
        </g>
        <g id="shadow_main" data-name="shadow main" transform="translate(1.216 2.897)">
          <path id="shadow" d="M0,22.576S6.17,13.407,23.209,7.942c11.831-3.795,28.9-7.3,52.784,1.5,0,0-1.187-6.077-20.514-8.795C44.442-.9,23.905.167,12.059,5.589,3.16,9.662,1.366,17.135,0,22.576Z" transform="translate(0 0)" fill="#dd6d2f"/>
          <ellipse id="highlight-2" data-name="highlight" cx="1.354" cy="4.99" rx="1.354" ry="4.99" transform="translate(23.751 2.954) rotate(69.169)" fill="#ffd19f"/>
          <ellipse id="highlight-3" data-name="highlight" cx="0.589" cy="1.737" rx="0.589" ry="1.737" transform="translate(29.398 2.806) rotate(69.169)" fill="#ffd19f"/>
        </g>
        <g id="top_highlights" data-name="top highlights" transform="translate(30.543 75.919)">
          <path id="Path_10091" data-name="Path 10091" d="M1,9.608a1.342,1.342,0,0,0-1,1.305,2.421,2.421,0,0,0,.681,1.6A15.147,15.147,0,0,0,2,13.712a8.945,8.945,0,0,0,1.51,1.255,5.025,5.025,0,0,0,1.676.51,15.44,15.44,0,0,0,9.547-1.561,15.44,15.44,0,0,0,6.707-6.972,7.992,7.992,0,0,0,.848-2.9,4.111,4.111,0,0,0-.822-2.855,3.354,3.354,0,0,0-3.639-1,5.569,5.569,0,0,0-1.478.884c-1.954,1.512-3.6,3.411-5.649,4.79a27.745,27.745,0,0,1-3.3,1.81C5.329,8.683,3.154,9.722.852,9.643Z" transform="translate(6.987 8.665)" fill="#ffd19f"/>
          <path id="shadow-2" data-name="shadow" d="M.515,13.335A7.158,7.158,0,0,1,.692,7.653,13.711,13.711,0,0,1,3.4,3.373,6.225,6.225,0,0,1,5.154,1.981a8.049,8.049,0,0,1,2-.583,71.475,71.475,0,0,1,8.3-1.312,16.534,16.534,0,0,1,6.563.572,10.871,10.871,0,0,1,6.648,6.489A10.578,10.578,0,0,1,25.8,5.026,13.037,13.037,0,0,0,18.4,2.2a20.089,20.089,0,0,0-7.915,1.177A10.228,10.228,0,0,0,5.689,6.327,8.492,8.492,0,0,0,4.017,11.21a2.218,2.218,0,0,1-.178.935,1.694,1.694,0,0,1-.556.561,5,5,0,0,1-2.428.869Z" transform="translate(0 0)" fill="#dd6d2f"/>
          <path id="highlight-4" data-name="highlight" d="M3.2,3.618A3.776,3.776,0,0,0,.586,4.639,1.374,1.374,0,0,0,.112,6.212a1.614,1.614,0,0,0,1.205.6,11.344,11.344,0,0,0,4.124.1A12.286,12.286,0,0,0,8.7,5.583a8.29,8.29,0,0,0,2.689-1.976A3.036,3.036,0,0,0,11.918.468.862.862,0,0,0,11.6.09.9.9,0,0,0,11.112,0c-1.795.072-3.071,1.7-4.6,2.641a6.546,6.546,0,0,1-3.31.969Z" transform="translate(12.202 17.842)" fill="#fff"/>
          <path id="highlight-5" data-name="highlight" d="M.671,2.888A1.234,1.234,0,0,0,1.715,2.71,2.067,2.067,0,0,0,2.4,1.871,1.766,1.766,0,0,0,2.594.783.952.952,0,0,0,1.872.01a1.166,1.166,0,0,0-.823.243A2.5,2.5,0,0,0,.072,1.6a1.341,1.341,0,0,0-.032.753.708.708,0,0,0,.518.508" transform="translate(25.633 15.138)" fill="#fff" stroke="#fff" stroke-miterlimit="10" stroke-width="1"/>
        </g>
      </g>
      <g id="face" transform="translate(19.875 21.382)">
        <g id="Cheek" transform="translate(0 4.911)">
          <ellipse id="Ellipse_135" data-name="Ellipse 135" cx="5.303" cy="3.043" rx="5.303" ry="3.043" transform="translate(0 0)" fill="#f377ba"/>
          <ellipse id="Ellipse_136" data-name="Ellipse 136" cx="5.303" cy="3.043" rx="5.303" ry="3.043" transform="translate(43.182 0.646)" fill="#f47fbe"/>
        </g>
        <g id="mouth" transform="translate(25.529 0)">
          <path id="shadow-3" data-name="shadow" d="M2.948,3.591A2.535,2.535,0,0,0,2.438,1.12,1.724,1.724,0,0,0,0,.715s1.871-1.68,2.921.11S2.948,3.591,2.948,3.591Z" transform="translate(4.969 0)" fill="#dd6d2f"/>
          <ellipse id="mouth-2" data-name="mouth" cx="2.6" cy="4.668" rx="2.6" ry="4.668" transform="translate(3.551 0.659) rotate(22.355)" fill="#541339"/>
        </g>
        <g id="eyes" transform="translate(5.227 15.62)">
          <g id="eye_left" data-name="eye left" transform="translate(27.182 1.755)">
            <ellipse id="eye_left_bg" data-name="eye left bg" cx="5.975" cy="10.182" rx="5.975" ry="10.182" transform="translate(1.788 0) rotate(5.038)" fill="#703305"/>
            <g id="highlight_white_left" data-name="highlight white left" transform="translate(1.484 1.113)">
              <path id="highlight-6" data-name="highlight" d="M6.735,18.4s3.136-6.708.3-13.124S0,5.849,0,5.849s5.549-11.114,8.46-2.7A18.279,18.279,0,0,1,6.735,18.4Z" transform="translate(0.517 0)" fill="#b2a090"/>
              <ellipse id="eye" cx="3.549" cy="1.789" rx="3.549" ry="1.789" transform="translate(4.998 11.009) rotate(84.247)" fill="#fff"/>
              <ellipse id="eye_hightligh" data-name="eye hightligh" cx="0.609" cy="0.687" rx="0.609" ry="0.687" transform="translate(0.711 9.199)" fill="#fff"/>
              <ellipse id="eye_hightligh-2" data-name="eye hightligh" cx="0.517" cy="0.584" rx="0.517" ry="0.584" transform="translate(0 12.288)" fill="#fff"/>
            </g>
          </g>
          <g id="eye_right" data-name="eye right" transform="translate(0 0)">
            <ellipse id="eye_right_bg" data-name="eye right bg" cx="5.975" cy="10.182" rx="5.975" ry="10.182" transform="translate(1.788 0) rotate(5.038)" fill="#703305"/>
            <g id="highlight_white_right" data-name="highlight white right" transform="translate(1.34 0.989)">
              <path id="highlight-7" data-name="highlight" d="M6.734,18.4s3.136-6.708.3-13.124S0,5.849,0,5.849s5.549-11.114,8.459-2.7A18.278,18.278,0,0,1,6.734,18.4Z" transform="translate(0.872 0)" fill="#b2a090"/>
              <ellipse id="eye-2" data-name="eye" cx="3.53" cy="1.798" rx="3.53" ry="1.798" transform="translate(4.78 10.487) rotate(77.757)" fill="#fff"/>
              <ellipse id="eye_hightligh-3" data-name="eye hightligh" cx="0.609" cy="0.687" rx="0.609" ry="0.687" transform="translate(0.336 9.199)" fill="#fff"/>
              <ellipse id="eye_hightligh-4" data-name="eye hightligh" cx="0.517" cy="0.584" rx="0.517" ry="0.584" transform="translate(0 12.385)" fill="#fff"/>
            </g>
          </g>
        </g>
      </g>
    </g>
  </g>
  <animate
           href="#Q5"
           attributeName="opacity"
           from="0"
           to="1" 
           dur="5s"
           begin="4s"
           fill="freeze"
          />
<animateMotion 
href="#left_bottom_circle"
attributeName="d"
begin="0s"
repeatCount="indefinite"
dur="13s"
path="M2.1,0.5h74.1c0,0,1.7,1.5-1,2S1.2,4,1.2,4S-0.8,1,2.1,0.5z"


 />
 <animateMotion 
href="#top_small_circle"
attributeName="d"
begin="0s"
repeatCount="indefinite"
dur="13s"
path="M9.3,0C6.5,1.3,4.9,2.8,4.9,2.8C3.9,13.2-5,12,3.9,13.2"


 />

 <animateMotion 
href="#right_bottom_circle"
attributeName="d"
begin="0s"
repeatCount="indefinite"
dur="13s"
path="M20.3,1.9C13.5,2.8,0.9,0,0.9,0S5.6,0.4,0,6.2"


 />
</svg>
