<svg xmlns="http://www.w3.org/2000/svg" xmlns:xlink="http://www.w3.org/1999/xlink" width="209.6" height="218.092" viewBox="0 0 209.6 218.092">
  <defs>
    <linearGradient id="linear-gradient" y1="0.5" x2="1" y2="0.5" gradientUnits="objectBoundingBox">
      <stop offset="0" stop-color="#3ddeed"/>
      <stop offset="1" stop-color="#3ddeed" stop-opacity="0"/>
    </linearGradient>
  </defs>
  <g id="blue_on_red" data-name="blue on red" transform="translate(-28.082 7.334) rotate(-8)">
    <g id="red_circle" data-name="red circle" transform="translate(0 28.449)">
      <path id="red_circle-2" data-name="red circle" d="M78.448,0A78.448,78.448,0,1,1,0,78.448,78.448,78.448,0,0,1,78.448,0Z" transform="matrix(0.978, 0.208, -0.208, 0.978, 32.62, 19.862)" fill="#fd0d1b"/>
      <path id="red_shadow" data-name="red shadow" d="M81.82.037C119.846,1.264,157.973,39.2,156,75.2s3.915-60.283-74.963-57.347S-2.594,108.892.748,68.38,43.793-1.189,81.82.037Z" transform="matrix(0.695, 0.719, -0.719, 0.695, 97.073, 0)" fill="#c30510"/>
    </g>
    <g id="Q2" transform="translate(48.369 52.591) rotate(-22)">
      <g id="Group_128" data-name="Group 128" transform="translate(0 0)">
        <path id="Path_332" data-name="Path 332" d="M27.955,0,0,18.328,76.925,95.261,92.154,67.918Z" transform="matrix(0.819, -0.574, 0.574, 0.819, 18.15, 74.892)" stroke="#000" stroke-width="4"/>
        <path id="Path_331" data-name="Path 331" d="M34.259,112.858,0,99.016,57.593,0l46.65,36.588Z" transform="translate(37.357 137.764) rotate(-111)" fill="#fff"/>
        <path id="text" d="M11.41-7,9.12,0H7.38L5.84-4.74,4.25,0H2.52L.22-7H1.9L3.48-2.08,5.13-7h1.5l1.6,4.96L9.86-7Zm4.21,1.54a2.214,2.214,0,0,1,1.615.6,2.379,2.379,0,0,1,.615,1.78V0H16.29V-2.84a1.4,1.4,0,0,0-.28-.955,1.027,1.027,0,0,0-.81-.315,1.241,1.241,0,0,0-.94.365,1.511,1.511,0,0,0-.35,1.085V0H12.35V-7.42h1.56v2.6a2.075,2.075,0,0,1,.75-.475A2.713,2.713,0,0,1,15.62-5.46Zm5.81,0a2.8,2.8,0,0,1,1.92.6,2.277,2.277,0,0,1,.67,1.795V0H22.56V-.67a1.738,1.738,0,0,1-1.64.75,2.545,2.545,0,0,1-1.075-.21,1.6,1.6,0,0,1-.695-.58,1.51,1.51,0,0,1-.24-.84,1.4,1.4,0,0,1,.565-1.18,2.879,2.879,0,0,1,1.745-.43h1.24a.994.994,0,0,0-.31-.785,1.365,1.365,0,0,0-.93-.275,2.715,2.715,0,0,0-.845.135,2.236,2.236,0,0,0-.7.365l-.56-1.09a3.379,3.379,0,0,1,1.055-.48A4.726,4.726,0,0,1,21.43-5.46ZM21.31-.97a1.359,1.359,0,0,0,.71-.185,1.012,1.012,0,0,0,.44-.545v-.55H21.39q-.96,0-.96.63a.561.561,0,0,0,.235.475A1.059,1.059,0,0,0,21.31-.97Zm7.59.71a1.6,1.6,0,0,1-.565.255,2.857,2.857,0,0,1-.7.085,2.094,2.094,0,0,1-1.485-.49,1.875,1.875,0,0,1-.525-1.44V-4.06h-.83v-1.2h.83V-6.57h1.56v1.31h1.34v1.2H27.18v2.19a.734.734,0,0,0,.175.525.649.649,0,0,0,.495.185,1,1,0,0,0,.63-.2Zm7.18,0a1.6,1.6,0,0,1-.565.255A2.857,2.857,0,0,1,34.81.08a2.094,2.094,0,0,1-1.485-.49A1.875,1.875,0,0,1,32.8-1.85V-4.06h-.83v-1.2h.83V-6.57h1.56v1.31H35.7v1.2H34.36v2.19a.734.734,0,0,0,.175.525.649.649,0,0,0,.495.185,1,1,0,0,0,.63-.2Zm4.15-5.2a2.214,2.214,0,0,1,1.615.6,2.379,2.379,0,0,1,.615,1.78V0H40.9V-2.84a1.4,1.4,0,0,0-.28-.955,1.027,1.027,0,0,0-.81-.315,1.241,1.241,0,0,0-.94.365,1.511,1.511,0,0,0-.35,1.085V0H36.96V-7.42h1.56v2.6a2.075,2.075,0,0,1,.75-.475A2.713,2.713,0,0,1,40.23-5.46ZM49.2-2.67q0,.03-.03.42H45.1a1.268,1.268,0,0,0,.52.79,1.722,1.722,0,0,0,1.02.29,2.065,2.065,0,0,0,.745-.125,1.8,1.8,0,0,0,.6-.395l.83.9A2.789,2.789,0,0,1,46.6.08a3.512,3.512,0,0,1-1.61-.355,2.6,2.6,0,0,1-1.08-.985,2.714,2.714,0,0,1-.38-1.43A2.749,2.749,0,0,1,43.9-4.115a2.627,2.627,0,0,1,1.03-.99A3.024,3.024,0,0,1,46.4-5.46a3,3,0,0,1,1.43.34,2.482,2.482,0,0,1,1.005.975A2.907,2.907,0,0,1,49.2-2.67ZM46.41-4.28a1.343,1.343,0,0,0-.89.3,1.277,1.277,0,0,0-.44.82h2.65a1.29,1.29,0,0,0-.44-.815A1.315,1.315,0,0,0,46.41-4.28ZM3.13,12.12a5.727,5.727,0,0,1-1.6-.225A3.764,3.764,0,0,1,.28,11.31l.55-1.22a3.732,3.732,0,0,0,1.07.53,4.019,4.019,0,0,0,1.24.2,1.981,1.981,0,0,0,1.02-.2.619.619,0,0,0,.33-.545A.521.521,0,0,0,4.3,9.655a1.478,1.478,0,0,0-.5-.265q-.305-.1-.825-.22a11.4,11.4,0,0,1-1.31-.38,2.128,2.128,0,0,1-.875-.61A1.647,1.647,0,0,1,.42,7.06,1.948,1.948,0,0,1,.75,5.955a2.22,2.22,0,0,1,1-.785A4.06,4.06,0,0,1,3.37,4.88a5.381,5.381,0,0,1,1.31.16A3.87,3.87,0,0,1,5.8,5.5L5.3,6.73a3.9,3.9,0,0,0-1.94-.55,1.819,1.819,0,0,0-1,.22.672.672,0,0,0-.325.58.567.567,0,0,0,.375.535A5.888,5.888,0,0,0,3.55,7.86a11.4,11.4,0,0,1,1.31.38,2.169,2.169,0,0,1,.875.6A1.609,1.609,0,0,1,6.1,9.95a1.911,1.911,0,0,1-.335,1.1,2.251,2.251,0,0,1-1,.785A4.1,4.1,0,0,1,3.13,12.12Zm9.21-5.5L9.91,12.33a2.81,2.81,0,0,1-.915,1.31,2.241,2.241,0,0,1-1.315.38,2.731,2.731,0,0,1-.83-.13,1.833,1.833,0,0,1-.67-.36l.57-1.11a1.339,1.339,0,0,0,.415.25,1.293,1.293,0,0,0,.465.09.825.825,0,0,0,.52-.155,1.316,1.316,0,0,0,.36-.515l.02-.05L6.2,6.62H7.81l1.51,3.65,1.52-3.65Zm7.53-.08a2.169,2.169,0,0,1,1.605.6A2.424,2.424,0,0,1,22.07,8.92V12H20.51V9.16a1.458,1.458,0,0,0-.265-.955.932.932,0,0,0-.755-.315,1.113,1.113,0,0,0-.87.355A1.53,1.53,0,0,0,18.3,9.3V12H16.74V9.16q0-1.27-1.02-1.27a1.1,1.1,0,0,0-.86.355A1.53,1.53,0,0,0,14.54,9.3V12H12.98V6.62h1.49v.62a1.969,1.969,0,0,1,.735-.52,2.474,2.474,0,0,1,.955-.18,2.313,2.313,0,0,1,1.03.225,1.824,1.824,0,0,1,.74.655,2.207,2.207,0,0,1,.835-.65A2.634,2.634,0,0,1,19.87,6.54Zm6.78,0a2.742,2.742,0,0,1,1.365.345,2.477,2.477,0,0,1,.965.97,2.928,2.928,0,0,1,.35,1.455,2.928,2.928,0,0,1-.35,1.455,2.477,2.477,0,0,1-.965.97,2.742,2.742,0,0,1-1.365.345,2.078,2.078,0,0,1-1.62-.65v2.51H23.47V6.62h1.49v.62A2.069,2.069,0,0,1,26.65,6.54Zm-.27,4.26a1.3,1.3,0,0,0,.985-.4A1.51,1.51,0,0,0,27.75,9.31a1.51,1.51,0,0,0-.385-1.085,1.4,1.4,0,0,0-1.97,0A1.51,1.51,0,0,0,25.01,9.31,1.51,1.51,0,0,0,25.4,10.4,1.3,1.3,0,0,0,26.38,10.8Zm7.46.94a1.6,1.6,0,0,1-.565.255,2.857,2.857,0,0,1-.705.085,2.094,2.094,0,0,1-1.485-.49,1.875,1.875,0,0,1-.525-1.44V7.94h-.83V6.74h.83V5.43h1.56V6.74h1.34v1.2H32.12v2.19a.734.734,0,0,0,.175.525.649.649,0,0,0,.5.185,1,1,0,0,0,.63-.2Zm3.27.34a3.226,3.226,0,0,1-1.525-.355,2.639,2.639,0,0,1-1.055-.985,2.881,2.881,0,0,1,0-2.86,2.639,2.639,0,0,1,1.055-.985,3.442,3.442,0,0,1,3.045,0,2.647,2.647,0,0,1,1.05.985,2.881,2.881,0,0,1,0,2.86,2.647,2.647,0,0,1-1.05.985A3.2,3.2,0,0,1,37.11,12.08Zm0-1.28a1.3,1.3,0,0,0,.985-.4A1.51,1.51,0,0,0,38.48,9.31,1.51,1.51,0,0,0,38.1,8.225a1.3,1.3,0,0,0-.985-.405,1.315,1.315,0,0,0-.99.405,1.5,1.5,0,0,0-.39,1.085,1.5,1.5,0,0,0,.39,1.085A1.315,1.315,0,0,0,37.11,10.8ZM47.99,6.54a2.169,2.169,0,0,1,1.6.6,2.424,2.424,0,0,1,.6,1.785V12H48.63V9.16a1.458,1.458,0,0,0-.265-.955.932.932,0,0,0-.755-.315,1.113,1.113,0,0,0-.87.355A1.53,1.53,0,0,0,46.42,9.3V12H44.86V9.16q0-1.27-1.02-1.27a1.1,1.1,0,0,0-.86.355A1.53,1.53,0,0,0,42.66,9.3V12H41.1V6.62h1.49v.62a1.969,1.969,0,0,1,.735-.52,2.474,2.474,0,0,1,.955-.18,2.313,2.313,0,0,1,1.03.225,1.824,1.824,0,0,1,.74.655,2.207,2.207,0,0,1,.835-.65A2.634,2.634,0,0,1,47.99,6.54Zm5.41,5.54a5.226,5.226,0,0,1-1.31-.165,3.423,3.423,0,0,1-1.02-.415l.52-1.12a3.273,3.273,0,0,0,.87.375,3.646,3.646,0,0,0,1,.145q.99,0,.99-.49a.347.347,0,0,0-.27-.33,4,4,0,0,0-.83-.17,8.007,8.007,0,0,1-1.09-.23,1.691,1.691,0,0,1-.745-.46,1.308,1.308,0,0,1-.315-.94,1.472,1.472,0,0,1,.295-.9,1.9,1.9,0,0,1,.86-.615,3.673,3.673,0,0,1,1.335-.22,5.239,5.239,0,0,1,1.135.125,3.173,3.173,0,0,1,.935.345l-.52,1.11a3.1,3.1,0,0,0-1.55-.4,1.577,1.577,0,0,0-.75.14.412.412,0,0,0-.25.36.357.357,0,0,0,.27.35,4.78,4.78,0,0,0,.86.19,9.206,9.206,0,0,1,1.08.235,1.622,1.622,0,0,1,.73.455,1.291,1.291,0,0,1,.31.92,1.421,1.421,0,0,1-.3.89,1.915,1.915,0,0,1-.875.6A3.9,3.9,0,0,1,53.4,12.08Zm7.78-2.51a1.479,1.479,0,0,1,.235-.86,4.6,4.6,0,0,1,.685-.75,3.991,3.991,0,0,0,.485-.505.751.751,0,0,0,.155-.465.686.686,0,0,0-.295-.585,1.3,1.3,0,0,0-.785-.215,1.745,1.745,0,0,0-.835.195,1.78,1.78,0,0,0-.615.545L59,6.22a2.8,2.8,0,0,1,1.135-.99,3.817,3.817,0,0,1,1.695-.35,3.14,3.14,0,0,1,1.845.49,1.572,1.572,0,0,1,.695,1.36,1.79,1.79,0,0,1-.135.72,1.907,1.907,0,0,1-.33.525q-.2.215-.505.5a4.2,4.2,0,0,0-.54.555.878.878,0,0,0-.17.545Zm.76,2.51a.948.948,0,0,1-.685-.265.862.862,0,0,1-.275-.645.838.838,0,0,1,.27-.635,1.061,1.061,0,0,1,1.38,0,.838.838,0,0,1,.27.635.862.862,0,0,1-.275.645A.948.948,0,0,1,61.94,12.08Z" transform="matrix(0.982, 0.191, -0.191, 0.982, 59.608, 65.558)"/>
      </g>
    </g>
    <g id="blue_character" data-name="blue character" transform="matrix(0.998, -0.07, 0.07, 0.998, 34.345, 99.816)">
      <g id="body" transform="translate(0 0)">
        <g id="main_body" data-name="main body" transform="translate(0 0.08)">
          <path id="Path_9979" data-name="Path 9979" d="M1.175,62.1C.493,66.038-1.644,76.2,2.4,84.774c4.343,9.141,14.984,16.622,19.055,17.918s40.679,1.273,42.816.318c3.684-.2,10.028-4.457,14.757-8.845a37.952,37.952,0,0,0,6.549-8.55,44.873,44.873,0,0,0,4.138-21.874c-.637-8.049-7.253-16.03-9.1-18.714-1.342-1.978-6.662-6.458-8.481-8.913a2.567,2.567,0,0,1,.045-2.66c.568-.8,2.774-1.5,3.229-1.728s4.5-1.8,6.8-4.184c1.887-1.955,3.433-7,3.479-7.208,1.592-6.412-1.569-13.711-7-17.508a17.121,17.121,0,0,0-19.214.25,12.006,12.006,0,0,0-3.615,4.093c-.455.864-2.319,3.479-2.547,6.662-.3,4.138,1.228,9.073,2.524,10.778.91,1.205,4.457,4.593,4.684,5.844s.318,1.228-.682,2.069c-1.569,1.3-16.8-.546-19.714-4.593-.568-.8-1-1.933-.341-2.66s1.774-.455,2.706-.659c1.978-.432,2.8-2.774,3.047-4.775.341-2.66.25-5.548-1.342-7.685a9.073,9.073,0,0,0-4.98-3.07c-3.752-.978-8.095-.318-10.869,2.365s-4.184,8.436-1.705,11.415a9,9,0,0,0,3.82,2.888c1.683.546,3.979-.091,4.434.091,1.069.432.773,1.66.478,2.3s-2.547,2.228-3.252,2.751c-2.183,1.637-15.8,6.662-21.715,12.256A30.4,30.4,0,0,0,1.175,62.1Z" transform="translate(0 0)" fill="#2988e7"/>
        </g>
        <g id="main_body-2" data-name="main body" transform="translate(0.453 0)" opacity="0.39">
          <path id="Path_9980" data-name="Path 9980" d="M.722,62.093C-.711,70.233-.1,78.851,3.337,86.355S13.137,100.18,21,102.7c3.752,1.205,40.679,1.251,42.816.3,3.684-.2,10.028-4.457,14.757-8.822a38.463,38.463,0,0,0,6.549-8.55,44.914,44.914,0,0,0,4.138-21.9c-.637-8.049-7.253-16.008-9.1-18.691-1.342-2-6.662-6.48-8.481-8.913a2.62,2.62,0,0,1,.045-2.683c.568-.773,2.774-1.478,3.229-1.705s4.5-1.8,6.8-4.207c1.887-1.955,3.433-7,3.479-7.208,1.592-6.412-1.569-13.711-7-17.508a17.122,17.122,0,0,0-19.214.273A12.006,12.006,0,0,0,55.407,7.18c-.455.841-2.319,3.456-2.547,6.662-.3,4.138,1.228,9.073,2.524,10.778.91,1.182,4.457,4.57,4.684,5.821s.318,1.228-.682,2.069c-1.569,1.3-16.8-.546-19.714-4.593-.568-.773-1-1.933-.341-2.638S41.1,24.8,42.037,24.6c1.978-.409,2.8-2.774,3.047-4.775.341-2.638.25-5.548-1.342-7.686a8.912,8.912,0,0,0-4.98-3.047c-3.752-1-8.095-.341-10.869,2.342S23.71,19.891,26.189,22.87a9.2,9.2,0,0,0,3.82,2.865c1.683.546,3.979-.068,4.434.091,1.069.432.773,1.66.478,2.3s-2.547,2.228-3.252,2.774c-2.183,1.614-15.8,6.662-21.715,12.256A30.356,30.356,0,0,0,.722,62.093Z" transform="translate(0)" fill="url(#linear-gradient)"/>
        </g>
        <g id="highlight" transform="translate(41.286 38.384)">
          <path id="Path_9981" data-name="Path 9981" d="M.477,1.88A25.444,25.444,0,0,1,13.415.22c9.414,1.228,17.463,7.708,23.011,15.416a22.582,22.582,0,0,1,2.888,4.957,14.553,14.553,0,0,1-.5,11.619c-.864,1.751-2.3,3.479-4.252,3.729a5.855,5.855,0,0,1-3.206-.682,24.627,24.627,0,0,1-3.8-2.456c-.841-.614.841-7.276-4.548-12.415C16.826,14.454,3.41,9.793,1.341,6.814.477,5.541-.41,3.972.2,2.562" transform="translate(0 0)" fill="#60b3ec"/>
        </g>
        <g id="highlight-2" data-name="highlight" transform="translate(58.335 43.422)">
          <path id="Path_9982" data-name="Path 9982" d="M.251.049A9.958,9.958,0,0,1,5.822,1,5.594,5.594,0,0,1,8.915,5.484a.614.614,0,0,1-.045.3.455.455,0,0,1-.341.182,3.683,3.683,0,0,1-2.592-.955L.388,1.1A.841.841,0,0,1,0,.64.523.523,0,0,1,.41.095a1.046,1.046,0,0,1,.728.159" transform="translate(0.344 0.341)" fill="#fff"/>
          <path id="Path_9983" data-name="Path 9983" d="M.6.731c2.683-.2,5.73.3,7.413,2.615a4.935,4.935,0,0,1,.773,1.592,2.342,2.342,0,0,1,.136.887c.023-.159-.023.136,0,.091s-.182.068-.25.068A1.637,1.637,0,0,1,8.1,5.938,6.157,6.157,0,0,1,6.211,4.892L4.233,3.482,2,1.936c-.364-.273-.75-.523-1.091-.8S.6.936.754.822A.528.528,0,0,1,1.3.89C1.436.981,2.05.5,1.664.3A1.23,1.23,0,0,0,.481.185.841.841,0,0,0,0,1.027c.091.432.5.659.841.91l1.182.841,2.5,1.751c.773.546,1.546,1.16,2.365,1.637a4,4,0,0,0,1.228.455,1.628,1.628,0,0,0,1.137-.114,1.012,1.012,0,0,0,.3-1.046,4.275,4.275,0,0,0-.227-1.069A6.3,6.3,0,0,0,6.348,1.049,10.245,10.245,0,0,0,.6.049C.163.071.163.754.6.731Z" transform="translate(0 0)" fill="#fff"/>
        </g>
        <g id="highlight-3" data-name="highlight" transform="translate(71.865 51.246)">
          <path id="Path_9984" data-name="Path 9984" d="M1.235,2.12A3.07,3.07,0,0,1,.03.506.66.66,0,0,1,.007.21a.387.387,0,0,1,.409-.2A1.069,1.069,0,0,1,.871.233L2.986,1.756a3.547,3.547,0,0,1,.637.523A1.956,1.956,0,0,1,4.1,3.439a.5.5,0,0,1-.045.25.455.455,0,0,1-.25.136c-.432.045-.773-.3-1.091-.568A11.3,11.3,0,0,1,.849,1.825" transform="translate(0.11 0.109)" fill="#fff"/>
          <path id="Path_9985" data-name="Path 9985" d="M1.39,2.138a3.024,3.024,0,0,1-.8-.819,3.435,3.435,0,0,1-.25-.5C.276.66.14.387.322.274s.364,0,.5.091L1.39.774l1.137.819a7.754,7.754,0,0,1,1.091.841A1.774,1.774,0,0,1,4.1,3.525c0,.091,0,.2-.091.25a.523.523,0,0,1-.273.045,1.3,1.3,0,0,1-.5-.25,8.3,8.3,0,0,0-.7-.546l-.841-.591a1.91,1.91,0,0,1-.637-.568c-.068-.114-.273,0-.182.114a2.161,2.161,0,0,0,.614.591l.932.637c.318.227.568.5.887.682s.864.3,1-.136a1.137,1.137,0,0,0-.045-.614,1.888,1.888,0,0,0-.273-.614,4.34,4.34,0,0,0-1.137-1L1.459.547A3.387,3.387,0,0,0,.8.092.591.591,0,0,0,.253.046C-.247.251.117.91.3,1.251a3.206,3.206,0,0,0,.978,1.091c.114.068.227-.114.114-.2Z" transform="translate(0 0)" fill="#fff"/>
        </g>
        <path id="hightlight" d="M0,0S17.622,17.622,35.13,23.739c18.418,6.435,29.9,5.23,29.9,5.23L45.795,29.7l-5.912-.136h-6.73s-9.232.887-17.372-3.638S2.365,10.914,1.478,7.049Z" transform="translate(0.198 73.826)" fill="#2988e7"/>
        <ellipse id="hightlight-2" data-name="hightlight" cx="1.364" cy="7.231" rx="1.364" ry="7.231" transform="translate(21.588 100.376) rotate(-79)" fill="#93e0f6"/>
        <ellipse id="hightlight-3" data-name="hightlight" cx="1.164" cy="2.008" rx="1.164" ry="2.008" transform="translate(15.156 95.777) rotate(-60.113)" fill="#93e0f6"/>
        <path id="hightlight-4" data-name="hightlight" d="M.134.039C1.748,1.972,7.388,7.747,14.391,5.655c0,0-5.5,2.615-8.5,1.387A12.975,12.975,0,0,1,1.044,3.359C.043,1.949-.184-.325.134.039Z" transform="translate(26.099 17.965)" fill="#60b3ec"/>
        <g id="hightlight-5" data-name="hightlight" transform="translate(31.511 10.706)">
          <path id="Path_9986" data-name="Path 9986" d="M3.021,4.546c-.478-.091-.955-.045-1.433-.091A1.933,1.933,0,0,1,.316,3.841a2.208,2.208,0,0,1-.068-2.16A2.592,2.592,0,0,1,.657,1,2.478,2.478,0,0,1,1.521.43,10.023,10.023,0,0,1,6.773.271,4.252,4.252,0,0,1,8.365.7,4.925,4.925,0,0,1,9.8,2.318a5.693,5.693,0,0,1,.955,1.933,2.069,2.069,0,0,1-.045,1.228,2.115,2.115,0,0,1-.819.955,2.024,2.024,0,0,1-1.455.387c-.887-.159-1.41-1.137-2.206-1.614a3.684,3.684,0,0,0-1.091-.387,19.671,19.671,0,0,0-1.955-.364" transform="translate(0 0)" fill="#39aef3"/>
        </g>
        <g id="hightlight-6" data-name="hightlight" transform="translate(32.554 11.014)">
          <path id="Path_9987" data-name="Path 9987" d="M.227.433A8,8,0,0,1,3.888.047,2.8,2.8,0,0,1,5.434.5,27.1,27.1,0,0,1,0,.638" transform="translate(0.114 0.122)" fill="#fff"/>
          <path id="Path_9988" data-name="Path 9988" d="M.387.669A6.912,6.912,0,0,1,3.024.237l1.3.068A2.206,2.206,0,0,1,5.457.692L5.548.51A27.1,27.1,0,0,1,.114.646a.114.114,0,0,0,0,.227A27.1,27.1,0,0,0,5.548.737c.068-.023.159-.136.068-.2A2.478,2.478,0,0,0,4.479.1,8.958,8.958,0,0,0,3.115.009a6.935,6.935,0,0,0-2.8.432C.182.51.25.714.387.669Z" transform="translate(0 0)" fill="#fff"/>
        </g>
        <g id="hightlight-7" data-name="hightlight" transform="translate(39.002 11.443)">
          <path id="Path_9989" data-name="Path 9989" d="M.123.217A1.8,1.8,0,0,1,.988.786l.091-.2a1.524,1.524,0,0,1-.887-.5C.146.013.078.035.033.081a.114.114,0,0,0,0,.159,1.705,1.705,0,0,0,1,.568c.045,0,.091,0,.114-.045a.114.114,0,0,0,0-.136A1.887,1.887,0,0,0,.192.013.091.091,0,0,0,.055.081C.032.149.078.217.123.217Z" transform="translate(0 0)" fill="#fff"/>
        </g>
        <g id="hightlight-8" data-name="hightlight" transform="translate(68.386 3.327)">
          <path id="Path_9990" data-name="Path 9990" d="M.617.511A2.081,2.081,0,0,0,.072,2.58,9.747,9.747,0,0,0,2.141,4.6,33.089,33.089,0,0,1,6.62,8.788a31.681,31.681,0,0,1,3,4.957c.8,2.046,2.365,4.093,3.342,3.865A3.59,3.59,0,0,0,15.215,15a8.053,8.053,0,0,0-.273-3.593A17.361,17.361,0,0,0,10.3,2.648C7.848.375,3.732-.717.617.511" transform="translate(0 0)" fill="#3aadf7"/>
        </g>
        <g id="hightlight-9" data-name="hightlight" transform="translate(68.639 3.748)">
          <path id="Path_9991" data-name="Path 9991" d="M.346.5A9.618,9.618,0,0,1,5.666.271,6.48,6.48,0,0,1,7.372.93a8.23,8.23,0,0,1,.864.591,11.1,11.1,0,0,1,1.751,1.5,3.866,3.866,0,0,1,1.046,2.024.614.614,0,0,1-.114.523.409.409,0,0,1-.318.136A1.433,1.433,0,0,1,9.35,5.159,6.983,6.983,0,0,1,8.554,4a6.594,6.594,0,0,0-3.32-2.547,6.435,6.435,0,0,0-4.184.023c-.318.114-.728.227-.955,0S.073.7.437.544" transform="translate(0.132 0.115)" fill="#fff"/>
          <path id="Path_9992" data-name="Path 9992" d="M.5.727A9.414,9.414,0,0,1,6.048.568a6.731,6.731,0,0,1,1.273.5,8.05,8.05,0,0,1,1.16.8A8.57,8.57,0,0,1,10.46,3.728a3.8,3.8,0,0,1,.523,1.16,1.137,1.137,0,0,1,.045.614c-.068.227-.364.227-.546.2-.91-.091-1.319-1.091-1.774-1.751A6.64,6.64,0,0,0,4.775,1.272a6.867,6.867,0,0,0-2.638-.045l-.682.159-.591.182a.591.591,0,0,1-.523-.023.341.341,0,0,1-.068-.432A.75.75,0,0,1,.614.75C.75.681.637.5.5.568a.887.887,0,0,0-.5.8.6.6,0,0,0,.773.455,3.91,3.91,0,0,0,.637-.182l.7-.182A6.253,6.253,0,0,1,8.3,3.8c.546.682.887,1.66,1.751,2.046.341.136.864.2,1.114-.114s.068-.864-.045-1.182a5.321,5.321,0,0,0-1.66-2.206A11.162,11.162,0,0,0,8.3,1.454,5.3,5.3,0,0,0,7.026.681,8.482,8.482,0,0,0,4.138.022,9.414,9.414,0,0,0,1.16.295l-.7.227C.318.568.364.772.5.727Z" transform="translate(0 0)" fill="#fff"/>
        </g>
        <g id="hightlight-10" data-name="hightlight" transform="translate(80.512 10.2)">
          <path id="Path_9993" data-name="Path 9993" d="M.27.136a2.66,2.66,0,0,1,1.387,2.41c0,.091,0,.182-.068.227a.25.25,0,0,1-.341-.023.932.932,0,0,1-.159-.341,2.706,2.706,0,0,0-.455-1.16A5.682,5.682,0,0,1,.133.7.581.581,0,0,1,.11,0" transform="translate(0 0.118)" fill="#fff"/>
          <path id="Path_9994" data-name="Path 9994" d="M.2.345A2.683,2.683,0,0,1,1.516,2.187c0,.091.023.182.023.273a1.3,1.3,0,0,1,0,.3c-.045.136-.182.068-.25,0a1.48,1.48,0,0,1-.091-.3A3.069,3.069,0,0,0,.72,1.3C.583,1.119.379.982.242.8A.523.523,0,0,1,.2.186C.288.1.128-.064.038.027A1.455,1.455,0,0,0,.31,1.187a2.41,2.41,0,0,1,.478.7c.091.25.136.5.227.75a.5.5,0,0,0,.432.432c.227,0,.318-.2.318-.409A2.8,2.8,0,0,0,1.447,1.3,2.888,2.888,0,0,0,.31.164C.174.1.06.277.2.345Z" transform="translate(0.005 0)" fill="#fff"/>
        </g>
        <path id="hightlight-11" data-name="hightlight" d="M.013,0S13.792,13.393,25.57,8.231c0,0-4.184,4.661-11.756,2.615A29.488,29.488,0,0,1,1.65,4.207S-.169,1.3.013,0Z" transform="translate(54.574 20.414)" fill="#50adee"/>
        <g id="body_left" data-name="body left" transform="translate(2.824 33.284)">
          <g id="circle_outside" data-name="circle outside" transform="translate(0 0)">
            <path id="Path_9995" data-name="Path 9995" d="M5.491.068A5.97,5.97,0,0,0,.011,6.185,7.185,7.185,0,0,0,1.535,9.937a7.792,7.792,0,0,0,5.139,3.047,6.652,6.652,0,0,0,6.776-4.047,6.422,6.422,0,0,0-2.365-7.481A12.3,12.3,0,0,0,5.377,0" fill="#2988e7"/>
          </g>
          <g id="hightlight-12" data-name="hightlight" transform="translate(4.9 1.564)">
            <path id="Path_9996" data-name="Path 9996" d="M.114.323A6.98,6.98,0,0,1,2.478.005,2.733,2.733,0,0,1,4.525,1.074,3.689,3.689,0,0,1,5,3.325a1.8,1.8,0,0,1-.114.682,1.416,1.416,0,0,1-1.523.637A3.684,3.684,0,0,1,1,3.188,5.662,5.662,0,0,1,0,.573" transform="translate(0 0)" fill="#60b3ec"/>
          </g>
          <g id="hightlight-13" data-name="hightlight" transform="translate(5.137 1.897)">
            <path id="Path_9997" data-name="Path 9997" d="M.068.194A8.05,8.05,0,0,1,2.274.012a2.206,2.206,0,0,1,.773.136,2.473,2.473,0,0,1,.864.819A1.3,1.3,0,0,1,3.274.786,6.321,6.321,0,0,0,2.137.535L0,.24" transform="translate(0.104 0.114)" fill="#fff"/>
            <path id="Path_9998" data-name="Path 9998" d="M.194.422A7.64,7.64,0,0,1,2.355.24a1.683,1.683,0,0,1,.932.227A2.933,2.933,0,0,1,3.9,1.15L4.014.968A3.227,3.227,0,0,1,3.1.7,6.139,6.139,0,0,0,2.173.536L.149.24c-.159-.023-.2.2-.068.227l2.069.3A6.98,6.98,0,0,1,3.1.922a3.018,3.018,0,0,0,.91.273c.341,0,.136-.091.091-.159a3.138,3.138,0,0,0-.637-.7A1.773,1.773,0,0,0,2.514.013,9.322,9.322,0,0,0,.126.195C-.01.24.058.445.194.422Z" transform="translate(0 0)" fill="#fff"/>
          </g>
          <path id="hightlight-14" data-name="hightlight" d="M0,0S3.047,5.912,4.207,6.071C4.207,6.071.091,4.093,0,0Z" transform="translate(0.375 5.889)" fill="#60b3ec"/>
        </g>
        <g id="body_right" data-name="body right" transform="translate(82.51 32.17)">
          <ellipse id="Ellipse_108" data-name="Ellipse 108" cx="6.594" cy="7.003" rx="6.594" ry="7.003" fill="#2988e7"/>
          <g id="hightlight-15" data-name="hightlight" transform="translate(3.341 1.622)">
            <path id="Path_9999" data-name="Path 9999" d="M0,1.1A7.572,7.572,0,0,1,4.252.007,4.411,4.411,0,0,1,5.866.3,4.462,4.462,0,0,1,8.345,4.054a1.387,1.387,0,0,1-.068.682.614.614,0,0,1-.523.387A.8.8,0,0,1,7.3,4.85C6.48,4.032,6.208,2.69,5.207,2.144a3.819,3.819,0,0,0-1.614-.364L1.16,1.644C.728,1.6.182,1.485.091,1.053" transform="translate(0.115 0.122)" fill="#3db0f4"/>
            <path id="Path_10000" data-name="Path 10000" d="M.161,1.334A7.6,7.6,0,0,1,4.527.243,3.911,3.911,0,0,1,6.6.9,4.23,4.23,0,0,1,7.8,2.312a5.254,5.254,0,0,1,.546,1.819c.023.341.045.841-.341.978s-.614-.3-.773-.523c-.7-.932-1.046-2.228-2.274-2.615a7.528,7.528,0,0,0-1.251-.182L2.3,1.7a11.981,11.981,0,0,1-1.273-.091c-.3-.045-.637-.136-.7-.455a.114.114,0,1,0-.2.045c.114.659,1,.659,1.5.7l1.432.068c.409.045.841.045,1.251.114a2.478,2.478,0,0,1,1.137.364,3.025,3.025,0,0,1,.637.682c.364.523.614,1.137,1,1.637s.432.546.75.568a.682.682,0,0,0,.7-.546,2.046,2.046,0,0,0-.023-1.046,3.683,3.683,0,0,0-.273-.978A4.707,4.707,0,0,0,7.164,1.084,3.706,3.706,0,0,0,5.3.106,7.6,7.6,0,0,0,.047,1.13c-.114.068,0,.273.114.2Z" transform="translate(0 0)" fill="#3db0f4"/>
          </g>
          <g id="hightlight-16" data-name="hightlight" transform="translate(5.865 1.384)">
            <path id="Path_10001" data-name="Path 10001" d="M.66.094a6.026,6.026,0,0,1,3,.227c.864.341,1.433.887,1.5,1.455a.318.318,0,0,1-.3.364.659.659,0,0,1-.5-.159.955.955,0,0,1-.091-.341A1.443,1.443,0,0,0,3.207.822,9.59,9.59,0,0,0,.979.662,2.8,2.8,0,0,1,.365.617C.183.571.024.481,0,.367S.342.048.615.117" transform="translate(0 0)" fill="#f5fff7"/>
          </g>
          <path id="Path_10002" data-name="Path 10002" d="M0,0A9.277,9.277,0,0,0,8.777,3.479a5.957,5.957,0,0,1-5.935-.045A7.548,7.548,0,0,1,0,0Z" transform="translate(0.841 9.004)" fill="#3db0f4"/>
        </g>
      </g>
      <g id="face" transform="translate(17.888 44.926)">
        <g id="cheek" transform="translate(0 25.444)">
          <ellipse id="pink_cheek" data-name="pink cheek" cx="5.253" cy="3.047" rx="5.253" ry="3.047" transform="translate(0 0)" fill="#d78bca"/>
          <ellipse id="pink_cheek-2" data-name="pink cheek" cx="5.253" cy="3.047" rx="5.253" ry="3.047" transform="translate(41.611 0)" fill="#d78bca"/>
        </g>
        <g id="eye_left" data-name="eye left" transform="translate(7.685 0.023)">
          <ellipse id="Ellipse_109" data-name="Ellipse 109" cx="5.503" cy="11.483" rx="5.503" ry="11.483" transform="translate(0 0)" fill="#125d9b" stroke="#254252" stroke-miterlimit="10" stroke-width="1"/>
          <ellipse id="Ellipse_110" data-name="Ellipse 110" cx="4.889" cy="9.345" rx="4.889" ry="9.345" transform="translate(1.228 0)" fill="#0f3656" stroke="#254252" stroke-miterlimit="10" stroke-width="1"/>
          <ellipse id="Ellipse_111" data-name="Ellipse 111" cx="1.523" cy="2.115" rx="1.523" ry="2.115" transform="translate(6.117 4.07)" fill="#fff"/>
          <ellipse id="Ellipse_112" data-name="Ellipse 112" cx="1.364" cy="1.137" rx="1.364" ry="1.137" transform="translate(3.388 17.781)" fill="#fff"/>
        </g>
        <g id="eye_right" data-name="eye right" transform="translate(32.47 0)">
          <ellipse id="Ellipse_113" data-name="Ellipse 113" cx="5.503" cy="11.483" rx="5.503" ry="11.483" transform="translate(0 0)" fill="#125d9b" stroke="#254252" stroke-miterlimit="10" stroke-width="1"/>
          <ellipse id="Ellipse_114" data-name="Ellipse 114" cx="4.889" cy="9.345" rx="4.889" ry="9.345" transform="translate(1.228 0)" fill="#0f3656" stroke="#254252" stroke-miterlimit="10" stroke-width="1"/>
          <ellipse id="Ellipse_115" data-name="Ellipse 115" cx="1.523" cy="2.115" rx="1.523" ry="2.115" transform="translate(6.117 4.07)" fill="#fff"/>
          <ellipse id="Ellipse_116" data-name="Ellipse 116" cx="1.364" cy="1.137" rx="1.364" ry="1.137" transform="translate(3.388 17.781)" fill="#fff"/>
        </g>
        <g id="mouth" transform="translate(18.304 34.179)">
          <path id="Path_10003" data-name="Path 10003" d="M0,.542A8.564,8.564,0,0,0,4.707,5.612a7.658,7.658,0,0,0,7.322-1.364A5.889,5.889,0,0,0,14.052.792a.477.477,0,0,0-.318-.568.478.478,0,0,0-.568.318,5.961,5.961,0,0,1-.2.864l-.068.182a.091.091,0,0,0-.023.068V1.7l-.2.387-.2.341-.091.136-.068.114c-.023,0-.091.114-.045.045a6.482,6.482,0,0,1-.523.591l-.273.25L11.3,3.7l-.068.045-.045.045a6.093,6.093,0,0,1-.637.409l-.819.432c.068-.045-.091.023-.068.023L9.573,4.7l-.2.068-.478.136-.432.114-.182.045H8.049a5.822,5.822,0,0,1-.887.068H6.321a6.231,6.231,0,0,1-.887-.2l-.409-.136-.091-.045c-.023,0-.114-.045-.023,0L4.73,4.657a4.8,4.8,0,0,1-.682-.364l-.318-.2L3.593,4,3.5,3.93l-.045-.045c.023.023.023.045,0,.023l-.614-.546A8.142,8.142,0,0,1,2.251,2.7l-.068-.068-.068-.091c.045.068-.045-.045-.045-.045L2,2.384l-.25-.364a6.159,6.159,0,0,1-.477-.841l-.2-.455c-.023,0-.045-.068-.023,0A.318.318,0,0,0,1,.587C.978.5.932.428.91.337A.455.455,0,0,0,.341.019.478.478,0,0,0,.023.587Z" transform="translate(0 0)" fill="#254252"/>
        </g>
      </g>
    </g>
  </g>
</svg>
