<?xml version="1.0" encoding="utf-8"?>
<!-- Generator: Adobe Illustrator 24.0.3, SVG Export Plug-In . SVG Version: 6.00 Build 0)  -->
<svg version="1.1" id="Layer_1" xmlns="http://www.w3.org/2000/svg" xmlns:xlink="http://www.w3.org/1999/xlink" x="0px" y="0px"
	 viewBox="0 0 255 199.2" style="enable-background:new 0 0 255 199.2;" xml:space="preserve">
<style type="text/css">
	.st0{fill:#FED831;}
	.st1{fill:#FEC731;}
	.st2{stroke:#000000;stroke-width:4.001;stroke-miterlimit:4.001;}
	.st3{fill:#FFFFFF;}
	.st4{fill:#0AA8A0;}
	.st5{fill:#BFD631;}
	.st6{fill:#DBE298;}
	.st7{fill:#FDFFFD;}
	.st8{fill:#8AAB49;}
	.st9{fill:#006B65;}
	.st10{fill:#064138;stroke:#006B65;stroke-width:1.0003;stroke-miterlimit:10.0025;}
	.st11{fill:#91B5AF;}
	.st12{fill:#FDCDD1;}
</style>
<g id="green_on_yellow" transform="matrix(0.985, -0.174, 0.174, 0.985, -31.371, -14.901)">
	<g id="yellow_circle" transform="translate(44.607 42.285)">
		<path id="yellow_circle-2" class="st0" d="M117.4,35.5c45.8,9.3,75.1,52.5,65.3,96.3s-54.8,71.9-100.6,62.5S7,141.9,16.8,98.1
			S71.6,26.2,117.4,35.5z"/>
		<path id="yellow_shadow" class="st1" d="M164.8,60.9c26.4,29.2,25.6,84.9-2.6,109.3s47.7-40.5-11.2-97.1S23,76.4,55.6,49.8
			S138.3,31.7,164.8,60.9z"/>
	</g>
	<g id="How_Is_HIV_Transmitted_" transform="translate(129.639 8.573) rotate(65)">
		<path id="Path_309" class="st2" d="M94.9,39.5L123.2,52l-80.4,75.9L17.3,85.3L94.9,39.5z"/>
		<path id="Path_308" class="st3" d="M99.1,21.9l26.8,23.3l-83.4,72.1l-31-47.9L99.1,21.9z"/>
		<path id="text" d="M36.3,80.4l4.4,5.4l-1.3,1l-1.8-2.2l-2.5,2l1.8,2.2l-1.3,1l-4.4-5.4l1.3-1l1.7,2.1l2.5-2l-1.7-2.1L36.3,80.4z
			 M44,83.3c-0.4,0.3-0.9,0.6-1.4,0.7c-0.5,0.1-1,0.1-1.4-0.1c-0.5-0.2-0.9-0.5-1.2-0.9c-0.3-0.4-0.5-0.9-0.6-1.4
			c-0.1-0.5,0-1,0.2-1.4c0.2-0.5,0.5-0.9,1-1.2c0.4-0.3,0.9-0.6,1.4-0.7c0.5-0.1,1-0.1,1.4,0.1c0.5,0.2,0.9,0.5,1.2,0.9
			c0.3,0.4,0.5,0.9,0.6,1.4c0.1,0.5,0,1-0.2,1.4C44.7,82.5,44.4,82.9,44,83.3z M43.2,82.3c0.3-0.2,0.5-0.6,0.5-0.9
			c0-0.4-0.1-0.8-0.4-1.1c-0.2-0.3-0.6-0.5-1-0.6c-0.4,0-0.7,0.1-1,0.3c-0.3,0.2-0.5,0.6-0.5,0.9c0,0.4,0.1,0.8,0.4,1.1
			c0.2,0.3,0.6,0.5,1,0.6C42.5,82.6,42.9,82.5,43.2,82.3z M50.2,71.2l1.9,5.4l-1.2,0.9l-3-1.8l1.1,3.4L47.9,80l-4.9-3l1.1-0.9l3.3,2
			l-1.3-3.7l1-0.8l3.3,2L49.2,72L50.2,71.2z M52.1,67.6l1.3-1l4.4,5.4l-1.3,1L52.1,67.6z M60.4,70c-0.3,0.3-0.7,0.5-1.1,0.7
			c-0.3,0.2-0.7,0.3-1.1,0.3l-0.3-1.2c0.3,0,0.6-0.1,0.9-0.3c0.3-0.1,0.6-0.3,0.9-0.5c0.5-0.4,0.7-0.7,0.5-1
			c-0.1-0.1-0.3-0.2-0.4-0.1c-0.3,0.1-0.5,0.2-0.8,0.4c-0.3,0.2-0.6,0.4-1,0.5c-0.3,0.1-0.6,0.2-0.9,0.1c-0.3-0.1-0.6-0.3-0.8-0.5
			c-0.2-0.3-0.3-0.6-0.3-0.9c0-0.4,0.1-0.7,0.3-1c0.2-0.4,0.5-0.7,0.9-1c0.3-0.2,0.6-0.4,1-0.6c0.3-0.2,0.6-0.3,0.9-0.3l0.3,1.2
			c-0.5,0.1-1,0.3-1.5,0.7c-0.2,0.2-0.4,0.3-0.5,0.6c-0.1,0.1-0.1,0.3,0,0.4c0.1,0.1,0.3,0.2,0.4,0.1c0.3-0.1,0.5-0.2,0.8-0.4
			c0.3-0.2,0.6-0.4,1-0.5c0.3-0.1,0.6-0.1,0.9-0.1c0.3,0.1,0.6,0.2,0.8,0.5c0.2,0.2,0.3,0.6,0.3,0.9c0,0.4-0.1,0.7-0.3,1
			C61.1,69.3,60.8,69.7,60.4,70z M65.9,56.4l4.4,5.4l-1.3,1l-1.8-2.2l-2.5,2l1.8,2.2l-1.3,1l-4.4-5.4l1.3-1l1.7,2.1l2.5-2l-1.7-2.1
			L65.9,56.4z M67.2,55.3l1.3-1l4.4,5.4l-1.3,1L67.2,55.3z M75,49.1l2.1,7.3l-1.2,1L69,53.9l1.4-1.1l4.8,2.5l-1.5-5.2L75,49.1z
			 M40.8,93.8l-1.7,1.4l-0.8-1l4.7-3.8l0.8,1l-1.7,1.4l3.6,4.4l-1.3,1L40.8,93.8z M46.1,90.8c0-0.3,0.1-0.6,0.2-0.9
			c0.2-0.3,0.4-0.6,0.7-0.8l0.9,1.1c-0.1,0.1-0.2,0.2-0.3,0.2c-0.3,0.2-0.5,0.6-0.6,1c0,0.4,0.1,0.8,0.4,1.1l1.6,2l-1.2,1l-3.4-4.2
			l1.2-0.9L46.1,90.8z M49.4,87.1c0.5-0.5,1.2-0.7,1.9-0.7c0.7,0.1,1.3,0.4,1.7,1l1.9,2.4l-1.1,0.9l-0.4-0.5
			c0.1,0.6-0.3,1.3-0.8,1.6c-0.3,0.2-0.6,0.4-1,0.5c-0.3,0.1-0.6,0.1-0.9,0c-0.3-0.1-0.5-0.3-0.7-0.5c-0.3-0.3-0.4-0.8-0.3-1.3
			c0.2-0.6,0.6-1.1,1.1-1.4l1-0.8c-0.2-0.2-0.4-0.4-0.7-0.4c-0.3,0-0.7,0.1-0.9,0.4c-0.2,0.2-0.4,0.4-0.6,0.6
			c-0.1,0.2-0.3,0.5-0.3,0.7l-1.1-0.5c0.1-0.4,0.3-0.7,0.5-1C48.8,87.7,49.1,87.4,49.4,87.1z M52.2,90.7c0.2-0.2,0.3-0.4,0.4-0.6
			c0.1-0.2,0.1-0.5,0-0.7L52.3,89l-0.8,0.7c-0.5,0.4-0.6,0.8-0.3,1.1c0.1,0.1,0.3,0.2,0.5,0.2C51.8,90.9,52,90.9,52.2,90.7z
			 M55.1,82.6c0.4-0.4,1-0.6,1.6-0.6c0.6,0.1,1.2,0.5,1.6,1l1.9,2.4l-1.2,1l-1.8-2.2c-0.2-0.3-0.5-0.5-0.8-0.6
			c-0.3,0-0.6,0.1-0.8,0.3c-0.3,0.2-0.5,0.5-0.5,0.9c0,0.4,0.1,0.8,0.4,1.1l1.7,2.1l-1.2,1l-3.4-4.2l1.2-0.9l0.4,0.5
			c0-0.3,0.1-0.6,0.3-0.9C54.6,83,54.8,82.8,55.1,82.6z M62.8,83.4c-0.3,0.3-0.7,0.5-1.1,0.7c-0.3,0.2-0.7,0.3-1.1,0.3l-0.3-1.2
			c0.3,0,0.6-0.1,0.9-0.3c0.3-0.1,0.6-0.3,0.9-0.5c0.5-0.4,0.7-0.7,0.5-1c-0.1-0.1-0.3-0.2-0.4-0.1c-0.3,0.1-0.5,0.2-0.8,0.4
			c-0.3,0.2-0.6,0.4-1,0.5c-0.3,0.1-0.6,0.2-0.9,0.1c-0.3-0.1-0.6-0.3-0.8-0.5c-0.2-0.3-0.3-0.6-0.3-0.9c0-0.4,0.1-0.7,0.3-1
			c0.2-0.4,0.5-0.7,0.9-1c0.3-0.2,0.6-0.4,1-0.6c0.3-0.2,0.6-0.3,0.9-0.3l0.3,1.2c-0.5,0.1-1,0.3-1.5,0.7c-0.2,0.2-0.4,0.3-0.5,0.6
			c-0.1,0.1-0.1,0.3,0,0.4c0.1,0.1,0.3,0.2,0.4,0.1c0.3-0.1,0.5-0.2,0.8-0.4c0.3-0.2,0.6-0.4,1-0.5c0.3-0.1,0.6-0.1,0.9-0.1
			c0.3,0.1,0.6,0.2,0.8,0.5c0.2,0.2,0.3,0.6,0.3,0.9c0,0.4-0.1,0.7-0.3,1C63.5,82.8,63.2,83.2,62.8,83.4z M67.4,72.6
			c0.4-0.4,1-0.6,1.6-0.5c0.6,0.1,1.2,0.5,1.6,1l1.9,2.4l-1.2,1l-1.8-2.2c-0.2-0.3-0.5-0.5-0.8-0.6c-0.3,0-0.6,0-0.8,0.2
			c-0.3,0.2-0.4,0.5-0.5,0.8c0,0.4,0.2,0.7,0.4,1l1.7,2.1l-1.2,1l-1.8-2.2c-0.5-0.7-1.1-0.8-1.6-0.3c-0.3,0.2-0.4,0.5-0.4,0.8
			c0,0.4,0.2,0.7,0.4,1l1.7,2.1l-1.2,1L62.1,77l1.2-0.9l0.4,0.5c0-0.3,0.1-0.6,0.2-0.9c0.2-0.3,0.4-0.5,0.6-0.7
			c0.3-0.2,0.6-0.4,0.9-0.5c0.3-0.1,0.7-0.1,1,0c0-0.4,0.1-0.7,0.2-1C66.9,73.1,67.1,72.8,67.4,72.6z M70.3,70.4l1.2-1l3.4,4.2
			l-1.2,1L70.3,70.4z M70.4,69.3c-0.2,0.2-0.4,0.3-0.7,0.2c-0.5,0-0.8-0.4-0.8-0.9c0,0,0,0,0-0.1c0-0.3,0.2-0.5,0.4-0.6
			c0.2-0.2,0.4-0.3,0.7-0.3c0.2,0,0.4,0.1,0.6,0.3c0.2,0.2,0.2,0.4,0.2,0.7C70.7,68.9,70.6,69.2,70.4,69.3z M78.5,70.3
			c-0.1,0.2-0.2,0.4-0.3,0.6c-0.1,0.2-0.3,0.4-0.5,0.5c-0.4,0.4-0.9,0.6-1.5,0.6c-0.5-0.1-1-0.4-1.3-0.8l-1.4-1.7l-0.6,0.5L72.2,69
			l0.6-0.5l-0.8-1l1.2-1l0.8,1l1-0.8l0.8,0.9l-1,0.8l1.4,1.7c0.1,0.2,0.3,0.3,0.5,0.3c0.2,0,0.4,0,0.5-0.2c0.2-0.1,0.3-0.3,0.4-0.6
			L78.5,70.3z M81.8,67.6c-0.1,0.2-0.2,0.4-0.3,0.6c-0.1,0.2-0.3,0.4-0.5,0.5c-0.4,0.4-0.9,0.6-1.5,0.6c-0.5-0.1-1-0.4-1.3-0.8
			l-1.4-1.7l-0.6,0.5l-0.8-0.9l0.6-0.5l-0.8-1l1.2-1l0.8,1l1-0.8l0.8,0.9l-1,0.8l1.4,1.7c0.1,0.2,0.3,0.3,0.5,0.3
			c0.2,0,0.4,0,0.5-0.2c0.2-0.1,0.3-0.3,0.4-0.6L81.8,67.6z M84.9,62c0,0,0.1,0.1,0.2,0.3L82,64.9c0.3,0.2,0.6,0.3,0.9,0.3
			c0.4,0,0.7-0.2,1-0.4c0.2-0.2,0.4-0.3,0.5-0.6c0.1-0.2,0.2-0.4,0.2-0.7l1.2,0.2c-0.1,0.8-0.5,1.6-1.2,2.1
			c-0.4,0.4-0.9,0.6-1.5,0.7c-0.5,0.1-1,0.1-1.5-0.1c-0.5-0.2-0.9-0.5-1.2-0.9c-0.3-0.4-0.5-0.8-0.6-1.3c-0.1-0.5,0-1,0.2-1.4
			c0.4-0.9,1.2-1.6,2.2-1.8c0.5-0.1,1,0,1.4,0.1C84.2,61.3,84.6,61.6,84.9,62z M81.8,62.5c-0.3,0.2-0.4,0.5-0.5,0.8
			c-0.1,0.3,0,0.6,0.2,0.9l2.1-1.7c-0.2-0.2-0.5-0.3-0.9-0.4C82.3,62.2,82,62.3,81.8,62.5z M87,54.2l4.7,5.8l-1.2,0.9l-0.4-0.5
			c0,0.6-0.3,1.2-0.9,1.6c-0.4,0.3-0.8,0.5-1.3,0.6c-0.5,0.1-0.9,0-1.4-0.1c-0.5-0.2-0.9-0.5-1.2-0.9c-0.3-0.4-0.6-0.9-0.6-1.4
			c-0.1-0.5,0-0.9,0.1-1.4c0.2-0.4,0.5-0.8,0.9-1.1c0.5-0.4,1.1-0.6,1.7-0.5l-1.6-2L87,54.2z M88.7,60.9c0.3-0.2,0.5-0.6,0.5-0.9
			c0-0.4-0.1-0.8-0.4-1.1c-0.2-0.3-0.6-0.5-1-0.6c-0.8-0.1-1.4,0.5-1.5,1.2c0,0.4,0.1,0.8,0.4,1.1c0.2,0.3,0.6,0.5,1,0.6
			C88,61.2,88.4,61.1,88.7,60.9z M92.4,56.3c-0.2-0.2-0.3-0.5-0.4-0.8c0-0.3,0-0.7,0.1-1c0-0.2,0.1-0.5,0.1-0.7
			c0-0.2-0.1-0.3-0.2-0.5c-0.1-0.2-0.4-0.3-0.6-0.3c-0.3,0-0.5,0.1-0.7,0.3c-0.2,0.2-0.4,0.4-0.5,0.7C90,54.3,90,54.5,90,54.8
			L88.6,55c-0.1-0.5,0-1,0.3-1.5c0.3-0.5,0.6-1,1.1-1.3c0.5-0.4,1.1-0.7,1.7-0.8c0.5,0,1.1,0.2,1.4,0.6c0.2,0.2,0.3,0.4,0.3,0.6
			c0.1,0.2,0.1,0.4,0.1,0.6c0,0.2,0,0.4-0.1,0.7c0,0.3-0.1,0.5-0.1,0.8c0,0.2,0.1,0.4,0.2,0.5L92.4,56.3z M94.6,57.7
			c-0.2,0.2-0.4,0.2-0.7,0.2c-0.2,0-0.5-0.1-0.6-0.3c-0.2-0.2-0.2-0.4-0.2-0.7c0.1-0.5,0.5-0.9,1.1-0.9c0.2,0,0.5,0.1,0.6,0.3
			c0.2,0.2,0.2,0.4,0.2,0.7C94.9,57.3,94.8,57.6,94.6,57.7z"/>
	</g>
	<g id="green_character" transform="translate(118.599 86.63) rotate(9)">
		<g id="Body" transform="translate(0 0)">
			<g id="main_body" transform="translate(0 7.803)">
				<path id="Path_10004" class="st4" d="M87.7,34c0.6-1,1.9-0.9,2.9-1.2c1.3-0.6,2.5-1.4,3.6-2.3c0.9-0.8,1.7-1.8,2.4-2.8
					c0.8-1.1,1.1-2.4,0.9-3.7c-0.1-1.3-0.4-2.5-0.9-3.7c-0.7-1.8-2-3.4-3.6-4.4c-2.5-1.7-5.6-2.3-8.6-1.7c-1.7,0.3-3.2,0.9-4.6,1.9
					c-1.4,1-2.4,2.3-3,3.9c-1,2.5-0.9,5.3,0.2,7.7c0.3,0.5,0.6,0.9,0.9,1.2c0.3,0.3,0.7,0.8,0.5,1.3c-0.2,0.4-0.6,0.6-1,0.5
					c-0.4,0-0.8-0.1-1.1-0.3c-2.7-1.3-5.5-2.3-8.4-3.2c-2.9-0.8-5.8-1.4-8.8-1.8c-5.3-0.7-10.6-0.4-15.9-0.2c-0.5,0-1.1-0.1-1.2-0.5
					c-0.1-0.5,0.2-0.7,0.5-0.9c1-0.8,1.8-1.8,2.5-2.9c0.6-1.3,1-2.6,1.1-4c0.2-1.2,0.3-2.3,0.2-3.5c-0.4-4.3-2.9-8.2-6.7-10.4
					c-8.3-5.1-21.5-3.5-25.7,6.2c-0.6,1.4-1,2.8-1.2,4.3c-0.6,3.1-0.7,6.3-0.1,9.4c0.6,3.1,2.5,6.8,5.7,8.1c1,0.4,2.1,0.6,3.3,0.7
					c1.2,0.2,2.5,0.1,3.7-0.1c0.8-0.1,2.5-1.3,2.7,0.2c0,0.5-0.1,0.9-0.4,1.3c-1,1.6-2.8,2.5-4.4,3.5c-1.6,1.1-3.2,2.3-4.6,3.6
					c-2.8,2.2-5.3,4.7-7.5,7.5c-1.2,1.7-2.3,3.5-3.2,5.5c-5.2,10.3-9,21.8-7.4,33.2c0.5,4,2.3,7.3,4.2,10.8c2,3.7,4.5,7,7.5,9.9
					c6.1,5.9,13.8,9.7,21.8,12.3c8.4,2.6,17.3,3.8,26.1,3.5c5.8-0.1,11.6-1.2,17.2-3.1c5.5-2,10.7-5.8,15.5-9.6
					c1.1-0.9,2.2-1.7,3.3-2.7c0.9-0.8,1.7-1.7,2.5-2.6c3.2-3.4,5.9-7.2,8.2-11.2c2.9-5,4.2-10.8,3.8-16.6c-0.5-5.9-1.6-12-4.2-17.5
					c-1-2-2.1-4-3.3-5.9c-1.3-2.2-2.6-4.3-4.2-6.3c-2.9-3.6-6.6-6.5-9.9-9.7c-0.5-0.5-0.9-1-1.3-1.6C87.4,35.3,87.4,34.6,87.7,34z"
					/>
			</g>
			<g id="main_body-2" transform="translate(0 7.803)">
				<path id="Path_10005" class="st5" d="M87.7,34c0.6-1,1.9-0.9,2.9-1.2c1.3-0.6,2.5-1.4,3.6-2.3c0.9-0.8,1.7-1.8,2.4-2.8
					c0.8-1.1,1.1-2.4,0.9-3.7c-0.1-1.3-0.4-2.5-0.9-3.7c-0.7-1.8-2-3.4-3.6-4.4c-2.5-1.7-5.6-2.3-8.6-1.7c-1.7,0.3-3.2,0.9-4.6,1.9
					c-1.4,1-2.4,2.3-3,3.9c-1,2.5-0.9,5.3,0.2,7.7c0.3,0.5,0.6,0.9,0.9,1.2c0.3,0.3,0.7,0.8,0.5,1.3c-0.2,0.4-0.6,0.6-1,0.5
					c-0.4,0-0.8-0.1-1.1-0.3c-2.7-1.3-5.5-2.3-8.4-3.2c-2.9-0.8-5.8-1.4-8.8-1.8c-5.3-0.7-10.6-0.4-15.9-0.2c-0.5,0-1.1-0.1-1.2-0.5
					c-0.1-0.5,0.2-0.7,0.5-0.9c1-0.8,1.8-1.8,2.5-2.9c0.6-1.3,1-2.6,1.1-4c0.2-1.2,0.3-2.3,0.2-3.5c-0.4-4.3-2.9-8.2-6.7-10.4
					c-8.3-5.1-21.5-3.5-25.7,6.2c-0.6,1.4-1,2.8-1.2,4.3c-0.6,3.1-0.7,6.3-0.1,9.4c0.6,3.1,2.5,6.8,5.7,8.1c1,0.4,2.1,0.6,3.3,0.7
					c1.2,0.2,2.5,0.1,3.7-0.1c0.8-0.1,2.5-1.3,2.7,0.2c0,0.5-0.1,0.9-0.4,1.3c-1,1.6-2.8,2.5-4.4,3.5c-1.6,1.1-3.2,2.3-4.6,3.6
					c-2.8,2.2-5.3,4.7-7.5,7.5c-1.2,1.7-2.3,3.5-3.2,5.5c-5.2,10.3-9,21.8-7.4,33.2c0.5,4,2.3,7.3,4.2,10.8c2,3.7,4.5,7,7.5,9.9
					c6.1,5.9,13.8,9.7,21.8,12.3c8.4,2.6,17.3,3.8,26.1,3.5c5.8-0.1,11.6-1.2,17.2-3.1c5.5-2,10.7-5.8,15.5-9.6
					c1.1-0.9,2.2-1.7,3.3-2.7c0.9-0.8,1.7-1.7,2.5-2.6c3.2-3.4,5.9-7.2,8.2-11.2c2.9-5,4.2-10.8,3.8-16.6c-0.5-5.9-1.6-12-4.2-17.5
					c-1-2-2.1-4-3.3-5.9c-1.3-2.2-2.6-4.3-4.2-6.3c-2.9-3.6-6.6-6.5-9.9-9.7c-0.5-0.5-0.9-1-1.3-1.6C87.4,35.3,87.4,34.6,87.7,34z"
					/>
			</g>
			<g id="highlight" transform="translate(1.479 11.848)">
				<g id="shadow" transform="translate(44.845 31.445)">
					<path id="Path_10006" class="st6" d="M0.4,10.6c-0.9-1.6,0.1-3.7,1.5-5C7,0.4,15-0.4,22.2,0.1c6.7,0.5,13.4,2,18.9,5.8
						c1.9,1.4,3.6,2.9,5.3,4.6c7.1,7.2,13.2,16.4,13.3,26.6c0.1,0.7-0.1,1.4-0.4,2c-0.8,0.8-1.9,1.3-3,1.2c-3.7-0.3-6.1-3.9-8-7.1
						c-2.8-4.5-6.1-8.8-10.4-11.9c-2.9-2-6.2-3.6-9.7-4.6c-1.7-0.5-3.5-1-5.2-1.3c-0.9-0.2-16.7-2.5-16.7-2.5S1.6,12.7,0.4,10.6z"/>
				</g>
				<g id="higthlight" transform="translate(61.793 34.35)">
					<path id="Path_10007" class="st7" d="M0.5,2.2C0.4,2.2,0.2,2.1,0.1,1.9c-0.2-0.3-0.1-0.8,0.2-1c0.3-0.2,0.7-0.4,1-0.4
						c3.4-0.7,6.9-0.6,10.3,0.2c3.4,0.9,6.6,2.2,9.5,4.1c0.9,0.5,1.6,1.1,2.3,1.8c0.6,0.8,0.9,1.7,0.8,2.7c0,0.2-0.1,0.3-0.2,0.4
						c-0.1,0.1-0.3,0.2-0.4,0.2c-0.7,0.1-1.4,0.1-2-0.2C20,9.1,18.4,8.4,17,7.6c-1.4-0.9-2.8-1.7-4.3-2.4c-1.5-0.7-3-1.3-4.5-1.7
						C6.9,3.2,5.6,3.1,4.3,3.1C3,3.1,1.7,2.8,0.5,2.2z"/>
				</g>
				<g id="highlight-2" transform="translate(87.953 46.227)">
					<path id="Path_10008" class="st3" d="M1,3C0.7,2.8,0.5,2.5,0.3,2.2C0.2,2.1,0.1,1.9,0.1,1.7C0,1.3,0,1,0.1,0.7
						C0.3,0.2,0.7,0,1.2,0c0.4,0,0.9,0.2,1.3,0.4c1,0.7,2,1.6,2.8,2.5c0.5,0.3,0.8,0.8,1,1.3c0,0.2,0.1,0.5,0.1,0.7c0,0.3,0,0.7,0,1
						c0,0.2-0.1,0.3-0.2,0.4c-0.1,0-0.1,0-0.2,0C5.2,6.2,4.5,6,3.8,5.7C3.2,5.4,2.7,5,2.2,4.6C1.7,4.1,1.4,3.5,1,3z"/>
				</g>
				<g id="highlight-3" transform="translate(12.41 10.526)">
					<path id="Path_10009" class="st8" d="M0,7.1c0.4,1.8,1.5,3.4,3.1,4.4c2.9,2,6.5,2.8,10,2.5c3.5-0.4,6.9-1.6,9.9-3.4
						c0.9-0.5,1.8-1.1,2.7-1.8c2.7-2.2,4.4-5.3,5-8.7c0,4.6-4.7,10.1-7.8,12.4s-8.5,3.2-9.7,3.3c-2.6,0.2-9.6-2-10.9-3.5
						S-0.3,9.2,0,7.1"/>
				</g>
				<g id="highlight-4" transform="translate(20.054 0)">
					<path id="Path_10010" class="st6" d="M0,3C0,2.7,0,2.4,0.1,2c0.3-0.6,0.8-1,1.5-1.2C3.8,0,6.2-0.2,8.6,0.1
						c3,0.1,5.9,1.1,8.4,2.7c2.5,1.7,4,4.6,3.8,7.6c-0.1,0.9-0.5,1.8-1.1,2.4c-1.1,0.8-2.4,1.1-3.7,0.9c-1.8,0.1-3.6-0.4-5.1-1.3
						c-0.8-0.7-1.4-1.4-2-2.2C8.3,9.2,7.5,8.4,6.8,7.6C6.4,7.3,6.1,7,5.7,6.7C5.2,6.5,4.7,6.3,4.3,6C4.1,5.9,3.8,5.8,3.6,5.6
						C2.8,5.3,2,5.4,1.3,4.9C0.6,4.5,0.2,3.8,0,3z"/>
				</g>
				<g id="highlight-5" transform="translate(22.865 0.129)">
					<path id="Path_10011" class="st7" d="M0.8,2.2c-0.5-0.3-1-0.8-0.8-1.3S0.6,0.4,1,0.3c2.9-0.6,5.9-0.4,8.7,0.4
						c0.5,0.1,1,0.3,1.4,0.6c0.4,0.3,0.6,0.8,0.6,1.3c-0.1,0.5-0.4,0.9-0.9,1.1c-0.5,0.2-1,0.3-1.5,0.3c-1.7,0-3.4-0.3-4.9-1
						C3.9,2.9,3.3,2.8,2.7,2.7C2,2.7,1.4,2.5,0.8,2.2z"/>
				</g>
				<g id="highlight-6" transform="translate(35.544 4.498)">
					<path id="Path_10012" class="st7" d="M0.6,1.4C0.4,1.3,0.2,1.1,0.1,0.8C0,0.7,0,0.5,0,0.4C0.1,0.2,0.3,0,0.5,0
						C0.8,0,1,0,1.2,0.1c0.7,0.3,1.3,0.7,1.7,1.3c0.5,0.6,0.7,1.3,0.7,2c0,0.2-0.1,0.3-0.2,0.5C3.3,4,3.2,4,3,4
						C2.7,4,2.4,3.9,2.1,3.6C1.9,3.3,1.8,3,1.7,2.7C1.4,2.2,1.1,1.8,0.6,1.4"/>
				</g>
				<g id="highlight-7" transform="translate(83.348 16.809)">
					<path id="Path_10013" class="st6" d="M0.2,1.9c-0.2-0.5-0.2-1,0.1-1.5C0.6,0.1,1-0.1,1.5,0c1.5,0.1,3,0.7,4.2,1.6
						c1,0.7,1.7,1.7,2.1,2.8c0.4,1.1,0.3,2.4-0.4,3.4C7.2,8.1,7,8.3,6.7,8.5c-0.5,0.2-1,0.3-1.5,0.2c-0.7-0.1-1.4-0.3-2-0.7
						C2.9,7.8,2.7,7.5,2.5,7.3C2.3,6.9,2.2,6.5,2.3,6.1c0-0.2,0-0.5-0.1-0.7c-0.1-0.6-0.5-1.2-1-1.6C0.8,3.2,0.4,2.6,0.2,1.9z"/>
				</g>
				<g id="highlight-8" transform="translate(85.187 17.353)">
					<path id="Path_10014" class="st7" d="M1.5,2.1c-0.3-0.2-0.7-0.4-1-0.7C0.2,1.2,0,0.8,0,0.4c0-0.1,0-0.2,0.1-0.3
						C0.2,0.1,0.3,0,0.4,0c0.6-0.1,1.3,0,1.8,0.3C2.6,0.5,2.9,0.8,3.3,1L4,1.5c0.6,0.6,1,1.3,1.1,2.2c0.1,0.3,0,0.6-0.1,0.9
						c-0.3,0.3-0.7,0.3-1,0C3.7,4.2,3.5,4,3.3,3.6C2.9,3,2.3,2.5,1.7,2.2"/>
				</g>
				<path id="Shadow-2" class="st8" d="M0.1,76.7c0,0-0.3,33,49.5,37.2c0,0,37.4,7.1,53-21.8c0,0-2.7,12.8-23.8,22.6
					s-51.5,2.9-64.2-7.7S-0.5,86.5,0.1,76.7z"/>
				
					<ellipse id="Ellipse_117" transform="matrix(-0.1959 0.9806 -0.9806 -0.1959 152.4968 101.309)" class="st7" cx="34.7" cy="113.2" rx="1.1" ry="7.6"/>
				
					<ellipse id="highlight-9" transform="matrix(-0.1959 0.9806 -0.9806 -0.1959 168.3802 95.9573)" class="st7" cx="44.8" cy="117" rx="0.7" ry="2.7"/>
				<g id="mouth" transform="translate(57.257 84.006)">
					<path id="Path_10015" class="st9" d="M1.3,1.9L1.3,1.9L1.3,1.9l0.4-0.1c0.1,0,0.1,0.1-0.1,0l0.2,0c0,0,0.2,0.1,0,0
						c-0.1,0,0,0,0,0L2,1.9c0.1,0.1,0,0-0.1,0l0.1,0.1C2.1,2,2.1,2,2.1,2c0,0-0.1-0.2,0,0s0,0.1,0.1,0.1s0,0.1,0-0.1l0.1,0.2
						c0,0,0,0.2,0,0c0-0.1,0,0,0,0v0.2c0-0.2,0-0.1,0,0c0,0.1,0,0.1,0,0.1c0,0,0,0.1-0.1,0.1c0,0,0.1-0.2,0,0
						C2.1,2.9,2.1,2.8,2.1,2.8S2,3,2.1,2.8h0C2.1,2.9,2,2.9,2,3C1.7,3.2,1.7,3.6,1.8,3.9c0.1,0.3,0.4,0.5,0.8,0.5h0.1
						c0.1,0,0.2,0,0,0c-0.2,0,0,0,0.1,0h0L3,4.6L2.9,4.5c0,0,0.1,0,0.1,0.1l0.1,0.1l0.1,0.1C3.2,4.8,3,4.6,3,4.6l0.1,0.1l0.1,0.1
						c0,0,0.1,0.2,0,0.1c-0.1-0.2,0,0,0,0.1c0,0,0,0.1,0,0.1c0,0,0,0.1,0,0.1c0,0.1,0-0.1,0-0.1c0,0,0,0.1,0,0.1c0,0.1,0,0.2,0,0.3
						c-0.1,0,0.1-0.2,0-0.1v0.1c0,0.1,0,0.1-0.1,0.2c0,0,0,0,0,0.1c0,0,0.1-0.2,0.1-0.1L3.2,5.6L3.1,5.8l0.1-0.1L3.1,5.8L3,5.9
						c0,0-0.2,0.1-0.1,0.1s0,0-0.1,0L2.7,6.1L2.6,6.1l0,0L2.3,6.2l-0.8,0L1.1,6.1C0.6,6,0.2,6.3,0,6.7c-0.1,0.4,0.1,0.9,0.6,1
						C1.9,8.2,3.3,7.9,4.2,7C4.7,6.5,5,5.9,5,5.3C5,4.6,4.8,4,4.3,3.5C3.9,3,3.3,2.7,2.6,2.7l0.6,1.5C4.1,3.4,4.2,2,3.6,1
						C2.9,0,1.5-0.3,0.5,0.3C0.1,0.5-0.1,1,0.1,1.4C0.4,1.8,0.9,2,1.3,1.8c0,0,0,0,0,0L1.3,1.9z"/>
				</g>
				<g id="highlight-10" transform="translate(74.847 21.522)">
					<path id="Path_10016" class="st8" d="M0.1,0c1.7,2.2,4.1,3.9,6.8,4.8c0.9,0.3,1.8,0.5,2.8,0.6c1.7,0.3,3.4,0.5,5.2,0.6
						c-2.2,0.7-4.5,0.7-6.7,0.2C6.6,6,5,5.4,3.6,4.6c-1.2-0.9-2.3-2-3.1-3.3C0.3,1,0.1,0.6,0,0.2"/>
				</g>
			</g>
			<g id="middle_circle" transform="translate(54.012 0)">
				
					<ellipse id="Ellipse_118" transform="matrix(-1 5.002153e-03 -5.002153e-03 -1 22.2877 24.0017)" class="st5" cx="11.1" cy="12" rx="11.1" ry="12"/>
				<path id="Path_10017" class="st6" d="M6.3,7.2C5.9,7,5.6,6.6,5.6,6.1c0-0.5,0.2-0.9,0.5-1.3c0.3-0.3,0.6-0.7,0.9-1
					c0.3-0.4,0.7-0.7,1.1-1c0.4-0.2,0.8-0.3,1.2-0.4c2.3-0.4,4.7,0,6.8,1.3c2.1,1.3,3.8,3.3,4.7,5.6c0.3,0.7,0.6,1.5,0.6,2.3
					c0.1,0.8-0.2,1.6-0.6,2.3c-0.6,0.8-1.6,1.1-2.6,0.8c-0.4-0.2-0.7-0.4-1.1-0.7c-1.4-1.2-2.5-2.7-4-3.9c-0.7-0.5-1.5-1-2.3-1.4
					c-1.4-0.9-3-1.5-4.7-1.6"/>
				<g id="shadow-3" transform="translate(0.638 8.493)">
					<path id="Path_10018" class="st8" d="M0.4,2.6c-0.5,1.5-0.5,3.1,0.1,4.6c0.4,1.2,1.1,2.4,1.9,3.4c0.7,1,1.6,1.8,2.7,2.5
						c1.9,0.9,3.9,1.3,6,1.2c1-0.1,3.9-0.2,5.8-1.5c1.9-1.3,3.1-4,3.5-5.3c-0.8,0.4-1.5,1-2,1.7c-1.4,1.3-3.3,2.1-5.3,2.3
						c-1.9,0.1-3.8-0.2-5.6-0.9C6.2,10,5.1,9.2,4,8.3C2.9,7.1,2.1,5.7,1.6,4.2C1.3,2.8,1.3,1.4,1.5,0"/>
				</g>
				<g id="highlight-11" transform="translate(9.276 1.886)">
					<path id="Path_10019" class="st3" d="M2.3,2.8c-0.7,0-1.4-0.3-1.9-0.8C0.1,1.6-0.1,1.1,0.1,0.7c0.2-0.3,0.5-0.5,0.9-0.5
						c1-0.2,2-0.2,2.9-0.1c0.8,0.2,1.6,0.6,2.3,1.1c0.7,0.4,1.4,0.9,1.9,1.6c0.5,0.7,0.7,1.7,0.4,2.5c0,0.1-0.1,0.2-0.2,0.3
						C8.1,5.6,8,5.7,7.9,5.6C6.6,5.6,5.7,4.3,4.6,3.5C3.9,3,3.1,2.8,2.3,2.8"/>
				</g>
				<g id="highlight-12" transform="translate(18.799 7.351)">
					<path id="Path_10020" class="st3" d="M0.5,0C0.7,0,1,0,1.2,0.2c0.2,0.2,0.4,0.4,0.5,0.7c0.1,0.3,0.2,0.6,0.1,0.9
						c0,0.3-0.2,0.5-0.5,0.6c-0.2,0-0.4-0.1-0.6-0.2C0.4,1.9,0.2,1.5,0.1,1.1C0,0.9,0,0.7,0,0.5C0.1,0.3,0.2,0.1,0.5,0"/>
				</g>
			</g>
		</g>
		<g id="Face" transform="translate(21.544 60.276)">
			<g id="Eyes" transform="translate(3.456 0)">
				<g id="eye_right" transform="translate(0 1.914)">
					
						<ellipse id="eye_outside" transform="matrix(-1 2.128694e-06 -2.128694e-06 -1 10.968 28.5621)" class="st10" cx="5.5" cy="14.3" rx="5.5" ry="14.3"/>
					
						<ellipse id="highlight-13" transform="matrix(-1 2.128694e-06 -2.128694e-06 -1 13.88 29.8181)" class="st3" cx="6.9" cy="14.9" rx="2.1" ry="3.5"/>
					<path id="highlight-14" class="st11" d="M1.8,8.9c0,0-1.9,8.2,1.5,13.8s6.2-3.2,6.2-3.2s-3,12-6.7,4.5S1.8,8.9,1.8,8.9z"/>
					<circle id="highlight-15" class="st3" cx="4.7" cy="24.1" r="2"/>
				</g>
				<g id="eye_left" transform="translate(53.183 0)">
					
						<ellipse id="eye_outside-2" transform="matrix(-1 2.128694e-06 -2.128694e-06 -1 10.968 28.5621)" class="st10" cx="5.5" cy="14.3" rx="5.5" ry="14.3"/>
					
						<ellipse id="highlight-16" transform="matrix(-1 2.128695e-06 -2.128695e-06 -1 11.652 28.5621)" class="st3" cx="5.8" cy="14.3" rx="2.1" ry="3.5"/>
					<path id="highlight-17" class="st11" d="M9.1,8.9c0,0,1.9,8.2-1.5,13.8s-6.1-3.1-6.1-3.1s3,12,6.7,4.5S9.1,8.9,9.1,8.9z"/>
					<circle id="highlight-18" class="st3" cx="6.3" cy="24.1" r="2"/>
				</g>
			</g>
			<g id="Cheek" transform="translate(0 29.848)">
				
					<ellipse id="cheek-2" transform="matrix(-1 2.128694e-06 -2.128694e-06 -1 14.282 7.4261)" class="st12" cx="7.1" cy="3.7" rx="7.1" ry="3.7"/>
				
					<ellipse id="cheeek" transform="matrix(-1 2.128694e-06 -2.128694e-06 -1 128.302 7.426)" class="st12" cx="64.2" cy="3.7" rx="7.1" ry="3.7"/>
			</g>
		</g>
	</g>
</g>
<animate 
accumulate="none" 
additive="replace"
attributeName="opacity" 
begin="0s" 
calcMode="linear"
dur="5s"
fill="remove"
from="0"
href="#How_Is_HIV_Transmitted_"
restart="always"
to="1">
</animate>

<animateMotion 
href="#middle_circle"
attributeName="d"
begin="0s"
repeatCount="indefinite"
dur="10s"
path="M9.3,0C6.5,1.3,4.9,2.8,4.9,2.8C3.9,13.2-5,12,3.9,13.2"


 />
<animateTransform 
href="#Eyes"
attributeName="transform"
 type="scale"
values="1,0.05;1,1;1,1;1,1;1,1;1,1;1,1;1,1;1,1;1,1;1,1;1,1;1,1"
dur="5s" 
repeatCount="indefinite"
fill="freeze" />

  
  
</svg>
