<svg xmlns="http://www.w3.org/2000/svg" width="1836.948" height="791.586" viewBox="0 0 1836.948 791.586">
  <g id="hero" transform="translate(25.914 -179.718)">
    <g id="people_illustration" data-name="people illustration" transform="translate(110.625 213.631)" style="isolation: isolate">
      <g id="OBJECTS" transform="translate(0.01 -0.001)">
        <path id="Path_6793" data-name="Path 6793" d="M227.676,247.283c-24.793,9.785-51.808,21.508-61.262,42.851-20.4,45.97,55.424,88.656,47.507,137.084-6.76,41.692-67.171,58.781-100.828,90.1-26.708,24.864-36.185,61.617-24.108,93.359s45.4,57.292,84.543,64.973c61.617,12.078,132.948-16.97,186.718,10.707,39.447,20.35,54.574,65.375,96.715,81.589,45.285,17.419,97.117-6.57,137.557-30.726s88.49-51.052,136.257-38.974c46.065,11.629,75.278,56.866,123.4,58.781s81.683-40.794,128.055-52c47.129-11.439,95.439,11.487,144.033,17.443,70.457,8.627,145.522-22.808,178.777-74.9,8.745-13.732,14.748-28.5,20.7-43.205q14.536-35.855,29.048-71.662c13.4-33.089,26.92-66.7,27.63-101.631.945-46.585-22.453-93.17-63.011-125.5s-97.731-49.941-153.983-47.412c-24.935,1.111-54.361,4.727-70.905-10.778-23.8-22.1,3.569-57.528-5.294-86.2-7.09-22.713-36.705-36.635-65.044-37.6s-55.59,8.178-81.565,17.537-52.588,19.357-80.9,20.232c-46.4,1.442-88.041-21.272-131.884-34.035S626.5,117.1,606.336,151.679c-12.716,21.792-8.414,53.675-34.767,64.146-25.739,10.21-52.635-11.227-69.44-30.324-12.267-13.921-32.687-35.027-56.2-31.1-16.545,2.765-38.005,21.626-53.77,28.173C337.84,204.976,282.439,225.751,227.676,247.283Z" transform="translate(80.408 -16.224)" fill="#cfe4ff"/>
        <g id="cannabis" transform="translate(-150.341 364.076) rotate(-49)">
          <path id="Path_10898" data-name="Path 10898" d="M305.417,341.4s-39.264,8.541-74.354-2.012A100.355,100.355,0,0,1,187.143,312.5v39.952h-14.4V312.5a100.484,100.484,0,0,1-43.932,26.883c-35.1,10.552-74.364,2.012-74.364,2.012S82.5,312.632,117.6,302.08a100.727,100.727,0,0,1,14.005-3.152A224.17,224.17,0,0,1,90.64,285.116C40.307,262.623,0,223.283,0,223.283s56.2,3.776,106.528,26.269a222.144,222.144,0,0,1,43.243,25.409,361.34,361.34,0,0,1-44-61.2C70.621,152.609,53.528,84.387,53.27,83.323c.656.635,51.075,49.795,86.283,111.025a370.634,370.634,0,0,1,24.536,51.29,412.706,412.706,0,0,1-6.024-70.986c0-79.828,21.869-156.377,21.869-156.377S201.8,94.822,201.8,174.651a412.634,412.634,0,0,1-6.024,70.986,369.554,369.554,0,0,1,24.537-51.29c35.2-61.23,85.617-110.39,86.283-111.025-.258,1.066-17.362,69.287-52.505,130.441A362.211,362.211,0,0,1,210.12,274.94a222.029,222.029,0,0,1,43.222-25.387c45.954-20.535,96.782-25.473,105.291-26.172.517-.043.882-.075,1.076-.086.108-.011.161-.011.161-.011s-40.307,39.339-90.64,61.831a223.922,223.922,0,0,1-40.963,13.812s.193.032.549.086a100.715,100.715,0,0,1,13.457,3.066c22.332,6.712,41.8,20.8,53.022,30.163q.532.435,1.033.871c2.711,2.291,4.894,4.27,6.433,5.712.2.193.387.366.57.548C304.686,340.655,305.417,341.4,305.417,341.4Z" transform="translate(0 0)" fill="#4bc999"/>
          <g id="Group_292" data-name="Group 292" transform="translate(0.001 18.273)">
            <path id="Path_10899" data-name="Path 10899" d="M172.293,302.458h0a18.318,18.318,0,0,0,1.3-24.492,370.216,370.216,0,0,1-33.317-48.683C121.2,196.1,107.447,160.845,98.811,135.359c-13.376-15.138-22.74-24.269-23.02-24.54.258,1.066,17.352,69.287,52.506,130.441C133.558,250.408,157.06,287.226,172.293,302.458Z" transform="translate(-22.52 -45.771)" fill="#41b787"/>
            <path id="Path_10900" data-name="Path 10900" d="M230.912,245.637a33.384,33.384,0,0,0,9.526-27.968,419.337,419.337,0,0,1-3.571-55c0-48.833,8.184-96.432,14.537-126.039-2.715-11.6-4.647-18.36-4.647-18.36S224.889,94.821,224.889,174.65c0,7.081,1,45.493,6.023,70.987Z" transform="translate(-66.822 -18.273)" fill="#41b787"/>
            <path id="Path_10901" data-name="Path 10901" d="M278.545,273.135a85.317,85.317,0,0,0,17.84-26.252,375.11,375.11,0,0,1,18.675-37.016c24.719-43,56.942-80.046,74.171-98.515.077-.3.122-.486.134-.532-.667.635-51.085,49.795-86.283,111.025-3.392,5.9-20.106,36.553-24.537,51.291Z" transform="translate(-82.765 -45.771)" fill="#41b787"/>
            <path id="Path_10902" data-name="Path 10902" d="M456.366,309.948s-40.307,39.339-90.64,61.832a223.924,223.924,0,0,1-40.963,13.812s.334-.226.893-.624a154.561,154.561,0,0,1,36.51-18.89c5.035-1.818,10.22-3.894,15.544-6.282,32.669-14.6,61.111-36.294,77.053-49.72l.366-.032c.517-.043.882-.065,1.076-.086C456.313,309.948,456.366,309.948,456.366,309.948Z" transform="translate(-96.497 -104.938)" fill="#41b787"/>
            <path id="Path_10903" data-name="Path 10903" d="M131.6,385.592a6.038,6.038,0,0,0,1.528-1.011c5.031-4.388,3.022-12.721-3.37-14.649A227.071,227.071,0,0,1,102.619,359.8c-29.731-13.286-55.958-32.448-72.452-45.91C12.133,310.764,0,309.948,0,309.948s40.308,39.339,90.64,61.832C99.732,375.846,123.419,383.075,131.6,385.592Z" transform="translate(-0.001 -104.938)" fill="#41b787"/>
            <path id="Path_10904" data-name="Path 10904" d="M384.53,463.55s-39.264,8.541-74.354-2.012a100.713,100.713,0,0,1-36.229-19.621,96.591,96.591,0,0,1-7.691-7.261l.086-.086a17.419,17.419,0,0,1,7.606-4.486,18,18,0,0,1,15.921,3.023,101.023,101.023,0,0,0,32.293,16.458c18.351,5.518,37.822,5.809,52.248,4.829h.011c.344.29.689.581,1.023.871,2.711,2.291,4.895,4.271,6.433,5.712.2.193.387.366.57.548C383.8,462.808,384.53,463.55,384.53,463.55Z" transform="translate(-79.113 -140.426)" fill="#41b787"/>
            <path id="Path_10905" data-name="Path 10905" d="M203.326,426.019v47.59h-7.573V433.657A100.483,100.483,0,0,1,151.82,460.54c-35.1,10.552-74.364,2.012-74.364,2.012A159.929,159.929,0,0,1,90.73,450.826c6.992,1.345,41.684,7.175,73.073-2.259A100.79,100.79,0,0,0,203.326,426.019Z" transform="translate(-23.015 -139.426)" fill="#41b787"/>
          </g>
        </g>
        <g id="cannabis-2" data-name="cannabis" transform="matrix(-0.602, -0.799, 0.799, -0.602, 150.434, 730.583)">
          <path id="Path_10898-2" data-name="Path 10898" d="M161.913,189.573s-20.815,4.528-39.418-1.066a53.2,53.2,0,0,1-23.284-14.251v21.18H91.575v-21.18a53.27,53.27,0,0,1-23.29,14.251c-18.608,5.594-39.423,1.066-39.423,1.066s14.873-15.249,33.481-20.843a53.4,53.4,0,0,1,7.425-1.671,118.841,118.841,0,0,1-21.716-7.322C21.368,147.812,0,126.956,0,126.956s29.791,2,56.474,13.926A117.767,117.767,0,0,1,79.4,154.353,191.559,191.559,0,0,1,56.075,121.91C37.439,89.49,28.377,53.323,28.24,52.759c.348.336,27.077,26.4,45.742,58.858a196.487,196.487,0,0,1,13.008,27.191A218.791,218.791,0,0,1,83.8,101.175c0-42.32,11.594-82.9,11.594-82.9s11.594,40.581,11.594,82.9a218.752,218.752,0,0,1-3.194,37.632A195.913,195.913,0,0,1,116.8,111.617c18.66-32.46,45.388-58.522,45.742-58.858-.137.565-9.2,36.731-27.835,69.151a192.02,192.02,0,0,1-23.313,32.432,117.706,117.706,0,0,1,22.914-13.459c24.362-10.886,51.307-13.5,55.818-13.875.274-.023.468-.04.57-.045.057-.006.085-.006.085-.006s-21.368,20.855-48.051,32.779a118.71,118.71,0,0,1-21.716,7.322s.1.017.291.045a53.393,53.393,0,0,1,7.134,1.625c11.839,3.558,22.161,11.029,28.109,15.99q.282.231.548.462c1.437,1.214,2.595,2.264,3.41,3.028.108.1.205.194.3.291C161.525,189.179,161.913,189.573,161.913,189.573Z" transform="translate(0 -0.001)" fill="#9dc94b"/>
          <g id="Group_292-2" data-name="Group 292" transform="translate(0 18.273)">
            <path id="Path_10899-2" data-name="Path 10899" d="M126.95,212.414h0a9.711,9.711,0,0,0,.689-12.984,196.266,196.266,0,0,1-17.663-25.809c-10.112-17.59-17.4-36.281-21.981-49.792-7.091-8.025-12.055-12.866-12.2-13.01.137.565,9.2,36.731,27.835,69.151C106.416,184.82,118.875,204.339,126.95,212.414Z" transform="translate(-47.55 -76.335)" fill="#6ab741"/>
            <path id="Path_10900-2" data-name="Path 10900" d="M228.082,138.807a17.7,17.7,0,0,0,5.05-14.827,222.3,222.3,0,0,1-1.893-29.156c0-25.888,4.338-51.122,7.707-66.818-1.439-6.149-2.463-9.733-2.463-9.733s-11.594,40.581-11.594,82.9c0,3.754.529,24.117,3.193,37.633Z" transform="translate(-141.092 -18.273)" fill="#6ab741"/>
            <path id="Path_10901-2" data-name="Path 10901" d="M278.545,196.869A45.23,45.23,0,0,0,288,182.952a198.857,198.857,0,0,1,9.9-19.623c13.1-22.8,30.187-42.435,39.321-52.226.041-.159.065-.257.071-.282-.354.336-27.082,26.4-45.742,58.858-1.8,3.127-10.659,19.378-13.008,27.191Z" transform="translate(-174.755 -76.335)" fill="#6ab741"/>
            <path id="Path_10902-2" data-name="Path 10902" d="M394.531,309.948s-21.368,20.855-48.051,32.779a118.709,118.709,0,0,1-21.716,7.322s.177-.12.473-.331A81.939,81.939,0,0,1,344.591,339.7c2.669-.964,5.418-2.064,8.24-3.33,17.319-7.739,32.4-19.241,40.849-26.358l.194-.017c.274-.023.468-.034.57-.045C394.5,309.948,394.531,309.948,394.531,309.948Z" transform="translate(-203.751 -201.265)" fill="#6ab741"/>
            <path id="Path_10903-2" data-name="Path 10903" d="M69.769,350.05a3.2,3.2,0,0,0,.81-.536,4.579,4.579,0,0,0-1.786-7.766,120.377,120.377,0,0,1-14.39-5.371c-15.762-7.044-29.665-17.2-38.409-24.339C6.433,310.381,0,309.948,0,309.948S21.369,330.8,48.052,342.727C52.872,344.883,65.429,348.715,69.769,350.05Z" transform="translate(-0.001 -201.265)" fill="#6ab741"/>
            <path id="Path_10904-2" data-name="Path 10904" d="M328.957,447.5s-20.815,4.528-39.418-1.066a53.392,53.392,0,0,1-19.206-10.4,51.215,51.215,0,0,1-4.078-3.85l.045-.045a9.234,9.234,0,0,1,4.032-2.378,9.541,9.541,0,0,1,8.44,1.6,53.556,53.556,0,0,0,17.119,8.725c9.729,2.925,20.051,3.08,27.7,2.56h.006c.183.154.365.308.542.462,1.437,1.214,2.595,2.264,3.41,3.028.108.1.205.194.3.291C328.569,447.1,328.957,447.5,328.957,447.5Z" transform="translate(-167.044 -276.197)" fill="#6ab741"/>
            <path id="Path_10905-2" data-name="Path 10905" d="M144.184,426.019v25.229h-4.015v-21.18a53.269,53.269,0,0,1-23.29,14.251c-18.608,5.594-39.423,1.066-39.423,1.066a84.79,84.79,0,0,1,7.037-6.216c3.707.713,22.1,3.8,38.739-1.2A53.432,53.432,0,0,0,144.184,426.019Z" transform="translate(-48.595 -274.086)" fill="#6ab741"/>
          </g>
        </g>
        <g id="cannabis-3" data-name="cannabis" transform="matrix(-0.839, -0.545, 0.545, -0.839, 1535.603, 630.711)">
          <path id="Path_10898-3" data-name="Path 10898" d="M276.535,10.012s-35.551-7.734-67.322,1.821a90.865,90.865,0,0,0-39.768,24.34V0H156.4V36.174a90.982,90.982,0,0,0-39.778-24.34c-31.781-9.554-67.332-1.821-67.332-1.821s25.4,26.045,57.183,35.6a91.2,91.2,0,0,0,12.681,2.854A202.969,202.969,0,0,0,82.069,60.971C36.5,81.337,0,116.956,0,116.956s50.882-3.419,96.454-23.785a201.136,201.136,0,0,0,39.154-23.006,327.169,327.169,0,0,0-39.836,55.41c-31.83,55.371-47.306,117.142-47.541,118.105.594-.575,46.245-45.086,78.123-100.525a335.583,335.583,0,0,0,22.216-46.44,373.68,373.68,0,0,0-5.454,64.273c0,72.279,19.8,141.589,19.8,141.589s19.8-69.309,19.8-141.589a373.612,373.612,0,0,0-5.455-64.273,334.6,334.6,0,0,0,22.217,46.439c31.869,55.439,77.52,99.951,78.123,100.525-.234-.965-15.72-62.735-47.54-118.105a327.956,327.956,0,0,0-39.816-55.391,201.031,201.031,0,0,0,39.135,22.986c41.609,18.593,87.629,23.064,95.334,23.7.468.039.8.068.974.078.1.01.146.01.146.01s-36.5-35.619-82.068-55.984A202.745,202.745,0,0,0,206.68,48.465s.175-.029.5-.078a91.189,91.189,0,0,0,12.185-2.776c20.22-6.078,37.849-18.837,48.008-27.311q.482-.394.936-.789c2.455-2.074,4.431-3.866,5.824-5.172.185-.175.351-.332.516-.5C275.873,10.684,276.535,10.012,276.535,10.012Z" transform="translate(0 0.001)" fill="#4bc999"/>
          <g id="Group_292-3" data-name="Group 292" transform="translate(0.001 0)">
            <path id="Path_10899-3" data-name="Path 10899" d="M87.376,0h0a16.586,16.586,0,0,1,1.176,22.176A335.208,335.208,0,0,0,58.385,66.255C41.115,96.3,28.662,128.221,20.843,151.3,8.732,165,.253,173.271,0,173.516c.234-.965,15.711-62.735,47.541-118.105C52.3,47.128,73.584,13.792,87.376,0Z" transform="translate(48.233 70.167)" fill="#41b787"/>
            <path id="Path_10900-3" data-name="Path 10900" d="M5.453,0a30.227,30.227,0,0,1,8.625,25.323,379.679,379.679,0,0,0-3.233,49.8c0,44.215,7.41,87.312,13.163,114.12-2.458,10.5-4.207,16.624-4.207,16.624S0,136.553,0,64.274C0,57.862.9,23.084,5.453,0Z" transform="translate(143.119 96.717)" fill="#41b787"/>
            <path id="Path_10901-3" data-name="Path 10901" d="M0,0A77.249,77.249,0,0,1,16.153,23.77,339.618,339.618,0,0,0,33.062,57.285c22.381,38.934,51.557,72.476,67.157,89.2.069.272.111.44.121.482-.6-.575-46.254-45.086-78.123-100.525C19.146,41.1,4.013,13.344,0,0Z" transform="translate(177.266 96.717)" fill="#41b787"/>
            <path id="Path_10902-3" data-name="Path 10902" d="M119.158,68.491S82.662,32.872,37.09,12.506A202.751,202.751,0,0,0,0,0S.3.2.808.565a139.943,139.943,0,0,0,33.057,17.1c4.559,1.646,9.253,3.526,14.074,5.688,29.58,13.217,55.332,32.862,69.767,45.018l.332.029c.468.039.8.059.974.078C119.11,68.491,119.158,68.491,119.158,68.491Z" transform="translate(206.679 48.466)" fill="#41b787"/>
            <path id="Path_10903-3" data-name="Path 10903" d="M119.158,0a5.467,5.467,0,0,1,1.384.915c4.555,3.973,2.736,11.518-3.051,13.263a205.6,205.6,0,0,0-24.577,9.173c-26.92,12.03-50.666,29.38-65.6,41.569C10.985,67.752,0,68.491,0,68.491S36.5,32.872,82.068,12.507C90.3,8.824,111.746,2.279,119.158,0Z" transform="translate(0 48.466)" fill="#41b787"/>
            <path id="Path_10904-3" data-name="Path 10904" d="M107.09,2.955S71.539-4.779,39.767,4.776a91.19,91.19,0,0,0-32.8,17.766A87.459,87.459,0,0,0,0,29.117l.078.078a15.772,15.772,0,0,0,6.887,4.062,16.3,16.3,0,0,0,14.415-2.737,91.469,91.469,0,0,1,29.239-14.9c16.616-5,34.245-5.26,47.307-4.373h.01c.312-.263.624-.526.926-.789,2.455-2.074,4.432-3.867,5.824-5.172.185-.175.351-.332.516-.5C106.427,3.627,107.09,2.955,107.09,2.955Z" transform="translate(169.445 7.058)" fill="#41b787"/>
            <path id="Path_10905-3" data-name="Path 10905" d="M113.967,43.089V0H107.11V36.174a90.98,90.98,0,0,0-39.778-24.34C35.551,2.279,0,10.012,0,10.012A144.809,144.809,0,0,0,12.019,20.628c6.331-1.217,37.742-6.5,66.163,2.045A91.258,91.258,0,0,1,113.967,43.089Z" transform="translate(49.293 0)" fill="#41b787"/>
          </g>
        </g>
        <g id="cannabis-4" data-name="cannabis" transform="translate(385.559 534.907) rotate(-157)">
          <path id="Path_10898-4" data-name="Path 10898" d="M161.912,5.862S141.1,1.334,122.495,6.929A53.2,53.2,0,0,0,99.211,21.18V0H91.575V21.18A53.27,53.27,0,0,0,68.285,6.929C49.677,1.335,28.862,5.862,28.862,5.862S43.734,21.112,62.343,26.706a53.4,53.4,0,0,0,7.425,1.671A118.842,118.842,0,0,0,48.051,35.7C21.368,47.623,0,68.478,0,68.478s29.791-2,56.474-13.926A117.766,117.766,0,0,0,79.4,41.082,191.559,191.559,0,0,0,56.075,73.525c-18.637,32.42-27.7,68.587-27.835,69.151.348-.336,27.076-26.4,45.742-58.858A196.487,196.487,0,0,0,86.989,56.628,218.79,218.79,0,0,0,83.8,94.26c0,42.32,11.594,82.9,11.594,82.9s11.594-40.581,11.593-82.9a218.752,218.752,0,0,0-3.194-37.632A195.914,195.914,0,0,0,116.8,83.818c18.66,32.46,45.388,58.522,45.742,58.858-.137-.565-9.2-36.731-27.835-69.151a192.021,192.021,0,0,0-23.313-32.432,117.706,117.706,0,0,0,22.914,13.459c24.362,10.886,51.307,13.5,55.818,13.875.274.023.468.04.57.045.057.006.085.006.085.006S169.411,47.623,142.728,35.7a118.711,118.711,0,0,0-21.716-7.322s.1-.017.291-.045a53.394,53.394,0,0,0,7.134-1.625c11.839-3.558,22.161-11.029,28.109-15.99q.282-.231.548-.462c1.437-1.214,2.595-2.264,3.41-3.028.108-.1.205-.194.3-.291C161.524,6.256,161.912,5.862,161.912,5.862Z" transform="translate(0 0.001)" fill="#9dc94b"/>
          <g id="Group_292-4" data-name="Group 292" transform="translate(0 0)">
            <path id="Path_10899-4" data-name="Path 10899" d="M51.159,0h0a9.711,9.711,0,0,1,.689,12.984A196.266,196.266,0,0,0,34.185,38.793C24.073,56.383,16.782,75.074,12.2,88.585,5.113,96.61.148,101.451,0,101.595c.137-.565,9.2-36.731,27.835-69.151C30.624,27.593,43.084,8.075,51.159,0Z" transform="translate(28.241 41.083)" fill="#6ab741"/>
            <path id="Path_10900-4" data-name="Path 10900" d="M3.193,0a17.7,17.7,0,0,1,5.05,14.827A222.3,222.3,0,0,0,6.35,43.982c0,25.888,4.338,51.122,7.707,66.817-1.439,6.149-2.463,9.733-2.463,9.733S0,79.953,0,37.633C0,33.879.529,13.516,3.193,0Z" transform="translate(83.797 56.629)" fill="#6ab741"/>
            <path id="Path_10901-4" data-name="Path 10901" d="M0,0A45.231,45.231,0,0,1,9.458,13.917a198.858,198.858,0,0,0,9.9,19.623c13.1,22.8,30.187,42.435,39.321,52.226.041.159.065.257.071.282-.354-.336-27.082-26.4-45.742-58.858C11.21,24.064,2.349,7.813,0,0Z" transform="translate(103.79 56.629)" fill="#6ab741"/>
            <path id="Path_10902-4" data-name="Path 10902" d="M69.767,40.1S48.4,19.247,21.716,7.322A118.708,118.708,0,0,0,0,0S.177.12.473.331A81.939,81.939,0,0,0,19.828,10.345c2.669.964,5.418,2.064,8.24,3.33,17.319,7.739,32.4,19.241,40.849,26.358l.194.017c.274.023.468.034.57.045C69.739,40.1,69.767,40.1,69.767,40.1Z" transform="translate(121.011 28.378)" fill="#6ab741"/>
            <path id="Path_10903-4" data-name="Path 10903" d="M69.767,0a3.2,3.2,0,0,1,.81.536A4.579,4.579,0,0,1,68.791,8.3,120.376,120.376,0,0,0,54.4,13.672c-15.762,7.044-29.665,17.2-38.409,24.339C6.432,39.669,0,40.1,0,40.1S21.368,19.247,48.051,7.323C52.871,5.167,65.428,1.334,69.767,0Z" transform="translate(0 28.377)" fill="#6ab741"/>
            <path id="Path_10904-4" data-name="Path 10904" d="M62.7,1.73S41.886-2.8,23.284,2.8A53.391,53.391,0,0,0,4.078,13.2,51.215,51.215,0,0,0,0,17.048l.045.045a9.234,9.234,0,0,0,4.032,2.378,9.541,9.541,0,0,0,8.44-1.6A53.556,53.556,0,0,1,29.637,9.144c9.729-2.925,20.051-3.08,27.7-2.56h.006c.183-.154.365-.308.542-.462,1.437-1.214,2.595-2.264,3.41-3.028.108-.1.205-.194.3-.291C62.314,2.124,62.7,1.73,62.7,1.73Z" transform="translate(99.21 4.133)" fill="#6ab741"/>
            <path id="Path_10905-4" data-name="Path 10905" d="M66.728,25.229V0H62.713V21.18A53.27,53.27,0,0,0,39.423,6.929C20.815,1.334,0,5.862,0,5.862a84.79,84.79,0,0,0,7.037,6.216c3.707-.713,22.1-3.8,38.739,1.2A53.432,53.432,0,0,1,66.728,25.229Z" transform="translate(28.861 0)" fill="#6ab741"/>
          </g>
        </g>
        <g id="cannabis-5" data-name="cannabis" transform="translate(1562.465 304.694) rotate(-157)">
          <path id="Path_10898-5" data-name="Path 10898" d="M172.524,6.247s-22.179-4.825-42,1.136a56.688,56.688,0,0,0-24.81,15.185V0H97.576V22.568A56.761,56.761,0,0,0,72.76,7.383C52.932,1.422,30.753,6.246,30.753,6.246S46.6,22.5,66.429,28.456a56.9,56.9,0,0,0,7.911,1.78,126.63,126.63,0,0,0-23.139,7.8C22.769,50.744,0,72.967,0,72.967s31.744-2.133,60.176-14.839A125.485,125.485,0,0,0,84.6,43.775,204.113,204.113,0,0,0,59.75,78.344c-19.858,34.545-29.513,73.082-29.659,73.683.371-.359,28.851-28.128,48.739-62.716a209.364,209.364,0,0,0,13.86-28.973,233.129,233.129,0,0,0-3.4,40.1c0,45.094,12.354,88.334,12.354,88.334s12.353-43.241,12.353-88.334a233.089,233.089,0,0,0-3.4-40.1,208.755,208.755,0,0,0,13.861,28.973c19.882,34.588,48.363,62.357,48.74,62.716-.146-.6-9.808-39.139-29.659-73.683a204.606,204.606,0,0,0-24.841-34.557,125.421,125.421,0,0,0,24.415,14.341c25.959,11.6,54.67,14.389,59.477,14.784.292.024.5.042.608.048.061.006.091.006.091.006s-22.769-22.222-51.2-34.927a126.492,126.492,0,0,0-23.139-7.8s.109-.018.31-.048a56.894,56.894,0,0,0,7.6-1.732c12.615-3.792,23.613-11.752,29.951-17.038q.3-.246.584-.492c1.531-1.294,2.765-2.412,3.634-3.227.115-.109.219-.207.322-.31C172.111,6.666,172.524,6.247,172.524,6.247Z" transform="translate(0 0.001)" fill="#9dc94b"/>
          <g id="Group_292-5" data-name="Group 292" transform="translate(0 0)">
            <path id="Path_10899-5" data-name="Path 10899" d="M54.512,0h0a10.348,10.348,0,0,1,.734,13.835,209.129,209.129,0,0,0-18.82,27.5C25.651,60.079,17.882,79.994,13,94.391,5.448,102.942.158,108.1,0,108.253c.146-.6,9.8-39.139,29.659-73.683C32.632,29.4,45.907,8.6,54.512,0Z" transform="translate(30.092 43.776)" fill="#6ab741"/>
            <path id="Path_10900-5" data-name="Path 10900" d="M3.4,0A18.858,18.858,0,0,1,8.783,15.8,236.875,236.875,0,0,0,6.766,46.865c0,27.585,4.623,54.472,8.212,71.2-1.534,6.552-2.625,10.371-2.625,10.371S0,85.193,0,40.1C0,36.1.564,14.4,3.4,0Z" transform="translate(89.289 60.34)" fill="#6ab741"/>
            <path id="Path_10901-5" data-name="Path 10901" d="M0,0A48.2,48.2,0,0,1,10.078,14.829a211.891,211.891,0,0,0,10.549,20.91c13.963,24.29,32.166,45.216,41.9,55.649.043.17.069.274.075.3-.377-.359-28.857-28.128-48.74-62.716C11.944,25.641,2.5,8.325,0,0Z" transform="translate(110.592 60.34)" fill="#6ab741"/>
            <path id="Path_10902-5" data-name="Path 10902" d="M74.34,42.73S51.571,20.508,23.139,7.8A126.488,126.488,0,0,0,0,0S.189.128.5.353a87.309,87.309,0,0,0,20.624,10.67c2.844,1.027,5.773,2.2,8.781,3.549,18.454,8.246,34.52,20.5,43.526,28.086l.207.018c.292.024.5.037.608.048C74.31,42.73,74.34,42.73,74.34,42.73Z" transform="translate(128.943 30.237)" fill="#6ab741"/>
            <path id="Path_10903-5" data-name="Path 10903" d="M74.34,0A3.411,3.411,0,0,1,75.2.571a4.879,4.879,0,0,1-1.9,8.275,128.266,128.266,0,0,0-15.333,5.723C41.172,22.074,26.357,32.9,17.04,40.5,6.853,42.269,0,42.73,0,42.73S22.769,20.508,51.2,7.8C56.336,5.505,69.716,1.422,74.34,0Z" transform="translate(0 30.237)" fill="#6ab741"/>
            <path id="Path_10904-5" data-name="Path 10904" d="M66.811,1.844s-22.179-4.825-42,1.136A56.891,56.891,0,0,0,4.345,14.064,54.572,54.572,0,0,0,0,18.165l.048.048a9.839,9.839,0,0,0,4.3,2.534,10.167,10.167,0,0,0,8.993-1.708,57.066,57.066,0,0,1,18.241-9.3C41.946,6.626,52.945,6.462,61.093,7.015H61.1c.195-.164.389-.328.578-.492,1.531-1.294,2.765-2.412,3.634-3.227.115-.109.219-.207.322-.31C66.4,2.263,66.811,1.844,66.811,1.844Z" transform="translate(105.713 4.403)" fill="#6ab741"/>
            <path id="Path_10905-5" data-name="Path 10905" d="M71.1,26.883V0H66.823V22.568A56.761,56.761,0,0,0,42.007,7.383C22.179,1.422,0,6.246,0,6.246A90.347,90.347,0,0,0,7.5,12.87c3.95-.759,23.547-4.053,41.278,1.276A56.934,56.934,0,0,1,71.1,26.883Z" transform="translate(30.752 0)" fill="#6ab741"/>
          </g>
        </g>
        <g id="medicine_1_" data-name="medicine (1)" transform="matrix(0.951, -0.309, 0.309, 0.951, 396.94, 551.284)">
          <path id="Path_10906" data-name="Path 10906" d="M99.3,243.711a116.52,116.52,0,0,1-14.866-12.633c-1.118-1.118-2.19-2.245-3.24-3.378h0c-12.638-13.628-20.339-28.044-20.859-37.792-.854-.018-1.7-.053-2.567-.053C30.023,189.855,0,198.932,0,209.948v22.6c0,11.016,22.489,20.093,50.232,20.093,17.269,0,40.032-3.577,49.066-8.934Z" transform="translate(0 -98.489)" fill="#c13110"/>
          <path id="Path_10908" data-name="Path 10908" d="M52.8,189.909c-.856-.018-1.7-.053-2.567-.053C22.489,189.856,0,198.933,0,209.948s22.489,20.093,50.232,20.093A113.774,113.774,0,0,0,73.657,227.7C61.019,214.072,53.318,199.656,52.8,189.909Z" transform="translate(0 -98.489)" fill="#fd0d1b"/>
          <path id="Path_10909" data-name="Path 10909" d="M76.9,281.606c-1.118-1.118-2.19-2.245-3.24-3.378a113.773,113.773,0,0,1-23.426,2.341C22.489,280.569,0,271.492,0,260.476v22.6c0,11.016,22.489,20.093,50.232,20.093,17.269,0,32.5-3.576,41.531-8.934h0A116.332,116.332,0,0,1,76.9,281.606Z" transform="translate(0 -149.017)" fill="#e30c18"/>
          <path id="Path_10912" data-name="Path 10912" d="M61.471,256.257c-.99-1.557-1.906-3.1-2.735-4.609H.44a7.4,7.4,0,0,0,0,5.023H60.17A2.44,2.44,0,0,0,61.471,256.257Z" transform="translate(0 -142.701)" fill="#e30c18"/>
        </g>
        <g id="medicine_1_2" data-name="medicine (1)" transform="matrix(-0.951, -0.309, 0.309, -0.951, 1304.142, 703.896)">
          <path id="Path_10906-2" data-name="Path 10906" d="M99.3,8.934A116.521,116.521,0,0,0,84.432,21.568c-1.118,1.118-2.19,2.245-3.24,3.378h0C68.554,38.573,60.853,52.99,60.333,62.738c-.854.018-1.7.053-2.567.053C30.024,62.79,0,53.713,0,42.7v-22.6C0,9.077,22.489,0,50.232,0,67.5,0,90.264,3.577,99.3,8.934Z" transform="translate(0 0)" fill="#c13110"/>
          <path id="Path_10908-2" data-name="Path 10908" d="M52.8,40.133c-.856.018-1.7.053-2.567.053C22.489,40.186,0,31.109,0,20.093S22.489,0,50.232,0A113.775,113.775,0,0,1,73.657,2.341C61.019,15.969,53.319,30.386,52.8,40.133Z" transform="translate(0 22.604)" fill="#fd0d1b"/>
          <path id="Path_10909-2" data-name="Path 10909" d="M76.9,21.568c-1.118,1.118-2.19,2.245-3.24,3.378A113.769,113.769,0,0,0,50.231,22.6C22.489,22.6,0,31.681,0,42.7v-22.6C0,9.077,22.489,0,50.232,0c17.27,0,32.5,3.576,41.532,8.934h0A116.325,116.325,0,0,0,76.9,21.568Z" transform="translate(0 0)" fill="#e30c18"/>
          <path id="Path_10912-2" data-name="Path 10912" d="M61.471.415c-.99,1.557-1.906,3.1-2.735,4.609H.44A8.334,8.334,0,0,1,0,2.512,8.334,8.334,0,0,1,.44,0H60.17A2.44,2.44,0,0,1,61.471.415Z" transform="translate(0 40.186)" fill="#e30c18"/>
        </g>
        <g id="pill" transform="matrix(0.946, -0.326, 0.326, 0.946, 365.139, 563.465)">
          <path id="Path_10907" data-name="Path 10907" d="M255.19,117.3c-20.011-20.034-42.783-29.722-50.73-21.765l-16.307,16.324c-7.947,7.954,1.729,30.752,21.742,50.786,19.922,19.945,42.671,29.513,50.717,21.752l.013.013,16.307-16.324C284.876,160.128,275.2,137.333,255.19,117.3Z" transform="translate(-101.173 -28.839)" fill="#fed831"/>
          <ellipse id="Ellipse_143" data-name="Ellipse 143" cx="20.498" cy="51.269" rx="20.498" ry="51.269" transform="translate(190.251 124.758) rotate(135.041)" fill="#fed831"/>
          <g id="Group_293" data-name="Group 293" transform="translate(84.202 65.206)">
            <path id="Path_10910" data-name="Path 10910" d="M226.2,153.159c-20.011-20.034-29.686-42.829-21.742-50.786L188.152,118.7c-7.947,7.954,1.729,30.752,21.742,50.786,19.922,19.945,42.671,29.513,50.717,21.752l.013.013,16.307-16.324C268.984,182.879,246.212,173.193,226.2,153.159Z" transform="translate(-185.374 -100.887)" fill="#fec731"/>
            <path id="Path_10911" data-name="Path 10911" d="M249.89,97.227a8.512,8.512,0,0,0-2.108,1.486,8.619,8.619,0,0,0-1.491,2.126l71.853,71.911a7.558,7.558,0,0,0,3.6-3.612Z" transform="translate(-228.697 -97.227)" fill="#fec731"/>
          </g>
        </g>
        <g id="pill-2" data-name="pill" transform="translate(1252.445 691.68) rotate(-161)">
          <path id="Path_10907-2" data-name="Path 10907" d="M69.815,69.789C49.8,89.824,27.031,99.512,19.084,91.555L2.778,75.23C-5.169,67.275,4.506,44.478,24.52,24.443,44.442,4.5,67.191-5.07,75.237,2.691l.013-.013L91.557,19C99.5,26.96,89.826,49.755,69.815,69.789Z" transform="translate(0 0)" fill="#fed831"/>
          <ellipse id="Ellipse_143-2" data-name="Ellipse 143" cx="20.497" cy="51.269" rx="20.497" ry="51.269" transform="translate(33.595 106.047) rotate(-135.041)" fill="#fed831"/>
          <g id="Group_293-2" data-name="Group 293" transform="translate(0 0.003)">
            <path id="Path_10910-2" data-name="Path 10910" d="M40.827,40.768C20.815,60.8,11.14,83.6,19.084,91.555L2.778,75.23C-5.169,67.275,4.506,44.478,24.52,24.443,44.442,4.5,67.191-5.07,75.237,2.691l.013-.013L91.557,19C83.61,11.048,60.838,20.734,40.827,40.768Z" transform="translate(0 0)" fill="#fec731"/>
            <path id="Path_10911-2" data-name="Path 10911" d="M3.6,75.525a8.512,8.512,0,0,1-2.108-1.486A8.619,8.619,0,0,1,0,71.912L71.853,0a8.516,8.516,0,0,1,2.111,1.489,8.515,8.515,0,0,1,1.491,2.124Z" transform="translate(17.593 17.516)" fill="#fec731"/>
          </g>
        </g>
        <g id="pill-3" data-name="pill" transform="matrix(0.574, -0.819, 0.819, 0.574, 985.51, 574.054)">
          <path id="Path_10907-3" data-name="Path 10907" d="M248.318,114.883c-18.042-18.062-38.573-26.8-45.737-19.623l-14.7,14.718c-7.165,7.172,1.558,27.725,19.6,45.788,17.961,17.982,38.471,26.608,45.726,19.612l.011.011,14.7-14.718C275.083,153.5,266.36,132.946,248.318,114.883Z" transform="translate(-101.173 -29.992)" fill="#fed831"/>
          <ellipse id="Ellipse_143-3" data-name="Ellipse 143" cx="18.48" cy="46.223" rx="18.48" ry="46.223" transform="translate(179.813 117.617) rotate(135.041)" fill="#bfd82c"/>
          <g id="Group_293-3" data-name="Group 293" transform="translate(84.202 63.926)">
            <path id="Path_10910-3" data-name="Path 10910" d="M222.183,148.161c-18.042-18.062-26.765-38.614-19.6-45.788l-14.7,14.718c-7.165,7.172,1.558,27.725,19.6,45.788,17.961,17.982,38.471,26.608,45.726,19.611l.011.011,14.7-14.718C260.755,174.955,240.224,166.223,222.183,148.161Z" transform="translate(-185.374 -101.033)" fill="#9ab422"/>
            <path id="Path_10911-3" data-name="Path 10911" d="M249.535,97.227a7.674,7.674,0,0,0-1.9,1.34,7.771,7.771,0,0,0-1.345,1.917l64.781,64.834a6.814,6.814,0,0,0,3.248-3.257Z" transform="translate(-230.428 -97.227)" fill="#fec731"/>
          </g>
        </g>
        <g id="pill-4" data-name="pill" transform="matrix(0.616, -0.788, 0.788, 0.616, 407.843, 582.166)">
          <path id="Path_10907-4" data-name="Path 10907" d="M236.336,110.67c-14.607-14.624-31.23-21.7-37.03-15.887L187.4,106.7c-5.8,5.806,1.262,22.447,15.871,37.071,14.542,14.559,31.148,21.543,37.021,15.878l.009.009,11.9-11.916C258.005,141.933,250.943,125.294,236.336,110.67Z" transform="translate(-101.173 -32.002)" fill="#fed831"/>
          <ellipse id="Ellipse_143-4" data-name="Ellipse 143" cx="14.962" cy="37.424" rx="14.962" ry="37.424" transform="translate(161.612 105.164) rotate(135.041)" fill="#fed831"/>
          <g id="Group_293-4" data-name="Group 293" transform="translate(84.202 61.694)">
            <path id="Path_10910-4" data-name="Path 10910" d="M215.175,139.444c-14.607-14.624-21.669-31.263-15.871-37.071l-11.9,11.916c-5.8,5.806,1.262,22.447,15.871,37.071,14.542,14.559,31.148,21.543,37.021,15.878l.009.009,11.9-11.916C246.4,161.138,229.782,154.068,215.175,139.444Z" transform="translate(-185.374 -101.288)" fill="#fec731"/>
            <path id="Path_10911-4" data-name="Path 10911" d="M248.918,97.227a6.213,6.213,0,0,0-1.539,1.085,6.291,6.291,0,0,0-1.089,1.552l52.449,52.491a5.517,5.517,0,0,0,2.63-2.637Z" transform="translate(-233.448 -97.227)" fill="#fec731"/>
          </g>
        </g>
        <g id="pills_1_" data-name="pills (1)" transform="translate(635.225 -33.912)">
          <circle id="Ellipse_144" data-name="Ellipse 144" cx="10.215" cy="10.215" r="10.215" transform="translate(169.226 266.247)" fill="#954599"/>
          <g id="Group_295" data-name="Group 295" transform="translate(182.372 222.201)">
            <circle id="Ellipse_145" data-name="Ellipse 145" cx="9.72" cy="9.72" r="9.72" transform="translate(30.136 56.261)" fill="#9ab422"/>
            <circle id="Ellipse_146" data-name="Ellipse 146" cx="9.72" cy="9.72" r="9.72" fill="#9ab422"/>
          </g>
          <circle id="Ellipse_147" data-name="Ellipse 147" cx="12.25" cy="12.25" r="12.25" transform="translate(217.336 237.803)" fill="#954599"/>
          <circle id="Ellipse_148" data-name="Ellipse 148" cx="13.123" cy="13.123" r="13.123" transform="translate(178.969 305.078)" fill="#fd0d1b"/>
          <path id="Path_10913" data-name="Path 10913" d="M170.015,78.2l-44.458,39.591,56.323,63.247,44.458-39.591A42.345,42.345,0,0,0,229.8,81.666h0A42.345,42.345,0,0,0,170.015,78.2Z" transform="translate(-31.978 -23.813)" fill="#bfd82c"/>
          <path id="Path_10914" data-name="Path 10914" d="M49.121,184.823,93.58,145.232,149.9,208.479,105.444,248.07a42.345,42.345,0,0,1-59.785-3.462h0A42.345,42.345,0,0,1,49.121,184.823Z" transform="translate(0 -51.25)" fill="#954599"/>
          <path id="Path_10915" data-name="Path 10915" d="M197.9,81.669a42.256,42.256,0,0,0-33.5-14.138,42.235,42.235,0,0,0,4.546,34.859l14.02,22.459a9.15,9.15,0,0,1-1.879,11.865c-26.233,21.92-59.784,45.575-77.332,52.764-26.836,10.995-50.282-16.822-46.5-39.263l-7.585,6.754c-17.38,15.477-19.555,42.2-4.3,59.782a42.345,42.345,0,0,0,60.156,3.885l88.917-79.182A42.345,42.345,0,0,0,197.9,81.669Z" transform="translate(-0.08 -23.816)" opacity="0.1"/>
          <path id="Path_10916" data-name="Path 10916" d="M255.17,64.775l31.526,50.5,71.84-44.849-31.526-50.5a42.345,42.345,0,0,0-58.344-13.5h0A42.345,42.345,0,0,0,255.17,64.775Z" transform="translate(-75.447 0)" fill="#50c2f4"/>
          <path id="Path_10917" data-name="Path 10917" d="M338.92,204.176l-31.526-50.5,71.84-44.849,31.526,50.5a42.345,42.345,0,0,1-13.5,58.344h0A42.345,42.345,0,0,1,338.92,204.176Z" transform="translate(-96.145 -38.404)" fill="#93e0f6"/>
          <path id="Path_10918" data-name="Path 10918" d="M376.566,182.7a42.681,42.681,0,0,0,5.33-3.935C331.555,171.371,265.929,51.2,268.887,9.736c-.073.045-.148.085-.221.13h0a42.345,42.345,0,0,0-13.5,58.344l63.051,101a42.346,42.346,0,0,0,58.345,13.5Z" transform="translate(-75.447 -3.436)" opacity="0.1"/>
          <path id="Path_10919" data-name="Path 10919" d="M153.832,311.8l51.557,21.356a3.726,3.726,0,0,0,4.869-2.017l29.557-71.357a3.726,3.726,0,0,0-2.017-4.869l-51.557-21.356a42.344,42.344,0,0,0-55.326,22.917h0A42.345,42.345,0,0,0,153.832,311.8Z" transform="translate(-32.728 -81.275)" fill="#fd0d1b"/>
          <path id="Path_10920" data-name="Path 10920" d="M210.259,337.446l7.279-17.574C156.645,308.283,136.2,272.3,140.965,248.2a42.169,42.169,0,0,0-10.048,14.58h0a42.344,42.344,0,0,0,22.917,55.326l51.557,21.356A3.726,3.726,0,0,0,210.259,337.446Z" transform="translate(-32.728 -87.586)" opacity="0.1"/>
          <path id="Path_10921" data-name="Path 10921" d="M387.787,311.8l-51.557,21.356a3.726,3.726,0,0,1-4.869-2.017L301.8,259.778a3.726,3.726,0,0,1,2.017-4.869l51.557-21.356A42.344,42.344,0,0,1,410.7,256.47h0A42.345,42.345,0,0,1,387.787,311.8Z" transform="translate(-94.072 -81.275)" fill="#2c99e8"/>
        </g>
      </g>
    </g>
    <g id="Group_297" data-name="Group 297" transform="translate(864.05 694.838) rotate(87)">
      <path id="Path_10923" data-name="Path 10923" d="M328.615,355.17a26.4,26.4,0,0,1-13.238-3.571l-1.426-.823a26.594,26.594,0,0,1-9.723-36.287l32.831-56.866a26.594,26.594,0,0,1,36.286-9.723l1.426.823a26.563,26.563,0,0,1,9.723,36.286l-32.831,56.866a26.389,26.389,0,0,1-16.129,12.377A26.676,26.676,0,0,1,328.615,355.17Z" transform="translate(-300.674 -244.348)" fill="#ef5350"/>
    </g>
    <path id="Path_10924" data-name="Path 10924" d="M398.157,265.187a26.389,26.389,0,0,0-12.377-16.129l-1.426-.823a26.413,26.413,0,0,0-9.748-3.318,26.579,26.579,0,0,1,4.257,32.108l-32.831,56.866A26.389,26.389,0,0,1,329.9,346.266a26.712,26.712,0,0,1-6.918.916,26.243,26.243,0,0,1-3.46-.229,26.507,26.507,0,0,0,5.435,4.156l1.426.823a26.406,26.406,0,0,0,13.238,3.571,26.711,26.711,0,0,0,6.918-.916,26.39,26.39,0,0,0,16.129-12.376L395.5,285.344A26.394,26.394,0,0,0,398.157,265.187Z" transform="translate(1092.082 370.776) rotate(87)" fill="#d32f2f"/>
    <g id="Group_298" data-name="Group 298" transform="translate(865.029 713.221) rotate(87)">
      <path id="Path_10925" data-name="Path 10925" d="M392.362,316.124l-47.435-27.387L362.9,257.6a26.563,26.563,0,0,1,36.286-9.723l1.05.606a27.126,27.126,0,0,1,12.819,16.6,26.383,26.383,0,0,1-2.72,19.906Z" transform="translate(-344.927 -244.31)" fill="#42a5f5"/>
    </g>
    <path id="Path_10926" data-name="Path 10926" d="M457.071,265.388a27.128,27.128,0,0,0-12.819-16.6l-1.05-.606a26.514,26.514,0,0,0-9.877-3.353,26.39,26.39,0,0,1,4.385,32.142l-17.418,30.17,16.083,9.286,17.975-31.135A26.384,26.384,0,0,0,457.071,265.388Z" transform="translate(1088.953 312.011) rotate(87)" fill="#1976d2"/>
    <g id="Group_297-2" data-name="Group 297" transform="translate(1064.672 857.838) rotate(87)">
      <path id="Path_10923-2" data-name="Path 10923" d="M328.615,355.17a26.4,26.4,0,0,1-13.238-3.571l-1.426-.823a26.594,26.594,0,0,1-9.723-36.287l32.831-56.866a26.594,26.594,0,0,1,36.286-9.723l1.426.823a26.563,26.563,0,0,1,9.723,36.286l-32.831,56.866a26.389,26.389,0,0,1-16.129,12.377A26.676,26.676,0,0,1,328.615,355.17Z" transform="translate(-300.674 -244.348)" fill="#ef5350"/>
    </g>
    <path id="Path_10924-2" data-name="Path 10924" d="M398.157,265.187a26.389,26.389,0,0,0-12.377-16.129l-1.426-.823a26.413,26.413,0,0,0-9.748-3.318,26.579,26.579,0,0,1,4.257,32.108l-32.831,56.866A26.389,26.389,0,0,1,329.9,346.266a26.712,26.712,0,0,1-6.918.916,26.243,26.243,0,0,1-3.46-.229,26.507,26.507,0,0,0,5.435,4.156l1.426.823a26.406,26.406,0,0,0,13.238,3.571,26.711,26.711,0,0,0,6.918-.916,26.39,26.39,0,0,0,16.129-12.376L395.5,285.344A26.394,26.394,0,0,0,398.157,265.187Z" transform="translate(1292.704 533.776) rotate(87)" fill="#d32f2f"/>
    <g id="Group_298-2" data-name="Group 298" transform="translate(1065.651 876.221) rotate(87)">
      <path id="Path_10925-2" data-name="Path 10925" d="M392.362,316.124l-47.435-27.387L362.9,257.6a26.563,26.563,0,0,1,36.286-9.723l1.05.606a27.126,27.126,0,0,1,12.819,16.6,26.383,26.383,0,0,1-2.72,19.906Z" transform="translate(-344.927 -244.31)" fill="#42a5f5"/>
    </g>
    <path id="Path_10926-2" data-name="Path 10926" d="M457.071,265.388a27.128,27.128,0,0,0-12.819-16.6l-1.05-.606a26.514,26.514,0,0,0-9.877-3.353,26.39,26.39,0,0,1,4.385,32.142l-17.418,30.17,16.083,9.286,17.975-31.135A26.384,26.384,0,0,0,457.071,265.388Z" transform="translate(1289.575 475.011) rotate(87)" fill="#1976d2"/>
    <g id="Group_297-3" data-name="Group 297" transform="translate(470.001 773.098) rotate(87)">
      <path id="Path_10923-3" data-name="Path 10923" d="M318.852,316.447a17.177,17.177,0,0,1-8.613-2.323l-.928-.536a17.3,17.3,0,0,1-6.326-23.608l21.36-37a17.3,17.3,0,0,1,23.607-6.326l.928.536a17.282,17.282,0,0,1,6.326,23.607l-21.36,37a17.169,17.169,0,0,1-10.493,8.052A17.356,17.356,0,0,1,318.852,316.447Z" transform="translate(-300.674 -244.348)" fill="#ef5350"/>
    </g>
    <path id="Path_10924-3" data-name="Path 10924" d="M370.682,258.1a17.168,17.168,0,0,0-8.052-10.493l-.928-.536a17.184,17.184,0,0,0-6.342-2.159,17.292,17.292,0,0,1,2.77,20.889l-21.36,37a17.168,17.168,0,0,1-10.493,8.052,17.378,17.378,0,0,1-4.5.6,17.076,17.076,0,0,1-2.251-.149,17.245,17.245,0,0,0,3.536,2.7l.928.536a17.179,17.179,0,0,0,8.613,2.323,17.376,17.376,0,0,0,4.5-.6,17.169,17.169,0,0,0,10.494-8.052l21.36-37A17.171,17.171,0,0,0,370.682,258.1Z" transform="translate(697.972 446.296) rotate(87)" fill="#d32f2f"/>
    <g id="Group_298-3" data-name="Group 298" transform="translate(470.638 785.058) rotate(87)">
      <path id="Path_10925-3" data-name="Path 10925" d="M375.788,291.031l-30.861-17.817,11.695-20.256a17.282,17.282,0,0,1,23.607-6.326l.683.394a17.648,17.648,0,0,1,8.34,10.8,17.164,17.164,0,0,1-1.77,12.951Z" transform="translate(-344.927 -244.31)" fill="#42a5f5"/>
    </g>
    <path id="Path_10926-3" data-name="Path 10926" d="M444.22,258.205a17.649,17.649,0,0,0-8.34-10.8l-.683-.394a17.25,17.25,0,0,0-6.426-2.181,17.169,17.169,0,0,1,2.853,20.911l-11.332,19.628,10.463,6.041,11.695-20.256A17.165,17.165,0,0,0,444.22,258.205Z" transform="translate(694.064 372.904) rotate(87)" fill="#1976d2"/>
    <g id="Group_297-4" data-name="Group 297" transform="translate(532.553 636.903) rotate(14)">
      <path id="Path_10923-4" data-name="Path 10923" d="M328,352.718a25.817,25.817,0,0,1-12.946-3.492l-1.395-.805a26.005,26.005,0,0,1-9.508-35.484l32.1-55.607a26.005,26.005,0,0,1,35.483-9.508l1.395.805a25.976,25.976,0,0,1,9.508,35.483l-32.1,55.607a25.805,25.805,0,0,1-15.772,12.1A26.087,26.087,0,0,1,328,352.718Z" transform="translate(-300.674 -244.348)" fill="#bfd82c"/>
    </g>
    <path id="Path_10924-4" data-name="Path 10924" d="M396.417,264.738a25.8,25.8,0,0,0-12.1-15.772l-1.395-.805a25.828,25.828,0,0,0-9.532-3.245,25.991,25.991,0,0,1,4.163,31.4l-32.1,55.607a25.805,25.805,0,0,1-15.772,12.1,26.12,26.12,0,0,1-6.765.9,25.665,25.665,0,0,1-3.383-.224,25.92,25.92,0,0,0,5.315,4.064l1.395.805a25.822,25.822,0,0,0,12.946,3.492,26.12,26.12,0,0,0,6.765-.9,25.806,25.806,0,0,0,15.772-12.1l32.1-55.607A25.809,25.809,0,0,0,396.417,264.738Z" transform="translate(289.155 324.041) rotate(14)" fill="#acc228"/>
    <g id="Group_298-4" data-name="Group 298" transform="translate(550.024 641.243) rotate(14)">
      <path id="Path_10925-4" data-name="Path 10925" d="M391.313,314.535l-46.386-26.781L362.5,257.308a25.976,25.976,0,0,1,35.483-9.508l1.026.592a26.525,26.525,0,0,1,12.535,16.23,25.8,25.8,0,0,1-2.66,19.466Z" transform="translate(-344.927 -244.31)" fill="#42a5f5"/>
    </g>
    <path id="Path_10926-4" data-name="Path 10926" d="M456.257,264.933a26.528,26.528,0,0,0-12.535-16.23l-1.026-.592a25.927,25.927,0,0,0-9.658-3.278,25.806,25.806,0,0,1,4.288,31.43l-17.033,29.5,15.727,9.08L453.6,284.4A25.8,25.8,0,0,0,456.257,264.933Z" transform="translate(231.142 309.629) rotate(14)" fill="#1976d2"/>
    <g id="Group_297-5" data-name="Group 297" transform="translate(1368.588 587.155) rotate(44)">
      <path id="Path_10923-5" data-name="Path 10923" d="M315.261,302.205a13.783,13.783,0,0,1-6.911-1.864l-.745-.43a13.884,13.884,0,0,1-5.076-18.944l17.14-29.688a13.884,13.884,0,0,1,18.944-5.076l.745.43a13.868,13.868,0,0,1,5.076,18.944l-17.14,29.688a13.777,13.777,0,0,1-8.421,6.461A13.927,13.927,0,0,1,315.261,302.205Z" transform="translate(-300.674 -244.348)" fill="#bfd82c"/>
    </g>
    <path id="Path_10924-5" data-name="Path 10924" d="M360.577,255.5a13.777,13.777,0,0,0-6.461-8.421l-.745-.43a13.789,13.789,0,0,0-5.089-1.732,13.876,13.876,0,0,1,2.222,16.763l-17.14,29.688a13.777,13.777,0,0,1-8.421,6.461,13.945,13.945,0,0,1-3.612.478,13.7,13.7,0,0,1-1.806-.12,13.838,13.838,0,0,0,2.838,2.17l.745.43a13.786,13.786,0,0,0,6.911,1.864,13.945,13.945,0,0,0,3.612-.478,13.777,13.777,0,0,0,8.421-6.461l17.14-29.688A13.779,13.779,0,0,0,360.577,255.5Z" transform="translate(1311.733 191.949) rotate(44)" fill="#acc228"/>
    <g id="Group_298-5" data-name="Group 298" transform="translate(1375.507 593.825) rotate(44)">
      <path id="Path_10925-5" data-name="Path 10925" d="M369.692,281.8l-24.765-14.3,9.385-16.255a13.868,13.868,0,0,1,18.944-5.076l.548.316a14.161,14.161,0,0,1,6.692,8.665,13.774,13.774,0,0,1-1.42,10.392Z" transform="translate(-344.927 -244.31)" fill="#42a5f5"/>
    </g>
    <path id="Path_10926-5" data-name="Path 10926" d="M439.494,255.563A14.163,14.163,0,0,0,432.8,246.9l-.548-.316a13.842,13.842,0,0,0-5.156-1.75,13.777,13.777,0,0,1,2.29,16.78l-9.094,15.751,8.4,4.848,9.385-16.255A13.775,13.775,0,0,0,439.494,255.563Z" transform="translate(1254.944 137.2) rotate(44)" fill="#1976d2"/>
    <g id="Group_297-6" data-name="Group 297" transform="translate(1077.553 740.903) rotate(14)">
      <path id="Path_10923-6" data-name="Path 10923" d="M328,352.718a25.817,25.817,0,0,1-12.946-3.492l-1.395-.805a26.005,26.005,0,0,1-9.508-35.484l32.1-55.607a26.005,26.005,0,0,1,35.483-9.508l1.395.805a25.976,25.976,0,0,1,9.508,35.483l-32.1,55.607a25.805,25.805,0,0,1-15.772,12.1A26.087,26.087,0,0,1,328,352.718Z" transform="translate(-300.674 -244.348)" fill="#bfd82c"/>
    </g>
    <path id="Path_10924-6" data-name="Path 10924" d="M396.417,264.738a25.8,25.8,0,0,0-12.1-15.772l-1.395-.805a25.828,25.828,0,0,0-9.532-3.245,25.991,25.991,0,0,1,4.163,31.4l-32.1,55.607a25.805,25.805,0,0,1-15.772,12.1,26.12,26.12,0,0,1-6.765.9,25.665,25.665,0,0,1-3.383-.224,25.92,25.92,0,0,0,5.315,4.064l1.395.805a25.822,25.822,0,0,0,12.946,3.492,26.12,26.12,0,0,0,6.765-.9,25.806,25.806,0,0,0,15.772-12.1l32.1-55.607A25.809,25.809,0,0,0,396.417,264.738Z" transform="translate(834.155 428.041) rotate(14)" fill="#acc228"/>
    <g id="Group_298-6" data-name="Group 298" transform="translate(1095.024 745.243) rotate(14)">
      <path id="Path_10925-6" data-name="Path 10925" d="M391.313,314.535l-46.386-26.781L362.5,257.308a25.976,25.976,0,0,1,35.483-9.508l1.026.592a26.525,26.525,0,0,1,12.535,16.23,25.8,25.8,0,0,1-2.66,19.466Z" transform="translate(-344.927 -244.31)" fill="#42a5f5"/>
    </g>
    <path id="Path_10926-6" data-name="Path 10926" d="M456.257,264.933a26.528,26.528,0,0,0-12.535-16.23l-1.026-.592a25.927,25.927,0,0,0-9.658-3.278,25.806,25.806,0,0,1,4.288,31.43l-17.033,29.5,15.727,9.08L453.6,284.4A25.8,25.8,0,0,0,456.257,264.933Z" transform="translate(776.142 413.629) rotate(14)" fill="#1976d2"/>
    <path id="Path_11109" data-name="Path 11109" d="M-247.388-64.4h30.452a42.628,42.628,0,0,1,18.768,3.956,29.8,29.8,0,0,1,12.7,11.224,31.626,31.626,0,0,1,4.508,17.02,31.626,31.626,0,0,1-4.508,17.02,29.8,29.8,0,0,1-12.7,11.224A42.628,42.628,0,0,1-216.936,0h-30.452Zm29.716,49.864q8.28,0,13.294-4.692t5.014-12.972q0-8.28-5.014-12.972t-13.294-4.692h-11.5v35.328Zm74.428-2.576h-9.936V0H-171.4V-64.4h29.44a36.73,36.73,0,0,1,15.18,2.9,22.512,22.512,0,0,1,9.936,8.28,22.7,22.7,0,0,1,3.5,12.65,22.43,22.43,0,0,1-3.266,12.19,22.091,22.091,0,0,1-9.338,8.142L-112.056,0h-19.5Zm11.5-23.46a8.777,8.777,0,0,0-2.852-6.992q-2.852-2.484-8.464-2.484h-10.12v18.86h10.12q5.612,0,8.464-2.438A8.637,8.637,0,0,0-131.744-40.572ZM-73.6,1.288q-14.352,0-22.31-7.82T-103.868-28.7V-64.4h18.216v35.144q0,15.456,12.236,15.456,12.144,0,12.144-15.456V-64.4h17.94v35.7q0,14.352-7.958,22.172T-73.6,1.288ZM12.144-33.58h16.1V-6.9a41.978,41.978,0,0,1-12.7,6.072A50.524,50.524,0,0,1,1.2,1.288,38.384,38.384,0,0,1-17.02-2.99,31.913,31.913,0,0,1-29.716-14.9a32.859,32.859,0,0,1-4.6-17.3,32.859,32.859,0,0,1,4.6-17.3A31.764,31.764,0,0,1-16.928-61.41,39.329,39.329,0,0,1,1.564-65.688a41.193,41.193,0,0,1,16.192,3.036,31.213,31.213,0,0,1,11.96,8.74L18.124-43.424A20.433,20.433,0,0,0,2.484-50.6q-8.28,0-13.34,5.014T-15.916-32.2a19.445,19.445,0,0,0,2.3,9.522,16.493,16.493,0,0,0,6.44,6.532A18.883,18.883,0,0,0,2.3-13.8a23.272,23.272,0,0,0,9.844-2.116ZM96.324,1.288q-14.352,0-22.31-7.82T66.056-28.7V-64.4H84.272v35.144q0,15.456,12.236,15.456,12.144,0,12.144-15.456V-64.4h17.94v35.7q0,14.352-7.958,22.172T96.324,1.288Zm65.228,0a59.538,59.538,0,0,1-15.18-1.932A37.336,37.336,0,0,1,134.412-5.8l5.98-13.432a38.7,38.7,0,0,0,10.028,4.6,38.174,38.174,0,0,0,11.224,1.748q10.488,0,10.488-5.244,0-2.76-2.99-4.094a54.986,54.986,0,0,0-9.614-2.806,91.762,91.762,0,0,1-12.144-3.358,20.44,20.44,0,0,1-8.372-5.75q-3.5-3.956-3.5-10.672a18.475,18.475,0,0,1,3.22-10.626,21.547,21.547,0,0,1,9.614-7.5,39.572,39.572,0,0,1,15.686-2.76,55.333,55.333,0,0,1,12.512,1.426A38.316,38.316,0,0,1,187.4-60.076l-5.612,13.524a37.491,37.491,0,0,0-17.848-4.968q-5.428,0-7.912,1.61a4.827,4.827,0,0,0-2.484,4.186q0,2.576,2.944,3.864a53.231,53.231,0,0,0,9.476,2.668,88.771,88.771,0,0,1,12.19,3.358,21.05,21.05,0,0,1,8.372,5.7q3.542,3.91,3.542,10.626a18.114,18.114,0,0,1-3.22,10.488,21.949,21.949,0,0,1-9.66,7.5A39.072,39.072,0,0,1,161.552,1.288Zm88.6-15.364V0h-51.7V-64.4h50.508v14.076H216.476v10.856h28.612v13.616H216.476v11.776Z" transform="translate(954 616)" fill="#fd0d1b"/>
    <path id="Path_10932" data-name="Path 10932" d="M441.334,40.44,407.623,6.729a3.869,3.869,0,0,1,0-5.469l.128-.127a3.866,3.866,0,0,1,5.469,0L446.93,34.842a3.866,3.866,0,0,1,0,5.469l-.127.128A3.869,3.869,0,0,1,441.334,40.44Zm0,0" transform="translate(1024.937 375)" fill="#737373"/>
    <path id="Path_10933" data-name="Path 10933" d="M3.534,439.886A3.036,3.036,0,0,1,1.387,434.7l41.265-41.265a3.036,3.036,0,1,1,4.294,4.293L5.682,439A3.028,3.028,0,0,1,3.534,439.886Zm0,0" transform="translate(1286.721 121.333)" fill="#21b3ee"/>
    <path id="Path_10934" data-name="Path 10934" d="M125.246,363.568l-8.186,8.186a6.376,6.376,0,0,1-9.016,0l-4.865-4.867a6.374,6.374,0,0,1,0-9.014l8.186-8.186" transform="translate(1209.178 163.889)" fill="#fff"/>
    <path id="Path_10935" data-name="Path 10935" d="M177.136,196.663a45.466,45.466,0,0,1-35.687,13.18,14.937,14.937,0,0,1-13.732-13.732A45.472,45.472,0,0,1,140.9,160.425l64.55-64.55,36.239,36.237Zm0,0" transform="translate(1193.32 317.119)" fill="#6ee8f8"/>
    <path id="Path_10936" data-name="Path 10936" d="M235.456,166.891l-13.251,13.251-7.319,7.317L170.9,231.44a45.472,45.472,0,0,1-35.686,13.181,14.949,14.949,0,0,1-4.551-1.087,14.944,14.944,0,0,0,12.646,9.181A45.472,45.472,0,0,0,179,239.536l43.98-43.982,20.57-20.57Zm0,0" transform="translate(1191.455 274.246)" fill="#21c6f2" opacity="0.811"/>
    <path id="Path_10937" data-name="Path 10937" d="M200.963,236.528s-11.311.616-19.2-17.036-18.118-18.118-18.118-18.118L140.9,224.117A45.473,45.473,0,0,0,127.716,259.8a14.939,14.939,0,0,0,13.732,13.732,45.473,45.473,0,0,0,35.687-13.181Zm0,0" transform="translate(1193.32 253.427)" fill="#8fe261"/>
    <path id="Path_10938" data-name="Path 10938" d="M191.744,277.2,170.9,298.033a45.472,45.472,0,0,1-35.686,13.181,14.951,14.951,0,0,1-4.551-1.087,14.944,14.944,0,0,0,12.646,9.181A45.472,45.472,0,0,0,179,306.129L202.828,282.3S197.583,282.585,191.744,277.2Zm0,0" transform="translate(1191.455 207.654)" fill="#68ba4f"/>
    <path id="Path_10939" data-name="Path 10939" d="M355.313,116.619,308.087,69.392a4.758,4.758,0,0,1,0-6.731l.156-.156a4.76,4.76,0,0,1,6.732,0L362.2,109.731a4.758,4.758,0,0,1,0,6.731l-.156.158A4.763,4.763,0,0,1,355.313,116.619Zm0,0" transform="translate(1085.187 338.107)" fill="#737373"/>
    <path id="Path_10940" data-name="Path 10940" d="M423.658,171.184l-6.889,6.889,4.921,4.921a4.871,4.871,0,0,0,6.889-6.889Zm0,0" transform="translate(1018.732 271.654)" fill="#8f969e"/>
    <path id="Path_10941" data-name="Path 10941" d="M354.828,52.8l25.639-25.639L406.107,52.8,380.468,78.443Zm0,0" transform="translate(1056.127 358.601)" fill="#21b3ee"/>
    <path id="Path_10942" data-name="Path 10942" d="M380.471,27.164l-4.351,4.35,13.46,13.46a7.148,7.148,0,0,1,0,10.108L373.346,71.317,354.832,52.8l25.639,25.639L406.111,52.8Zm0,0" transform="translate(1056.124 358.601)" fill="#1790c1"/>
    <g id="Group_304" data-name="Group 304" transform="translate(1329.951 422.828)">
      <path id="Path_10943" data-name="Path 10943" d="M297.015,135.7a3.024,3.024,0,0,1-2.146-.89l-8.935-8.935a3.035,3.035,0,0,1,4.293-4.293l8.935,8.935a3.036,3.036,0,0,1-2.147,5.183Zm0,0" transform="translate(-231.695 -120.689)" fill="#737373"/>
      <path id="Path_10944" data-name="Path 10944" d="M270.089,162.621a3.025,3.025,0,0,1-2.146-.889l-8.935-8.935A3.035,3.035,0,0,1,263.3,148.5l8.935,8.935a3.035,3.035,0,0,1-2.147,5.181Zm0,0" transform="translate(-215.439 -136.945)" fill="#737373"/>
      <path id="Path_10945" data-name="Path 10945" d="M251.2,197.582a3.025,3.025,0,0,1-2.146-.889l-16.972-16.971a3.036,3.036,0,0,1,4.294-4.294L253.349,192.4a3.035,3.035,0,0,1-2.147,5.181Zm0,0" transform="translate(-199.186 -153.2)" fill="#737373"/>
      <path id="Path_10946" data-name="Path 10946" d="M216.241,216.47a3.028,3.028,0,0,1-2.147-.89l-8.933-8.933a3.036,3.036,0,1,1,4.293-4.294l8.935,8.935a3.036,3.036,0,0,1-2.147,5.183Zm0,0" transform="translate(-182.931 -169.453)" fill="#737373"/>
      <path id="Path_10947" data-name="Path 10947" d="M189.317,243.394a3.026,3.026,0,0,1-2.147-.889l-8.935-8.935a3.035,3.035,0,0,1,4.293-4.293l8.935,8.935a3.035,3.035,0,0,1-2.146,5.181Zm0,0" transform="translate(-166.675 -185.709)" fill="#737373"/>
      <path id="Path_10948" data-name="Path 10948" d="M170.427,278.357a3.028,3.028,0,0,1-2.147-.89L151.309,260.5A3.036,3.036,0,1,1,155.6,256.2l16.971,16.971a3.036,3.036,0,0,1-2.147,5.183Zm0,0" transform="translate(-150.42 -201.964)" fill="#737373"/>
    </g>
    <path id="Path_10932-2" data-name="Path 10932" d="M413.22,40.44,446.931,6.729a3.869,3.869,0,0,0,0-5.469l-.129-.127a3.866,3.866,0,0,0-5.469,0L407.624,34.842a3.866,3.866,0,0,0,0,5.469l.127.128A3.869,3.869,0,0,0,413.22,40.44Zm0,0" transform="translate(40.405 375)" fill="#737373"/>
    <path id="Path_10933-2" data-name="Path 10933" d="M44.8,439.886a3.036,3.036,0,0,0,2.147-5.183L5.68,393.438a3.036,3.036,0,0,0-4.294,4.293L42.651,439A3.028,3.028,0,0,0,44.8,439.886Zm0,0" transform="translate(584.843 121.333)" fill="#21b3ee"/>
    <path id="Path_10934-2" data-name="Path 10934" d="M101.313,363.568l8.186,8.186a6.376,6.376,0,0,0,9.016,0l4.865-4.867a6.374,6.374,0,0,0,0-9.014l-8.186-8.186" transform="translate(484.16 163.889)" fill="#fff"/>
    <path id="Path_10935-2" data-name="Path 10935" d="M192.128,196.663a45.467,45.467,0,0,0,35.687,13.18,14.937,14.937,0,0,0,13.732-13.732,45.472,45.472,0,0,0-13.181-35.686l-64.55-64.55-36.239,36.237Zm0,0" transform="translate(357.312 317.119)" fill="#6ee8f8"/>
    <path id="Path_10936-2" data-name="Path 10936" d="M138.762,166.891l13.251,13.251,7.319,7.317,43.982,43.982A45.472,45.472,0,0,0,239,244.622a14.95,14.95,0,0,0,4.551-1.087,14.944,14.944,0,0,1-12.646,9.181,45.472,45.472,0,0,1-35.687-13.18l-43.98-43.982-20.57-20.57Zm0,0" transform="translate(354.222 274.246)" fill="#21c6f2" opacity="0.811"/>
    <path id="Path_10937-2" data-name="Path 10937" d="M127.579,236.528s11.311.616,19.2-17.036S164.9,201.375,164.9,201.375l22.743,22.742A45.473,45.473,0,0,1,200.825,259.8a14.939,14.939,0,0,1-13.732,13.732,45.473,45.473,0,0,1-35.687-13.181Zm0,0" transform="translate(398.035 253.427)" fill="#8fe261"/>
    <path id="Path_10938-2" data-name="Path 10938" d="M141.752,277.2l20.839,20.838a45.472,45.472,0,0,0,35.686,13.181,14.95,14.95,0,0,0,4.551-1.087,14.944,14.944,0,0,1-12.646,9.181,45.472,45.472,0,0,1-35.687-13.18L130.668,282.3S135.913,282.585,141.752,277.2Zm0,0" transform="translate(394.946 207.654)" fill="#68ba4f"/>
    <path id="Path_10939-2" data-name="Path 10939" d="M314.975,116.62,362.2,69.392a4.758,4.758,0,0,0,0-6.731l-.156-.156a4.76,4.76,0,0,0-6.732,0l-47.226,47.226a4.758,4.758,0,0,0,0,6.731l.156.158A4.763,4.763,0,0,0,314.975,116.62Zm0,0" transform="translate(164.421 338.107)" fill="#737373"/>
    <path id="Path_10940-2" data-name="Path 10940" d="M423.117,171.184l6.889,6.889-4.921,4.921A4.871,4.871,0,0,1,418.2,176.1Zm0,0" transform="translate(54.389 271.654)" fill="#8f969e"/>
    <path id="Path_10941-2" data-name="Path 10941" d="M406.107,52.8,380.468,27.164,354.828,52.8l25.639,25.639Zm0,0" transform="translate(102.835 358.601)" fill="#21b3ee"/>
    <path id="Path_10942-2" data-name="Path 10942" d="M380.471,27.164l4.351,4.35-13.46,13.46a7.148,7.148,0,0,0,0,10.108L387.6,71.318,406.111,52.8,380.471,78.443,354.832,52.8Zm0,0" transform="translate(102.829 358.601)" fill="#1790c1"/>
    <g id="Group_304-2" data-name="Group 304" transform="translate(521.589 422.828)">
      <path id="Path_10943-2" data-name="Path 10943" d="M288.081,135.7a3.024,3.024,0,0,0,2.146-.89l8.935-8.935a3.035,3.035,0,1,0-4.293-4.293l-8.935,8.935a3.036,3.036,0,0,0,2.147,5.183Zm0,0" transform="translate(-285.045 -120.689)" fill="#737373"/>
      <path id="Path_10944-2" data-name="Path 10944" d="M261.156,162.621a3.025,3.025,0,0,0,2.146-.889l8.935-8.935a3.035,3.035,0,0,0-4.293-4.293l-8.935,8.935a3.035,3.035,0,0,0,2.147,5.181Zm0,0" transform="translate(-247.449 -136.945)" fill="#737373"/>
      <path id="Path_10945-2" data-name="Path 10945" d="M234.233,197.582a3.025,3.025,0,0,0,2.145-.889l16.972-16.971a3.036,3.036,0,0,0-4.294-4.294L232.086,192.4a3.035,3.035,0,0,0,2.147,5.181Zm0,0" transform="translate(-217.893 -153.2)" fill="#737373"/>
      <path id="Path_10946-2" data-name="Path 10946" d="M207.307,216.47a3.028,3.028,0,0,0,2.147-.89l8.933-8.933a3.036,3.036,0,0,0-4.293-4.294l-8.935,8.935a3.036,3.036,0,0,0,2.147,5.183Zm0,0" transform="translate(-172.261 -169.453)" fill="#737373"/>
      <path id="Path_10947-2" data-name="Path 10947" d="M180.381,243.394a3.026,3.026,0,0,0,2.147-.889l8.935-8.935a3.035,3.035,0,0,0-4.293-4.293l-8.935,8.935a3.035,3.035,0,0,0,2.146,5.181Zm0,0" transform="translate(-134.666 -185.709)" fill="#737373"/>
      <path id="Path_10948-2" data-name="Path 10948" d="M153.456,278.357a3.028,3.028,0,0,0,2.147-.89L172.574,260.5a3.036,3.036,0,1,0-4.294-4.293l-16.971,16.971a3.036,3.036,0,0,0,2.147,5.183Zm0,0" transform="translate(-105.107 -201.964)" fill="#737373"/>
    </g>
    <path id="Path_10965" data-name="Path 10965" d="M148.837,48.053a1.543,1.543,0,0,0,1.543-1.543V7.717A7.726,7.726,0,0,0,142.663,0H84.217A7.726,7.726,0,0,0,76.5,7.717V46.51a1.543,1.543,0,0,0,1.543,1.543,4.63,4.63,0,1,1,0,9.261A1.543,1.543,0,0,0,76.5,58.858V97.65a7.726,7.726,0,0,0,7.717,7.717h58.446a7.726,7.726,0,0,0,7.717-7.717V58.858a1.543,1.543,0,0,0-1.543-1.543,4.63,4.63,0,0,1,0-9.261Z" transform="translate(921.44 597.235) rotate(50)" fill="#d6faff"/>
    <g id="Group_333" data-name="Group 333" transform="translate(970.865 670.681) rotate(50)">
      <path id="Path_10967" data-name="Path 10967" d="M140.253,45.426a7.717,7.717,0,1,0,7.717,7.717A7.726,7.726,0,0,0,140.253,45.426Z" transform="translate(-132.536 -45.426)" fill="#e36f91"/>
      <path id="Path_10968" data-name="Path 10968" d="M312.181,45.426a7.717,7.717,0,1,0,7.717,7.717A7.726,7.726,0,0,0,312.181,45.426Z" transform="translate(-269.082 -45.426)" fill="#e36f91"/>
    </g>
    <g id="Group_334" data-name="Group 334" transform="translate(966.135 674.649) rotate(50)">
      <path id="Path_10969" data-name="Path 10969" d="M318.355,78.513H306.007a1.543,1.543,0,0,1,0-3.087h12.348a1.543,1.543,0,1,1,0,3.087Z" transform="translate(-269.082 -75.426)" fill="#b04663"/>
      <path id="Path_10970" data-name="Path 10970" d="M146.427,78.513H134.079a1.543,1.543,0,1,1,0-3.087h12.348a1.543,1.543,0,0,1,0,3.087Z" transform="translate(-132.536 -75.426)" fill="#b04663"/>
    </g>
    <g id="Group_335" data-name="Group 335" transform="translate(952.675 685.944) rotate(50)">
      <path id="Path_10971" data-name="Path 10971" d="M140.253,160.809a7.717,7.717,0,1,0,7.717,7.717A7.726,7.726,0,0,0,140.253,160.809Z" transform="translate(-132.536 -160.809)" fill="#e36f91"/>
      <path id="Path_10972" data-name="Path 10972" d="M312.181,160.809a7.717,7.717,0,1,0,7.717,7.717A7.726,7.726,0,0,0,312.181,160.809Z" transform="translate(-269.082 -160.809)" fill="#e36f91"/>
    </g>
    <g id="Group_336" data-name="Group 336" transform="translate(947.945 689.912) rotate(50)">
      <path id="Path_10973" data-name="Path 10973" d="M318.355,193.9H306.007a1.543,1.543,0,0,1,0-3.087h12.348a1.543,1.543,0,1,1,0,3.087Z" transform="translate(-269.082 -190.809)" fill="#b04663"/>
      <path id="Path_10974" data-name="Path 10974" d="M146.427,193.9H134.079a1.543,1.543,0,1,1,0-3.087h12.348a1.543,1.543,0,0,1,0,3.087Z" transform="translate(-132.536 -190.809)" fill="#b04663"/>
    </g>
    <g id="Group_337" data-name="Group 337" transform="translate(934.485 701.207) rotate(50)">
      <path id="Path_10975" data-name="Path 10975" d="M140.253,276.191a7.717,7.717,0,1,0,7.717,7.717A7.726,7.726,0,0,0,140.253,276.191Z" transform="translate(-132.536 -276.191)" fill="#e36f91"/>
      <path id="Path_10976" data-name="Path 10976" d="M312.181,276.191a7.717,7.717,0,1,0,7.717,7.717A7.726,7.726,0,0,0,312.181,276.191Z" transform="translate(-269.082 -276.191)" fill="#e36f91"/>
    </g>
    <g id="Group_338" data-name="Group 338" transform="translate(929.755 705.175) rotate(50)">
      <path id="Path_10977" data-name="Path 10977" d="M146.427,309.278H134.079a1.543,1.543,0,1,1,0-3.087h12.348a1.543,1.543,0,0,1,0,3.087Z" transform="translate(-132.536 -306.191)" fill="#b04663"/>
      <path id="Path_10978" data-name="Path 10978" d="M318.355,309.278H306.007a1.543,1.543,0,0,1,0-3.087h12.348a1.543,1.543,0,1,1,0,3.087Z" transform="translate(-269.082 -306.191)" fill="#b04663"/>
    </g>
    <g id="Group_339" data-name="Group 339" transform="translate(916.295 716.47) rotate(50)">
      <path id="Path_10979" data-name="Path 10979" d="M140.253,391.574a7.717,7.717,0,1,0,7.717,7.717A7.726,7.726,0,0,0,140.253,391.574Z" transform="translate(-132.536 -391.574)" fill="#e36f91"/>
      <path id="Path_10980" data-name="Path 10980" d="M312.181,391.574a7.717,7.717,0,1,0,7.717,7.717A7.726,7.726,0,0,0,312.181,391.574Z" transform="translate(-269.082 -391.574)" fill="#e36f91"/>
    </g>
    <g id="Group_340" data-name="Group 340" transform="translate(911.565 720.439) rotate(50)">
      <path id="Path_10981" data-name="Path 10981" d="M146.427,424.661H134.079a1.543,1.543,0,1,1,0-3.087h12.348a1.543,1.543,0,0,1,0,3.087Z" transform="translate(-132.536 -421.574)" fill="#b04663"/>
      <path id="Path_10982" data-name="Path 10982" d="M318.355,424.661H306.007a1.543,1.543,0,0,1,0-3.087h12.348a1.543,1.543,0,1,1,0,3.087Z" transform="translate(-269.082 -421.574)" fill="#b04663"/>
    </g>
    <path id="Path_10983" data-name="Path 10983" d="M250.043,155.431a1.543,1.543,0,0,1-1.543-1.543V86.626a1.543,1.543,0,0,1,3.087,0v67.261A1.543,1.543,0,0,1,250.043,155.431Z" transform="translate(885.397 449.156) rotate(50)" fill="#bcbcce"/>
    <path id="Path_10965-2" data-name="Path 10965" d="M148.837,48.053a1.543,1.543,0,0,0,1.543-1.543V7.717A7.726,7.726,0,0,0,142.663,0H84.217A7.726,7.726,0,0,0,76.5,7.717V46.51a1.543,1.543,0,0,0,1.543,1.543,4.63,4.63,0,1,1,0,9.261A1.543,1.543,0,0,0,76.5,58.858V97.65a7.726,7.726,0,0,0,7.717,7.717h58.446a7.726,7.726,0,0,0,7.717-7.717V58.858a1.543,1.543,0,0,0-1.543-1.543,4.63,4.63,0,0,1,0-9.261Z" transform="translate(921.44 643.235) rotate(50)" fill="#d6faff"/>
    <g id="Group_333-2" data-name="Group 333" transform="translate(970.864 716.681) rotate(50)">
      <path id="Path_10967-2" data-name="Path 10967" d="M140.253,45.426a7.717,7.717,0,1,0,7.717,7.717A7.726,7.726,0,0,0,140.253,45.426Z" transform="translate(-132.536 -45.426)" fill="#bfd82c"/>
      <path id="Path_10968-2" data-name="Path 10968" d="M312.181,45.426a7.717,7.717,0,1,0,7.717,7.717A7.726,7.726,0,0,0,312.181,45.426Z" transform="translate(-269.082 -45.426)" fill="#bfd82c"/>
    </g>
    <g id="Group_334-2" data-name="Group 334" transform="translate(966.135 720.649) rotate(50)">
      <path id="Path_10969-2" data-name="Path 10969" d="M318.355,78.513H306.007a1.543,1.543,0,0,1,0-3.087h12.348a1.543,1.543,0,1,1,0,3.087Z" transform="translate(-269.082 -75.426)" fill="#b04663"/>
      <path id="Path_10970-2" data-name="Path 10970" d="M146.427,78.513H134.079a1.543,1.543,0,1,1,0-3.087h12.348a1.543,1.543,0,0,1,0,3.087Z" transform="translate(-132.536 -75.426)" fill="#b04663"/>
    </g>
    <g id="Group_335-2" data-name="Group 335" transform="translate(952.674 731.944) rotate(50)">
      <path id="Path_10971-2" data-name="Path 10971" d="M140.253,160.809a7.717,7.717,0,1,0,7.717,7.717A7.726,7.726,0,0,0,140.253,160.809Z" transform="translate(-132.536 -160.809)" fill="#bfd82c"/>
      <path id="Path_10972-2" data-name="Path 10972" d="M312.181,160.809a7.717,7.717,0,1,0,7.717,7.717A7.726,7.726,0,0,0,312.181,160.809Z" transform="translate(-269.082 -160.809)" fill="#bfd82c"/>
    </g>
    <g id="Group_337-2" data-name="Group 337" transform="translate(934.484 747.207) rotate(50)">
      <path id="Path_10975-2" data-name="Path 10975" d="M140.253,276.191a7.717,7.717,0,1,0,7.717,7.717A7.726,7.726,0,0,0,140.253,276.191Z" transform="translate(-132.536 -276.191)" fill="#9ab422"/>
      <path id="Path_10976-2" data-name="Path 10976" d="M312.181,276.191a7.717,7.717,0,1,0,7.717,7.717A7.726,7.726,0,0,0,312.181,276.191Z" transform="translate(-269.082 -276.191)" fill="#9ab422"/>
    </g>
    <g id="Group_339-2" data-name="Group 339" transform="translate(916.294 762.47) rotate(50)">
      <path id="Path_10979-2" data-name="Path 10979" d="M140.253,391.574a7.717,7.717,0,1,0,7.717,7.717A7.726,7.726,0,0,0,140.253,391.574Z" transform="translate(-132.536 -391.574)" fill="#9ab422"/>
      <path id="Path_10980-2" data-name="Path 10980" d="M312.181,391.574a7.717,7.717,0,1,0,7.717,7.717A7.726,7.726,0,0,0,312.181,391.574Z" transform="translate(-269.082 -391.574)" fill="#9ab422"/>
    </g>
    <path id="Path_10983-2" data-name="Path 10983" d="M250.043,155.431a1.543,1.543,0,0,1-1.543-1.543V86.626a1.543,1.543,0,0,1,3.087,0v67.261A1.543,1.543,0,0,1,250.043,155.431Z" transform="translate(885.397 495.156) rotate(50)" fill="#bcbcce"/>
    <g id="Group_347" data-name="Group 347">
      <g id="Group_300" data-name="Group 300" transform="translate(825 843.882)">
        <path id="Path_10929" data-name="Path 10929" d="M312.039,126.761a30.451,30.451,0,1,1,30.451-30.451A30.486,30.486,0,0,1,312.039,126.761Z" transform="translate(-281.588 -65.858)" fill="#fed831"/>
      </g>
      <path id="Path_10930" data-name="Path 10930" d="M329.86,66.728a30.443,30.443,0,0,1-25.875,51.922A30.443,30.443,0,1,0,329.86,66.728Z" transform="translate(530.267 777.513)" fill="#626262" opacity="0.334"/>
    </g>
    <g id="Group_348" data-name="Group 348" transform="translate(334.097 -432)">
      <g id="Group_300-2" data-name="Group 300" transform="translate(825 843.882)">
        <path id="Path_10929-2" data-name="Path 10929" d="M312.039,126.761a30.451,30.451,0,1,1,30.451-30.451A30.486,30.486,0,0,1,312.039,126.761Z" transform="translate(-281.588 -65.858)" fill="#42a5f5"/>
      </g>
      <path id="Path_10930-2" data-name="Path 10930" d="M329.86,66.728a30.443,30.443,0,0,1-25.875,51.922A30.443,30.443,0,1,0,329.86,66.728Z" transform="translate(530.267 777.513)" fill="#626262" opacity="0.334"/>
    </g>
    <g id="Group_350" data-name="Group 350" transform="translate(267.8 -194.2)">
      <g id="Group_300-3" data-name="Group 300" transform="translate(825 843.882)">
        <path id="Path_10929-3" data-name="Path 10929" d="M302.24,107.161A20.652,20.652,0,1,1,322.891,86.51,20.675,20.675,0,0,1,302.24,107.161Z" transform="translate(-281.588 -65.858)" fill="#bfd82c"/>
      </g>
      <path id="Path_10930-3" data-name="Path 10930" d="M321.533,66.728a20.646,20.646,0,0,1-17.548,35.213,20.646,20.646,0,1,0,17.548-35.213Z" transform="translate(527.29 777.398)" fill="#626262" opacity="0.334"/>
    </g>
    <g id="Group_349" data-name="Group 349" transform="translate(497.457 -546.64)">
      <g id="Group_300-4" data-name="Group 300" transform="translate(825 843.882)">
        <path id="Path_10929-4" data-name="Path 10929" d="M301.679,106.04A20.091,20.091,0,1,1,321.77,85.949,20.114,20.114,0,0,1,301.679,106.04Z" transform="translate(-281.588 -65.858)" fill="#954599"/>
      </g>
      <path id="Path_10930-4" data-name="Path 10930" d="M321.057,66.728a20.086,20.086,0,0,1-17.072,34.257,20.085,20.085,0,1,0,17.072-34.257Z" transform="translate(527.119 777.391)" fill="#626262" opacity="0.334"/>
    </g>
    <g id="Group_300-5" data-name="Group 300" transform="translate(672 406.882)">
      <path id="Path_10929-5" data-name="Path 10929" d="M312.039,126.761a30.451,30.451,0,1,1,30.451-30.451A30.486,30.486,0,0,1,312.039,126.761Z" transform="translate(-281.588 -65.858)" fill="#ef5350"/>
    </g>
    <path id="Path_10930-5" data-name="Path 10930" d="M329.86,66.728a30.443,30.443,0,0,1-25.875,51.922A30.443,30.443,0,1,0,329.86,66.728Z" transform="translate(377.267 340.513)" fill="#d32f2f"/>
    <g id="Group_345" data-name="Group 345">
      <g id="Group_336-2" data-name="Group 336" transform="translate(947.945 735.912) rotate(50)">
        <path id="Path_10973-2" data-name="Path 10973" d="M318.355,193.9H306.007a1.543,1.543,0,0,1,0-3.087h12.348a1.543,1.543,0,1,1,0,3.087Z" transform="translate(-269.082 -190.809)" fill="#b04663"/>
        <path id="Path_10974-2" data-name="Path 10974" d="M146.427,193.9H134.079a1.543,1.543,0,1,1,0-3.087h12.348a1.543,1.543,0,0,1,0,3.087Z" transform="translate(-132.536 -190.809)" fill="#b04663"/>
      </g>
      <g id="Group_338-2" data-name="Group 338" transform="translate(929.755 751.175) rotate(50)">
        <path id="Path_10977-2" data-name="Path 10977" d="M146.427,309.278H134.079a1.543,1.543,0,1,1,0-3.087h12.348a1.543,1.543,0,0,1,0,3.087Z" transform="translate(-132.536 -306.191)" fill="#b04663"/>
        <path id="Path_10978-2" data-name="Path 10978" d="M318.355,309.278H306.007a1.543,1.543,0,0,1,0-3.087h12.348a1.543,1.543,0,1,1,0,3.087Z" transform="translate(-269.082 -306.191)" fill="#b04663"/>
      </g>
      <g id="Group_340-2" data-name="Group 340" transform="translate(911.565 766.439) rotate(50)">
        <path id="Path_10981-2" data-name="Path 10981" d="M146.427,424.661H134.079a1.543,1.543,0,1,1,0-3.087h12.348a1.543,1.543,0,0,1,0,3.087Z" transform="translate(-132.536 -421.574)" fill="#b04663"/>
        <path id="Path_10982-2" data-name="Path 10982" d="M318.355,424.661H306.007a1.543,1.543,0,0,1,0-3.087h12.348a1.543,1.543,0,1,1,0,3.087Z" transform="translate(-269.082 -421.574)" fill="#b04663"/>
      </g>
    </g>
  </g>
</svg>
