<svg xmlns="http://www.w3.org/2000/svg" viewBox="0 0 324.291 307.715">
  <g id="Group_81" data-name="Group 81" transform="translate(-880.103 -63.885)">
    <path id="green_circle" data-name="green circle" d="M105.931,0A105.931,105.931,0,1,1,0,105.931,105.931,105.931,0,0,1,105.931,0Z" transform="matrix(0.978, 0.208, -0.208, 0.978, 924.152, 120.317)" fill="#bfd82c"/>
    <path id="green_shadow" data-name="green shadow" d="M110.484.051c51.349,1.656,102.834,52.881,100.173,101.5s5.286-81.4-101.226-77.438S-3.5,147.042,1.011,92.336,59.136-1.606,110.484.051Z" transform="translate(1007.619 96.534) rotate(45)" fill="#9ab405"/>
    <g id="Q5" transform="matrix(0.891, 0.454, -0.454, 0.891, 1075.604, 58)">
      <path id="Path_329" data-name="Path 329" d="M0,97.719,15.388,133.97,113.7,33.43,60.057,0Z" transform="matrix(0.996, 0.087, -0.087, 0.996, 33.757, 4.112)" stroke="#000" stroke-width="4"/>
      <path id="Path_330" data-name="Path 330" d="M0,108.489l17.084,40.246L126.236,37.115,66.676,0Z" transform="matrix(0.996, 0.087, -0.087, 0.996, 12.963, 0)" fill="#fff"/>
      <text id="What_it_is_" data-name="What it is?" transform="translate(28.461 113.824) rotate(-46)" font-size="17" font-family="Montserrat-Bold, Montserrat" font-weight="700"><tspan x="0" y="0">What it is?</tspan></text>
    </g>
    <g id="yellow_monster" transform="matrix(0.985, -0.174, 0.174, 0.985, 928.476, 186.228)">
      <path id="Path_141" data-name="Path 141" d="M22.649,3.8l.31,2.165a8.752,8.752,0,0,1-7.421,9.906l-4.332.621A8.752,8.752,0,0,1,1.3,9.075L0,0Z" transform="translate(42.396 117.193)" fill="#fdc008"/>
      <path id="Path_142" data-name="Path 142" d="M20.668,0l1.3,9.075a8.752,8.752,0,0,1-7.42,9.906l-4.332.621a9.084,9.084,0,0,1-1.093.09A8.767,8.767,0,0,1,.311,12.18L0,10.015l14.468-7Z" transform="translate(82.37 108.498)" fill="#f29c1f"/>
      <path id="Path_143" data-name="Path 143" d="M14.468,0l1,7a8.767,8.767,0,0,1-6.347,9.685A8.767,8.767,0,0,1,.311,9.169L0,7Z" transform="translate(82.37 111.508)" fill="#fdc008"/>
      <path id="Path_144" data-name="Path 144" d="M103.588,34.639l.321,28.444-4,33.485a36.478,36.478,0,0,1-7.291,9.732,36.925,36.925,0,0,1-20.451,9.984l-17.759,2.546A36.922,36.922,0,0,1,31.98,115a36.307,36.307,0,0,1-9.76-7.331L8.895,76.244l0-.022L1.318,49.3A34.449,34.449,0,0,1,.263,35.619L6.6,19.392A34.8,34.8,0,0,1,30.047,5.177L63.617.364a34.807,34.807,0,0,1,26.5,7.053l10.642,13.792A34.444,34.444,0,0,1,103.588,34.639Z" transform="translate(10.416 2.197)" fill="#f29c1f"/>
      <path id="Path_145" data-name="Path 145" d="M97.642,34.726l.405,28.432L94.237,96.616a36.069,36.069,0,0,1-7.105,9.705,35.587,35.587,0,0,1-19.981,9.916L53.487,118.2a35.585,35.585,0,0,1-21.962-3.9,35.959,35.959,0,0,1-9.571-7.358L8.817,75.489l0-.022L1.321,48.537A35.189,35.189,0,0,1,.243,34.855l6.151-16.2A33.694,33.694,0,0,1,29.3,4.519L58.423.342A33.692,33.692,0,0,1,84.372,7.474L94.828,21.293A35.2,35.2,0,0,1,97.642,34.726Z" transform="translate(10.407 2.965)" fill="#fdc008"/>
      <path id="Path_146" data-name="Path 146" d="M26.909,18.471a4.377,4.377,0,0,1,.344,3.362l-2.637,8.682-3.17,10.434a10.94,10.94,0,1,1-21.012-6.1L3.6,24.41,6.774,13.976,9.944,3.539l.132-.434a4.376,4.376,0,0,1,8.032-.819Z" transform="translate(8.926 76.314)" fill="#fdc008"/>
      <path id="Path_147" data-name="Path 147" d="M31.775,33.558a11.513,11.513,0,0,1-.106,4.193A10.967,10.967,0,0,1,29.987,41.6a10.921,10.921,0,0,1-10.772,4.573,4.2,4.2,0,0,1-.588-.093,10.912,10.912,0,0,1-6.877-4.8l-6-9.042L.732,24.7A4.345,4.345,0,0,1,.1,21.369l3.843-17.9a3.948,3.948,0,0,1,.627-1.483,4.357,4.357,0,0,1,7.29-.028l.279.4,6.029,9.059,6.027,9.038L30.2,29.519A10.81,10.81,0,0,1,31.775,33.558Z" transform="translate(102.837 63.914)" fill="#f29c1f"/>
      <path id="Path_148" data-name="Path 148" d="M25.277,32.507a11.512,11.512,0,0,1-.106,4.193,10.959,10.959,0,0,1-1.681,3.843,10.618,10.618,0,0,1-3.127,3.012,8.111,8.111,0,0,1-1.148.629,4.191,4.191,0,0,1-.588-.093,10.912,10.912,0,0,1-6.877-4.8l-6-9.042L.732,22.72A4.345,4.345,0,0,1,.1,19.385l3.843-17.9A3.948,3.948,0,0,1,4.569,0a4.023,4.023,0,0,1,.793.9l.278.4,6.029,9.059L17.7,19.4,23.7,28.467A10.81,10.81,0,0,1,25.277,32.507Z" transform="translate(102.837 65.897)" fill="#fdc008"/>
      <path id="Path_149" data-name="Path 149" d="M34.25,17.281A17.5,17.5,0,1,1,4.938,0l8.016,4.73,5.311,3.128,2.656,1.565,5.336,3.146Z" transform="translate(23.356 32.726)" fill="#fff"/>
      <path id="Path_150" data-name="Path 150" d="M31.951,12.725A17.5,17.5,0,0,1,0,24.821l5.136-5.489,1.209-1.278,4.237-4.519.538-.564,1.571-1.685,4.218-4.5L23.274,0A17.425,17.425,0,0,1,31.951,12.725Z" transform="translate(69.561 23.472)" fill="#fff"/>
      <path id="Path_151" data-name="Path 151" d="M17.94,2.872A6.536,6.536,0,0,0,14.828.909,22.225,22.225,0,0,0,4.323.4S9.276,4.114,9.9,8.445c0,0-8.975-.924-9.9,8.051a20.55,20.55,0,0,1,8.491.639,6.121,6.121,0,0,1,2.959,2.14Z" transform="translate(2.187 20.681)" fill="#f0c419"/>
      <path id="Path_152" data-name="Path 152" d="M0,6.195A6.528,6.528,0,0,1,2.434,3.437,22.229,22.229,0,0,1,12.374,0S8.663,4.952,9.284,9.284c0,0,8.352-3.408,11.761,4.945a20.56,20.56,0,0,0-7.97,3c-1.018.764-4.018,2.034-4.4,3.2Z" transform="translate(98.095 6.178)" fill="#f29c1f"/>
      <path id="Path_153" data-name="Path 153" d="M17.5,7.84A8.751,8.751,0,0,1,.093,8.679,8.647,8.647,0,0,1,4.2,0L9.508,3.128l2.656,1.565Z" transform="translate(32.113 37.455)" fill="#f34335"/>
      <path id="Path_154" data-name="Path 154" d="M16.943,7.176A8.752,8.752,0,0,1,0,11.263L4.237,6.744l.538-.564L6.346,4.5,10.564,0A8.652,8.652,0,0,1,16.943,7.176Z" transform="translate(75.906 30.263)" fill="#f34335"/>
      <path id="Path_155" data-name="Path 155" d="M8.708,3.76A4.376,4.376,0,1,1,3.756.05,3.906,3.906,0,0,1,5.129.073L7.784,1.638A4.316,4.316,0,0,1,8.708,3.76Z" transform="translate(36.493 40.511)" fill="#2c2f38"/>
      <path id="Path_156" data-name="Path 156" d="M8.709,3.754A4.389,4.389,0,0,1,5,8.706,4.323,4.323,0,0,1,1.535,7.677,4.207,4.207,0,0,1,.046,5,4.317,4.317,0,0,1,.335,2.7l.538-.564L2.444.452A3.919,3.919,0,0,1,3.756.043,4.39,4.39,0,0,1,8.709,3.754Z" transform="translate(79.808 34.306)" fill="#2c2f38"/>
      <path id="Path_157" data-name="Path 157" d="M34.7,6.53c-.686-4.784-9-7.55-18.569-6.178S-.641,6.714.045,11.5s9,7.551,18.569,6.178S35.385,11.315,34.7,6.53Z" transform="translate(55.093 102.077)" fill="#ff5722"/>
      <path id="Path_158" data-name="Path 158" d="M8.708,3.755A4.376,4.376,0,1,1,3.755.045,4.376,4.376,0,0,1,8.708,3.755Z" transform="translate(29.995 41.447)" fill="#fff"/>
      <path id="Path_159" data-name="Path 159" d="M7.323,2.549A4.206,4.206,0,0,1,6.646,5.54,4.32,4.32,0,0,1,3.612,7.5a3.653,3.653,0,0,1-1.1,0A4.327,4.327,0,0,1,0,6.361L1.209,5.083,5.446.564,5.985,0A4.232,4.232,0,0,1,7.323,2.549Z" transform="translate(74.697 36.442)" fill="#fff"/>
      <path id="Path_160" data-name="Path 160" d="M3.757,4.393,34.077.045A4.376,4.376,0,0,1,39.03,3.756l2.484,17.326a4.377,4.377,0,0,1-3.71,4.954L7.483,30.383A4.377,4.377,0,0,1,2.53,26.671L.045,9.345A4.377,4.377,0,0,1,3.757,4.393Z" transform="translate(47.337 65.557)" fill="#ac1457"/>
      <path id="Path_161" data-name="Path 161" d="M34,.19,27.158,11.8l-4.642-1.545L18.5,13.046,13.853,11.5,9.832,14.288,0,5.066A4.444,4.444,0,0,1,1.783,4.39L32.1.042A4.456,4.456,0,0,1,34,.19Z" transform="translate(49.311 65.559)" fill="#ffebb2"/>
      <path id="Path_162" data-name="Path 162" d="M116.505,64.632l-.317-27.818a36.611,36.611,0,0,0-2.3-12.514,21.042,21.042,0,0,1,5.561-1.728,2.188,2.188,0,0,0,1.713-2.99,10.4,10.4,0,0,0-11.426-6.942,16.5,16.5,0,0,1,2.482-5.153,2.188,2.188,0,0,0-2.062-3.475,27.137,27.137,0,0,0-9.524,2.946A36.806,36.806,0,0,0,73.722.4L40.152,5.209A36.8,36.8,0,0,0,16.169,19.069,27.139,27.139,0,0,0,6.2,18.918a2.188,2.188,0,0,0-1,3.915,16.524,16.524,0,0,1,3.829,4.248A10.4,10.4,0,0,0,.011,36.953,2.188,2.188,0,0,0,2.5,39.342a21.033,21.033,0,0,1,5.822.1,36.571,36.571,0,0,0,1.31,12.654l7.4,26.3L7.26,110.548A13.128,13.128,0,0,0,21.4,127.255l.326-.047A13.129,13.129,0,0,0,32.46,117.9l1.219-4.014a38.147,38.147,0,0,0,6.7,4.68l1.149,8.013a10.952,10.952,0,0,0,12.382,9.277l4.332-.621a10.953,10.953,0,0,0,9.276-12.382l12.995-1.863A10.952,10.952,0,0,0,92.9,130.265l4.331-.621a10.953,10.953,0,0,0,9.276-12.382l-1.149-8.013a38.5,38.5,0,0,0,5.094-6.338l2.3,3.453a13.149,13.149,0,0,0,12.935,5.937l.333-.048a13.127,13.127,0,0,0,8.857-20.04ZM57.623,130.9l-4.332.621a6.564,6.564,0,0,1-7.43-5.566l-.736-5.135A38.846,38.846,0,0,0,63.178,123.4l.011.076A6.564,6.564,0,0,1,57.623,130.9ZM73.4,117.589c-8.676,1.244-15.652-1.257-16.091-4.323s5.552-7.428,14.228-8.671,15.653,1.257,16.093,4.324S82.072,116.344,73.4,117.589Zm23.211,7.724-4.331.621a6.564,6.564,0,0,1-7.43-5.566l-.011-.076a38.831,38.831,0,0,0,16.6-7.541l.736,5.132A6.564,6.564,0,0,1,96.607,125.312Zm35.758-24.118a8.751,8.751,0,0,1-15.949,2.784l-12.047-18.1a2.189,2.189,0,1,0-3.644,2.426l7.041,10.561a34.2,34.2,0,0,1-6.246,8.061,34.565,34.565,0,0,1-11.394,7.323,7.8,7.8,0,0,0,1.832-5.952c-.885-6.175-9.933-9.627-21.045-8.034s-18.825,7.449-17.94,13.624a7.8,7.8,0,0,0,3.431,5.2A34.61,34.61,0,0,1,43.4,115.246a33.868,33.868,0,0,1-8.292-6.032l3.7-12.185a2.189,2.189,0,1,0-4.188-1.275l-6.346,20.9a8.752,8.752,0,0,1-16.817-4.859L24.142,70.056a2.188,2.188,0,1,0-4.185-1.274l-.56,1.848L13.839,50.9a32.487,32.487,0,0,1-1.216-9.036,2.177,2.177,0,0,0,2.825-3.161,8.223,8.223,0,0,0-3.99-2.942A18.828,18.828,0,0,0,5.05,34.81,6.7,6.7,0,0,1,11.86,31.3a2.156,2.156,0,0,0,1.8-.661,2.184,2.184,0,0,0,.589-1.826,12.7,12.7,0,0,0-2.784-5.9,15.124,15.124,0,0,1,4.813.733A5.593,5.593,0,0,1,18.33,24.8a2.191,2.191,0,0,0,3.595-2.5,6.451,6.451,0,0,0-1.533-1.443A32.449,32.449,0,0,1,40.773,9.54l5.957-.854.932,6.5a2.188,2.188,0,0,0,4.332-.621l-.932-6.5,4.332-.621,1.552,10.83a2.188,2.188,0,0,0,4.332-.621L59.724,6.823,64.055,6.2l.932,6.5a2.188,2.188,0,0,0,4.331-.621l-.932-6.5,5.956-.854A32.452,32.452,0,0,1,97.09,9.864a6.437,6.437,0,0,0-1.066,1.815,2.147,2.147,0,0,0,1.316,2.685,2.085,2.085,0,0,0,1.056.119,2.271,2.271,0,0,0,1.75-1.341,5.088,5.088,0,0,1,1.675-1.761,15.131,15.131,0,0,1,4.413-2.056,12.708,12.708,0,0,0-1.021,6.448,2.189,2.189,0,0,0,2.994,1.715,6.746,6.746,0,0,1,7.539,1.445,18.793,18.793,0,0,0-5.879,2.717,8.227,8.227,0,0,0-3,3.945,2.174,2.174,0,0,0,3.588,2.248,32.5,32.5,0,0,1,1.372,9.012l.239,21.088-1.286-1.929a2.189,2.189,0,1,0-3.643,2.428L131.21,94.594a8.708,8.708,0,0,1,1.167,6.593Z" fill="none"/>
      <path id="Path_163" data-name="Path 163" d="M38.53,20.077a1.593,1.593,0,0,0,.018-.173,2,2,0,0,0,.041-.448,1.89,1.89,0,0,0-.024-.4,2.693,2.693,0,0,0-.3-.77,2.04,2.04,0,0,0-.252-.313,2.252,2.252,0,0,0-.334-.3c-.049-.033-.077-.084-.13-.114L8.237.278C8.183.248,8.124.248,8.069.221A2.063,2.063,0,0,0,7.657.078a1.7,1.7,0,0,0-.8-.053,2.331,2.331,0,0,0-.429.09A2.8,2.8,0,0,0,5.7.542c-.043.039-.1.054-.138.1A19.683,19.683,0,1,0,38.53,20.077Zm-16.664-6.06a2.188,2.188,0,1,1-2.476-1.856,1.77,1.77,0,0,1,.389,0l1.783,1.051A2.144,2.144,0,0,1,21.865,14.017ZM4.539,16.5A15.172,15.172,0,0,1,7.581,4.969L15.263,9.5a6.564,6.564,0,1,0,10.8,6.37l7.666,4.519A15.294,15.294,0,0,1,4.539,16.5Z" transform="translate(21.169 30.564)" fill="none"/>
      <path id="Path_164" data-name="Path 164" d="M26.511.259A1.366,1.366,0,0,0,26.348.2,2.222,2.222,0,0,0,25.91.06,2.011,2.011,0,0,0,25.534,0,2.216,2.216,0,0,0,25.1.033a1.756,1.756,0,0,0-.756.278,2.171,2.171,0,0,0-.347.246c-.045.041-.1.06-.147.1L.563,25.488c-.043.044-.053.1-.092.146a2.423,2.423,0,0,0-.237.383,2.1,2.1,0,0,0-.154.372,2.261,2.261,0,0,0-.067.407,2.194,2.194,0,0,0,0,.417A1.9,1.9,0,0,0,.1,27.6a2.067,2.067,0,0,0,.166.418,1.729,1.729,0,0,0,.064.161A19.688,19.688,0,1,0,26.511.259ZM16.473,15.205a2.188,2.188,0,1,1-1.856,2.477,2.162,2.162,0,0,1,.067-.859L16.1,15.315A1.774,1.774,0,0,1,16.473,15.205Zm2.484,17.326a15.331,15.331,0,0,1-13.939-5.4L11.1,20.642a6.564,6.564,0,1,0,8.58-9.15l6.1-6.507A15.168,15.168,0,0,1,31.943,15.2,15.331,15.331,0,0,1,18.957,32.531Z" transform="translate(67.402 21.309)" fill="none"/>
      <path id="Path_165" data-name="Path 165" d="M35.954.067,5.633,4.415A6.563,6.563,0,0,0,.067,11.844L2.551,29.169a6.564,6.564,0,0,0,7.43,5.566L40.3,30.388a6.564,6.564,0,0,0,5.567-7.429L43.383,5.632A6.564,6.564,0,0,0,35.954.067ZM22.31,12.815,18.7,11.6a2.191,2.191,0,0,0-1.937.277L14.2,13.661,8.591,8.411,34.238,4.734,30.326,11.36l-2.959-1a2.191,2.191,0,0,0-1.936.278ZM41.536,23.58a2.188,2.188,0,0,1-1.856,2.476L9.36,30.4a2.188,2.188,0,0,1-2.477-1.856L4.4,11.222a2.122,2.122,0,0,1,.04-.7L12.5,18.074a2.188,2.188,0,0,0,2.744.2l3.122-2.164,3.606,1.2c.032.009.062-.009.1.008a2.171,2.171,0,0,0,.9.08,2.15,2.15,0,0,0,.837-.328c.028-.017.062-.009.09-.035l3.13-2.168,3.606,1.2a2.189,2.189,0,0,0,2.576-.966l5.609-9.515a2.184,2.184,0,0,1,.237.664Z" transform="translate(45.15 63.369)" fill="none"/>
    </g>
  </g>
</svg>
