<svg xmlns="http://www.w3.org/2000/svg" width="1584.389" height="846.362" viewBox="0 0 1584.389 846.362">
  <g id="hero_img" data-name="hero img" transform="translate(-165.557 -167)">
    <g id="people_illustration" data-name="people illustration" transform="translate(168.135 161.631)" style="isolation: isolate">
      <g id="OBJECTS" transform="translate(0.01 -0.001)">
        <path id="Path_6793" data-name="Path 6793" d="M227.676,247.283c-24.793,9.785-51.808,21.508-61.262,42.851-20.4,45.97,55.424,88.656,47.507,137.084-6.76,41.692-67.171,58.781-100.828,90.1-26.708,24.864-36.185,61.617-24.108,93.359s45.4,57.292,84.543,64.973c61.617,12.078,132.948-16.97,186.718,10.707,39.447,20.35,54.574,65.375,96.715,81.589,45.285,17.419,97.117-6.57,137.557-30.726s88.49-51.052,136.257-38.974c46.065,11.629,75.278,56.866,123.4,58.781s81.683-40.794,128.055-52c47.129-11.439,95.439,11.487,144.033,17.443,70.457,8.627,145.522-22.808,178.777-74.9,8.745-13.732,14.748-28.5,20.7-43.205q14.536-35.855,29.048-71.662c13.4-33.089,26.92-66.7,27.63-101.631.945-46.585-22.453-93.17-63.011-125.5s-97.731-49.941-153.983-47.412c-24.935,1.111-54.361,4.727-70.905-10.778-23.8-22.1,3.569-57.528-5.294-86.2-7.09-22.713-36.705-36.635-65.044-37.6s-55.59,8.178-81.565,17.537-52.588,19.357-80.9,20.232c-46.4,1.442-88.041-21.272-131.884-34.035S626.5,117.1,606.336,151.679c-12.716,21.792-8.414,53.675-34.767,64.146-25.739,10.21-52.635-11.227-69.44-30.324-12.267-13.921-32.687-35.027-56.2-31.1-16.545,2.765-38.005,21.626-53.77,28.173C337.84,204.976,282.439,225.751,227.676,247.283Z" transform="translate(80.408 -16.224)" fill="#cfe4ff"/>
      </g>
    </g>
    <g id="Group_323" data-name="Group 323" transform="translate(165.558 768.198) rotate(-77)">
      <g id="Group_321" data-name="Group 321" transform="translate(0 0)">
        <path id="Path_10955" data-name="Path 10955" d="M33.642,0h1.084L49.448,14.713,64.161,0h1.084L79.963,14.713,94.682,0h1.084l14.715,14.713L125.2,0h1.084L141,14.713,155.716,0H156.8l14.719,14.713L186.234,0h1.084l14.715,14.713L216.749,0h4.208V220.957h-4.814l-14.112-14.112-14.116,14.112h-2.287l-14.116-14.112L157.4,220.957h-2.288L141,206.845l-14.115,14.112h-2.291l-14.112-14.112L96.363,220.957H94.076L79.957,206.845,65.848,220.957H63.56L49.445,206.845,35.326,220.957H33.039L18.929,206.845,4.811,220.957H0V0H4.214L18.929,14.713Z" fill="#fd0d1b"/>
        <g id="Group_320" data-name="Group 320" transform="translate(36.819 36.825)">
          <path id="Path_10956" data-name="Path 10956" d="M73.661,147.309a73.654,73.654,0,1,1,73.654-73.654A73.742,73.742,0,0,1,73.661,147.309Zm0-142.173a68.516,68.516,0,1,0,68.512,68.519A68.595,68.595,0,0,0,73.661,5.136Z" transform="translate(0 0)" fill="#fff"/>
        </g>
        <path id="Path_10957" data-name="Path 10957" d="M0,65.951A65.948,65.948,0,1,0,65.951,0,65.944,65.944,0,0,0,0,65.951Z" transform="translate(44.529 44.528)" fill="#1ba6ed"/>
        <path id="Path_10958" data-name="Path 10958" d="M59.162.514,57.27.887A51.821,51.821,0,0,0,52,2.072a62.482,62.482,0,0,0-7.723,2.593,70.254,70.254,0,0,0-9.2,4.827,60.543,60.543,0,0,0-9.306,7.639,56.19,56.19,0,0,0-8.1,10.432,57.323,57.323,0,0,0-5.489,12.813,54.451,54.451,0,0,0-1.918,14.171,58.014,58.014,0,0,0,.521,7.317,49.669,49.669,0,0,0,1.4,6.854,57.239,57.239,0,0,0,5.5,12.8A56.436,56.436,0,0,0,25.781,91.95a60.856,60.856,0,0,0,9.306,7.639,71.112,71.112,0,0,0,9.19,4.833,61.029,61.029,0,0,0,7.755,2.593c2.207.7,4.009.888,5.232,1.184,1.236.245,1.9.373,1.9.373l-1.918.187a33.283,33.283,0,0,1-5.483.283,45.083,45.083,0,0,1-8.6-.85,53.462,53.462,0,0,1-10.857-3.4,51.351,51.351,0,0,1-11.629-7.118A51.691,51.691,0,0,1,10.11,86.46,55.993,55.993,0,0,1,2.69,71.581,60.166,60.166,0,0,1,.759,63.048,65.782,65.782,0,0,1,0,54.547,64.641,64.641,0,0,1,2.7,37.512a56.676,56.676,0,0,1,7.42-14.879,52.283,52.283,0,0,1,10.567-11.2A51.929,51.929,0,0,1,32.306,4.311a53.95,53.95,0,0,1,10.85-3.4A45.215,45.215,0,0,1,51.793.051a33.475,33.475,0,0,1,5.451.283C58.492.456,59.162.514,59.162.514Z" transform="translate(51.319 55.932)" fill="#fdbd7f"/>
      </g>
    </g>
    <g id="Group_324" data-name="Group 324" transform="matrix(0.891, -0.454, 0.454, 0.891, 220.502, 488.613)">
      <g id="Group_321-2" data-name="Group 321" transform="translate(0 0)">
        <path id="Path_10955-2" data-name="Path 10955" d="M33.642,0h1.084L49.448,14.713,64.161,0h1.084L79.963,14.713,94.682,0h1.084l14.715,14.713L125.2,0h1.084L141,14.713,155.715,0H156.8l14.719,14.713L186.234,0h1.084l14.715,14.713L216.749,0h4.208V220.957h-4.814L202.03,206.845l-14.116,14.112h-2.287l-14.116-14.112L157.4,220.957h-2.288L141,206.845l-14.115,14.112h-2.291l-14.112-14.112L96.363,220.957H94.075L79.957,206.845,65.848,220.957H63.56L49.445,206.845,35.326,220.957H33.039L18.929,206.845,4.811,220.957H0V0H4.214L18.929,14.713Z" fill="#954599"/>
        <g id="Group_320-2" data-name="Group 320" transform="translate(36.819 36.825)">
          <path id="Path_10956-2" data-name="Path 10956" d="M73.661,147.309a73.654,73.654,0,1,1,73.654-73.654A73.742,73.742,0,0,1,73.661,147.309Zm0-142.173a68.516,68.516,0,1,0,68.512,68.519A68.595,68.595,0,0,0,73.661,5.136Z" transform="translate(0 0)" fill="#fff"/>
        </g>
        <path id="Path_10957-2" data-name="Path 10957" d="M0,65.951A65.948,65.948,0,1,0,65.951,0,65.944,65.944,0,0,0,0,65.951Z" transform="translate(44.529 44.528)" fill="#fd6220"/>
        <path id="Path_10958-2" data-name="Path 10958" d="M59.162.514,57.27.887A51.82,51.82,0,0,0,52,2.072a62.482,62.482,0,0,0-7.723,2.593,70.254,70.254,0,0,0-9.2,4.827,60.544,60.544,0,0,0-9.306,7.639,56.19,56.19,0,0,0-8.1,10.432,57.323,57.323,0,0,0-5.489,12.813,54.451,54.451,0,0,0-1.918,14.171,58.014,58.014,0,0,0,.521,7.317,49.67,49.67,0,0,0,1.4,6.854,57.24,57.24,0,0,0,5.5,12.8A56.436,56.436,0,0,0,25.781,91.95a60.856,60.856,0,0,0,9.306,7.639,71.111,71.111,0,0,0,9.19,4.833,61.029,61.029,0,0,0,7.755,2.593c2.207.7,4.009.888,5.232,1.184,1.236.245,1.9.373,1.9.373l-1.918.187a33.283,33.283,0,0,1-5.483.283,45.082,45.082,0,0,1-8.6-.85,53.462,53.462,0,0,1-10.857-3.4,51.351,51.351,0,0,1-11.629-7.118A51.691,51.691,0,0,1,10.11,86.46,55.993,55.993,0,0,1,2.69,71.581,60.166,60.166,0,0,1,.759,63.048,65.782,65.782,0,0,1,0,54.547,64.641,64.641,0,0,1,2.7,37.512a56.676,56.676,0,0,1,7.42-14.879,52.283,52.283,0,0,1,10.567-11.2A51.929,51.929,0,0,1,32.306,4.311a53.95,53.95,0,0,1,10.85-3.4A45.215,45.215,0,0,1,51.793.051a33.475,33.475,0,0,1,5.451.283C58.492.456,59.162.514,59.162.514Z" transform="translate(51.319 55.932)" fill="#fdbd7f"/>
      </g>
    </g>
    <g id="Group_323-2" data-name="Group 323" transform="translate(1530.785 828.335) rotate(-103)">
      <g id="Group_321-3" data-name="Group 321" transform="translate(0 0)">
        <path id="Path_10955-3" data-name="Path 10955" d="M34.247,224.926h1.1l14.986-14.977,14.977,14.977h1.1L81.4,209.949l14.983,14.977h1.1l14.98-14.977,14.983,14.977h1.1l14.98-14.977,14.98,14.977h1.1L174.6,209.949l14.983,14.977h1.1l14.98-14.977,14.98,14.977h4.283V0h-4.9L205.66,14.365,191.291,0h-2.328L174.593,14.365,160.225,0H157.9L143.53,14.365,129.161,0h-2.332L112.463,14.365,98.094,0H95.766L81.394,14.365,67.031,0H64.7L50.333,14.365,35.961,0H33.632L19.269,14.365,4.9,0H0V224.926H4.29l14.98-14.977Z" fill="#fed831"/>
        <g id="Group_320-3" data-name="Group 320" transform="translate(37.481 37.485)">
          <path id="Path_10956-3" data-name="Path 10956" d="M74.984,0a74.977,74.977,0,1,0,74.978,74.978A75.066,75.066,0,0,0,74.984,0Zm0,144.727a69.746,69.746,0,1,1,69.743-69.75A69.827,69.827,0,0,1,74.984,144.727Z" transform="translate(0 0)" fill="#fff"/>
        </g>
        <path id="Path_10957-3" data-name="Path 10957" d="M0,67.129a67.133,67.133,0,1,1,67.136,67.136A67.129,67.129,0,0,1,0,67.129Z" transform="translate(45.329 45.333)" fill="#fd0d1b"/>
        <path id="Path_10958-3" data-name="Path 10958" d="M60.224,110.53l-1.926-.38a52.745,52.745,0,0,1-5.365-1.205,63.6,63.6,0,0,1-7.861-2.64,71.517,71.517,0,0,1-9.362-4.913,61.632,61.632,0,0,1-9.473-7.776A57.2,57.2,0,0,1,18,83a58.352,58.352,0,0,1-5.588-13.043,55.429,55.429,0,0,1-1.952-14.425,59.056,59.056,0,0,1,.531-7.449A50.562,50.562,0,0,1,12.414,41.1a58.268,58.268,0,0,1,5.595-13.03,57.45,57.45,0,0,1,8.235-10.619,61.949,61.949,0,0,1,9.473-7.776,72.39,72.39,0,0,1,9.355-4.92,62.124,62.124,0,0,1,7.894-2.64c2.247-.708,4.081-.9,5.326-1.205C59.55.661,60.224.53,60.224.53L58.272.34A33.88,33.88,0,0,0,52.691.052a45.892,45.892,0,0,0-8.759.865A54.422,54.422,0,0,0,32.88,4.383a52.273,52.273,0,0,0-11.838,7.246A52.619,52.619,0,0,0,10.292,23.04,57,57,0,0,0,2.738,38.186,61.247,61.247,0,0,0,.773,46.873,66.964,66.964,0,0,0,0,55.527,65.8,65.8,0,0,0,2.745,72.868,57.694,57.694,0,0,0,10.3,88.014,53.222,53.222,0,0,0,21.055,99.419a52.862,52.862,0,0,0,11.831,7.246,54.92,54.92,0,0,0,11.045,3.466,46.028,46.028,0,0,0,8.792.871,34.076,34.076,0,0,0,5.549-.288C59.543,110.589,60.224,110.53,60.224,110.53Z" transform="translate(52.241 56.935)" fill="#fdbd7f"/>
      </g>
    </g>
    <g id="Group_324-2" data-name="Group 324" transform="translate(1594.281 671.844) rotate(-153)">
      <g id="Group_321-4" data-name="Group 321" transform="translate(-37.291 -22.525)">
        <path id="Path_10955-4" data-name="Path 10955" d="M34.247,224.926h1.1l14.986-14.977,14.977,14.977h1.1L81.4,209.949l14.983,14.977h1.1l14.98-14.977,14.983,14.977h1.1l14.98-14.977,14.98,14.977h1.1L174.6,209.949l14.983,14.977h1.1l14.98-14.977,14.98,14.977h4.283V0h-4.9L205.66,14.365,191.29,0h-2.328L174.593,14.365,160.224,0H157.9L143.53,14.365,129.161,0h-2.332L112.463,14.365,98.094,0H95.765L81.394,14.365,67.031,0H64.7L50.333,14.365,35.961,0H33.632L19.269,14.365,4.9,0H0V224.926H4.29l14.98-14.977Z" fill="#bfd82c"/>
        <g id="Group_320-4" data-name="Group 320" transform="translate(37.481 37.485)">
          <path id="Path_10956-4" data-name="Path 10956" d="M74.984,0a74.978,74.978,0,1,0,74.978,74.978A75.066,75.066,0,0,0,74.984,0Zm0,144.727a69.746,69.746,0,1,1,69.743-69.75A69.827,69.827,0,0,1,74.984,144.727Z" transform="translate(0 0)" fill="#fff"/>
        </g>
        <path id="Path_10957-4" data-name="Path 10957" d="M0,67.129a67.133,67.133,0,1,1,67.136,67.136A67.129,67.129,0,0,1,0,67.129Z" transform="translate(45.329 45.333)" fill="#954599"/>
        <path id="Path_10958-4" data-name="Path 10958" d="M60.224,110.53l-1.926-.38a52.751,52.751,0,0,1-5.365-1.205,63.6,63.6,0,0,1-7.861-2.64,71.514,71.514,0,0,1-9.362-4.913,61.631,61.631,0,0,1-9.473-7.776A57.2,57.2,0,0,1,18,83a58.353,58.353,0,0,1-5.588-13.043,55.429,55.429,0,0,1-1.952-14.426,59.057,59.057,0,0,1,.531-7.449A50.562,50.562,0,0,1,12.414,41.1a58.267,58.267,0,0,1,5.595-13.03,57.45,57.45,0,0,1,8.235-10.619,61.947,61.947,0,0,1,9.473-7.776,72.388,72.388,0,0,1,9.355-4.92,62.124,62.124,0,0,1,7.894-2.64c2.247-.708,4.081-.9,5.326-1.205C59.55.662,60.224.53,60.224.53L58.272.34A33.879,33.879,0,0,0,52.691.052a45.891,45.891,0,0,0-8.759.865A54.422,54.422,0,0,0,32.88,4.383a52.273,52.273,0,0,0-11.838,7.246A52.619,52.619,0,0,0,10.292,23.04,57,57,0,0,0,2.738,38.186,61.247,61.247,0,0,0,.773,46.873,66.964,66.964,0,0,0,0,55.527,65.8,65.8,0,0,0,2.745,72.868,57.694,57.694,0,0,0,10.3,88.014,53.222,53.222,0,0,0,21.055,99.42a52.862,52.862,0,0,0,11.831,7.246,54.919,54.919,0,0,0,11.045,3.466,46.027,46.027,0,0,0,8.792.871,34.076,34.076,0,0,0,5.549-.288C59.543,110.589,60.224,110.53,60.224,110.53Z" transform="translate(52.241 56.935)" fill="#fdbd7f"/>
      </g>
    </g>
    <g id="Group_312" data-name="Group 312" transform="translate(238.353 -258.337)">
      <path id="Path_10949" data-name="Path 10949" d="M617.428,610.616c-35.8-26.941-74.492-42.7-119.932-42.7-105,0-190.439,85.422-190.439,190.453,0,96.7,72.492,176.606,165.956,188.68v116H424.632a24.495,24.495,0,0,0,0,48.99h48.381v38.07a24.483,24.483,0,1,0,48.966,0v-38.07h48.376a24.495,24.495,0,0,0,0-48.99H521.979v-116c93.459-12.084,165.956-92,165.956-188.68C688.5,704.292,658.449,639.117,617.428,610.616ZM497.482,899.841c-78.013,0-141.473-63.46-141.473-141.473S419.469,616.9,497.482,616.9,638.96,680.35,638.96,758.368,575.5,899.841,497.482,899.841Z" transform="translate(13.589 78.32)" fill="#ff67d6"/>
      <path id="Path_10950" data-name="Path 10950" d="M785.6,544.78a24.8,24.8,0,0,0-24.531,28.472c1.773,12.287,12.867,21.088,25.28,21.088h27.043L711.424,696.3A191.7,191.7,0,0,0,590.068,653.1c-106.253,0-192.709,86.436-192.709,192.723,0,97.743,73.2,178.528,167.627,190.883,23.135,2.468,49.854.048,49.854.048,94.575-12.234,167.931-93.092,167.931-190.931a191.462,191.462,0,0,0-37.292-113.5l102.94-102.94v21.189c0,12.427,8.829,23.537,21.141,25.28a24.806,24.806,0,0,0,28.429-24.531V562.293a17.51,17.51,0,0,0-17.508-17.513ZM603.113,988.393c-89.189,7.945-163.584-66.445-155.639-155.639,6.1-68.368,61.147-123.423,129.519-129.514,89.189-7.945,163.584,66.45,155.639,155.639C726.537,927.246,671.485,982.3,603.113,988.393Z" transform="translate(332.434 -10.285)" fill="#1095b1"/>
    </g>
    <path id="Path_11107" data-name="Path 11107" d="M-97.29,1.288A59.538,59.538,0,0,1-112.47-.644,37.336,37.336,0,0,1-124.43-5.8l5.98-13.432a38.7,38.7,0,0,0,10.028,4.6A38.174,38.174,0,0,0-97.2-12.88q10.488,0,10.488-5.244,0-2.76-2.99-4.094a54.986,54.986,0,0,0-9.614-2.806,91.762,91.762,0,0,1-12.144-3.358,20.44,20.44,0,0,1-8.372-5.75q-3.5-3.956-3.5-10.672a18.475,18.475,0,0,1,3.22-10.626,21.547,21.547,0,0,1,9.614-7.5,39.572,39.572,0,0,1,15.686-2.76,55.333,55.333,0,0,1,12.512,1.426,38.316,38.316,0,0,1,10.856,4.186L-77.05-46.552A37.491,37.491,0,0,0-94.9-51.52q-5.428,0-7.912,1.61a4.827,4.827,0,0,0-2.484,4.186q0,2.576,2.944,3.864a53.231,53.231,0,0,0,9.476,2.668,88.77,88.77,0,0,1,12.19,3.358,21.05,21.05,0,0,1,8.372,5.7Q-68.77-26.22-68.77-19.5A18.114,18.114,0,0,1-71.99-9.016a21.949,21.949,0,0,1-9.66,7.5A39.072,39.072,0,0,1-97.29,1.288Zm80.04-13.8H-44.482L-49.542,0H-68.126L-39.7-64.4h17.94L6.762,0H-12.19Zm-5.336-13.432-8.28-20.608-8.28,20.608ZM30.13-50.324v14.168H58.558V-22.08H30.13V0H11.914V-64.4H62.422v14.076Zm92.552,36.248V0h-51.7V-64.4h50.508v14.076H89.01v10.856h28.612v13.616H89.01v11.776Z" transform="translate(742.887 604)" fill="#fd0d1b"/>
    <path id="Path_11108" data-name="Path 11108" d="M-65.228,1.288A59.538,59.538,0,0,1-80.408-.644,37.336,37.336,0,0,1-92.368-5.8l5.98-13.432a38.7,38.7,0,0,0,10.028,4.6A38.174,38.174,0,0,0-65.136-12.88q10.488,0,10.488-5.244,0-2.76-2.99-4.094a54.986,54.986,0,0,0-9.614-2.806A91.762,91.762,0,0,1-79.4-28.382a20.44,20.44,0,0,1-8.372-5.75q-3.5-3.956-3.5-10.672a18.475,18.475,0,0,1,3.22-10.626,21.547,21.547,0,0,1,9.614-7.5,39.572,39.572,0,0,1,15.686-2.76,55.333,55.333,0,0,1,12.512,1.426,38.316,38.316,0,0,1,10.856,4.186l-5.612,13.524A37.491,37.491,0,0,0-62.836-51.52q-5.428,0-7.912,1.61a4.827,4.827,0,0,0-2.484,4.186q0,2.576,2.944,3.864a53.231,53.231,0,0,0,9.476,2.668,88.771,88.771,0,0,1,12.19,3.358,21.05,21.05,0,0,1,8.372,5.7q3.542,3.91,3.542,10.626a18.114,18.114,0,0,1-3.22,10.488,21.949,21.949,0,0,1-9.66,7.5A39.072,39.072,0,0,1-65.228,1.288Zm88.6-15.364V0h-51.7V-64.4H22.172v14.076H-10.3v10.856H18.308v13.616H-10.3v11.776ZM73.6,0,60.26-19.964,47.1,0H26.312l23.46-32.568L27.324-64.4H47.84L60.72-45.816,73.416-64.4H93.1L70.656-33.3,94.576,0Z" transform="translate(1152.911 604)" fill="#fd0d1b"/>
    <path id="Path_10951" data-name="Path 10951" d="M668.2,357.64a6.2,6.2,0,0,0-6.134,7.12,6.32,6.32,0,0,0,6.321,5.273h6.762l-25.5,25.5a48.157,48.157,0,1,0-36.618,85.118,74.5,74.5,0,0,0,12.466.011,48.057,48.057,0,0,0,32.667-76.123l25.741-25.742v5.3a6.318,6.318,0,0,0,5.287,6.321,6.2,6.2,0,0,0,7.109-6.133V362.018a4.378,4.378,0,0,0-4.378-4.378Zm-45.63,110.929a35.8,35.8,0,1,1,32.386-32.386A35.836,35.836,0,0,1,622.574,468.569Z" transform="translate(295.779 -143.403)" fill="#1695b1"/>
    <path id="Path_10952" data-name="Path 10952" d="M708.21,379.321a6.2,6.2,0,0,0-6.134,7.12,6.321,6.321,0,0,0,6.321,5.274h6.762l-25.5,25.5a48.157,48.157,0,1,0-36.618,85.12,74.493,74.493,0,0,0,12.466.011,48.059,48.059,0,0,0,32.668-76.124l25.741-25.741v5.3a6.317,6.317,0,0,0,5.286,6.321,6.2,6.2,0,0,0,7.109-6.134V383.7a4.379,4.379,0,0,0-4.378-4.379ZM662.58,490.25a35.8,35.8,0,1,1,32.386-32.386A35.836,35.836,0,0,1,662.58,490.25Z" transform="translate(304.782 -138.524)" fill="#1695b1"/>
    <path id="Path_10951-2" data-name="Path 10951" d="M648.767,357.64a4.96,4.96,0,0,0-4.906,5.694,5.055,5.055,0,0,0,5.056,4.217h5.408l-20.392,20.392a38.515,38.515,0,1,0-29.286,68.076,59.576,59.576,0,0,0,9.97.009,38.435,38.435,0,0,0,26.127-60.882l20.587-20.588V378.8a5.053,5.053,0,0,0,4.229,5.056,4.96,4.96,0,0,0,5.686-4.9V361.142a3.5,3.5,0,0,0-3.5-3.5Zm-36.494,88.719a28.634,28.634,0,1,1,25.9-25.9A28.661,28.661,0,0,1,612.272,446.359Z" transform="translate(977.428 6.6)" fill="#1695b1"/>
    <path id="Path_10952-2" data-name="Path 10952" d="M688.773,379.321a4.96,4.96,0,0,0-4.906,5.694,5.055,5.055,0,0,0,5.056,4.218h5.408l-20.392,20.391A38.515,38.515,0,1,0,644.653,477.7a59.58,59.58,0,0,0,9.97.009,38.437,38.437,0,0,0,26.127-60.883l20.587-20.587v4.237a5.053,5.053,0,0,0,4.228,5.056,4.961,4.961,0,0,0,5.686-4.906v-17.8a3.5,3.5,0,0,0-3.5-3.5ZM652.278,468.04a28.634,28.634,0,1,1,25.9-25.9A28.661,28.661,0,0,1,652.278,468.04Z" transform="translate(976.618 6.162)" fill="#1695b1"/>
    <path id="Path_10951-3" data-name="Path 10951" d="M653.065,357.64a5.234,5.234,0,0,0-5.177,6.01,5.334,5.334,0,0,0,5.336,4.45h5.708L637.41,389.621A40.647,40.647,0,1,0,606.5,461.465a62.874,62.874,0,0,0,10.522.009A40.563,40.563,0,0,0,644.6,397.223L666.324,375.5v4.472a5.332,5.332,0,0,0,4.463,5.335,5.235,5.235,0,0,0,6-5.176V361.336a3.7,3.7,0,0,0-3.7-3.7ZM614.55,451.27a30.219,30.219,0,1,1,27.336-27.336A30.248,30.248,0,0,1,614.55,451.27Z" transform="translate(-197.593 356.491)" fill="#1695b1"/>
    <path id="Path_10952-3" data-name="Path 10952" d="M693.071,379.321a5.235,5.235,0,0,0-5.177,6.01,5.335,5.335,0,0,0,5.335,4.451h5.708L677.416,411.3a40.647,40.647,0,1,0-30.907,71.846,62.877,62.877,0,0,0,10.522.009A40.565,40.565,0,0,0,684.6,418.9l21.727-21.726v4.472a5.332,5.332,0,0,0,4.462,5.335,5.236,5.236,0,0,0,6-5.177v-18.79a3.7,3.7,0,0,0-3.7-3.7Zm-38.515,93.63a30.219,30.219,0,1,1,27.336-27.336A30.248,30.248,0,0,1,654.556,472.951Z" transform="translate(-196.232 357.229)" fill="#1695b1"/>
    <path id="Path_10953" data-name="Path 10953" d="M648.426,579.455c-8.916-6.709-18.554-10.634-29.871-10.634a47.41,47.41,0,0,0-6.1,94.428v28.893h-12.05a6.1,6.1,0,0,0,0,12.2h12.05v9.483a6.1,6.1,0,1,0,12.2,0v-9.483H636.7a6.1,6.1,0,0,0,0-12.2h-12.05V663.249a47.473,47.473,0,0,0,41.335-46.994C666.126,602.788,658.643,586.554,648.426,579.455Zm-29.875,72.037a35.236,35.236,0,1,1,35.236-35.237A35.275,35.275,0,0,1,618.551,651.492Z" transform="translate(292.641 233.454)" fill="#fd67d6"/>
    <path id="Path_10954" data-name="Path 10954" d="M692.523,598.27c-8.916-6.709-18.553-10.634-29.871-10.634a47.41,47.41,0,0,0-6.1,94.43v28.892H644.5a6.1,6.1,0,0,0,0,12.2h12.049v9.482a6.1,6.1,0,1,0,12.2,0V723.16H680.8a6.1,6.1,0,0,0,0-12.2h-12.05V682.066a47.474,47.474,0,0,0,41.335-47C710.223,621.6,702.74,605.369,692.523,598.27Zm-29.874,72.037a35.236,35.236,0,1,1,35.238-35.236A35.275,35.275,0,0,1,662.648,670.307Z" transform="translate(303.865 238.244)" fill="#fd67d6"/>
    <path id="Path_10953-2" data-name="Path 10953" d="M628.974,576.779c-6.673-5.021-13.885-7.958-22.354-7.958a35.48,35.48,0,0,0-4.564,70.668v21.623h-9.018a4.565,4.565,0,0,0,0,9.131h9.018v7.1a4.563,4.563,0,1,0,9.127,0v-7.1H620.2a4.565,4.565,0,0,0,0-9.131h-9.018V639.489a35.528,35.528,0,0,0,30.934-35.169C642.221,594.241,636.62,582.092,628.974,576.779ZM606.617,630.69a26.37,26.37,0,1,1,26.37-26.37A26.4,26.4,0,0,1,606.617,630.69Z" transform="translate(-252.52 -256.921)" fill="#fd67d6"/>
    <path id="Path_10954-2" data-name="Path 10954" d="M673.071,595.594c-6.673-5.021-13.885-7.958-22.355-7.958a35.481,35.481,0,0,0-4.564,70.669v21.622h-9.017a4.566,4.566,0,0,0,0,9.131h9.017v7.1a4.563,4.563,0,1,0,9.127,0v-7.1H664.3a4.566,4.566,0,0,0,0-9.131H655.28V658.3a35.528,35.528,0,0,0,30.934-35.17C686.318,613.056,680.718,600.907,673.071,595.594ZM650.714,649.5a26.37,26.37,0,1,1,26.371-26.37A26.4,26.4,0,0,1,650.714,649.5Z" transform="translate(-255.215 -258.071)" fill="#fd67d6"/>
    <path id="Path_10953-3" data-name="Path 10953" d="M632.741,577.3c-7.107-5.348-14.789-8.476-23.81-8.476a37.79,37.79,0,0,0-4.861,75.269v23.031h-9.6a4.863,4.863,0,0,0,0,9.725h9.6v7.559a4.861,4.861,0,1,0,9.721,0v-7.559h9.6a4.863,4.863,0,0,0,0-9.725h-9.6V644.09a37.841,37.841,0,0,0,32.948-37.459C646.85,595.9,640.885,582.956,632.741,577.3Zm-23.813,57.421a28.087,28.087,0,1,1,28.087-28.087A28.118,28.118,0,0,1,608.928,634.718Z" transform="translate(938.877 233.179)" fill="#fd67d6"/>
    <path id="Path_10954-3" data-name="Path 10954" d="M676.838,596.112c-7.107-5.348-14.789-8.476-23.81-8.476a37.791,37.791,0,0,0-4.861,75.27v23.03h-9.6a4.863,4.863,0,0,0,0,9.726h9.6v7.558a4.861,4.861,0,1,0,9.721,0v-7.558h9.6a4.863,4.863,0,0,0,0-9.726h-9.6v-23.03a37.841,37.841,0,0,0,32.948-37.46C690.947,614.711,684.982,601.771,676.838,596.112Zm-23.813,57.421a28.087,28.087,0,1,1,28.088-28.087A28.118,28.118,0,0,1,653.025,653.533Z" transform="translate(938.877 233.179)" fill="#fd67d6"/>
    <path id="Path_10959" data-name="Path 10959" d="M168.816,356.356a3.519,3.519,0,1,0,0,7.038h3.947l-14.48,14.48A27.349,27.349,0,1,0,137.53,426.22v16.67H130.7a3.6,3.6,0,0,0-3.636,3.452,3.52,3.52,0,0,0,3.518,3.588h6.952v5.355a3.6,3.6,0,0,0,3.453,3.635,3.52,3.52,0,0,0,3.584-3.519V449.93H151.4a3.6,3.6,0,0,0,3.636-3.452,3.519,3.519,0,0,0-3.517-3.588h-6.952V426.22a27.293,27.293,0,0,0,18.552-43.232l14.618-14.618v3a3.6,3.6,0,0,0,3.458,3.634,3.521,3.521,0,0,0,3.582-3.519V359.421a3.065,3.065,0,0,0-3.065-3.065Zm-27.769,63.081a20.33,20.33,0,1,1,20.33-20.33A20.353,20.353,0,0,1,141.047,419.437Z" transform="translate(1035.223 534.725)" fill="#fd67d6"/>
    <path id="Path_10960" data-name="Path 10960" d="M193.631,356.356a5.1,5.1,0,1,0,0,10.206h5.724l-21,21a39.659,39.659,0,1,0-30.093,70.107v24.173h-9.909a5.217,5.217,0,0,0-5.273,5.005,5.1,5.1,0,0,0,5.1,5.2h10.081v7.766a5.214,5.214,0,0,0,5.007,5.271,5.1,5.1,0,0,0,5.2-5.1v-7.934h9.909a5.214,5.214,0,0,0,5.272-5.005,5.1,5.1,0,0,0-5.1-5.2H158.468V457.666a39.577,39.577,0,0,0,26.9-62.69l21.2-21.2v4.352a5.213,5.213,0,0,0,5.014,5.269,5.105,5.105,0,0,0,5.194-5.1V360.8a4.445,4.445,0,0,0-4.445-4.445Zm-40.267,91.473a29.481,29.481,0,1,1,29.48-29.481A29.514,29.514,0,0,1,153.364,447.829Z" transform="translate(1380.318 -189.356)" fill="#fd67d6"/>
    <path id="Path_10961" data-name="Path 10961" d="M173.885,356.356a3.843,3.843,0,1,0,0,7.685h4.31l-15.812,15.811a29.864,29.864,0,1,0-22.661,52.792v18.2h-7.462a3.928,3.928,0,0,0-3.971,3.769,3.844,3.844,0,0,0,3.841,3.918h7.591v5.848a3.926,3.926,0,0,0,3.77,3.969,3.843,3.843,0,0,0,3.913-3.843v-5.974h7.462a3.927,3.927,0,0,0,3.97-3.769,3.843,3.843,0,0,0-3.84-3.918h-7.591v-18.2a29.8,29.8,0,0,0,20.258-47.207l15.963-15.963v3.277a3.925,3.925,0,0,0,3.776,3.968,3.844,3.844,0,0,0,3.911-3.843V359.7a3.347,3.347,0,0,0-3.347-3.347Zm-30.322,68.881a22.2,22.2,0,1,1,22.2-22.2A22.224,22.224,0,0,1,143.563,425.237Z" transform="translate(147.318 545.01)" fill="#fd67d6"/>
    <path id="Path_10962" data-name="Path 10962" d="M193.631,356.356a5.1,5.1,0,1,0,0,10.206h5.724l-21,21a39.659,39.659,0,1,0-30.093,70.107v24.173h-9.909a5.217,5.217,0,0,0-5.273,5.005,5.1,5.1,0,0,0,5.1,5.2h10.081v7.766a5.214,5.214,0,0,0,5.007,5.271,5.1,5.1,0,0,0,5.2-5.1v-7.934h9.909a5.214,5.214,0,0,0,5.272-5.005,5.1,5.1,0,0,0-5.1-5.2H158.468V457.666a39.577,39.577,0,0,0,26.9-62.69l21.2-21.2v4.352a5.213,5.213,0,0,0,5.014,5.269,5.105,5.105,0,0,0,5.194-5.1V360.8a4.445,4.445,0,0,0-4.445-4.445Zm-40.267,91.473a29.481,29.481,0,1,1,29.48-29.481A29.514,29.514,0,0,1,153.364,447.829Z" transform="translate(437.318 -156.356)" fill="#1695b1"/>
    <path id="Path_10963" data-name="Path 10963" d="M193.631,356.356a5.1,5.1,0,1,0,0,10.206h5.724l-21,21a39.659,39.659,0,1,0-30.093,70.107v24.173h-9.909a5.217,5.217,0,0,0-5.273,5.005,5.1,5.1,0,0,0,5.1,5.2h10.081v7.766a5.214,5.214,0,0,0,5.007,5.271,5.1,5.1,0,0,0,5.2-5.1v-7.934h9.909a5.214,5.214,0,0,0,5.272-5.005,5.1,5.1,0,0,0-5.1-5.2H158.468V457.666a39.577,39.577,0,0,0,26.9-62.69l21.2-21.2v4.352a5.213,5.213,0,0,0,5.014,5.269,5.105,5.105,0,0,0,5.194-5.1V360.8a4.445,4.445,0,0,0-4.445-4.445Zm-40.267,91.473a29.481,29.481,0,1,1,29.48-29.481A29.514,29.514,0,0,1,153.364,447.829Z" transform="translate(1197.318 345.644)" fill="#1695b1"/>
    <g id="Group_354" data-name="Group 354">
      <path id="Path_10986" data-name="Path 10986" d="M628.974,576.779c-6.673-5.021-13.885-7.958-22.354-7.958a35.48,35.48,0,0,0-4.564,70.668v21.623h-9.018a4.565,4.565,0,0,0,0,9.131h9.018v7.1a4.563,4.563,0,1,0,9.127,0v-7.1H620.2a4.565,4.565,0,0,0,0-9.131h-9.018V639.489a35.528,35.528,0,0,0,30.934-35.169C642.221,594.241,636.62,582.092,628.974,576.779ZM606.617,630.69a26.37,26.37,0,1,1,26.37-26.37A26.4,26.4,0,0,1,606.617,630.69Z" transform="translate(-252.52 -256.921)" fill="#fd67d6"/>
      <path id="Path_10987" data-name="Path 10987" d="M673.071,595.594c-6.673-5.021-13.885-7.958-22.355-7.958a35.481,35.481,0,0,0-4.564,70.669v21.622h-9.017a4.566,4.566,0,0,0,0,9.131h9.017v7.1a4.563,4.563,0,1,0,9.127,0v-7.1H664.3a4.566,4.566,0,0,0,0-9.131H655.28V658.3a35.528,35.528,0,0,0,30.934-35.17C686.318,613.056,680.718,600.907,673.071,595.594ZM650.714,649.5a26.37,26.37,0,1,1,26.371-26.37A26.4,26.4,0,0,1,650.714,649.5Z" transform="translate(-255.215 -258.07)" fill="#fd67d6"/>
    </g>
  </g>
</svg>
