<svg xmlns="http://www.w3.org/2000/svg" width="239.402" height="229.336" viewBox="0 0 239.402 229.336">
  <g id="red_on_blue" data-name="red on blue" transform="matrix(0.996, -0.087, 0.087, 0.996, -17.809, 4.823)">
    <g id="blue_circle" data-name="blue circle" transform="translate(0 15.544)">
      <path id="blue_circle-2" data-name="blue circle" d="M85.953,0A85.953,85.953,0,1,1,0,85.953,85.953,85.953,0,0,1,85.953,0Z" transform="matrix(0.978, 0.208, -0.208, 0.978, 35.741, 20.646)" fill="#50c2f4"/>
      <path id="blue_shadow" data-name="blue shadow" d="M89.648.041c41.665,1.344,83.44,42.908,81.281,82.357s4.289-66.051-82.136-62.834S-2.842,119.311.82,74.922,47.983-1.3,89.648.041Z" transform="translate(109.206 0) rotate(48)" fill="#12a6ed"/>
    </g>
    <g id="What_causes_HIV_AIDS_" data-name="What causes  HIV/AIDS?" transform="translate(118.075 0) rotate(13)" opacity="0">
      <path id="Path_309" data-name="Path 309" d="M0,79.29,12.486,108.7,92.261,27.126,48.731,0Z" transform="matrix(0.946, 0.326, -0.326, 0.946, 54.855, 7.319)" stroke="#000" stroke-width="4"/>
      <path id="Path_308" data-name="Path 308" d="M0,88.028l13.862,32.656,88.567-90.569L54.1,0Z" transform="matrix(0.946, 0.326, -0.326, 0.946, 39.291, 0)" fill="#fff"/>
      <path id="text" d="M11.41-7,9.12,0H7.38L5.84-4.74,4.25,0H2.52L.22-7H1.9L3.48-2.08,5.13-7h1.5l1.6,4.96L9.86-7Zm4.21,1.54a2.214,2.214,0,0,1,1.615.6,2.379,2.379,0,0,1,.615,1.78V0H16.29V-2.84a1.4,1.4,0,0,0-.28-.955,1.027,1.027,0,0,0-.81-.315,1.241,1.241,0,0,0-.94.365,1.511,1.511,0,0,0-.35,1.085V0H12.35V-7.42h1.56v2.6a2.075,2.075,0,0,1,.75-.475A2.713,2.713,0,0,1,15.62-5.46Zm5.81,0a2.8,2.8,0,0,1,1.92.6,2.277,2.277,0,0,1,.67,1.795V0H22.56V-.67a1.738,1.738,0,0,1-1.64.75,2.545,2.545,0,0,1-1.075-.21,1.6,1.6,0,0,1-.695-.58,1.51,1.51,0,0,1-.24-.84,1.4,1.4,0,0,1,.565-1.18,2.879,2.879,0,0,1,1.745-.43h1.24a.994.994,0,0,0-.31-.785,1.365,1.365,0,0,0-.93-.275,2.715,2.715,0,0,0-.845.135,2.236,2.236,0,0,0-.7.365l-.56-1.09a3.379,3.379,0,0,1,1.055-.48A4.726,4.726,0,0,1,21.43-5.46ZM21.31-.97a1.359,1.359,0,0,0,.71-.185,1.012,1.012,0,0,0,.44-.545v-.55H21.39q-.96,0-.96.63a.561.561,0,0,0,.235.475A1.059,1.059,0,0,0,21.31-.97Zm7.59.71a1.6,1.6,0,0,1-.565.255,2.857,2.857,0,0,1-.7.085,2.094,2.094,0,0,1-1.485-.49,1.875,1.875,0,0,1-.525-1.44V-4.06h-.83v-1.2h.83V-6.57h1.56v1.31h1.34v1.2H27.18v2.19a.734.734,0,0,0,.175.525.649.649,0,0,0,.495.185,1,1,0,0,0,.63-.2Zm6.31.34a3.308,3.308,0,0,1-1.545-.355A2.658,2.658,0,0,1,32.6-1.26a2.687,2.687,0,0,1-.385-1.43A2.687,2.687,0,0,1,32.6-4.12a2.658,2.658,0,0,1,1.07-.985A3.308,3.308,0,0,1,35.21-5.46a2.994,2.994,0,0,1,1.485.355A2.105,2.105,0,0,1,37.62-4.09l-1.21.65a1.323,1.323,0,0,0-1.21-.74,1.369,1.369,0,0,0-1.01.4,1.473,1.473,0,0,0-.4,1.09,1.473,1.473,0,0,0,.4,1.09,1.369,1.369,0,0,0,1.01.4,1.309,1.309,0,0,0,1.21-.74l1.21.66a2.148,2.148,0,0,1-.925,1A2.96,2.96,0,0,1,35.21.08Zm5.48-5.54a2.8,2.8,0,0,1,1.92.6,2.277,2.277,0,0,1,.67,1.795V0H41.82V-.67a1.738,1.738,0,0,1-1.64.75A2.545,2.545,0,0,1,39.1-.13a1.6,1.6,0,0,1-.695-.58,1.51,1.51,0,0,1-.24-.84,1.4,1.4,0,0,1,.565-1.18,2.879,2.879,0,0,1,1.745-.43h1.24a.994.994,0,0,0-.31-.785,1.365,1.365,0,0,0-.93-.275,2.715,2.715,0,0,0-.845.135,2.236,2.236,0,0,0-.7.365l-.56-1.09a3.379,3.379,0,0,1,1.055-.48A4.726,4.726,0,0,1,40.69-5.46ZM40.57-.97a1.359,1.359,0,0,0,.71-.185,1.012,1.012,0,0,0,.44-.545v-.55H40.65q-.96,0-.96.63a.561.561,0,0,0,.235.475A1.059,1.059,0,0,0,40.57-.97Zm9.54-4.41V0H48.63V-.64a2.069,2.069,0,0,1-.74.535,2.328,2.328,0,0,1-.93.185,2.291,2.291,0,0,1-1.68-.61,2.432,2.432,0,0,1-.62-1.81V-5.38h1.56v2.81q0,1.3,1.09,1.3a1.172,1.172,0,0,0,.9-.365,1.54,1.54,0,0,0,.34-1.085V-5.38ZM53.37.08a5.226,5.226,0,0,1-1.31-.165A3.423,3.423,0,0,1,51.04-.5l.52-1.12a3.273,3.273,0,0,0,.87.375,3.646,3.646,0,0,0,1,.145q.99,0,.99-.49a.347.347,0,0,0-.27-.33,4,4,0,0,0-.83-.17,8.007,8.007,0,0,1-1.09-.23,1.691,1.691,0,0,1-.745-.46,1.308,1.308,0,0,1-.315-.94,1.472,1.472,0,0,1,.295-.9,1.9,1.9,0,0,1,.86-.615,3.673,3.673,0,0,1,1.335-.22,5.239,5.239,0,0,1,1.135.125,3.173,3.173,0,0,1,.935.345l-.52,1.11a3.1,3.1,0,0,0-1.55-.4,1.577,1.577,0,0,0-.75.14.412.412,0,0,0-.25.36.357.357,0,0,0,.27.35,4.78,4.78,0,0,0,.86.19,9.206,9.206,0,0,1,1.08.235,1.622,1.622,0,0,1,.73.455,1.291,1.291,0,0,1,.31.92,1.421,1.421,0,0,1-.3.89,1.915,1.915,0,0,1-.875.605A3.9,3.9,0,0,1,53.37.08Zm8.77-2.75q0,.03-.03.42H58.04a1.268,1.268,0,0,0,.52.79,1.722,1.722,0,0,0,1.02.29,2.065,2.065,0,0,0,.745-.125,1.8,1.8,0,0,0,.6-.395l.83.9a2.789,2.789,0,0,1-2.22.87,3.512,3.512,0,0,1-1.61-.355,2.6,2.6,0,0,1-1.08-.985,2.714,2.714,0,0,1-.38-1.43,2.749,2.749,0,0,1,.375-1.425,2.627,2.627,0,0,1,1.03-.99A3.024,3.024,0,0,1,59.34-5.46a3,3,0,0,1,1.43.34,2.482,2.482,0,0,1,1.005.975A2.907,2.907,0,0,1,62.14-2.67ZM59.35-4.28a1.343,1.343,0,0,0-.89.3,1.277,1.277,0,0,0-.44.82h2.65a1.29,1.29,0,0,0-.44-.815A1.315,1.315,0,0,0,59.35-4.28ZM64.99.08a5.226,5.226,0,0,1-1.31-.165A3.423,3.423,0,0,1,62.66-.5l.52-1.12a3.273,3.273,0,0,0,.87.375,3.646,3.646,0,0,0,1,.145q.99,0,.99-.49a.347.347,0,0,0-.27-.33,4,4,0,0,0-.83-.17,8.007,8.007,0,0,1-1.09-.23,1.691,1.691,0,0,1-.745-.46,1.308,1.308,0,0,1-.315-.94,1.472,1.472,0,0,1,.295-.9,1.9,1.9,0,0,1,.86-.615,3.673,3.673,0,0,1,1.335-.22,5.24,5.24,0,0,1,1.135.125,3.173,3.173,0,0,1,.935.345l-.52,1.11a3.1,3.1,0,0,0-1.55-.4,1.577,1.577,0,0,0-.75.14.412.412,0,0,0-.25.36.357.357,0,0,0,.27.35,4.78,4.78,0,0,0,.86.19,9.206,9.206,0,0,1,1.08.235,1.623,1.623,0,0,1,.73.455,1.291,1.291,0,0,1,.31.92,1.421,1.421,0,0,1-.3.89,1.915,1.915,0,0,1-.875.605A3.9,3.9,0,0,1,64.99.08ZM7.25,6v7H5.63V10.13H2.45V13H.83V6H2.45V8.76H5.63V6ZM8.91,6h1.62v7H8.91Zm9.97,0-3.03,7h-1.6L11.23,6h1.75l2.13,5,2.16-5Zm2.47-1.42h1.39L19.44,14H18.05Zm5.99,6.92H24.09L23.47,13H21.81l3.12-7h1.6l3.13,7h-1.7Zm-.51-1.23L25.72,7.59l-1.11,2.68ZM30.39,6h1.62v7H30.39Zm3.28,0h3.18a4.469,4.469,0,0,1,2.015.435,3.257,3.257,0,0,1,1.36,1.225A3.446,3.446,0,0,1,40.71,9.5a3.446,3.446,0,0,1-.485,1.84,3.257,3.257,0,0,1-1.36,1.225A4.469,4.469,0,0,1,36.85,13H33.67Zm3.1,5.67a2.352,2.352,0,0,0,1.675-.585A2.066,2.066,0,0,0,39.07,9.5a2.066,2.066,0,0,0-.625-1.585A2.352,2.352,0,0,0,36.77,7.33H35.29v4.34Zm7.46,1.45a5.727,5.727,0,0,1-1.6-.225,3.764,3.764,0,0,1-1.245-.585l.55-1.22a3.732,3.732,0,0,0,1.07.53,4.019,4.019,0,0,0,1.24.2,1.981,1.981,0,0,0,1.02-.2.619.619,0,0,0,.33-.545.521.521,0,0,0-.195-.415,1.478,1.478,0,0,0-.5-.265q-.3-.1-.825-.22a11.4,11.4,0,0,1-1.31-.38,2.128,2.128,0,0,1-.875-.61,1.647,1.647,0,0,1-.365-1.12,1.948,1.948,0,0,1,.33-1.1,2.22,2.22,0,0,1,.995-.785,4.06,4.06,0,0,1,1.625-.29,5.381,5.381,0,0,1,1.31.16,3.87,3.87,0,0,1,1.12.46l-.5,1.23a3.9,3.9,0,0,0-1.94-.55,1.819,1.819,0,0,0-1.005.22.672.672,0,0,0-.325.58.567.567,0,0,0,.375.535,5.888,5.888,0,0,0,1.145.345,11.4,11.4,0,0,1,1.31.38,2.169,2.169,0,0,1,.875.6,1.609,1.609,0,0,1,.365,1.11,1.911,1.911,0,0,1-.335,1.1,2.251,2.251,0,0,1-1,.785A4.1,4.1,0,0,1,44.23,13.12Zm5.22-2.55a1.479,1.479,0,0,1,.235-.86,4.6,4.6,0,0,1,.685-.75,3.991,3.991,0,0,0,.485-.505.751.751,0,0,0,.155-.465.686.686,0,0,0-.295-.585,1.3,1.3,0,0,0-.785-.215,1.745,1.745,0,0,0-.835.195,1.78,1.78,0,0,0-.615.545l-1.21-.71A2.8,2.8,0,0,1,48.4,6.23,3.817,3.817,0,0,1,50.1,5.88a3.14,3.14,0,0,1,1.845.49,1.572,1.572,0,0,1,.695,1.36,1.79,1.79,0,0,1-.135.72,1.907,1.907,0,0,1-.33.525q-.2.215-.505.495a4.2,4.2,0,0,0-.54.555.878.878,0,0,0-.17.545Zm.76,2.51a.948.948,0,0,1-.685-.265.862.862,0,0,1-.275-.645.838.838,0,0,1,.27-.635,1.061,1.061,0,0,1,1.38,0,.838.838,0,0,1,.27.635.862.862,0,0,1-.275.645A.948.948,0,0,1,50.21,13.08Z" transform="matrix(0.857, -0.515, 0.515, 0.857, 39.15, 80.535)"/>
    </g>
    <g id="red_character" data-name="red character" transform="matrix(0.996, -0.087, 0.087, 0.996, 38.64, 78.001)">
      <g id="body" transform="translate(0 0)">
        <g id="main_body" data-name="main body" transform="translate(0.08 33.5)">
          <path id="Path_10036" data-name="Path 10036" d="M50.306.235c-10.132,1.816-20.03,5.3-28.493,11.128S6.38,25.419,3.071,35.141C.582,42.375.143,50.135.025,57.778-.062,62.639,0,67.617,1.548,72.215c2.46,7.38,8.58,13.119,15.55,16.575s14.73,4.89,22.461,5.8a192.173,192.173,0,0,0,24.628,1.23c13.266-.234,27.791-2.518,36.634-12.446,5.388-6.091,7.877-14.349,8.082-22.49s-1.7-16.165-4.217-23.9c-3.6-11.128-8.961-22.432-18.771-28.757-5.008-3.251-10.835-4.92-16.575-6.56A50.366,50.366,0,0,0,47.114.879" transform="translate(0 0)" fill="#d93b39"/>
        </g>
        <g id="main_body-2" data-name="main body" transform="translate(0.08 33.426)">
          <path id="Path_10037" data-name="Path 10037" d="M50.306.22c-10.132,1.816-20.03,5.3-28.493,11.128S6.38,25.434,3.071,35.156C.582,42.36.143,50.121.025,57.764-.062,62.625,0,67.6,1.548,72.2c2.46,7.38,8.58,13.119,15.55,16.6s14.73,4.861,22.461,5.769A182.086,182.086,0,0,0,64.187,95.8c13.266-.234,27.791-2.518,36.634-12.446,5.388-6.091,7.877-14.349,8.082-22.49s-1.7-16.165-4.217-23.9c-3.6-11.128-8.961-22.432-18.771-28.757C80.908,4.994,75.081,3.3,69.341,1.655A50.261,50.261,0,0,0,47.114.894" transform="translate(0 0)" fill="#c2222d"/>
        </g>
        <path id="shadow" d="M0,0S7.995,11.889,30.1,18.976c15.374,4.949,37.513,9.488,68.525-1.933,0,0-1.552,7.877-26.619,11.421-14.32,1.991-41,.615-56.372-6.413C4.1,16.751,1.757,7.057,0,0Z" transform="translate(0.721 99.389)" fill="#a82443"/>
        <g id="Highlight" transform="translate(41.725 40.282)">
          <path id="Path_10038" data-name="Path 10038" d="M18.823,28.8a23.72,23.72,0,0,0-7.38-7.585c-2.167-1.406-4.6-2.46-6.735-3.924A10.33,10.33,0,0,1,.14,11.2C-.592,7.685,1.634,4.024,4.709,2.15S11.561-.076,15.192.012A45.478,45.478,0,0,1,57.244,31.786,23.69,23.69,0,0,1,58.5,40.571a11.888,11.888,0,0,1-3.631,7.936,11.86,11.86,0,0,1-4.51,2.343c-5.154,1.406-10.777-.264-15.111-3.4S27.667,39.927,24.8,35.417a20.206,20.206,0,0,0-5.535-5.945" transform="translate(0 0)" fill="#e07c7c"/>
          <path id="Path_10039" data-name="Path 10039" d="M.647.294a2.912,2.912,0,0,0,.029,3.69A8.236,8.236,0,0,0,3.927,6.239C7.383,7.908,10.9,9.606,14.7,10.192a29.7,29.7,0,0,1,4.832.791c1.552.5,3.485,1.816,5.388,2.2a1.113,1.113,0,0,0,.82-.029.937.937,0,0,0,.381-1.084,2.87,2.87,0,0,0-.732-1.025A39.3,39.3,0,0,0,2.9.089,4.02,4.02,0,0,0,.149.411" transform="translate(17.591 0.743)" fill="#fff"/>
          <path id="Path_10040" data-name="Path 10040" d="M1.7.234c2.2.029,4.1,1.493,5.71,2.987A6.209,6.209,0,0,1,8.587,4.539,5.476,5.476,0,0,1,9.231,6.53a2.314,2.314,0,0,1-.059,1.406.928.928,0,0,1-1.113.586c-.41-.176-.556-.615-.7-1.025A10.272,10.272,0,0,0,5.073,4.275,5.976,5.976,0,0,0,2.466,2.313L1.061,1.962A1.523,1.523,0,0,1,.036,1.054.8.8,0,0,1,.68,0" transform="translate(44.675 17.436)" fill="#fff"/>
        </g>
        <ellipse id="highlight-2" data-name="highlight" cx="1.757" cy="6.472" rx="1.757" ry="6.472" transform="translate(19.445 120.183) rotate(-69.2)" fill="#e07c7c"/>
        <ellipse id="highlight-3" data-name="highlight" cx="0.759" cy="2.249" rx="0.759" ry="2.249" transform="translate(34.245 124.2) rotate(-68.839)" fill="#e07c7c"/>
        <g id="left_circle" data-name="left circle" transform="translate(0 0)">
          <ellipse id="Ellipse_129" data-name="Ellipse 129" cx="20.265" cy="19.415" rx="20.265" ry="19.415" transform="matrix(1, -0.005, 0.005, 1, 0, 0.212)" fill="#ef48a0"/>
          <ellipse id="Ellipse_130" data-name="Ellipse 130" cx="20.265" cy="19.415" rx="20.265" ry="19.415" transform="matrix(1, -0.005, 0.005, 1, 0, 0.212)" fill="#c2222d"/>
          <path id="Path_10041" data-name="Path 10041" d="M1.29,7.868A1.714,1.714,0,0,1,0,6.169,3.11,3.11,0,0,1,.88,4.09,17.6,17.6,0,0,1,2.608,2.538,11.517,11.517,0,0,1,4.541.927a6.384,6.384,0,0,1,2.2-.674A19.855,19.855,0,0,1,27.821,11.323,10.22,10.22,0,0,1,28.934,15.1a5.154,5.154,0,0,1-1.084,3.69,4.363,4.363,0,0,1-4.715,1.318,7.819,7.819,0,0,1-1.9-1.142c-2.548-1.962-4.685-4.422-7.35-6.238a37.687,37.687,0,0,0-4.275-2.343C6.913,9.068,4.1,7.721,1.114,7.838" transform="translate(10.237 3.874)" fill="#e07c7c"/>
          <g id="shadow-2" data-name="shadow" transform="translate(1.163 17.833)">
            <path id="Path_10042" data-name="Path 10042" d="M.67.322C-.443,2.606-.033,5.359.9,7.7a18.1,18.1,0,0,0,3.514,5.564A7.907,7.907,0,0,0,6.7,15.052a9.576,9.576,0,0,0,2.606.761,89.636,89.636,0,0,0,10.777,1.7,21.458,21.458,0,0,0,8.522-.732,14.027,14.027,0,0,0,8.61-8.434A14.091,14.091,0,0,0,33.5,11.1a16.954,16.954,0,0,1-9.605,3.69,25.7,25.7,0,0,1-10.279-1.552A13.325,13.325,0,0,1,7.376,9.429,10.611,10.611,0,0,1,5.209,3.075a2.4,2.4,0,0,0-.234-1.2,2.108,2.108,0,0,0-.7-.732A6.472,6.472,0,0,0,1.109,0" transform="translate(0 0)" fill="#a82443"/>
          </g>
          <g id="highlight-4" data-name="highlight" transform="translate(17.006 3.143)">
            <path id="Path_10043" data-name="Path 10043" d="M4.155,4.47a5.037,5.037,0,0,1-3.4-1.318A1.8,1.8,0,0,1,.143,1.1C.524.429,1.109.429,1.7.312A15,15,0,0,1,7.054.195,13.888,13.888,0,0,1,11.3,1.923,11.064,11.064,0,0,1,14.785,4.47a3.929,3.929,0,0,1,.674,4.07.879.879,0,0,1-.41.5,1.113,1.113,0,0,1-.615.117c-2.343-.088-3.983-2.2-5.974-3.426a8.58,8.58,0,0,0-4.3-1.259" transform="translate(0 0)" fill="#fff"/>
          </g>
          <g id="highlight-5" data-name="highlight" transform="translate(34.291 11.859)">
            <path id="Path_10044" data-name="Path 10044" d="M.871.062A1.552,1.552,0,0,1,2.218.3,2.694,2.694,0,0,1,3.126,1.38,2.167,2.167,0,0,1,3.36,2.786a1.23,1.23,0,0,1-.937,1.025,1.611,1.611,0,0,1-1.054-.322A3.192,3.192,0,0,1,.109,1.731,1.552,1.552,0,0,1,.051.765.937.937,0,0,1,.724.091" transform="translate(0.144 0.143)" fill="#fff"/>
            <path id="Path_10045" data-name="Path 10045" d="M1.044.351a1.662,1.662,0,0,1,1.757.7,2.411,2.411,0,0,1,.556,1.962,1.2,1.2,0,0,1-.527.674,1.025,1.025,0,0,1-.966-.029A2.753,2.753,0,0,1,.575,2.313C.283,1.728.048.586.927.381,1.1.351,1.015.059.839.117A.966.966,0,0,0,.107.761,1.7,1.7,0,0,0,.136,2.021,3.338,3.338,0,0,0,1.542,3.836a1.611,1.611,0,0,0,1.142.234,1.289,1.289,0,0,0,.791-.615,2.284,2.284,0,0,0-.264-2.313A2.125,2.125,0,0,0,.985.059C.81.117.868.41,1.044.351Z" transform="translate(0 0)" fill="#fff"/>
          </g>
        </g>
        <g id="middle_circle" data-name="middle circle" transform="translate(57.881 9.148)">
          <path id="Path_10046" data-name="Path 10046" d="M7.059.164A9.12,9.12,0,0,0,1.2,5.494,17.941,17.941,0,0,0,.031,13.547a7.134,7.134,0,0,0,.761,3.309c.908,1.523,2.753,2.255,4.48,2.636a23.281,23.281,0,0,0,6.53.556,8.434,8.434,0,0,0,3.309-.644,8.086,8.086,0,0,0,3.163-2.723,10.194,10.194,0,0,0,1.7-9.137A13.546,13.546,0,0,0,16.02,2.389,8.346,8.346,0,0,0,13.795.867,9.254,9.254,0,0,0,11.247.252,13.965,13.965,0,0,0,7.118.105" transform="translate(0 0)" fill="#ef48a0"/>
          <path id="Path_10047" data-name="Path 10047" d="M7.059.141A9.271,9.271,0,0,0,1.2,5.471,17.949,17.949,0,0,0,.031,13.553a7.016,7.016,0,0,0,.761,3.28c.908,1.552,2.753,2.255,4.48,2.665a23.281,23.281,0,0,0,6.53.556,9.635,9.635,0,0,0,3.309-.644,8.592,8.592,0,0,0,3.163-2.723c1.874-2.606,2.782-6.12,1.7-9.137A13.328,13.328,0,0,0,16.02,2.4,7.819,7.819,0,0,0,13.795.844,9.225,9.225,0,0,0,11.247.258,13.044,13.044,0,0,0,7.118.112" transform="translate(0 0.023)" fill="#c2222d"/>
          <path id="Path_10048" data-name="Path 10048" d="M.469,3.41A.761.761,0,0,1,0,2.678,1.7,1.7,0,0,1,.323,1.77L.967,1.1A5.507,5.507,0,0,1,1.7.394,3.075,3.075,0,0,1,2.519.1,6.677,6.677,0,0,1,7.2,1.009c.761.439,4.539,3.075,5.945,5.447s.146,3.807-.264,4.07c-.966.586-4.656-2.108-4.89-2.313-.966-.849-1.757-1.9-2.753-2.694A19.125,19.125,0,0,0,3.6,4.494,6.547,6.547,0,0,0,.411,3.381" transform="translate(5.595 1.586)" fill="#e07c7c"/>
          <path id="Path_10049" data-name="Path 10049" d="M.243.344A1.23,1.23,0,0,1,1.326.022,3.133,3.133,0,0,1,2.41.461,6.56,6.56,0,0,1,3.9,1.515a2.753,2.753,0,0,1,.82,1.64.527.527,0,0,1-.059.293.351.351,0,0,1-.351.146,1.845,1.845,0,0,1-1.376-.586c-.381-.381-.674-.82-1.025-1.23A1.962,1.962,0,0,0,.594,1.017C.36.988.067.988.008.754S.213.373.448.315" transform="translate(9.628 2.251)" fill="#fff"/>
          <path id="Path_10050" data-name="Path 10050" d="M.509.56C1.153-.055,2.09.5,2.735.853A4.213,4.213,0,0,1,4.492,2.463a1.757,1.757,0,0,1,.176.556c.059.146.117.439-.059.527a1.744,1.744,0,0,1-1.084-.234C3.262,3.137,2.5,2.053,1.885,1.526A2.021,2.021,0,0,0,.86,1,.849.849,0,0,1,.333.911C.158.765.509.618.626.589S.714.238.538.3s-.732.41-.469.761a.615.615,0,0,0,.41.2,2.021,2.021,0,0,1,.7.146c.937.41,1.288,1.493,2.079,2.079a1.845,1.845,0,0,0,1.259.381.556.556,0,0,0,.439-.264,1.084,1.084,0,0,0,.029-.615A3.6,3.6,0,0,0,3.232.823C2.442.326,1.153-.465.3.355a.146.146,0,1,0,.205.2Z" transform="translate(9.479 2.122)" fill="#fff"/>
          <path id="Path_10051" data-name="Path 10051" d="M.213.252a3.485,3.485,0,0,1,1,.849c.234.322.586.761.381,1.171h.264l-.41-.615A4.362,4.362,0,0,0,1,1.072C.77.838.389.633.3.252S-.05.164.008.34a3.476,3.476,0,0,0,.732.879,3.222,3.222,0,0,1,.41.527l.439.7c.059.059.2.088.264,0A2.437,2.437,0,0,0,1.5,1.013,3.4,3.4,0,0,0,.36.018C.184-.07.038.193.213.252Z" transform="translate(15.895 6.208)" fill="#fff"/>
          <path id="Path_10052" data-name="Path 10052" d="M.029.049A8.346,8.346,0,0,1,2.723.2,4.539,4.539,0,0,1,5.066,1.484a8.373,8.373,0,0,1,.82,1.171A10.308,10.308,0,0,0,7.5,4.763,5.125,5.125,0,0,0,9.722,6.11l1.318.176,1.054.059a5.328,5.328,0,0,0,3.1-.351c-1.464.586-2.518,1.962-4.012,2.4a6.116,6.116,0,0,1-3.163-.146A8.961,8.961,0,0,1,5.33,7.165,13.09,13.09,0,0,1,3.046,5.232a4.188,4.188,0,0,1-.556-.7c-.146-.264-.234-.556-.351-.82a2.635,2.635,0,0,0-.674-.937c-.2-.234-.469-.41-.674-.644A2.811,2.811,0,0,1,.41,1.337,4.948,4.948,0,0,1,0,.019" transform="translate(1.759 8.988)" fill="#a82443"/>
        </g>
        <g id="right_circle" data-name="right circle" transform="translate(84.964 33.511)">
          <g id="ear" transform="translate(0 0)">
            <path id="Path_10053" data-name="Path 10053" d="M.476,7.866A11.826,11.826,0,0,1,10.345.077,14.185,14.185,0,0,1,22.2,4.821c2.958,3.28,4.217,7.907,2.108,11.509a9.254,9.254,0,0,1-2.548,2.782A13.881,13.881,0,0,1,7.3,20.312,13.916,13.916,0,0,1,.007,7.779" fill="#ef48a0"/>
          </g>
          <g id="ear-2" data-name="ear" transform="translate(0 0)">
            <path id="Path_10054" data-name="Path 10054" d="M.476,7.866A11.826,11.826,0,0,1,10.345.077,14.185,14.185,0,0,1,22.2,4.821c2.958,3.28,4.217,7.907,2.108,11.509a9.254,9.254,0,0,1-2.548,2.782A13.881,13.881,0,0,1,7.3,20.312,13.916,13.916,0,0,1,.007,7.779" fill="#c2222d"/>
          </g>
          <path id="Path_10055" data-name="Path 10055" d="M3.5,1.948.485,2.065a.674.674,0,0,1-.351-.059c-.176-.117-.146-.351-.088-.527C.338.659,1.334.366,2.183.249a28.177,28.177,0,0,1,2.811-.2C7.308-.044,9.709-.1,11.759.923A8.838,8.838,0,0,1,16.034,6.75a4.686,4.686,0,0,1,.088,2.021A2.46,2.46,0,0,1,15.01,10.44,2.821,2.821,0,0,1,11.818,9.8a13.823,13.823,0,0,1-1.962-2.87A13.619,13.619,0,0,0,7.894,4.437C6.517,3,4.643,1.83,2.681,2.035" transform="translate(5.936 1.907)" fill="#e07c7c"/>
          <path id="Path_10056" data-name="Path 10056" d="M0,.135A4.773,4.773,0,0,1,3.4.574,14.437,14.437,0,0,1,6.238,2.536a2.343,2.343,0,0,1,.527.556.674.674,0,0,1,.029.732c-.2.351-.732.322-1.113.146C4.568,3.386,4.188,1.921,3.1,1.248S.966.867.088.252" transform="translate(12.98 2.9)" fill="#fff"/>
          <path id="Path_10057" data-name="Path 10057" d="M.184.433a4.744,4.744,0,0,1,3.456.5A10.278,10.278,0,0,1,5.162,1.9,17.1,17.1,0,0,1,6.568,3.04.791.791,0,0,1,6.89,3.8a.5.5,0,0,1-.527.322A1.786,1.786,0,0,1,5.221,3.45c-.615-.644-.966-1.523-1.728-2.05S1.267.931.33.258A.158.158,0,0,0,.154.521C1.121,1.195,2.38.96,3.317,1.6s1.2,1.64,1.933,2.284a1.611,1.611,0,0,0,1.259.5.732.732,0,0,0,.615-1.054A1.64,1.64,0,0,0,6.6,2.659l-.761-.615C5.308,1.634,4.781,1.253,4.225.9A5.536,5.536,0,0,0,.1.14C-.08.2.008.463.184.433Z" transform="translate(12.826 2.748)" fill="#fff"/>
          <path id="Path_10058" data-name="Path 10058" d="M.351,3.8A5.388,5.388,0,0,0,2.2,2.016,5.22,5.22,0,0,1,3.163.61,3.347,3.347,0,0,1,5.447.024,2.958,2.958,0,0,1,6.765.493a2.665,2.665,0,0,1,.674.82c.732,1.289.556,2.87.615,4.363a12.094,12.094,0,0,0,.7,3.514,3.075,3.075,0,0,0,.82,1.406,2.753,2.753,0,0,0,1.933.674,8.141,8.141,0,0,0,2.05-.351l2.723-.732a1.978,1.978,0,0,1-.908,1.376,7.206,7.206,0,0,1-3.6,1.7,11.745,11.745,0,0,1-1.757-.029,4.565,4.565,0,0,1-2.489-.791,5.27,5.27,0,0,1-.879-1.084A32.271,32.271,0,0,0,0,4.036" transform="translate(6.274 6.846)" fill="#a82443"/>
        </g>
      </g>
      <g id="Face" transform="translate(16.388 54.76)">
        <g id="Cheek" transform="translate(8.522 34.79)">
          <ellipse id="Ellipse_131" data-name="Ellipse 131" cx="6.882" cy="3.953" rx="6.882" ry="3.953" transform="translate(0 0.849)" fill="#f377ba"/>
          <ellipse id="Ellipse_132" data-name="Ellipse 132" cx="6.882" cy="3.953" rx="6.882" ry="3.953" transform="translate(56.079 0)" fill="#f47fbe"/>
        </g>
        <g id="eye_Glasses" data-name="eye Glasses" transform="translate(0 0)">
          <circle id="Ellipse_133" data-name="Ellipse 133" cx="19.386" cy="19.386" r="19.386" transform="translate(0 1.523)" fill="#e2fcff" stroke="#000" stroke-miterlimit="10" stroke-width="3" opacity="0.52"/>
          <circle id="Ellipse_134" data-name="Ellipse 134" cx="19.386" cy="19.386" r="19.386" transform="translate(44.19 0)" fill="#e2fcff" stroke="#000" stroke-miterlimit="10" stroke-width="3" opacity="0.52"/>
          <g id="Group_132" data-name="Group 132" transform="translate(38.274 18.947)" opacity="0.52">
            <path id="Path_10059" data-name="Path 10059" d="M.439.879H5.915a.439.439,0,1,0,0-.879H.439a.439.439,0,1,0,0,.879Z" transform="translate(0 0)"/>
          </g>
        </g>
        <g id="mouth" transform="translate(32.913 40.071)">
          <path id="Path_10060" data-name="Path 10060" d="M.117,1.439A2.087,2.087,0,0,1,2.372,0,8.858,8.858,0,0,1,5.154.912a15.14,15.14,0,0,0,9.166.849C16.341,1.293,18.3.444,20.352.444A2.226,2.226,0,0,1,21.67.707a2.266,2.266,0,0,1,.849,1.757c.2,2.284-1.2,4.363-2.518,6.238a12.446,12.446,0,0,1-4.012,4.158,10.727,10.727,0,0,1-5.564,1.084,10.008,10.008,0,0,1-4.393-.761A9.278,9.278,0,0,1,1.64,8.321,28.6,28.6,0,0,1,0,1.82" transform="translate(0.148 0.161)" fill="#541339"/>
          <path id="Path_10061" data-name="Path 10061" d="M.383,1.63A1.931,1.931,0,0,1,2.14.312,6.526,6.526,0,0,1,4.98,1.1,15.813,15.813,0,0,0,10.9,2.421a15.112,15.112,0,0,0,3.046-.264,27.355,27.355,0,0,0,3.046-.791A14.145,14.145,0,0,1,20.12.751a2.812,2.812,0,0,1,1.464.176,1.435,1.435,0,0,1,.791,1A4.744,4.744,0,0,1,22.287,4.7,11.772,11.772,0,0,1,21,7.37c-.527.82-1.113,1.611-1.7,2.372a14.644,14.644,0,0,1-1.874,2.167A7.116,7.116,0,0,1,15,13.373a9.782,9.782,0,0,1-2.9.556A21.116,21.116,0,0,1,9.051,13.9a8.844,8.844,0,0,1-2.987-.791,8.61,8.61,0,0,1-3.69-3.748A18.665,18.665,0,0,1,.558,3.5L.295,1.952C.266,1.776-.027,1.835,0,2.04c.644,3.895,1.464,8.317,4.949,10.747a10.1,10.1,0,0,0,5.886,1.464,10.247,10.247,0,0,0,5.828-1.376A15.768,15.768,0,0,0,20.56,8.512c1.113-1.581,2.313-3.456,2.284-5.535A2.5,2.5,0,0,0,21.819.722,2.4,2.4,0,0,0,20.384.459a7.528,7.528,0,0,0-1.611.176c-1.084.205-2.138.556-3.221.849a14.877,14.877,0,0,1-3.221.586,15.023,15.023,0,0,1-6.325-.879C4.365.6,2.286-.8.676.6a1.64,1.64,0,0,0-.556.966.146.146,0,1,0,.264.059Z" transform="translate(0 0)" fill="#9f4068"/>
          <path id="Path_10062" data-name="Path 10062" d="M1.156.212A21.846,21.846,0,0,0,13.572.037c.146-.059.381-.059.41.088V.271A4.453,4.453,0,0,1,11.522,2.7,11.86,11.86,0,0,1,6.076,4.019,8.815,8.815,0,0,1,.8,2.145a2.05,2.05,0,0,1-.761-.966A.922.922,0,0,1,.453.066,1.376,1.376,0,0,1,1.361.1L3.352.622" transform="translate(3.971 2.091)" fill="#fff"/>
          <path id="Path_10063" data-name="Path 10063" d="M1.284.5A21.055,21.055,0,0,0,7.9,1.292,21.521,21.521,0,0,0,11.24.941L12.88.589l.761-.234A.644.644,0,0,1,13.964.3c.059.029.029,0,.029.088l-.088.205a4.187,4.187,0,0,1-1.962,1.933A11.772,11.772,0,0,1,8.9,3.723a9.693,9.693,0,0,1-6.3-.556,6.94,6.94,0,0,1-1.464-.937C.727,1.907.259,1.5.288.941A.791.791,0,0,1,.639.355a1.231,1.231,0,0,1,.908.059l1.933.5c.176.059.264-.234.088-.293l-1.9-.5C1.2,0,.61-.143.259.3A1.113,1.113,0,0,0,.112,1.5,2.87,2.87,0,0,0,1.137,2.61,9.254,9.254,0,0,0,7.551,4.25a12.562,12.562,0,0,0,3.456-.937,6.826,6.826,0,0,0,2.606-1.7A4.012,4.012,0,0,0,14.052,1a1.845,1.845,0,0,0,.234-.674c.029-.586-.849-.2-1.113-.146a19.093,19.093,0,0,1-3.6.7A21.934,21.934,0,0,1,2.25.443L1.372.238C1.167.18,1.108.472,1.284.5Z" transform="translate(3.814 1.948)" fill="#fff"/>
          <path id="Path_10064" data-name="Path 10064" d="M0,2.429A4.829,4.829,0,0,1,3.953.027,12.012,12.012,0,0,1,8.7.847a3.589,3.589,0,0,1,1.757.966.937.937,0,0,1,.264.849c-.117.439-.644.615-1.084.732A18.654,18.654,0,0,1,.059,2.9" transform="translate(5.244 9.334)" fill="#d151aa"/>
          <path id="Path_10065" data-name="Path 10065" d="M.254,2.637A4.464,4.464,0,0,1,3.27.44,10.672,10.672,0,0,1,7.985.85a8.546,8.546,0,0,1,2.079.82,1.288,1.288,0,0,1,.644.82c.088.351-.176.586-.469.732a4.3,4.3,0,0,1-1.025.234l-1.23.205a21.616,21.616,0,0,1-2.4.117A18.538,18.538,0,0,1,.224,2.871c-.176-.059-.264.234-.088.293a18.331,18.331,0,0,0,5.183.879,19.827,19.827,0,0,0,2.636-.088l1.259-.176A5.856,5.856,0,0,0,10.3,3.486a1.171,1.171,0,0,0,.674-.556,1.113,1.113,0,0,0-.176-.966A3.627,3.627,0,0,0,8.922.85,12.041,12.041,0,0,0,3.738.059,4.451,4.451,0,0,0,.019,2.49C-.068,2.637.166,2.783.254,2.637Z" transform="translate(5.107 9.214)" fill="#d151aa"/>

        </g>
        <g id="eyes" transform="translate(15.784 8.499)">
          <g id="left_eye" data-name="left eye" transform="translate(0 2.108)">
            <g id="eye_outside" data-name="eye outside" transform="translate(0 0)">
              <path id="Path_10066" data-name="Path 10066" d="M0,20.364A73,73,0,0,1,1.026,7.713,12.865,12.865,0,0,1,3.047,2.032C4.277.421,6.151-.428,7.879.216a4.808,4.808,0,0,1,2.138,1.9c1.728,2.636,2.05,5.915,2.313,9.02l.791,9.225" transform="translate(0.145 0.128)" fill="#9f4068"/>
              <path id="Path_10067" data-name="Path 10067" d="M.293,20.492A77.162,77.162,0,0,1,.879,10.74c.2-1.523.41-3.075.761-4.568A9.887,9.887,0,0,1,3.221,2.365,5.037,5.037,0,0,1,6.325.345,3.1,3.1,0,0,1,8.17.579,4.187,4.187,0,0,1,9.693,1.838c1.757,2.2,2.226,5.183,2.489,7.877.322,3.192.556,6.355.82,9.547l.117,1.23a.146.146,0,1,0,.293,0c-.293-3.338-.556-6.677-.849-10.015-.264-2.841-.644-5.8-2.226-8.229A4.407,4.407,0,0,0,7.233.022,4.393,4.393,0,0,0,3.807,1.282,7.985,7.985,0,0,0,1.728,4.8,25.214,25.214,0,0,0,.82,9.218,76.987,76.987,0,0,0,0,19.262v1.23a.146.146,0,1,0,.293,0Z" fill="#631438"/>
            </g>
            <g id="eye_outside-2" data-name="eye outside" transform="translate(1.523 2.254)">
              <path id="Path_10068" data-name="Path 10068" d="M0,18.15A66.037,66.037,0,0,1,.909,6.875,11.313,11.313,0,0,1,2.7,1.809,3.778,3.778,0,0,1,6.971.2,4.187,4.187,0,0,1,8.845,1.9C10.4,4.24,10.66,7.139,10.895,9.95l.7,8.2" transform="translate(0.145 0.147)" fill="#541339"/>
              <path id="Path_10069" data-name="Path 10069" d="M.293,18.3A61.233,61.233,0,0,1,.82,9.629c.176-1.376.351-2.723.644-4.07A9.81,9.81,0,0,1,2.9,2.132,4.3,4.3,0,0,1,5.623.346,2.548,2.548,0,0,1,7.233.58,3.456,3.456,0,0,1,8.551,1.693c1.552,1.962,1.991,4.6,2.226,7,.293,2.841.469,5.681.7,8.522L11.6,18.3a.146.146,0,0,0,.293,0c-.264-2.987-.5-5.974-.761-8.961-.234-2.518-.556-5.154-1.962-7.321A4.017,4.017,0,0,0,6.443.024,3.948,3.948,0,0,0,3.4,1.136,7.3,7.3,0,0,0,1.523,4.27,26.328,26.328,0,0,0,.7,8.223,65.189,65.189,0,0,0,0,17.155V18.3a.146.146,0,0,0,.293,0Z" transform="translate(0 0)" fill="#9f4068"/>
            </g>
            <ellipse id="eye" cx="2.313" cy="4.07" rx="2.313" ry="4.07" transform="translate(5.945 5.469)" fill="#fff"/>
            <circle id="eye_hightligh" data-name="eye hightligh" cx="1.113" cy="1.113" r="1.113" transform="translate(2.313 14.108)" fill="#fff"/>
          </g>
          <g id="right_eye" data-name="right eye" transform="translate(42.433 0)">
            <g id="eye_outside-3" data-name="eye outside" transform="translate(0 0)">
              <path id="Path_10070" data-name="Path 10070" d="M0,20.364A76.285,76.285,0,0,1,1.025,7.713a12.551,12.551,0,0,1,2.05-5.681C4.334.421,6.179-.428,7.878.216a4.7,4.7,0,0,1,2.138,1.933c1.757,2.606,2.05,5.886,2.313,9.02l.791,9.2" transform="translate(0.146 0.128)" fill="#9f4068"/>
              <path id="Path_10071" data-name="Path 10071" d="M.293,20.492a77.167,77.167,0,0,1,.615-9.752c.176-1.523.41-3.075.732-4.568A10.455,10.455,0,0,1,3.251,2.365,4.89,4.89,0,0,1,6.325.345,3.28,3.28,0,0,1,8.17.579,4.568,4.568,0,0,1,9.693,1.838c1.757,2.226,2.226,5.183,2.518,7.907.293,3.163.527,6.355.791,9.517l.117,1.23a.146.146,0,1,0,.293,0c-.293-3.338-.556-6.677-.849-10.015-.264-2.841-.644-5.8-2.226-8.229A4.414,4.414,0,0,0,7.262.022,4.393,4.393,0,0,0,3.836,1.282,7.614,7.614,0,0,0,1.728,4.8,25.77,25.77,0,0,0,.82,9.218,76.981,76.981,0,0,0,0,19.262v1.23a.146.146,0,1,0,.293,0Z" transform="translate(0)" fill="#631438"/>
            </g>
            <g id="eye_outside-4" data-name="eye outside" transform="translate(1.523 2.29)">
              <path id="Path_10072" data-name="Path 10072" d="M0,18.15A66.034,66.034,0,0,1,.909,6.875,11.313,11.313,0,0,1,2.7,1.809,3.778,3.778,0,0,1,6.971.2a4.618,4.618,0,0,1,1.9,1.7C10.4,4.24,10.66,7.168,10.895,9.95l.7,8.2" transform="translate(0.145 0.111)" fill="#541339"/>
              <path id="Path_10073" data-name="Path 10073" d="M.293,18.261A71.412,71.412,0,0,1,.821,9.583a39.305,39.305,0,0,1,.672-4.06A9.225,9.225,0,0,1,2.9,2.1,4.422,4.422,0,0,1,5.652.31,2.665,2.665,0,0,1,7.233.544,3.778,3.778,0,0,1,8.58,1.657c1.552,1.962,1.962,4.6,2.2,7s.5,5.681.732,8.522l.088,1.084a.146.146,0,1,0,.293,0c-.264-2.987-.5-5.974-.761-8.961-.2-2.489-.556-5.154-1.962-7.292A3.794,3.794,0,0,0,6.443.017,3.948,3.948,0,0,0,3.4,1.13a7.373,7.373,0,0,0-1.874,3.1A23.045,23.045,0,0,0,.732,8.187,65.243,65.243,0,0,0,0,17.148v1.113a.146.146,0,1,0,.293,0Z" transform="translate(0 0)" fill="#9f4068"/>
            </g>
            <ellipse id="eye-2" data-name="eye" cx="2.313" cy="4.07" rx="2.313" ry="4.07" transform="translate(5.945 5.469)" fill="#fff"/>
            <circle id="eye_hightligh-2" data-name="eye hightligh" cx="0.791" cy="0.791" r="0.791" transform="translate(5.271 14.635)" fill="#fff"/>
            <circle id="eye_hightligh-3" data-name="eye hightligh" cx="0.674" cy="0.674" r="0.674" transform="translate(3.924 11.473)" fill="#fff"/>
          </g>
        </g>
      </g>
    </g>
  </g>
  <animate
           href="#What_causes_HIV_AIDS_"
           attributeName="opacity"
           from="0"
           to="1" 
           dur="5s"
           begin="3s"
           fill="freeze"
          />

<animateMotion 
href="#left_circle"
attributeName="d"
begin="0s"
repeatCount="indefinite"
dur="9s"
path="M0,1.5c9.4,0.5,13.9,2,17.2-1.1"


 />

 <animateMotion 
href="#middle_circle"
attributeName="d"
begin="0s"
repeatCount="indefinite"
dur="12s"
path="M0,1.5c9.4,0.5,13.9,2,17.2-1.1"


 />

 <animateMotion 
href="#right_circle"
attributeName="d"
begin="0s"
repeatCount="indefinite"
dur="13s"
path="M0,1.5c9.4,0.5,13.9,2,17.2-1.1"


 />
   <animate 
   href="#eye_Glasses"
      attributeName="opacity" 
      from="0" 
      to="1"  
      dur="13s"
      fill="freeze"

    />
</svg>
