<svg xmlns="http://www.w3.org/2000/svg" width="70.555" height="83.256" viewBox="0 0 70.555 83.256">
  <g id="yellow_character" data-name="yellow character" transform="matrix(-0.998, 0.07, -0.07, -0.998, 70.555, 79.187)">
    <g id="body" transform="translate(0 0)">
      <g id="left_bottom_circle" data-name="left bottom circle" transform="translate(0 0)">
        <path id="Path_10074" data-name="Path 10074" d="M4.2,11.83A5.413,5.413,0,0,1,.717,8.663a10.616,10.616,0,0,1-.7-4.78A4.18,4.18,0,0,1,.473,1.925,4,4,0,0,1,3.139.35,14.125,14.125,0,0,1,7,.019,5.526,5.526,0,0,1,8.973.407a4.783,4.783,0,0,1,1.862,1.614,5.98,5.98,0,0,1,1.014,5.417,7.848,7.848,0,0,1-2.341,3.057,5.153,5.153,0,0,1-1.314.917,5.757,5.757,0,0,1-1.515.355,7.744,7.744,0,0,1-2.456.081" transform="translate(0 0.009)" fill="#ef48a0"/>
        <path id="Path_10075" data-name="Path 10075" d="M4.2,11.83A5.414,5.414,0,0,1,.717,8.663a10.614,10.614,0,0,1-.7-4.779A4.179,4.179,0,0,1,.473,1.925,4,4,0,0,1,3.139.35,14.133,14.133,0,0,1,7,.018,5.529,5.529,0,0,1,8.973.407a4.781,4.781,0,0,1,1.862,1.614,5.98,5.98,0,0,1,1.014,5.417,7.848,7.848,0,0,1-2.341,3.057,5.153,5.153,0,0,1-1.314.917,5.749,5.749,0,0,1-1.515.355,7.738,7.738,0,0,1-2.456.081" fill="#f1b05b"/>
        <path id="Path_10076" data-name="Path 10076" d="M.291,4.266A.442.442,0,0,0,0,4.7a.87.87,0,0,0,.2.534,4.635,4.635,0,0,0,.382.4,2.709,2.709,0,0,0,.438.418,1.324,1.324,0,0,0,.486.17A3.979,3.979,0,0,0,4.273,5.7,12.97,12.97,0,0,0,7.8,2.462,1.973,1.973,0,0,0,7.644.049C7.083-.3,4.878,1.3,4.745,1.414c-.567.5-1.045,1.138-1.64,1.6a7.809,7.809,0,0,1-.958.6,3.738,3.738,0,0,1-1.9.66" transform="translate(3.317 4.698)" fill="#ffd19f"/>
        <path id="Path_10077" data-name="Path 10077" d="M.152,1.945a.735.735,0,0,0,.637.18,1.961,1.961,0,0,0,.636-.251,3.793,3.793,0,0,0,.9-.631A1.582,1.582,0,0,0,2.8.277.283.283,0,0,0,2.771.1a.264.264,0,0,0-.2-.1,1.079,1.079,0,0,0-.829.359c-.221.219-.388.486-.6.717A1.245,1.245,0,0,1,.36,1.54c-.138.011-.321.016-.355.15s.127.228.258.272" transform="translate(5.711 8.451)" fill="#fff" stroke="#fff" stroke-miterlimit="10" stroke-width="1"/>
        <path id="Path_10078" data-name="Path 10078" d="M.084,1.319A1.783,1.783,0,0,0,.707.778,1.377,1.377,0,0,0,.936.417.53.53,0,0,0,.935,0L.673.4a1.933,1.933,0,0,1-.22.293c-.165.17-.4.3-.453.529" transform="translate(9.518 6.846)" fill="none" stroke="#fff" stroke-miterlimit="10" stroke-width="1"/>
        <path id="Path_10079" data-name="Path 10079" d="M.02,5.041a5.249,5.249,0,0,0,1.6-.085A2.705,2.705,0,0,0,3,4.189a4.854,4.854,0,0,0,.5-.706,6.831,6.831,0,0,1,.948-1.24,2.974,2.974,0,0,1,1.327-.794,4.638,4.638,0,0,1,.787-.106l.614-.047a3.277,3.277,0,0,1,1.849.216C8.162,1.17,7.531.354,6.638.093A3.574,3.574,0,0,0,4.767.176a5.7,5.7,0,0,0-1.6.633A7.572,7.572,0,0,0,1.818,1.97a2.037,2.037,0,0,0-.337.4,4.779,4.779,0,0,0-.2.489,1.779,1.779,0,0,1-.392.566,4.079,4.079,0,0,0-.4.383,1.9,1.9,0,0,0-.239.458A3.267,3.267,0,0,0,0,5.048" transform="translate(1.038 1.531)" fill="#dd6d2f"/>
      </g>
      <g id="top_small_circle" data-name="top small circle" transform="translate(12.036 56.427)">
        <path id="Path_10080" data-name="Path 10080" d="M7.978,6.864a3.831,3.831,0,0,1-2.9,1.644,7.511,7.511,0,0,1-3.368-.583A2.958,2.958,0,0,1,.5,7.19,2.831,2.831,0,0,1,.025,5.051,9.989,9.989,0,0,1,.652,2.378a3.908,3.908,0,0,1,.694-1.239,3.383,3.383,0,0,1,1.5-.9A4.231,4.231,0,0,1,6.707.751,5.553,5.553,0,0,1,8.248,3a3.644,3.644,0,0,1,.328,1.085,4.071,4.071,0,0,1-.094,1.1A5.481,5.481,0,0,1,8,6.85" transform="translate(0 0)" fill="#f1b05b"/>
        <path id="Path_10081" data-name="Path 10081" d="M1.333,5.992a.313.313,0,0,0,.229.291.616.616,0,0,0,.4-.015A3.249,3.249,0,0,0,2.317,6.1a1.918,1.918,0,0,0,.377-.2.934.934,0,0,0,.221-.29,2.815,2.815,0,0,0,.257-1.978A9.177,9.177,0,0,0,1.772.544,1.4,1.4,0,0,0,.114.119c-.355.3.231,2.134.281,2.249.215.493.536.953.715,1.455a5.525,5.525,0,0,1,.2.778,2.645,2.645,0,0,1,.026,1.422" transform="translate(4.588 0.638)" fill="#ffd19f"/>
        <path id="Path_10082" data-name="Path 10082" d="M.82,2.172a.52.52,0,0,0,.261-.389A1.386,1.386,0,0,0,1.052,1.3,2.687,2.687,0,0,0,.825.558,1.118,1.118,0,0,0,.281.023.2.2,0,0,0,.155,0,.186.186,0,0,0,.046.118.763.763,0,0,0,.106.754c.1.2.241.368.352.559a.881.881,0,0,1,.136.63c-.023.1-.06.219.023.272S.8,2.179.855,2.1" transform="translate(6.56 3.257)" fill="#fff" stroke="#fff" stroke-miterlimit="10" stroke-width="1"/>
        <path id="Path_10083" data-name="Path 10083" d="M.7.865A1.259,1.259,0,0,0,.473.328.97.97,0,0,0,.281.094.374.374,0,0,0,0,0L.212.267A1.367,1.367,0,0,1,.361.48C.439.628.473.816.617.9" transform="translate(6.002 1.557)" fill="none" stroke="#fff" stroke-miterlimit="10" stroke-width="1"/>
        <path id="Path_10084" data-name="Path 10084" d="M2.243,6.835A3.713,3.713,0,0,0,2.537,5.74a1.915,1.915,0,0,0-.212-1.1,3.443,3.443,0,0,0-.365-.491,4.824,4.824,0,0,1-.626-.91,2.105,2.105,0,0,1-.242-1.067,3.258,3.258,0,0,1,.1-.553L1.3,1.2A2.318,2.318,0,0,1,1.849,0C1.429.507.742.752.37,1.3A2.529,2.529,0,0,0,.014,2.572,4.032,4.032,0,0,0,.088,3.786,5.354,5.354,0,0,0,.573,4.95a1.436,1.436,0,0,0,.2.315,3.358,3.358,0,0,0,.284.245,1.261,1.261,0,0,1,.295.388,2.877,2.877,0,0,0,.169.353,1.341,1.341,0,0,0,.256.262,2.308,2.308,0,0,0,.47.336" transform="translate(1.509 0.984)" fill="#dd6d2f"/>
      </g>
      <g id="right_bottom_circle" data-name="right bottom circle" transform="translate(52.503 0.642)">
        <path id="ear" d="M.268,8.267A7.028,7.028,0,0,0,6.121,12.89a8.441,8.441,0,0,0,7.047-2.822c1.654-1.842,2.492-4.688,1.251-6.83A5.658,5.658,0,0,0,12.9,1.593,8.239,8.239,0,0,0,4.328.881,8.239,8.239,0,0,0,.005,8.32" transform="translate(0 0)" fill="#ef48a0"/>
        <path id="ear-2" data-name="ear" d="M.268,8.267A7.028,7.028,0,0,0,6.121,12.89a8.441,8.441,0,0,0,7.047-2.822c1.654-1.842,2.492-4.688,1.251-6.83A5.658,5.658,0,0,0,12.9,1.593,8.239,8.239,0,0,0,4.328.881,8.239,8.239,0,0,0,.005,8.32" transform="translate(0 0)" fill="#f1b05b"/>
        <path id="Path_10085" data-name="Path 10085" d="M2.082,5.193l-1.8-.072a.329.329,0,0,0-.2.037.276.276,0,0,0-.051.32c.177.486.766.66,1.278.727.551.072,1.107.1,1.662.119a8.242,8.242,0,0,0,4.015-.531A5,5,0,0,0,9.517,2.351a2.94,2.94,0,0,0,.048-1.206A1.472,1.472,0,0,0,8.913.162a1.669,1.669,0,0,0-1.9.38A7.873,7.873,0,0,0,5.842,2.248,8.537,8.537,0,0,1,4.684,3.724a4.009,4.009,0,0,1-3.1,1.419" transform="translate(3.512 5.452)" fill="#ffd19f"/>
        <path id="Path_10086" data-name="Path 10086" d="M0,2.362a2.908,2.908,0,0,0,2.011-.257A8.646,8.646,0,0,0,3.71.927,1.275,1.275,0,0,0,4.025.6.432.432,0,0,0,4.043.162c-.132-.209-.449-.193-.669-.08-.664.34-.885,1.224-1.523,1.611-.543.329-1.28.228-1.794.6" transform="translate(7.688 8.774)" fill="#fff" stroke="#fff" stroke-miterlimit="10" stroke-width="1"/>
        <path id="Path_10087" data-name="Path 10087" d="M.216,5.617A3.3,3.3,0,0,1,1.3,6.682a3.837,3.837,0,0,0,.573.841,1.682,1.682,0,0,0,1.364.347,1.663,1.663,0,0,0,.772-.286,1.517,1.517,0,0,0,.407-.476,5.684,5.684,0,0,0,.364-2.588,7.123,7.123,0,0,1,.417-2.093,2.1,2.1,0,0,1,.49-.841,1.649,1.649,0,0,1,1.143-.391,4.9,4.9,0,0,1,1.216.217l1.621.433a1.174,1.174,0,0,0-.549-.829A4.306,4.306,0,0,0,6.978.02,5.133,5.133,0,0,0,5.943.037,2.608,2.608,0,0,0,4.463.5a2.948,2.948,0,0,0-.516.645A19.563,19.563,0,0,1,0,5.486" transform="translate(3.714 0.991)" fill="#dd6d2f"/>
      </g>
      <path id="body-2" data-name="body" d="M62.106,34.911c-2.134,6.594-5.315,13.307-11.143,17.059-2.976,1.916-6.433,2.917-9.836,3.894-.244.07-.49.134-.736.2a11.435,11.435,0,0,1,5.971,10.016,11.777,11.777,0,0,1-12.085,11.45A11.777,11.777,0,0,1,22.322,65.941a11.4,11.4,0,0,1,5.528-9.627,41.946,41.946,0,0,1-14.918-6.2A28.9,28.9,0,0,1,1.813,36C.342,31.709.085,27.108.013,22.576a25.625,25.625,0,0,1,.9-8.57c1.464-4.373,5.091-7.78,9.221-9.834A40.138,40.138,0,0,1,23.467.74a110.283,110.283,0,0,1,14.6-.724C45.948.148,54.569,1.5,59.8,7.4a20.854,20.854,0,0,1,4.8,13.335A42.873,42.873,0,0,1,62.106,34.911Z" transform="translate(0.565 1.894)" fill="#f1b05b"/>
      <g id="Highlight" transform="translate(25.26 24.21)">
        <path id="Path_10088" data-name="Path 10088" d="M11.169,13.378a13.962,13.962,0,0,1-4.369,4.5c-1.3.836-2.728,1.453-4,2.33a6.147,6.147,0,0,0-2.72,3.6,5.353,5.353,0,0,0,2.723,5.372A11.353,11.353,0,0,0,9.013,30.45,27.151,27.151,0,0,0,24.5,25.015,27.15,27.15,0,0,0,33.961,11.6a13.773,13.773,0,0,0,.752-5.211A7.011,7.011,0,0,0,32.55,1.7,6.683,6.683,0,0,0,29.889.3a10.827,10.827,0,0,0-8.976,2A24.893,24.893,0,0,0,14.725,9.45a11.923,11.923,0,0,1-3.288,3.529" transform="translate(0 0)" fill="#ffd19f"/>
        <path id="Path_10089" data-name="Path 10089" d="M.381,7.677A1.72,1.72,0,0,1,.4,5.5,5.019,5.019,0,0,1,2.336,4.149,23.07,23.07,0,0,1,8.714,1.814a18.4,18.4,0,0,0,2.879-.476A31.4,31.4,0,0,1,14.789.03a.737.737,0,0,1,.489.023A.552.552,0,0,1,15.489.7a1.54,1.54,0,0,1-.43.6,23.334,23.334,0,0,1-13.332,6.5A2.46,2.46,0,0,1,.083,7.615" transform="translate(10.443 22.166)" fill="#fff"/>
        <path id="Path_10090" data-name="Path 10090" d="M1.012,4.941A5.366,5.366,0,0,0,4.4,3.173a3.776,3.776,0,0,0,.7-.8A3.362,3.362,0,0,0,5.482,1.2a1.471,1.471,0,0,0-.03-.827A.559.559,0,0,0,4.777.031c-.228.1-.318.364-.408.595A6.374,6.374,0,0,1,3.019,2.539a3.79,3.79,0,0,1-1.552,1.17c-.272.085-.56.11-.83.2a.92.92,0,0,0-.618.544.479.479,0,0,0,.388.625" transform="translate(26.506 15.041)" fill="#fff"/>
      </g>
      <g id="shadow_main" data-name="shadow main" transform="translate(0.937 2.231)">
        <path id="shadow" d="M0,17.384s4.751-7.06,17.871-11.268C26.981,3.193,40.125.5,58.515,7.272c0,0-.914-4.679-15.8-6.772-8.5-1.2-24.312-.372-33.434,3.8C2.433,7.44,1.052,13.194,0,17.384Z" transform="translate(0 0)" fill="#dd6d2f"/>
        <ellipse id="highlight-2" data-name="highlight" cx="1.043" cy="3.842" rx="1.043" ry="3.842" transform="translate(18.289 2.274) rotate(69.169)" fill="#ffd19f"/>
        <ellipse id="highlight-3" data-name="highlight" cx="0.453" cy="1.337" rx="0.453" ry="1.337" transform="translate(22.637 2.16) rotate(69.169)" fill="#ffd19f"/>
      </g>
      <g id="top_highlights" data-name="top highlights" transform="translate(23.518 58.458)">
        <path id="Path_10091" data-name="Path 10091" d="M.771,7.4A1.033,1.033,0,0,0,0,8.4,1.864,1.864,0,0,0,.525,9.637a11.663,11.663,0,0,0,1.014.922,6.887,6.887,0,0,0,1.163.966,3.87,3.87,0,0,0,1.291.393,11.889,11.889,0,0,0,7.352-1.2,11.889,11.889,0,0,0,5.164-5.369,6.154,6.154,0,0,0,.653-2.234,3.165,3.165,0,0,0-.633-2.2,2.582,2.582,0,0,0-2.8-.773,4.288,4.288,0,0,0-1.138.681c-1.5,1.164-2.771,2.627-4.35,3.689A21.364,21.364,0,0,1,5.7,5.9,10.912,10.912,0,0,1,.656,7.425Z" transform="translate(5.38 6.672)" fill="#ffd19f"/>
        <path id="shadow-2" data-name="shadow" d="M.4,10.268A5.512,5.512,0,0,1,.533,5.893,10.558,10.558,0,0,1,2.62,2.6,4.793,4.793,0,0,1,3.969,1.525a6.2,6.2,0,0,1,1.544-.449A55.037,55.037,0,0,1,11.907.066a12.732,12.732,0,0,1,5.053.44,8.371,8.371,0,0,1,5.119,5A8.145,8.145,0,0,1,19.867,3.87a10.039,10.039,0,0,0-5.7-2.178A15.469,15.469,0,0,0,8.071,2.6,7.876,7.876,0,0,0,4.381,4.872a6.539,6.539,0,0,0-1.287,3.76,1.708,1.708,0,0,1-.137.72,1.3,1.3,0,0,1-.428.432,3.847,3.847,0,0,1-1.87.669Z" transform="translate(0 0)" fill="#dd6d2f"/>
        <path id="highlight-4" data-name="highlight" d="M2.466,2.786a2.908,2.908,0,0,0-2.016.786A1.058,1.058,0,0,0,.086,4.783a1.243,1.243,0,0,0,.928.463,8.735,8.735,0,0,0,3.176.075A9.46,9.46,0,0,0,6.7,4.3,6.383,6.383,0,0,0,8.768,2.777,2.337,2.337,0,0,0,9.177.36.664.664,0,0,0,8.936.069.692.692,0,0,0,8.557,0C7.175.057,6.192,1.308,5.015,2.035a5.041,5.041,0,0,1-2.549.746Z" transform="translate(9.395 13.739)" fill="#fff"/>
        <path id="highlight-5" data-name="highlight" d="M.517,2.224a.95.95,0,0,0,.8-.137,1.592,1.592,0,0,0,.527-.646A1.36,1.36,0,0,0,2,.6.733.733,0,0,0,1.442.008.9.9,0,0,0,.808.2,1.923,1.923,0,0,0,.056,1.232a1.033,1.033,0,0,0-.024.58.545.545,0,0,0,.4.391" transform="translate(19.737 11.656)" fill="#fff" stroke="#fff" stroke-miterlimit="10" stroke-width="1"/>
      </g>
    </g>
    <g id="face" transform="translate(15.304 16.464)">
      <g id="Cheek" transform="translate(0 3.782)">
        <ellipse id="Ellipse_135" data-name="Ellipse 135" cx="4.083" cy="2.343" rx="4.083" ry="2.343" transform="translate(0 0)" fill="#f377ba"/>
        <ellipse id="Ellipse_136" data-name="Ellipse 136" cx="4.083" cy="2.343" rx="4.083" ry="2.343" transform="translate(33.251 0.497)" fill="#f47fbe"/>
      </g>
      <g id="mouth" transform="translate(19.657 0)">
        <path id="shadow-3" data-name="shadow" d="M2.27,2.765a1.952,1.952,0,0,0-.392-1.9A1.327,1.327,0,0,0,0,.55S1.441-.743,2.249.635,2.27,2.765,2.27,2.765Z" transform="translate(3.826 0)" fill="#dd6d2f"/>
        <ellipse id="mouth-2" data-name="mouth" cx="2.002" cy="3.595" rx="2.002" ry="3.595" transform="translate(2.734 0.508) rotate(22.355)" fill="#541339"/>
      </g>
      <g id="eyes" transform="translate(4.025 12.028)">
        <g id="eye_left" data-name="eye left" transform="translate(20.93 1.351)">
          <ellipse id="eye_left_bg" data-name="eye left bg" cx="4.601" cy="7.84" rx="4.601" ry="7.84" transform="translate(1.377 0) rotate(5.038)" fill="#703305"/>
          <g id="highlight_white_left" data-name="highlight white left" transform="translate(1.143 0.857)">
            <path id="highlight-6" data-name="highlight" d="M5.186,14.167S7.6,9,5.42,4.061,0,4.5,0,4.5s4.273-8.558,6.514-2.08A14.075,14.075,0,0,1,5.186,14.167Z" transform="translate(0.398 0)" fill="#b2a090"/>
            <ellipse id="eye" cx="2.733" cy="1.377" rx="2.733" ry="1.377" transform="translate(3.848 8.477) rotate(84.247)" fill="#fff"/>
            <ellipse id="eye_hightligh" data-name="eye hightligh" cx="0.469" cy="0.529" rx="0.469" ry="0.529" transform="translate(0.548 7.083)" fill="#fff"/>
            <ellipse id="eye_hightligh-2" data-name="eye hightligh" cx="0.398" cy="0.45" rx="0.398" ry="0.45" transform="translate(0 9.462)" fill="#fff"/>
          </g>
        </g>
        <g id="eye_right" data-name="eye right" transform="translate(0 0)">
          <ellipse id="eye_right_bg" data-name="eye right bg" cx="4.601" cy="7.84" rx="4.601" ry="7.84" transform="translate(1.377 0) rotate(5.038)" fill="#703305"/>
          <g id="highlight_white_right" data-name="highlight white right" transform="translate(1.032 0.761)">
            <path id="highlight-7" data-name="highlight" d="M5.186,14.167S7.6,9,5.419,4.061,0,4.5,0,4.5s4.273-8.558,6.514-2.08A14.074,14.074,0,0,1,5.186,14.167Z" transform="translate(0.672 0)" fill="#b2a090"/>
            <ellipse id="eye-2" data-name="eye" cx="2.718" cy="1.385" rx="2.718" ry="1.385" transform="translate(3.681 8.075) rotate(77.757)" fill="#fff"/>
            <ellipse id="eye_hightligh-3" data-name="eye hightligh" cx="0.469" cy="0.529" rx="0.469" ry="0.529" transform="translate(0.259 7.083)" fill="#fff"/>
            <ellipse id="eye_hightligh-4" data-name="eye hightligh" cx="0.398" cy="0.45" rx="0.398" ry="0.45" transform="translate(0 9.537)" fill="#fff"/>
          </g>
        </g>
      </g>
    </g>
  </g>
</svg>
