<svg id="instagram" xmlns="http://www.w3.org/2000/svg" width="31.574" height="31.574" viewBox="0 0 31.574 31.574">
  <g id="Group_5" data-name="Group 5">
    <g id="Group_4" data-name="Group 4">
      <path id="Path_4" data-name="Path 4" d="M21.707,0H9.867A9.868,9.868,0,0,0,0,9.867v11.84a9.868,9.868,0,0,0,9.867,9.867h11.84a9.868,9.868,0,0,0,9.867-9.867V9.867A9.868,9.868,0,0,0,21.707,0Zm6.907,21.707a6.914,6.914,0,0,1-6.907,6.907H9.867A6.914,6.914,0,0,1,2.96,21.707V9.867A6.914,6.914,0,0,1,9.867,2.96h11.84a6.914,6.914,0,0,1,6.907,6.907Z" fill="#db3131"/>
    </g>
  </g>
  <g id="Group_7" data-name="Group 7" transform="translate(7.893 7.893)">
    <g id="Group_6" data-name="Group 6">
      <path id="Path_5" data-name="Path 5" d="M135.893,128a7.893,7.893,0,1,0,7.893,7.893A7.894,7.894,0,0,0,135.893,128Zm0,12.827a4.933,4.933,0,1,1,4.933-4.933A4.94,4.94,0,0,1,135.893,140.827Z" transform="translate(-128 -128)" fill="#db3131"/>
    </g>
  </g>
  <g id="Group_9" data-name="Group 9" transform="translate(23.221 6.25)">
    <g id="Group_8" data-name="Group 8">
      <ellipse id="Ellipse_1" data-name="Ellipse 1" cx="1.052" cy="1.052" rx="1.052" ry="1.052" fill="#db3131"/>
    </g>
  </g>
</svg>
