<svg xmlns="http://www.w3.org/2000/svg" width="597.038" height="595.708" viewBox="0 0 597.038 595.708">
  <g id="Group_359" data-name="Group 359" transform="translate(-1246.272 -2546.137)">
    <g id="red_circle" data-name="red circle" transform="translate(1282.379 2487) rotate(11)">
      <path id="red_circle-2" data-name="red circle" d="M236.307,0C366.816,0,472.614,105.8,472.614,236.307s-105.8,236.307-236.307,236.307S0,366.816,0,236.307,105.8,0,236.307,0Z" transform="matrix(-0.951, 0.309, -0.309, -0.951, 595.529, 492.668)" fill="#fed831"/>
      <path id="red_shadow" data-name="red shadow" d="M247.075.113C361.906,3.817,477.042,118.37,471.09,227.094S482.912,45.054,244.719,53.92-7.832,328.828,2.26,206.49,132.244-3.591,247.075.113Z" transform="matrix(0.695, 0.719, -0.719, 0.695, 309.931, 0)" fill="#fec731"/>
    </g>
    <g id="Group_331" data-name="Group 331" transform="translate(-39.566 -9.765)">
      <g id="Group_358" data-name="Group 358">
        <g id="Group_327" data-name="Group 327" transform="translate(1301.719 2670.787) rotate(-7)">
          <g id="Group_324" data-name="Group 324" transform="matrix(0.998, -0.07, 0.07, 0.998, 0, 29.392)">
            <g id="Group_321" data-name="Group 321" transform="matrix(0.883, 0.469, -0.469, 0.883, 164.447, 0)">
              <path id="Path_10955" data-name="Path 10955" d="M44.3,0h1.427L65.113,23.324,84.487,0h1.427L105.3,23.324,124.678,0h1.428l19.377,23.324L164.865,0h1.428L185.67,23.324,205.047,0h1.424l19.382,23.324L245.234,0h1.428L266.04,23.324,285.417,0h5.541V350.281h-6.339L266.035,327.91l-18.588,22.371h-3.012L225.848,327.91l-18.587,22.371h-3.013L185.666,327.91l-18.587,22.371h-3.017L145.479,327.91l-18.587,22.371h-3.013L105.288,327.91,86.709,350.281H83.7L65.109,327.91,46.518,350.281H43.505L24.926,327.91,6.335,350.281H0V0H5.549L24.926,23.324Z" transform="translate(0 0)" fill="#fd67d6"/>
              <g id="Group_320" data-name="Group 320" transform="translate(57.654 41.926)">
                <path id="Path_10956" data-name="Path 10956" d="M84.414,241.685C37.871,241.685,0,187.478,0,120.843S37.871,0,84.414,0s84.407,54.208,84.407,120.842S130.95,241.685,84.414,241.685Zm0-233.259c-43.3,0-78.521,50.428-78.521,112.417S41.116,233.249,84.414,233.249s78.514-50.428,78.514-112.406S127.705,8.426,84.414,8.426Z" transform="translate(0 0)" fill="#fff"/>
              </g>
              <path id="Path_10957" data-name="Path 10957" d="M0,109.093c0,60.252,33.836,109.082,75.579,109.082s75.571-48.83,75.572-109.082S117.314,0,75.579,0,0,48.84,0,109.093Z" transform="translate(66.421 53.25)" fill="#8fe261"/>
              <path id="Path_10958" data-name="Path 10958" d="M67.8.918s-.752.23-2.168.666A42.053,42.053,0,0,0,59.59,3.7a56.222,56.222,0,0,0-8.85,4.629A77.228,77.228,0,0,0,40.2,16.942,87.815,87.815,0,0,0,29.537,30.578C26,35.8,23.076,42.386,20.259,49.2c-2.773,6.938-4.631,14.841-6.291,22.871a148.609,148.609,0,0,0-2.2,25.295c.162,3.664.089,9.592.6,13.061.236,3.952.966,8.121,1.608,12.234,1.674,8.007,3.51,15.933,6.3,22.848,2.81,6.823,5.752,13.383,9.27,18.621a88.267,88.267,0,0,0,10.664,13.635A78.256,78.256,0,0,0,50.74,186.39a54.842,54.842,0,0,0,8.887,4.629,44.4,44.4,0,0,0,6,2.114c1.416.437,2.176.666,2.176.666s-.767.115-2.2.333c-1.423.069-3.577.862-6.283.505a33.927,33.927,0,0,1-9.86-1.516,47.107,47.107,0,0,1-12.442-6.077,61.7,61.7,0,0,1-13.327-12.7,88.149,88.149,0,0,1-12.1-20.011,128.693,128.693,0,0,1-8.5-26.558c-.855-4.905-1.777-9.787-2.212-15.232C.184,106.726.258,103.131,0,97.364A175.391,175.391,0,0,1,3.09,66.958a130.274,130.274,0,0,1,8.5-26.558,89.1,89.1,0,0,1,12.11-20A62.418,62.418,0,0,1,37.022,7.7,47.544,47.544,0,0,1,49.457,1.618a34.031,34.031,0,0,1,9.9-1.528C62.1-.265,64.155.539,65.6.6,67.031.814,67.8.918,67.8.918Z" transform="translate(70.405 63.515)" fill="#ffc288"/>
            </g>
          </g>
        </g>
      </g>
      <path id="Path_10964" data-name="Path 10964" d="M66.169,9.1C58.537,3.36,50.288,0,40.6,0a40.582,40.582,0,0,0-5.22,80.829v24.732H25.066a5.222,5.222,0,0,0,0,10.444H35.381v8.116a5.22,5.22,0,1,0,10.439,0V116H56.134a5.222,5.222,0,0,0,0-10.444H45.82V80.829A40.636,40.636,0,0,0,81.2,40.6C81.32,29.075,74.914,15.18,66.169,9.1ZM40.6,70.765A30.161,30.161,0,1,1,70.759,40.6,30.194,30.194,0,0,1,40.6,70.765Z" transform="translate(1536.555 2786.562) rotate(17)" fill="#ff67d6"/>
    </g>
  </g>
</svg>
