<svg xmlns="http://www.w3.org/2000/svg" width="1920" height="1096.985" viewBox="0 0 1920 1096.985">
  <g id="Group_1441" data-name="Group 1441" transform="translate(0 -6281.2)">
    <path id="Path_12632" data-name="Path 12632" d="M296.512,332.86c-36.656,16.377-76.6,36-90.575,71.718-30.157,76.94,81.944,148.382,70.237,229.436-9.994,69.78-99.311,98.38-149.071,150.795C87.617,826.424,73.6,887.937,91.461,941.063s67.127,95.888,124.995,108.744c91.1,20.214,196.56-28.4,276.057,17.92,58.322,34.059,80.686,109.417,142.991,136.554,66.953,29.154,143.585-11,203.374-51.425s130.83-85.445,201.452-65.231c68.106,19.463,111.3,95.177,182.442,98.38s120.766-68.277,189.326-87.027c69.678-19.146,141.1,19.225,212.948,29.194,104.168,14.438,215.15-38.173,264.317-125.359,12.929-22.983-49.359-123.242-40.553-147.847,14.327-40.006,99.806-4.451,114.11-44.4,19.813-55.381,39.8-111.632,40.849-170.1,1.4-77.969-33.2-155.937-93.161-210.052s-144.493-83.586-227.66-79.353c-36.866,1.859-80.371,7.912-104.832-18.038-35.189-36.987,5.277-96.284-7.828-144.268-10.483-38.015-54.268-61.315-96.166-62.937s-82.188,13.687-120.592,29.352-77.75,32.4-119.613,33.861c-68.6,2.413-130.166-35.6-194.987-56.963S886.157,114.975,856.35,172.849c-18.8,36.472-10.706,39.083-49.669,56.607-38.054,17.089-79.554,31.963-104.4,0-18.136-23.3-48.327-58.625-83.1-52.058-24.461,4.628-56.19,36.2-79.5,47.153C459.386,262.052,377.478,296.823,296.512,332.86Z" transform="translate(-83.811 6163.935)" fill="rgba(226,238,255,0.5)"/>
    <g id="leaves_2" transform="matrix(0.875, -0.485, 0.485, 0.875, -530.791, 6946.393)">
      <g id="leaf_3" transform="translate(627.581 270.533)">
        <path id="Path_11781" data-name="Path 11781" d="M654.09,456.63c-29.028-52.8-28.416-129.5-7.772-186.1,46.892,16.516,95.371,34,131,68.671,37.308,36.313,59.447,96.071,49.512,148.024-10.912,57.038-77.152,55.988-117.792,27.635C682.4,496.283,669.75,485.115,654.09,456.63Z" transform="translate(-631.48 -270.533)" fill="#69b78b"/>
        <g id="Group_737" data-name="Group 737" transform="translate(44.189 66.18)">
          <path id="Path_11782" data-name="Path 11782" d="M783.061,479.153c-6.385-52.712.321-62.171,2.9-75.981a110.39,110.39,0,0,0-14.073,63.412q-20.159-23.055-38.87-47.333c-3.622-36.974,1.454-44.714,3.5-55.654a94.344,94.344,0,0,0-12.239,44.139q-24.753-33.1-46.7-68.172a559.853,559.853,0,0,0,56.238,106.217,94.338,94.338,0,0,0-49.933,4.752c11.265-.357,19.758-4.29,56.928,5.379a558.9,558.9,0,0,0,61.532,72.959,50.123,50.123,0,0,0,15.42-13.284Q799.959,497.809,783.061,479.153Z" transform="translate(-677.573 -339.564)" fill="#fff"/>
        </g>
      </g>
      <g id="leaf_2" transform="translate(537.085 475.971)">
        <path id="Path_11783" data-name="Path 11783" d="M701.271,656.268c-60.223-1.863-125.948-41.395-164.186-87.958,38.073-31.975,77.779-64.826,125.755-77.866,50.241-13.654,112.953-2.322,152.63,32.655,43.561,38.4,8.967,94.905-36.113,115.475C749.815,652.058,733.761,657.273,701.271,656.268Z" transform="translate(-537.085 -484.821)" fill="#c4edb9"/>
        <g id="Group_739" data-name="Group 739" transform="translate(71.913 30.904)">
          <path id="Path_11784" data-name="Path 11784" d="M785.935,558.2c-48.635-21.315-53.367-31.9-63.945-41.142a110.391,110.391,0,0,0,47.443,44.368q-30.108,5.633-60.524,9.393c-33.679-15.688-37.76-23.994-46.142-31.318a94.3,94.3,0,0,0,31.778,32.989q-41.086,4.475-82.449,5.541a559.8,559.8,0,0,0,120.057,5.6,94.326,94.326,0,0,0-21.305,45.409c5.418-9.883,6.356-19.2,33.585-46.279a558.887,558.887,0,0,0,94.111-15.87,50.127,50.127,0,0,0-3.59-20.034Q810.594,553.139,785.935,558.2Z" transform="translate(-612.096 -517.056)" fill="#fff"/>
        </g>
      </g>
      <g id="leaf_1" transform="translate(566.976 608.976) rotate(-14)">
        <path id="Path_11785" data-name="Path 11785" d="M759.967,795.775c-55.55,23.324-131.76,14.664-185.886-11.805,21.35-44.9,43.821-91.278,82.045-123.067,40.028-33.288,101.78-49.034,152.4-33.7,55.579,16.838,47.581,82.6,15.12,120.039C802.375,771.778,789.941,783.192,759.967,795.775Z" transform="translate(-574.081 -621.307)" fill="#428e60"/>
        <g id="Group_741" data-name="Group 741" transform="translate(68.905 19.483)">
          <path id="Path_11786" data-name="Path 11786" d="M795.841,672.311c-53.093.818-61.794-6.847-75.257-10.862A110.407,110.407,0,0,0,782.172,682.1q-25.045,17.63-51.153,33.686c-37.149-.277-44.314-6.139-54.979-9.32a94.283,94.283,0,0,0,42.61,16.806q-35.515,21.144-72.7,39.29a559.78,559.78,0,0,0,111.531-44.779,94.364,94.364,0,0,0-.515,50.155c.826-11.241-2.193-20.1,11.326-56.047a558.94,558.94,0,0,0,79.016-53.534,50.173,50.173,0,0,0-11.592-16.73Q816.168,657.467,795.841,672.311Z" transform="translate(-645.954 -641.63)" fill="#fff"/>
        </g>
      </g>
    </g>
    <g id="leaves_2-2" data-name="leaves_2" transform="matrix(-0.829, 0.559, -0.559, -0.829, 1800.732, 6631.845)">
      <g id="leaf_3-2" data-name="leaf_3" transform="translate(82.623 238.269)">
        <path id="Path_11781-2" data-name="Path 11781" d="M20.643,70.509c-26.5,48.205-25.944,118.231-7.1,169.907,42.812-15.08,87.073-31.039,119.6-62.7,34.062-33.153,54.275-87.713,45.2-135.146C168.39-9.5,107.912-8.544,70.809,17.343,46.494,34.306,34.941,44.5,20.643,70.509Z" transform="translate(0 0)" fill="#69b78b"/>
        <g id="Group_737-2" data-name="Group 737" transform="translate(40.345 7.155)">
          <path id="Path_11782-2" data-name="Path 11782" d="M96.31,45.394c-5.829,48.126.293,56.762,2.65,69.37a100.786,100.786,0,0,1-12.848-57.9q-18.4,21.049-35.489,43.215c-3.307,33.757,1.328,40.824,3.192,50.812a86.136,86.136,0,0,1-11.174-40.3Q20.041,140.814,0,172.838A511.149,511.149,0,0,1,51.346,75.862,86.13,86.13,0,0,1,5.757,71.523c10.285.326,18.039,3.917,51.975-4.911A510.273,510.273,0,0,1,113.911,0a45.762,45.762,0,0,1,14.078,12.128Q111.739,28.36,96.31,45.394Z" transform="translate(0 0)" fill="#fff"/>
        </g>
      </g>
      <g id="leaf_2-2" data-name="leaf_2" transform="translate(0 134.479)">
        <path id="Path_11783-2" data-name="Path 11783" d="M149.9.11C94.919,1.811,34.911,37.9,0,80.416c34.76,29.194,71.012,59.186,114.814,71.091,45.87,12.466,103.126,2.12,139.351-29.814,39.772-35.062,8.187-86.649-32.971-105.429C194.222,3.954,179.566-.807,149.9.11Z" transform="translate(0 0)" fill="#c4edb9"/>
        <g id="Group_739-2" data-name="Group 739" transform="translate(65.657 26.187)">
          <path id="Path_11784-2" data-name="Path 11784" d="M158.715,64.677c-44.4,19.46-48.724,29.124-58.382,37.562a100.785,100.785,0,0,1,43.316-40.508q-27.489-5.143-55.258-8.576C57.642,67.479,53.915,75.063,46.263,81.749A86.1,86.1,0,0,1,75.276,51.63Q37.764,47.544,0,46.571a511.1,511.1,0,0,1,109.612-5.113A86.119,86.119,0,0,1,90.16,0c4.946,9.023,5.8,17.525,30.663,42.253a510.263,510.263,0,0,1,85.923,14.49,45.765,45.765,0,0,1-3.278,18.291Q181.229,69.3,158.715,64.677Z" transform="translate(0 0)" fill="#fff"/>
        </g>
      </g>
      <g id="leaf_1-2" data-name="leaf_1" transform="translate(32.383 0)">
        <path id="Path_11785-2" data-name="Path 11785" d="M169.714,12.365C119-8.929,49.417-1.023,0,23.144,19.493,64.137,40.009,106.48,74.907,135.5c36.545,30.392,92.925,44.768,139.144,30.766,50.743-15.373,43.442-75.418,13.8-109.6C208.433,34.275,197.08,23.854,169.714,12.365Z" transform="translate(0 0)" fill="#428e60"/>
        <g id="Group_741-2" data-name="Group 741" transform="translate(62.91 38.545)">
          <path id="Path_11786-2" data-name="Path 11786" d="M136.847,87.31c-48.474-.747-56.418,6.251-68.71,9.917a100.8,100.8,0,0,1,56.23-18.856q-22.866-16.1-46.7-30.755c-33.917.253-40.459,5.6-50.2,8.509a86.081,86.081,0,0,1,38.9-15.344Q33.946,21.477,0,4.909A511.083,511.083,0,0,1,101.828,45.792,86.155,86.155,0,0,1,101.358,0c.755,10.263-2,18.35,10.341,51.17a510.311,510.311,0,0,1,72.142,48.876,45.809,45.809,0,0,1-10.583,15.275Q155.405,100.862,136.847,87.31Z" fill="#fff"/>
        </g>
      </g>
    </g>
  </g>
</svg>
