<svg xmlns="http://www.w3.org/2000/svg" width="130" height="159.959" viewBox="0 0 130 159.959">
  <g id="Group_80" data-name="Group 80" transform="translate(-125 -23.041)">
    <g id="logo-with-eyes" transform="translate(156.336 23.043)">
      <path id="mouth" d="M182.43,94.909s6.275-5.03,12.156-.6c0,0,3.194-10.458-6.078-11.515S182.43,94.909,182.43,94.909Z" transform="translate(-154.475 -71.788)" fill="#a50520" style="isolation: isolate"/>
      <path id="_2_right" data-name="2 right" d="M26.7,193.406s49.833-88.54,39.014-99.668S49.093,78.8,46.659,78.65l-.081,2.135s8.925,1.523,4.505,11.733-7.468,18.593-7.468,18.593S23.8,157.136,12.07,169.48Z" transform="translate(-12.07 -68.362)" fill="#ad0522" style="isolation: isolate"/>
      <path id="_1_left" data-name="1 left" d="M133.445,193.406s-49.831-88.54-39.011-99.668S111.056,78.8,113.489,78.65l.081,2.135s-8.925,1.523-4.505,11.733,7.467,18.593,7.467,18.593,19.82,46.025,31.547,58.369Z" transform="translate(-79.845 -68.362)" fill="#c6001b" style="isolation: isolate"/>
      <g id="eyelashes" transform="translate(17.669 5.889)" style="isolation: isolate">
        <path id="Path_386" data-name="Path 386" d="M130.06,51.41a10.278,10.278,0,0,0,3.779,2.1" transform="translate(-128.676 -51.41)" fill="none" stroke="#bc0631" stroke-linecap="round" stroke-miterlimit="10" stroke-width="1"/>
        <path id="Path_387" data-name="Path 387" d="M121.49,67.9a10.31,10.31,0,0,0,4.2,1.058" transform="translate(-121.49 -65.237)" fill="none" stroke="#bc0631" stroke-linecap="round" stroke-miterlimit="10" stroke-width="1"/>
        <path id="Path_388" data-name="Path 388" d="M121.5,83.131a10.311,10.311,0,0,0,4.19-1.071" transform="translate(-121.498 -77.111)" fill="none" stroke="#bc0631" stroke-linecap="round" stroke-miterlimit="10" stroke-width="1"/>
      </g>
      <g id="eyelashes-2" data-name="eyelashes" transform="translate(44.895 5.543)" style="isolation: isolate">
        <path id="Path_389" data-name="Path 389" d="M293.869,49.27a10.3,10.3,0,0,1-3.779,2.1" transform="translate(-290.09 -49.27)" fill="none" stroke="#bc0631" stroke-linecap="round" stroke-miterlimit="10" stroke-width="1"/>
        <path id="Path_390" data-name="Path 390" d="M300.269,65.75a10.319,10.319,0,0,1-4.2,1.058" transform="translate(-295.104 -63.089)" fill="none" stroke="#bc0631" stroke-linecap="round" stroke-miterlimit="10" stroke-width="1"/>
        <path id="Path_391" data-name="Path 391" d="M300.3,80.981a10.311,10.311,0,0,1-4.19-1.071" transform="translate(-295.138 -74.962)" fill="none" stroke="#bc0631" stroke-linecap="round" stroke-miterlimit="10" stroke-width="1"/>
      </g>
      <ellipse id="eye" cx="5.657" cy="6.102" rx="5.657" ry="6.102" transform="translate(22.414 4.198)" fill="#fff" stroke="#8e0022" stroke-miterlimit="10" stroke-width="0.75"/>
      <ellipse id="eye-2" data-name="eye" cx="5.657" cy="6.102" rx="5.657" ry="6.102" transform="translate(34.229 4.198)" fill="#fff" stroke="#8e0022" stroke-miterlimit="10" stroke-width="0.75"/>
      <circle id="beye" cx="1.946" cy="1.946" r="1.946" transform="translate(26.861 8.545)"/>
      <circle id="byey" cx="1.946" cy="1.946" r="1.946" transform="translate(37.688 8.731)"/>
      <circle id="eye-3" data-name="eye" cx="0.535" cy="0.535" r="0.535" transform="translate(28.807 8.876)" fill="#fff"/>
      <circle id="eye-4" data-name="eye" cx="0.535" cy="0.535" r="0.535" transform="translate(38.565 8.876)" fill="#fff"/>
      <path id="eyebrown" d="M151.4,16.193s1.067-1.552-2.907-1.218-6.8,3.737-6.821,4.9A14.568,14.568,0,0,1,151.4,16.193Z" transform="translate(-120.742 -14.93)" fill="#ad0522" style="isolation: isolate"/>
      <path id="eyebrown-2" data-name="eyebrown" d="M238.232,17.046s-1.13-1.5,2.858-1.34,6.944,3.44,7.024,4.6A14.641,14.641,0,0,0,238.232,17.046Z" transform="translate(-201.587 -15.572)" fill="#ad0522" style="isolation: isolate"/>
      <path id="highlight" d="M96.05,137.507s.9,9.078,2.38,11.848,13.934-8.9,13.934-8.9,13.6,37.176,23.079,50.242l-10.034,20.024,6.332,11.895,10.24-20.876,6.514,7.913,1.445-2.261s-11.142-15.018-15.087-24.12c-2.127-4.914-9.55-19.57-15.039-32.015-4.683-10.6-9.043-22.044-9.043-22.044l-.857-5.132s-2.729.625-2.584,1.313S96.05,137.507,96.05,137.507Z" transform="translate(-82.489 -106.456)" fill="#da0829" style="isolation: isolate"/>
      <path id="highlight-2" data-name="highlight" d="M232.742,145.5c.052-.52,13.86,12.1,13.86,12.1s-.646,5.49-1.163,6.621l-13.655-10.467-3.971,9.29-.983-2.606S232.69,146.017,232.742,145.5Z" transform="translate(-192.15 -124.403)" fill="#da0829"/>
    </g>
    <text id="_teentalks" data-name="#teentalks" transform="translate(190 177)" fill="#c92c32" font-size="23" font-family="Montserrat-Bold, Montserrat" font-weight="700"><tspan x="-64.595" y="0">#teentalks</tspan></text>
  </g>
</svg>
