<svg id="logo_footer" xmlns="http://www.w3.org/2000/svg" width="40" viewBox="0 0 53.853 98.692">
<style type="text/css">
	.st7{fill-rule:evenodd;clip-rule:evenodd;fill:#fff;}

  #logo_footer:hover st7{
   transform: rotate(360deg) !important;
   cursor:pointer !important;
  
 
    }
    </style>
  <g id="logo-with-eyes" class="st7" transform="translate(0 0.002)">
    <path id="mouth" d="M182.318,92.343s4.953-3.97,9.594-.472c0,0,2.521-8.254-4.8-9.088S182.318,92.343,182.318,92.343Z" transform="translate(-160.254 -74.096)" fill="#5a5a5a" style="isolation: isolate"/>
    <path id="_2_right" data-name="2 right" d="M23.617,169.221s39.33-69.88,30.791-78.662S41.29,78.771,39.369,78.65l-.064,1.685s7.044,1.2,3.556,9.26-5.894,14.674-5.894,14.674-15.635,36.325-24.9,46.067Z" transform="translate(-12.07 -70.531)" fill="#b1b1b1" style="isolation: isolate"/>
    <path id="_1_left" data-name="1 left" d="M124.9,169.221S85.57,99.341,94.111,90.559s13.118-11.788,15.039-11.909l.064,1.685s-7.044,1.2-3.556,9.26,5.893,14.674,5.893,14.674,15.643,36.325,24.9,46.067Z" transform="translate(-82.596 -70.531)" fill="#eaeaea" style="isolation: isolate"/>
    <g id="eyelashes" transform="translate(13.945 4.647)" style="isolation: isolate">
      <path id="Path_386" data-name="Path 386" d="M130.06,51.41a8.112,8.112,0,0,0,2.982,1.657" transform="translate(-128.968 -51.41)" fill="none" stroke="#888" stroke-linecap="round" stroke-miterlimit="10" stroke-width="1"/>
      <path id="Path_387" data-name="Path 387" d="M121.49,67.9a8.137,8.137,0,0,0,3.314.835" transform="translate(-121.49 -65.798)" fill="none" stroke="#888" stroke-linecap="round" stroke-miterlimit="10" stroke-width="1"/>
      <path id="Path_388" data-name="Path 388" d="M121.5,82.9a8.138,8.138,0,0,0,3.307-.845" transform="translate(-121.499 -78.154)" fill="none" stroke="#888" stroke-linecap="round" stroke-miterlimit="10" stroke-width="1"/>
    </g>
    <g id="eyelashes-2" data-name="eyelashes" transform="translate(35.433 4.375)" style="isolation: isolate">
      <path id="Path_389" data-name="Path 389" d="M293.072,49.27a8.132,8.132,0,0,1-2.982,1.657" transform="translate(-290.09 -49.27)" fill="none" stroke="#888" stroke-linecap="round" stroke-miterlimit="10" stroke-width="1"/>
      <path id="Path_390" data-name="Path 390" d="M299.384,65.75a8.144,8.144,0,0,1-3.314.835" transform="translate(-295.308 -63.65)" fill="none" stroke="#888" stroke-linecap="round" stroke-miterlimit="10" stroke-width="1"/>
      <path id="Path_391" data-name="Path 391" d="M299.417,80.755a8.138,8.138,0,0,1-3.307-.845" transform="translate(-295.343 -76.005)" fill="none" stroke="#888" stroke-linecap="round" stroke-miterlimit="10" stroke-width="1"/>
    </g>
    <ellipse id="eye" cx="4.465" cy="4.816" rx="4.465" ry="4.816" transform="translate(17.69 3.313)" fill="#fff" stroke="#6c6c6c" stroke-miterlimit="10" stroke-width="1"/>
    <ellipse id="eye-2" data-name="eye" cx="4.465" cy="4.816" rx="4.465" ry="4.816" transform="translate(27.015 3.313)" fill="#fff" stroke="#6c6c6c" stroke-miterlimit="10" stroke-width="1"/>
    <circle id="beye" cx="1.536" cy="1.536" r="1.536" transform="translate(21.2 6.744)"/>
    <circle id="byey" cx="1.536" cy="1.536" r="1.536" transform="translate(29.745 6.891)"/>
    <circle id="eye-3" data-name="eye" cx="0.422" cy="0.422" r="0.422" transform="translate(22.735 7.005)" fill="#fff"/>
    <circle id="eye-4" data-name="eye" cx="0.422" cy="0.422" r="0.422" transform="translate(30.437 7.005)" fill="#fff"/>
    <path id="eyebrown" d="M149.347,15.926s.842-1.225-2.294-.961-5.363,2.949-5.383,3.869A11.5,11.5,0,0,1,149.347,15.926Z" transform="translate(-125.153 -14.93)" fill="#6e6e6e" style="isolation: isolate"/>
    <path id="eyebrown-2" data-name="eyebrown" d="M238.2,16.761s-.892-1.187,2.256-1.058,5.48,2.715,5.544,3.634A11.555,11.555,0,0,0,238.2,16.761Z" transform="translate(-209.279 -15.598)" fill="#6e6e6e" style="isolation: isolate"/>
    <path id="highlight" d="M96.05,134.677s.709,7.165,1.879,9.351,11-7.024,11-7.024,10.73,29.341,18.215,39.653l-7.92,15.8,5,9.388,8.081-16.476,5.141,6.245,1.141-1.784s-8.794-11.853-11.907-19.037c-1.678-3.878-7.537-15.445-11.869-25.268-3.7-8.366-7.137-17.4-7.137-17.4l-.677-4.05s-2.154.493-2.039,1.036S96.05,134.677,96.05,134.677Z" transform="translate(-85.347 -110.171)" fill="#c7c7c7" style="isolation: isolate"/>
    <path id="highlight-2" data-name="highlight" d="M231.5,145.5c.041-.41,10.939,9.547,10.939,9.547a37.291,37.291,0,0,1-.918,5.225l-10.777-8.261-3.134,7.332-.776-2.057S231.455,145.9,231.5,145.5Z" transform="translate(-199.459 -128.846)" fill="#a7a7a7"/>
  </g>
</svg>
