<svg xmlns="http://www.w3.org/2000/svg" width="716.71" height="1003.527" viewBox="0 0 716.71 1003.527">
  <g id="GUY" transform="translate(-55.052 -6976.524)">
    <g id="yellow_circle" data-name="yellow circle" transform="translate(1821.787 8321.724) rotate(177)">
      <path id="yellow_circle-2" data-name="yellow circle" d="M265.677,0C412.406,0,531.354,118.948,531.354,265.677S412.406,531.354,265.677,531.354,0,412.406,0,265.677,118.948,0,265.677,0Z" transform="matrix(0.978, 0.208, -0.208, 0.978, 1135.578, 598.719)" fill="#fed831"/>
      <path id="yellow_shadow" data-name="yellow shadow" d="M277.1.127C405.879,4.28,535,132.752,528.33,254.687S541.589,50.528,274.454,60.472-8.783,368.782,2.535,231.579,148.313-4.027,277.1.127Z" transform="matrix(0.695, 0.719, -0.719, 0.695, 1353.856, 538)" fill="#fec731"/>
    </g>
    <g id="guy-2" data-name="guy" transform="translate(127.408 7049.101) rotate(-14)">
      <g id="Group_165" data-name="Group 165" transform="translate(198.92 198.28)">
        <path id="Path_10127" data-name="Path 10127" d="M603.477,194.714c10.357-18.475,34.487-20.1,39.859-2.971,1.609,5.074,2.743,11.737,3.056,20.471.78,22.356,5.309,68.286,10.224,113.016,46.924-3.107,95.782-6.947,117.909-8.726a78.142,78.142,0,0,1,23.394-20.986c3.715-2.261,5.854-.725,6.9.633a1.525,1.525,0,0,1-.368,2.176c-3.4,2.389-9.2,8.133-8.6,11.215.681,3.476,30.169-8.446,32.315-4.216.861,1.7-19.937,10.8-19.937,10.8s23.843-5.239,23.214-1.859-21.167,10.928-21.167,10.928,24.278-2.146,22.334,1.02-20.57,7.724-20.57,7.724c8.891.258,12.452,1.738,13.873,2.872a1.07,1.07,0,0,1-.305,1.863c-10.258,3.674-35.021.53-44.274-.836-40.135,21.012-81.581,32.4-118.958,38.371q-5.981.95-11.822,1.727c-20.732,2.765-37.628-8.718-42.1-28.224-1.642-7.168-3.064-14.293-4.286-21.31-7.419-42.823-7.6-81.9-7.688-103.366C596.452,211.776,599.4,201.953,603.477,194.714Z" transform="translate(-590.518 -163.239)" fill="#ab777d"/>
        <path id="Path_10128" data-name="Path 10128" d="M647.834,307.162l64.531-.549-9.215-102.641c-1.186-13.17-10.346-24.6-23.214-27.661a35.416,35.416,0,0,0-10.545-.92c-18.585,1.219-24.528,14.62-25.644,28.85S647.834,307.162,647.834,307.162Z" transform="translate(-643.59 -175.318)" fill="#2988e7"/>
        <g id="Group_164" data-name="Group 164" transform="translate(21.723 131.845)">
          <path id="Path_10129" data-name="Path 10129" d="M652.149,211.128l-6.741,18.9,40.358-18.9Z" transform="translate(-645.408 -211.128)" fill="#996369"/>
        </g>
      </g>
      <g id="Group_173" data-name="Group 173" transform="translate(166.585 0)">
        <path id="Path_10130" data-name="Path 10130" d="M641.381,181.168c2.82-4.562,9.113-7.213,14.057-4.576a9.344,9.344,0,0,1,1.4,1.027c3.619-17.5,10.9-35.842,25.559-43.3,31.55-16.045,66.747,1.145,69.556,23.394,3.211,25.437-3.513,54.244-9.952,78.705a30.506,30.506,0,0,1-3.593,9.215c-7.036,10.611-25.438,13.645-37.234,13.162a48.788,48.788,0,0,1-37.694-20.257c-7.113-9.709-10.287-21.682-9.908-33.7a23.647,23.647,0,0,1-6.855-2.452,18.489,18.489,0,0,1-6.462-8.869A14.727,14.727,0,0,1,641.381,181.168Z" transform="translate(-636.268 -103.834)" fill="#ab777d"/>
        <g id="Group_172" data-name="Group 172" transform="translate(8.246 59.831)">
          <g id="Group_168" data-name="Group 168" transform="translate(58.352 19.074)">
            <g id="Group_166" data-name="Group 166" transform="translate(28.81 7.213)">
              <path id="Path_10131" data-name="Path 10131" d="M643.521,150.881c-.943,3.763-.217,7.183,1.62,7.643s4.091-2.216,5.033-5.976.213-7.183-1.624-7.643S644.463,147.122,643.521,150.881Z" transform="translate(-643.108 -144.854)" fill="#450d20"/>
            </g>
            <g id="Group_167" data-name="Group 167" transform="translate(0)">
              <path id="Path_10132" data-name="Path 10132" d="M658,150.59c-.942,3.759-3.2,6.436-5.033,5.976s-2.562-3.881-1.62-7.64,3.192-6.439,5.029-5.979S658.937,146.827,658,150.59Z" transform="translate(-650.933 -142.895)" fill="#450d20"/>
            </g>
          </g>
          <g id="Group_170" data-name="Group 170" transform="translate(61.028 45.034)">
            <path id="Path_10133" data-name="Path 10133" d="M656.312,156.127a5.637,5.637,0,0,1-3.8.313,5.917,5.917,0,0,1-3.207-2.065,18.584,18.584,0,0,0,3.406,1.27A15.572,15.572,0,0,0,656.312,156.127Z" transform="translate(-645.519 -138.068)" fill="#450d20"/>
            <g id="Group_169" data-name="Group 169" transform="translate(0)">
              <path id="Path_10134" data-name="Path 10134" d="M645.5,149.946a16.017,16.017,0,0,0,.331,3.836,12.583,12.583,0,0,0,.9,3.015,11.789,11.789,0,0,0,9.7,7.71s5.088,1.031,10.069-4.61a18.806,18.806,0,0,0,1.819-2.371,30.175,30.175,0,0,0,2.01-3.538S659.971,157.2,645.5,149.946Z" transform="translate(-645.489 -149.946)" fill="#fff"/>
              <path id="Path_10135" data-name="Path 10135" d="M646.035,153.492s.442.471.773.884a18.805,18.805,0,0,0,1.819-2.371A10.863,10.863,0,0,1,646.035,153.492Z" transform="translate(-625.795 -144.424)" fill="#e3e3e3"/>
              <path id="Path_10136" data-name="Path 10136" d="M651.586,150.988a12.574,12.574,0,0,0,.9,3.015,11.989,11.989,0,0,1,1.149-.689A12.866,12.866,0,0,1,651.586,150.988Z" transform="translate(-651.243 -147.152)" fill="#e3e3e3"/>
            </g>
          </g>
          <g id="Group_171" data-name="Group 171" transform="translate(53.406)">
            <path id="Path_10137" data-name="Path 10137" d="M669.3,141.557a8.137,8.137,0,0,0-4.679-3.2,16.443,16.443,0,0,0-5.685-.6,13.823,13.823,0,0,0-5.526,1.561,14.478,14.478,0,0,0-4.356,3.4,1.642,1.642,0,0,0,1.981,2.566l.166-.092a20.336,20.336,0,0,1,3.936-1.786,11.854,11.854,0,0,1,4-.582,14.464,14.464,0,0,1,4.024.6,15.545,15.545,0,0,0,4.26.806l.449,0a1.718,1.718,0,0,0,1.727-1.708A1.681,1.681,0,0,0,669.3,141.557Z" transform="translate(-648.606 -137.714)" fill="#450d20"/>
            <path id="Path_10138" data-name="Path 10138" d="M640.382,140.508a8.123,8.123,0,0,1,5.63-.619,16.367,16.367,0,0,1,5.294,2.154,13.785,13.785,0,0,1,4.142,3.98,14.519,14.519,0,0,1,2.239,5.055,1.64,1.64,0,0,1-2.953,1.329l-.107-.158A20.2,20.2,0,0,0,652,148.817a11.958,11.958,0,0,0-3.255-2.4,14.588,14.588,0,0,0-3.836-1.362,15.555,15.555,0,0,1-4.138-1.3l-.394-.206a1.722,1.722,0,0,1-.722-2.323A1.7,1.7,0,0,1,640.382,140.508Z" transform="translate(-603.065 -132.504)" fill="#450d20"/>
          </g>
          <path id="Path_10139" data-name="Path 10139" d="M656.674,143.369c-.055,2.71-.258,5.368-.416,8.012-.136,2.64-.3,5.269-.184,7.835.015.641.055,1.274.125,1.9a6.436,6.436,0,0,1,.026,2.342,4.561,4.561,0,0,1-3.4,3.442,5.527,5.527,0,0,1-4.4-.854,10.97,10.97,0,0,1-2.923-2.92c2.165,1.5,4.779,2.894,6.774,2.047a2.711,2.711,0,0,0,1.789-2.132,4.954,4.954,0,0,0-.122-1.638c-.1-.7-.162-1.4-.191-2.091a37.681,37.681,0,0,1,.711-8.148A42.809,42.809,0,0,1,656.674,143.369Z" transform="translate(-570.86 -122.55)" fill="#450d20"/>
          <path id="Path_10140" data-name="Path 10140" d="M664.531,143.107a28.3,28.3,0,0,1,7.661,3.063,22.035,22.035,0,0,1,6.116,5.092l1.381-1.708A25.572,25.572,0,0,0,673.146,147a9.825,9.825,0,0,0-3.781-.173,4.278,4.278,0,0,0-3.266,2.64,6.419,6.419,0,0,0,1.845,7.036,9.33,9.33,0,0,0,6.34,2.588,10.042,10.042,0,0,1-5.353-3.479c-1.292-1.627-1.808-3.733-.968-5.324.607-1.532,2.644-1.491,4.683-1.035a28.423,28.423,0,0,1,5.976,2.261l.059.029A1.109,1.109,0,0,0,680,149.808a20.2,20.2,0,0,0-7.121-5.029A20.721,20.721,0,0,0,664.531,143.107Z" transform="translate(-664.531 -123.26)" fill="#450d20"/>
        </g>
        <path id="Path_10141" data-name="Path 10141" d="M690.08,163.437s7.176,19.639-11.686,27.794c0,0-3.888,19.742-13.192,16s-9.816-11.984-9.816-11.984-8.766-5.994-15.456,3.549c0,0-15.515-20.2,7.507-37.591,0,0-3.354-25.559,22.588-20.014,0,0,20.865-29.134,44.329-16.594a6.315,6.315,0,0,1,0,7.485s33.909-16.148,42.989,7.485a7.062,7.062,0,0,1-3.711,7.139s23.722,19.373,10.685,32.713c0,0,2.982,19.951-13.729,24.311l.313-19.985s-11.384-2.106-27.606-12.22C723.293,171.526,713.75,186.272,690.08,163.437Z" transform="translate(-634.817 -121.464)" fill="#450d20"/>
      </g>
      <g id="Group_187" data-name="Group 187" transform="translate(67.76 347.263)">
        <g id="Group_179" data-name="Group 179">
          <path id="Path_10142" data-name="Path 10142" d="M726.649,737.714V737.7L751.331,500.2,644.578,300.775s6.723-53.084,25.113-63.96a281.273,281.273,0,0,1,32.194-16.458c11.421,15.872,24.079,35.441,37.867,57.922,7.249,11.837,17.183,32.363,28.608,58.106q4.225,9.5,8.678,19.922c15.132,35.253,32.182,77.391,48.839,119.72a63.641,63.641,0,0,1,2.791,37.642c-5.674,24.469-15.419,66.441-21.06,90.086-17.422,72.395-43.243,162.149-47.226,176.519,5.015,11.822,16.833,35.537,34.44,45.385a4.2,4.2,0,0,1,2.261,3.626c-.022,2.051-.913,4.716-5.008,5.817a4.074,4.074,0,0,1-3.468-.714l-86.728-64.409a8.145,8.145,0,0,1-2.327-10.412C702.007,755.018,717.4,744.028,726.649,737.714Z" transform="translate(-634.002 -203.514)" fill="#ab777d"/>
          <g id="Group_175" data-name="Group 175" transform="translate(62.69 527.072)">
            <path id="Path_10143" data-name="Path 10143" d="M755.238,469.982a3.709,3.709,0,0,1-5.195.637l-93.4-70.889a10.089,10.089,0,0,1-3.814-10.011,10.285,10.285,0,0,1,1.182-3.2,10.751,10.751,0,0,1,2.408-2.758l25.725-24.823,42.5,40.606-4.363,6.734s-6.443,14.447,19.525,32.864c15.585,11.108,17.518,21.262,16.561,27.6a12.736,12.736,0,0,1-.339,1.723A3.4,3.4,0,0,1,755.238,469.982Z" transform="translate(-652.64 -358.94)" fill="#2988e7"/>
          </g>
          <g id="Group_178" data-name="Group 178">
            <path id="Path_10145" data-name="Path 10145" d="M653.281,327.7l100.49,185.576-19.9,201.043-.324,3.336-1.649,16.505,53.4,28.317,5.438-21.877.777-3.17L841.9,534.7a114.722,114.722,0,0,0-4.886-70.392l-22.267-55.473L746.36,238.6l-21.038-5.467h-.03l-66.769-17.348-12.849,49.645A85.62,85.62,0,0,0,653.281,327.7Z" transform="translate(-642.937 -215.783)" fill="#c2222d"/>
          </g>
        </g>
        <g id="Group_186" data-name="Group 186" transform="translate(38.744 17.289)">
          <path id="Path_10148" data-name="Path 10148" d="M594.06,297.775c6.819-46.088,34.016-75.458,34.016-75.458C735.827,252.541,847,312.4,893.308,344.655a40.832,40.832,0,0,1,15.08,47.351c-26.9,74.744-115.571,248.321-115.571,248.321s17.194,37.4,42.352,48.238a4.194,4.194,0,0,1,2.625,3.376c.188,2.043-.424,4.786-4.385,6.3a4.091,4.091,0,0,1-3.523-.357l-92.9-55.142a8.138,8.138,0,0,1-3.384-10.114c1.97-4.779,7.794-15.511,16.321-22.746,4.065-11.145,61.986-170.117,69.468-197.936.711-2.669-5.074-3.9-6.6-4.381a179.421,179.421,0,0,0-32.021-6.543q-8.748-.8-17.349-1.848c-47.885-5.821-91.89-17.142-121.219-25.923A68.446,68.446,0,0,1,594.06,297.775Z" transform="translate(-564.538 -215.549)" fill="#ab777d"/>
          <g id="Group_181" data-name="Group 181" transform="translate(165.236 385.114)">
            <path id="Path_10149" data-name="Path 10149" d="M722.78,426.674a3.71,3.71,0,0,1-5.1,1.2L617.172,367.493a10.083,10.083,0,0,1-4.875-9.543,10.418,10.418,0,0,1,.825-3.31,10.815,10.815,0,0,1,2.1-3l19.329-26.564,50.2,34.878-3.612,7.168s-4.842,15.058,22.967,30.559c16.693,9.359,19.712,19.245,19.448,25.651a13.5,13.5,0,0,1-.151,1.749A3.457,3.457,0,0,1,722.78,426.674Z" transform="translate(-612.26 -325.079)" fill="#2988e7"/>
          </g>
          <g id="Group_185" data-name="Group 185" transform="translate(0)">
            <path id="Path_10151" data-name="Path 10151" d="M603.373,321.029a99.35,99.35,0,0,0,76.382,67.023L724,396.24l113.76,21.1L784.031,577.122,783,580.229l-4.532,13.5,56.865,34.793,9.9-20.069,1.454-2.942L939.571,417.44a61.959,61.959,0,0,0-26.829-82.369L689.3,228.627c-22.882-6.115-40.813-8.575-54.73-8.089h-.029C575.413,222.446,588.874,276.527,603.373,321.029Z" transform="translate(-590.931 -220.479)" fill="#c2222d"/>
            <g id="Group_182" data-name="Group 182" transform="translate(84.013 90.194)">
              <path id="Path_10152" data-name="Path 10152" d="M690.182,330.712l-49.853-85.736,103,95.761Z" transform="translate(-640.329 -244.976)" fill="#a82443"/>
            </g>
          </g>
        </g>
      </g>
      <g id="Group_194" data-name="Group 194" transform="translate(0 99.711)">
        <g id="Group_188" data-name="Group 188" transform="translate(86.44)">
          <path id="Path_10155" data-name="Path 10155" d="M664.568,267.872c1.977-26.085,11.855-37.845,21.236-43.08a31.921,31.921,0,0,1,22.22-2.971,45.415,45.415,0,0,0,18,.453c13.306-21.465,17.036-67.27,17.485-73.113,0-.217.026-.4.033-.615l51.876,49.063a16.477,16.477,0,0,0-3.487,6.189l-.007.022c-1.889,5.247-2.835,12.29-3.317,18.8-.523,7.294-.442,13.9-.375,16.594,4.4,9.238,12.584,14.318,23.574,25.327,16.741,16.774-3.693,46.53-15.456,78.934-12.9,35.537-26.546,84.537-26.546,84.537L646.089,397.044C657.006,367.38,660.61,320.047,664.568,267.872Z" transform="translate(-646.089 -148.546)" fill="#ab777d"/>
          <path id="Path_10156" data-name="Path 10156" d="M694.125,204.392c-33.862-4.072-40.673-47.432-40.916-49.049,3.652,11.137,11.218,18.2,19.223,22.672a66.305,66.305,0,0,0,24.8,7.57c.074,0,.14.011.214.007C695.554,190.839,694.607,197.882,694.125,204.392Z" transform="translate(-551.603 -130.318)" fill="#996369"/>
        </g>
        <g id="Group_191" data-name="Group 191" transform="translate(83.358 70.066)">
          <path id="Path_10157" data-name="Path 10157" d="M727.862,170.369s-28.7-9.23-48.471,5.872-19.418,86.842-19.418,86.842l-14.565,81.989,126.8,31.9s30.131-88.352,39.318-104.9,18.9-51.066,3.255-64.553-24.145-19.348-24.145-19.348S752.673,212.687,727.862,170.369Z" transform="translate(-645.408 -167.577)" fill="#2fa3e9"/>
        </g>
        <g id="Group_193" data-name="Group 193" transform="translate(0 71.962)">
          <path id="Path_10158" data-name="Path 10158" d="M679.914,257.925c5.088-5.309,10.265-10.4,15.464-15.279,31.722-29.7,64.284-51.309,82.181-63.161,11.064-7.3,20.89-10.235,29.182-10.8,21.13-1.48,35.732,17.8,24.362,31.685-3.358,4.135-8.306,8.741-15.434,13.8-18.261,12.919-54.166,41.917-88.856,70.576,28.111,37.2,57.863,75.587,71.655,93.315a78.092,78.092,0,0,1,33.423,6.09c4.031,1.627,4.079,4.26,3.612,5.909a1.518,1.518,0,0,1-1.959,1.005c-3.947-1.3-12.025-2.515-14.131-.188-2.382,2.621,24.8,19.138,22.694,23.387-.851,1.708-20.574-9.528-20.574-9.528s18.449,15.983,15.364,17.5-21.41-10.434-21.41-10.434,16.233,18.181,12.529,18.512-18.49-11.874-18.49-11.874c5.11,7.286,6.053,11.023,5.994,12.842a1.069,1.069,0,0,1-1.675.865c-8.339-5.534-19.377-24.318-24.557-33.725-41.689-22.341-75.444-51.843-101.927-80.874q-4.081-4.479-7.934-8.932C665.739,292.8,666.063,272.369,679.914,257.925Z" transform="translate(-669.341 -166.712)" fill="#ab777d"/>
          <path id="Path_10159" data-name="Path 10159" d="M706.533,276.573l-36.324-53.342,89.6-50.919c11.495-6.535,26.111-5.519,35.957,3.31a35.346,35.346,0,0,1,6.767,8.137c9.591,15.972,1.966,28.49-9.094,37.517S706.533,276.573,706.533,276.573Z" transform="translate(-637.206 -168.092)" fill="#2988e7"/>
          <g id="Group_192" data-name="Group 192" transform="translate(26.035 64.145)">
            <path id="Path_10160" data-name="Path 10160" d="M740.761,229.85l-30.194-44.336-13.1,11.79Z" transform="translate(-697.468 -185.514)" fill="#996369"/>
          </g>
        </g>
      </g>
    </g>
    <g id="hightlights">
      <ellipse id="Ellipse_139" data-name="Ellipse 139" cx="1.5" cy="2.5" rx="1.5" ry="2.5" transform="translate(407.439 7070.438) rotate(-14)" fill="#fff"/>
      <ellipse id="Ellipse_141" data-name="Ellipse 141" cx="1.5" cy="2.5" rx="1.5" ry="2.5" transform="translate(377.439 7070.438) rotate(-14)" fill="#fff"/>
      <ellipse id="Ellipse_140" data-name="Ellipse 140" cx="0.5" cy="1" rx="0.5" ry="1" transform="translate(408.894 7076.136) rotate(-14)" fill="#fff"/>
      <ellipse id="Ellipse_142" data-name="Ellipse 142" cx="0.5" cy="1" rx="0.5" ry="1" transform="translate(378.894 7076.136) rotate(-14)" fill="#fff"/>
    </g>
    <g id="hightlights-2" data-name="hightlights">
      <path id="Path_10165" data-name="Path 10165" d="M68.516,46.586c-6.756-5-16-9.359-26.809-12.636-7.907-2.4-16.6-4.216-24.349-6.722S2.62,21.31.585,17.185C-2.241,11.462,5.52,5.719,16.477,2.918S40.878-.257,53.8.126c33.543.994,66.883,6.783,93.98,16.316s47.821,22.766,58.415,37.3c3.365,4.617,5.748,9.437,5.06,14.189s-4.721,9.458-12.578,12.493a64.625,64.625,0,0,1-15.915,3.5c-18.351,1.971-38.631-1.077-54.352-6.35S100.864,65.018,90.361,57.59c-5.827-4.121-11.512-6.94-20.188-9.895" transform="translate(500.23 7625.546) rotate(-147)" fill="rgba(255,123,123,0.27)"/>
      <path id="Path_10168" data-name="Path 10168" d="M45.238,21.627a63.383,63.383,0,0,1-17.7,7.2c-5.221,1.367-10.963,2.4-16.077,3.832S1.73,36.036.386,38.387c-1.866,3.262,3.259,6.536,10.493,8.133S26.99,48.33,35.52,48.111c22.147-.567,44.16-3.866,62.05-9.3s31.574-12.978,38.569-21.263c2.222-2.632,3.8-5.38,3.341-8.088s-3.117-5.391-8.3-7.122A48.492,48.492,0,0,0,120.667.344,101.975,101.975,0,0,0,84.781,3.964,99.759,99.759,0,0,0,59.661,15.354a51.848,51.848,0,0,1-13.329,5.64" transform="matrix(0.469, -0.883, 0.883, 0.469, 348.378, 7331.482)" fill="#60b3ec"/>
      <path id="Path_10166" data-name="Path 10166" d="M16.289,20.792a18.9,18.9,0,0,0-6.372-5.477C8.026,14.3,5.939,13.546,4.088,12.479S.576,9.93.121,8.091C-.512,5.539,1.417,2.9,4.092,1.553A19.362,19.362,0,0,1,13.144.011,44.814,44.814,0,0,1,35.73,6.627a33.83,33.83,0,0,1,13.8,16.326,14.232,14.232,0,0,1,1.1,6.342,8.015,8.015,0,0,1-3.154,5.715,10.524,10.524,0,0,1-3.881,1.695A18.263,18.263,0,0,1,30.5,34.267a32.693,32.693,0,0,1-9.024-8.694,15.964,15.964,0,0,0-4.794-4.295" transform="matrix(-0.883, -0.469, 0.469, -0.883, 394.989, 7514.929)" fill="rgba(245,187,191,0.53)"/>
      <path id="Path_10167" data-name="Path 10167" d="M5.166,6.594A5.993,5.993,0,0,0,3.145,4.857c-.6-.323-1.262-.561-1.849-.9A2.47,2.47,0,0,1,.038,2.566,1.99,1.99,0,0,1,1.3.493,6.14,6.14,0,0,1,4.168,0a14.212,14.212,0,0,1,7.163,2.1,10.729,10.729,0,0,1,4.375,5.178,4.514,4.514,0,0,1,.348,2.011,2.542,2.542,0,0,1-1,1.812,3.337,3.337,0,0,1-1.231.538,5.792,5.792,0,0,1-4.151-.773A10.368,10.368,0,0,1,6.81,8.11,5.063,5.063,0,0,0,5.29,6.748" transform="matrix(-0.996, -0.087, 0.087, -0.996, 416.07, 7532.92)" fill="rgba(245,187,191,0.53)"/>
      <path id="Path_10169" data-name="Path 10169" d="M11.506,8.417A15.318,15.318,0,0,1,7,11.178c-1.306.539-2.729.962-4.011,1.523a5.576,5.576,0,0,0-2.853,2.17c-.548,1.2.6,2.35,2.308,2.872a17.1,17.1,0,0,0,5.93.38A44.154,44.154,0,0,0,23.7,14.241c4.5-2.12,8.037-4.973,9.975-8.041A5.492,5.492,0,0,0,34.72,3.233,2.909,2.909,0,0,0,32.913.711a7.7,7.7,0,0,0-2.491-.64,17.905,17.905,0,0,0-8.81,1.606A25.334,25.334,0,0,0,15.187,6.02a12.745,12.745,0,0,1-3.4,2.158" transform="translate(405.486 7253.233) rotate(-65)" fill="#c6e8ff"/>
      <path id="Path_10170" data-name="Path 10170" d="M3.309,3.823a4.5,4.5,0,0,1-1.3,1.264c-.377.243-.79.431-1.16.684a1.922,1.922,0,0,0-.818,1A1.233,1.233,0,0,0,.728,8.146a3.2,3.2,0,0,0,1.732.23A8.845,8.845,0,0,0,6.9,6.675,8.439,8.439,0,0,0,9.758,2.966a3.639,3.639,0,0,0,.286-1.391A1.594,1.594,0,0,0,9.5.37,1.693,1.693,0,0,0,8.77.046,3.442,3.442,0,0,0,6.212.729,7.946,7.946,0,0,0,4.367,2.723a3.833,3.833,0,0,1-.977.989" transform="translate(409.972 7267.858) rotate(-22)" fill="#c6e8ff"/>
    </g>
  </g>
</svg>
