<svg xmlns="http://www.w3.org/2000/svg" width="699.71" height="869.531" viewBox="0 0 699.71 869.531">
  <g id="Group_356" data-name="Group 356" transform="translate(102.857)">
    <g id="blue_circle" data-name="blue circle" transform="translate(567.985 712.436) rotate(172)">
      <path id="blue_circle-2" data-name="blue circle" d="M241.115,0C374.28,0,482.231,107.951,482.231,241.116S374.28,482.231,241.115,482.231,0,374.28,0,241.116,107.951,0,241.115,0Z" transform="matrix(0.978, 0.208, -0.208, 0.978, 100.261, 57.917)" fill="#50c2f4"/>
      <path id="blue_shadow" data-name="blue shadow" d="M251.479.115C368.356,3.885,485.544,120.48,479.487,231.142S491.52,45.857,249.081,54.881-7.971,334.688,2.3,210.17,134.6-3.655,251.479.115Z" transform="translate(306.342 0) rotate(48)" fill="#12a6ed"/>
    </g>
    <g id="guy">
      <g id="Group_219" data-name="Group 219" transform="translate(0 39.424)">
        <g id="Group_200" data-name="Group 200" transform="translate(209.435)">
          <path id="Path_10821" data-name="Path 10821" d="M422.711,169.854c-1.45-3.949-16.322-10.926-16.322-10.926s3.685-21.325,0-21.325c-3.621,0-8.371,20.509-8.542,21.255.018-.177-.332-.487-5.018,1.912-5.661,2.9.591,23.9.591,23.9S370.9,236.8,346.6,291.094c-37.385-7.732-72.324-15.375-90.439-20.43a87.052,87.052,0,0,0-21.419-3.538c-19.4-.381-30.707,21.946-18.408,36.961,4.823,5.9,12.722,11.584,25.548,15.585,17.354,5.436,46.608,14.553,82.16,21.145,11.641,2.156,23.959,4.038,36.754,5.435a24.685,24.685,0,0,0,25.652-15.847c3.575-9.355,6.982-19.117,10.085-29.224,10.359-33.694,17.318-71.109,16-109.508C415.689,186.626,423.883,173.051,422.711,169.854Z" transform="translate(-211.213 -137.603)" fill="#fa9778"/>
          <g id="Group_199" data-name="Group 199" transform="translate(155.489 104.395)">
            <path id="Path_10822" data-name="Path 10822" d="M262.275,175.7s30.013,6.376,40.573,11.961l-38.892-15.777Z" transform="translate(-262.275 -171.886)" fill="#b26055"/>
          </g>
        </g>
        <g id="Group_202" data-name="Group 202" transform="translate(8.691 117.778)">
          <path id="Path_10823" data-name="Path 10823" d="M321.758,188.985c-5.993-4.7-14.942-8.526-28.332-9.632-18.121-1.513-48.661-4.026-84.794-2.7-11.83.439-24.263,1.288-37.056,2.719a24.681,24.681,0,0,0-21.571,21.066c-1.446,9.909-2.643,20.18-3.465,30.722-2.753,35.14-1.376,73.174,8.3,110.354-1.979,5.618-7.013,20.655-5.171,23.52,2.275,3.538,18.313,7.1,18.313,7.1s1.06,21.614,4.656,20.81c3.532-.789,3.691-21.839,3.694-22.607.024.177.432.4,4.479-2.96,4.894-4.062-5.792-23.2-5.792-23.2s10.591-55.783,22.458-114.075c38.167-.618,73.935-.786,92.714.192a87.228,87.228,0,0,0,21.675-1.221C330.878,225.213,337.042,200.955,321.758,188.985Z" transform="translate(-145.289 -176.281)" fill="#fa9778"/>
          <g id="Group_201" data-name="Group 201" transform="translate(0.061 92.799)">
            <path id="Path_10824" data-name="Path 10824" d="M145.309,206.756s29.668,4.635,40.18,4.863l-40.055.155Z" transform="translate(-145.309 -206.756)" fill="#b26055"/>
          </g>
        </g>
        <g id="Group_203" data-name="Group 203" transform="translate(132.398 54.48)">
          <path id="Path_10825" data-name="Path 10825" d="M315.991,242.511c-12.092-7.266-20.411-9.933-26.319-17.092-.652-2.36-2.177-8.152-3.322-14.68-1.011-5.834-1.727-12.238-1.221-17.272v-.021a14.964,14.964,0,0,1,1.705-6.212L230.39,155.494c.043.189.064.356.107.548.892,5.241,7.7,46.359.719,68.171a41.08,41.08,0,0,1-15.941,3.566,28.966,28.966,0,0,0-18.889,7.509c-7.1,6.672-13.2,19.193-9.2,42.579,8.009,46.77,15.262,89.206,12.193,117.708H315.038s1.218-46.118,4.741-80.22C322.992,284.256,334.411,253.58,315.991,242.511Z" transform="translate(-185.914 -155.494)" fill="#fa9778"/>
          <path id="Path_10826" data-name="Path 10826" d="M250.326,196.566c-30.685,3.873-46.228-32.771-46.8-34.142,5.664,8.992,13.879,13.542,21.9,15.713a60.121,60.121,0,0,0,23.484,1.2c.064-.021.125-.021.189-.043C248.6,184.327,249.315,190.731,250.326,196.566Z" transform="translate(-149.89 -141.322)" fill="#b26055"/>
        </g>
        <g id="Group_218" data-name="Group 218" transform="translate(0 107.112)">
          <path id="Path_10827" data-name="Path 10827" d="M558.605,197.735c-.031.941-.119,1.94-.234,3-2.585,21.806-23.246,71.675-42.12,78.6a13.007,13.007,0,0,1-2.025.588c-.381.088-.764.146-1.175.2-.323.061-.673.091-1.026.149q-1.631.174-3.435.265c-24.391.907-77.047-13.709-90.342-17.525-1.5-.439-2.494-.734-2.905-.85a.953.953,0,0,1-.207-.061l-8.042,89.227-121.307-4.784s-8.277-98.265-13.207-109.715l-67.51,4.257s.706,21.075-1.848,32.376v.027a28,28,0,0,1-.792,2.847,12.873,12.873,0,0,1-.792,1.909c-4.4,8.334-59.2-3.788-59.2-3.788s0-1.818.061-4.93c.027-.88.058-1.879.058-2.935.527-18.931,3.024-66.48,15.2-79.453l.35-.353a9.169,9.169,0,0,1,1.5-1.2,10.154,10.154,0,0,1,.938-.557A22.3,22.3,0,0,1,162.6,184c25.478-10.8,124.742-6.191,151.6,2.144a17.233,17.233,0,0,1,5.932,2.759s.116.058.323.146a.1.1,0,0,0,.027.061c3.815,1.818,39.1,18.313,63.134,4.488l1.087.237,3.374.7,97.3,20.6s1.468-23.831,5.548-35.661a27.006,27.006,0,0,1,1.084-2.7c.941-1.964,1.967-3.316,3.143-3.7,7.336-2.436,54.3,10.332,62.135,18.14C558.34,192.278,558.751,194.568,558.605,197.735Z" transform="translate(-142.435 -172.778)" fill="#fed831"/>
          <g id="Group_217" data-name="Group 217" transform="translate(130.153 34.453)">
            <g id="Group_211" data-name="Group 211" transform="translate(0 21.753)">
              <path id="Path_10832" data-name="Path 10832" d="M185.177,199.1s15.634-3.6,20.28-7.631-.752,46.1-14.2,45.244L188.9,218.535Z" transform="translate(-185.177 -191.236)" fill="#fec731"/>
            </g>
            <g id="Group_212" data-name="Group 212" transform="translate(124.659)">
              <path id="Path_10833" data-name="Path 10833" d="M242.663,235.832c-1.5-.439-3.165-5.272-3.576-5.388,1.73-29.586-17.278-50.218-17.424-50.394l12.838,8.694C235.058,189.509,256.065,204.74,242.663,235.832Z" transform="translate(-221.663 -180.05)" fill="#fec731"/>
            </g>
          </g>
        </g>
      </g>
      <g id="Group_226" data-name="Group 226" transform="translate(160.672 0)">
        <path id="Path_10838" data-name="Path 10838" d="M287.855,147.232c-7.372-18.956-42.123-26.328-66.344-5.265-11.255,9.787-13.621,27.525-12.951,43.718a8.7,8.7,0,0,0-1.456-.594c-4.933-1.23-9.884,2.488-11.361,7.122a13.356,13.356,0,0,0,1.727,11.115,16.807,16.807,0,0,0,7.64,6.383,21.6,21.6,0,0,0,6.571.649,48.931,48.931,0,0,0,16.136,27.464,44.261,44.261,0,0,0,37.622,9.522c10.487-2.177,26.008-8.9,29.86-19.784a27.574,27.574,0,0,0,1.13-8.9C296.71,195.725,296.281,168.9,287.855,147.232Z" transform="translate(-195.199 -115.311)" fill="#fa9778"/>
        <g id="Group_225" data-name="Group 225" transform="translate(2.868 46.088)">
          <g id="Group_222" data-name="Group 222" transform="translate(53.804 17.505)">
            <g id="Group_220" data-name="Group 220" transform="translate(26.934)">
              <path id="Path_10839" data-name="Path 10839" d="M222.655,151.907c0,3.514,1.395,6.364,3.112,6.364s3.109-2.85,3.109-6.364-1.392-6.367-3.109-6.367S222.655,148.39,222.655,151.907Z" transform="translate(-222.655 -145.54)" fill="#450d20"/>
            </g>
            <g id="Group_221" data-name="Group 221">
              <path id="Path_10840" data-name="Path 10840" d="M220.031,151.907c0,3.514-1.392,6.364-3.109,6.364s-3.112-2.85-3.112-6.364,1.395-6.367,3.112-6.367S220.031,148.39,220.031,151.907Z" transform="translate(-213.81 -145.54)" fill="#450d20"/>
            </g>
          </g>
          <g id="Group_223" data-name="Group 223" transform="translate(58.706 43.132)">
            <path id="Path_10841" data-name="Path 10841" d="M238.77,153.956a15.247,15.247,0,0,1-4.686,5.329,11.878,11.878,0,0,1-6.961,2.311,12.074,12.074,0,0,1-6.931-2.39,22.845,22.845,0,0,1-2.683-2.39c-.734-.941-1.446-1.885-2.089-2.859.962.7,1.836,1.453,2.716,2.177.981.594,1.854,1.325,2.844,1.824a12.838,12.838,0,0,0,6.151,1.748,12.534,12.534,0,0,0,6.172-1.666A26.855,26.855,0,0,0,238.77,153.956Z" transform="translate(-215.42 -153.956)" fill="#450d20"/>
            <path id="Path_10842" data-name="Path 10842" d="M224.729,157.663a5.107,5.107,0,0,1-3.273,1.108,5.345,5.345,0,0,1-3.277-1.108,16.764,16.764,0,0,0,3.277.365A14.088,14.088,0,0,0,224.729,157.663Z" transform="translate(-209.778 -146.375)" fill="#450d20"/>
          </g>
          <g id="Group_224" data-name="Group 224" transform="translate(44.868)">
            <path id="Path_10843" data-name="Path 10843" d="M228.618,141.581a7.393,7.393,0,0,0-4.82-1.784,14.886,14.886,0,0,0-5.131.728,12.614,12.614,0,0,0-4.519,2.588,13.179,13.179,0,0,0-3.085,3.956,1.489,1.489,0,0,0,2.308,1.821l.125-.119a18.551,18.551,0,0,1,3.073-2.436,10.745,10.745,0,0,1,3.392-1.395,13.263,13.263,0,0,1,3.672-.356,14.1,14.1,0,0,0,3.925-.225l.4-.1a1.56,1.56,0,0,0,.664-2.68Z" transform="translate(-210.875 -139.791)" fill="#450d20"/>
            <path id="Path_10844" data-name="Path 10844" d="M222.157,141.581a7.393,7.393,0,0,1,4.82-1.784,14.866,14.866,0,0,1,5.131.728,12.563,12.563,0,0,1,4.519,2.588,13.178,13.178,0,0,1,3.085,3.956,1.489,1.489,0,0,1-2.308,1.821l-.125-.119a18.548,18.548,0,0,0-3.073-2.436,10.728,10.728,0,0,0-3.389-1.395,13.286,13.286,0,0,0-3.675-.356,14.106,14.106,0,0,1-3.925-.225l-.393-.1a1.559,1.559,0,0,1-.667-2.68Z" transform="translate(-188.873 -139.791)" fill="#450d20"/>
          </g>
          <path id="Path_10845" data-name="Path 10845" d="M225,144.436c.548,2.4.953,4.784,1.4,7.144.46,2.351.892,4.7,1.562,6.931.155.56.329,1.111.53,1.641a5.887,5.887,0,0,1,.539,2.055,4.137,4.137,0,0,1-2.232,3.776,5.016,5.016,0,0,1-4.059.216,9.943,9.943,0,0,1-3.216-1.921c2.235.837,4.842,1.492,6.413.3a2.453,2.453,0,0,0,1.1-2.269,4.517,4.517,0,0,0-.466-1.413q-.361-.9-.63-1.8a33.887,33.887,0,0,1-1.169-7.323A38.686,38.686,0,0,1,225,144.436Z" transform="translate(-148.335 -130.293)" fill="#450d20"/>
          <path id="Path_10846" data-name="Path 10846" d="M196.141,149.724a23.265,23.265,0,0,1,6.3,2.521,18.142,18.142,0,0,1,5.034,4.19l1.139-1.4a20.967,20.967,0,0,0-5.387-2.1,8.031,8.031,0,0,0-3.109-.143,3.515,3.515,0,0,0-2.689,2.174,5.275,5.275,0,0,0,1.52,5.789,7.67,7.67,0,0,0,5.216,2.132,8.264,8.264,0,0,1-4.406-2.865,4.147,4.147,0,0,1-.795-4.382c.5-1.261,2.174-1.227,3.852-.85a23.427,23.427,0,0,1,4.918,1.857l.049.027a.913.913,0,0,0,1.09-1.431,16.688,16.688,0,0,0-5.862-4.141A17.084,17.084,0,0,0,196.141,149.724Z" transform="translate(-196.141 -119.484)" fill="#450d20"/>
        </g>
        <path id="Path_10847" data-name="Path 10847" d="M218.035,211.949c.213-.04.423-.085.633-.131a3.52,3.52,0,0,0,.545-6.681l-.088-.037c-10.9-4.519-.5-21.249,3.185-33.015s13.587-9.05,13.587-9.05c28.6,8.7,43.822-9.537,43.822-9.537,3.31,4.15,6.048,12.948,6.048,12.948s39.422-26.3,3.956-38.968S210.4,148.91,210.4,148.91c-13.526-7.872-16.559,23.036-7.2,45.29a47.536,47.536,0,0,1,2.926,9.181C207.225,208.983,212.432,213.033,218.035,211.949Z" transform="translate(-189.893 -124.656)" fill="#450d20"/>
      </g>
      <g id="Group_255" data-name="Group 255" transform="translate(124.181 320.304)">
        <g id="Group_236" data-name="Group 236" transform="translate(52.425 51.572)">
          <path id="Path_10848" data-name="Path 10848" d="M371.16,521.633a127.662,127.662,0,0,0-.241-76.273C358.3,405.551,345.612,367.046,334.555,336.4c-8.657-24.029-16.3-43.237-22.113-54.422-6.541-12.607-12.789-24.254-18.733-34.808q-45.069,3.54-90.311,4.7L308.544,483.5l-37.7,213.233c-4.132,9.272-10.8,25.085-10.527,29.772a7.383,7.383,0,0,0,6.748,6.931l97.6,8.474a3.7,3.7,0,0,0,3.018-1.1c2.64-2.8,2.059-5.28,1.1-6.873a3.8,3.8,0,0,0-3.471-1.727c-24.824,1.044-53.594-22.735-53.594-22.735l-.649-.253c1.568-4.711,19.991-60.125,41.663-128.424C357.546,565.593,364.912,541.85,371.16,521.633Z" transform="translate(-194.368 -245.973)" fill="#f28e6f"/>
          <g id="Group_227" data-name="Group 227" transform="translate(77.339 411.94)">
            <path id="Path_10849" data-name="Path 10849" d="M282.3,401.255c-.353.911-.7,1.818-1.087,2.728l-55.384-19.02.588-2.905Z" transform="translate(-225.83 -382.059)" fill="#450d20"/>
          </g>
          <g id="Group_229" data-name="Group 229" transform="translate(63.072 443.198)">
            <path id="Path_10850" data-name="Path 10850" d="M338.406,443.747a3.337,3.337,0,0,1-3.611,3.024L229.6,438.935a9.074,9.074,0,0,1-7.78-5.694,9.284,9.284,0,0,1-.673-2.993,9.678,9.678,0,0,1,.469-3.258l11.3-34.665,47.93,13.21v7.22s2.2,14.059,30.819,15.262c17.2.764,23.627,7.485,26.005,12.738a11.754,11.754,0,0,1,.585,1.468A3.056,3.056,0,0,1,338.406,443.747Z" transform="translate(-221.145 -392.324)" fill="#fed831"/>
          </g>
          <g id="Group_235" data-name="Group 235">
            <path id="Path_10852" data-name="Path 10852" d="M383.494,504.921c-8.922,40.034-27.677,118.314-49.251,172.995-.353.91-.7,1.818-1.087,2.728-2.375,5.959-4.811,11.6-7.247,16.876l-51.365-19.047,3.228-16.849.588-2.905L312.7,480.088,200.432,248.8l99.794-2.025s58.612,91.456,83.533,205.075A123.1,123.1,0,0,1,383.494,504.921Z" transform="translate(-200.432 -246.779)" fill="#601971" opacity="0.999"/>
            <g id="Group_230" data-name="Group 230" transform="translate(40.452 85.356)">
              <path id="Path_10853" data-name="Path 10853" d="M213.716,274.81l113.7,24.959-104.261-5.506Z" transform="translate(-213.716 -274.81)" fill="#722e83"/>
            </g>
          </g>
        </g>
        <g id="Group_254" data-name="Group 254">
          <path id="Path_10855" data-name="Path 10855" d="M649.132,490.064c-.557-3.806-2.862-4.89-4.708-5.131a3.806,3.806,0,0,0-3.508,1.65c-14.6,20.1-51.106,27.884-51.106,27.884l-.6.353-.009-.012c-2.905-4.434-34.839-53.186-74.757-112.416-12.357-18.255-34.455-50.482-47.342-69.267a57.7,57.7,0,0,0-26.885-21.191c-38.508-14.793-77.135-29.206-109.98-40.682q-9.683-3.389-18.636-6.4c-24.215-8.13-44.026-14.059-56.383-16.465-23.481-4.549-44.321-8.073-61.931-10.155a254.939,254.939,0,0,0-8.718,31.611c-3.992,18.959,27.391,55.972,27.391,55.972L410.719,376.6l143.7,161.987.025.027c4.7,9,12.948,24.026,16.784,26.724a7.389,7.389,0,0,0,9.626-.987l67.26-71.234A3.708,3.708,0,0,0,649.132,490.064Z" transform="translate(-181.167 -212.681)" fill="#fa9778"/>
          <g id="Group_238" data-name="Group 238" transform="translate(366.627 269.03)">
            <path id="Path_10856" data-name="Path 10856" d="M408.811,324.563,338.6,403.313a9.034,9.034,0,0,1-12.534,1.026,8.607,8.607,0,0,1-1.791-1.937l-20.664-30.055,39.626-30.055,5.752,4.4s12.5,6.809,30.847-15.177c11.742-14.029,21.456-14.294,26.946-12.619a3.063,3.063,0,0,1,.5.146,3.481,3.481,0,0,1,1.909,1.556A3.384,3.384,0,0,1,408.811,324.563Z" transform="translate(-303.615 -318.192)" fill="#fed831"/>
          </g>
          <g id="Group_253" data-name="Group 253">
            <path id="Path_10858" data-name="Path 10858" d="M585.416,516.691l-40.622,33.286L534.785,538.5l-1.937-2.232L410.779,396.352c-87.586-20.046-212.325-37.659-224.509-75.814-12.208-38.155,16.115-90.7,16.115-90.7l121.307,4.784,11.742,46.788,100.5,38.947a86.9,86.9,0,0,1,40.975,32.933l100.321,151.04,1.614,2.467Z" transform="translate(-183.216 -229.843)" fill="#601971"/>
            <g id="Group_252" data-name="Group 252" transform="translate(118.465 34.195)">
              <g id="Group_240" data-name="Group 240" transform="translate(0 0)">
                <path id="Path_10860" data-name="Path 10860" d="M255.873,258.438l-33.754-17.366,31.264,7.448Z" transform="translate(-222.119 -241.072)" fill="#722e83"/>
              </g>
            </g>
          </g>
        </g>
      </g>
    </g>
  </g>
</svg>
