<svg xmlns="http://www.w3.org/2000/svg" width="599.891" height="601.225" viewBox="0 0 599.891 601.225">
  <g id="Group_346" data-name="Group 346" transform="translate(-1220 -1992.798)">
    <g id="red_circle" data-name="red circle" transform="translate(1220 1992.798)">
      <path id="red_circle-2" data-name="red circle" d="M229.012,0c126.48,0,229.012,102.532,229.012,229.012S355.491,458.023,229.012,458.023,0,355.491,0,229.012,102.532,0,229.012,0Z" transform="matrix(0.978, 0.208, -0.208, 0.978, 95.228, 57.982)" fill="#fd0d1b"/>
      <path id="red_shadow" data-name="red shadow" d="M238.855.109C349.865,3.69,461.17,114.432,455.417,219.539S466.846,43.555,236.577,52.126-7.571,317.887,2.185,199.62,127.845-3.471,238.855.109Z" transform="matrix(0.695, 0.719, -0.719, 0.695, 283.383, 0)" fill="#c30510"/>
    </g>
    <g id="injection" transform="translate(1235.502 2037)">
      <path id="Path_10932" data-name="Path 10932" d="M494.414,102.047,409.348,16.98a9.763,9.763,0,0,1,0-13.8l.324-.32a9.756,9.756,0,0,1,13.8,0l85.063,85.063a9.756,9.756,0,0,1,0,13.8l-.32.324A9.763,9.763,0,0,1,494.414,102.047Zm0,0" fill="#737373"/>
      <path id="Path_10933" data-name="Path 10933" d="M8.16,512a7.662,7.662,0,0,1-5.418-13.078L106.871,394.793a7.661,7.661,0,1,1,10.836,10.832L13.578,509.754A7.64,7.64,0,0,1,8.16,512Zm0,0" fill="#21b3ee"/>
      <path id="Path_10934" data-name="Path 10934" d="M161.707,384.715l-20.656,20.656a16.088,16.088,0,0,1-22.75,0L106.023,393.09a16.084,16.084,0,0,1,0-22.746l20.656-20.656" fill="#d7e4ef"/>
      <path id="Path_10935" data-name="Path 10935" d="M252.633,350.207a114.731,114.731,0,0,1-90.055,33.258,37.693,37.693,0,0,1-34.652-34.652,114.745,114.745,0,0,1,33.262-90.051L324.074,95.875l91.445,91.441Zm0,0" fill="#6ee8f8"/>
      <path id="Path_10936" data-name="Path 10936" d="M395.094,166.891l-33.437,33.438-18.469,18.465L232.2,329.777a114.745,114.745,0,0,1-90.051,33.262,37.725,37.725,0,0,1-11.484-2.742,37.709,37.709,0,0,0,31.91,23.168,114.745,114.745,0,0,0,90.055-33.258l110.98-110.984,51.906-51.906Zm0,0" fill="#21c6f2" opacity="0.811"/>
      <path id="Path_10937" data-name="Path 10937" d="M312.758,290.082s-28.543,1.555-48.461-42.988-45.719-45.719-45.719-45.719l-57.391,57.387a114.748,114.748,0,0,0-33.262,90.055,37.7,37.7,0,0,0,34.652,34.652,114.748,114.748,0,0,0,90.055-33.262Zm0,0" fill="#8fe261"/>
      <path id="Path_10938" data-name="Path 10938" d="M284.789,277.2,232.2,329.777a114.745,114.745,0,0,1-90.051,33.262,37.725,37.725,0,0,1-11.484-2.742,37.709,37.709,0,0,0,31.91,23.168,114.745,114.745,0,0,0,90.055-33.258l60.125-60.129S299.523,290.8,284.789,277.2Zm0,0" fill="#68ba4f"/>
      <path id="Path_10939" data-name="Path 10939" d="M429.383,201.184,310.211,82.008a12.007,12.007,0,0,1,0-16.984l.395-.395a12.012,12.012,0,0,1,16.988,0L446.766,183.8a12.007,12.007,0,0,1,0,16.984l-.395.4A12.019,12.019,0,0,1,429.383,201.184Zm0,0" fill="#737373"/>
      <path id="Path_10940" data-name="Path 10940" d="M434.152,171.184,416.77,188.566l12.418,12.418A12.292,12.292,0,0,0,446.57,183.6Zm0,0" fill="#8f969e"/>
      <path id="Path_10941" data-name="Path 10941" d="M354.828,91.863l64.7-64.7,64.7,64.7-64.7,64.7Zm0,0" fill="#21b3ee"/>
      <path id="Path_10942" data-name="Path 10942" d="M419.531,27.164l-10.98,10.977,33.965,33.965a18.038,18.038,0,0,1,0,25.508l-40.965,40.969L354.832,91.863l64.7,64.7,64.7-64.7Zm0,0" fill="#1790c1"/>
      <g id="Group_304" data-name="Group 304">
        <path id="Path_10943" data-name="Path 10943" d="M315.25,158.559a7.631,7.631,0,0,1-5.414-2.246l-22.547-22.547a7.659,7.659,0,0,1,10.832-10.832l22.547,22.547a7.662,7.662,0,0,1-5.418,13.078Zm0,0" fill="#737373"/>
        <path id="Path_10944" data-name="Path 10944" d="M288.324,185.48a7.634,7.634,0,0,1-5.414-2.242l-22.547-22.547A7.659,7.659,0,0,1,271.2,149.859l22.547,22.547a7.658,7.658,0,0,1-5.418,13.074Zm0,0" fill="#737373"/>
        <path id="Path_10945" data-name="Path 10945" d="M281.68,232.684a7.634,7.634,0,0,1-5.414-2.242l-42.828-42.824a7.662,7.662,0,0,1,10.836-10.836L287.1,219.609a7.658,7.658,0,0,1-5.418,13.074Zm0,0" fill="#737373"/>
        <path id="Path_10946" data-name="Path 10946" d="M234.477,239.332a7.64,7.64,0,0,1-5.418-2.246l-22.543-22.543a7.661,7.661,0,0,1,10.832-10.836l22.547,22.547a7.662,7.662,0,0,1-5.418,13.078Zm0,0" fill="#737373"/>
        <path id="Path_10947" data-name="Path 10947" d="M207.555,266.254a7.636,7.636,0,0,1-5.418-2.242L179.59,241.465a7.659,7.659,0,0,1,10.832-10.832l22.547,22.547a7.658,7.658,0,0,1-5.414,13.074Zm0,0" fill="#737373"/>
        <path id="Path_10948" data-name="Path 10948" d="M200.906,313.461a7.64,7.64,0,0,1-5.418-2.246l-42.824-42.824A7.661,7.661,0,0,1,163.5,257.559l42.824,42.824a7.662,7.662,0,0,1-5.418,13.078Zm0,0" fill="#737373"/>
      </g>
    </g>
  </g>
</svg>
