<svg xmlns="http://www.w3.org/2000/svg" xmlns:xlink="http://www.w3.org/1999/xlink" width="298.04" height="216.175" viewBox="0 0 298.04 216.175">
  <defs>
    <filter id="yellow_bg1" x="0" y="36.135" width="298.04" height="180.039" filterUnits="userSpaceOnUse">
      <feOffset dy="3" input="SourceAlpha"/>
      <feGaussianBlur stdDeviation="3" result="blur"/>
      <feFlood flood-opacity="0.161"/>
      <feComposite operator="in" in2="blur"/>
      <feComposite in="SourceGraphic"/>
    </filter>
  </defs>
  <g id="microscope" transform="translate(9)">
    <g transform="matrix(1, 0, 0, 1, -9, 0)" filter="url(#yellow_bg1)">
      <path id="yellow_bg1-2" data-name="yellow bg1" d="M24.842,0H255.2A24.842,24.842,0,0,1,280.04,24.842V137.2A24.842,24.842,0,0,1,255.2,162.039H24.842A24.842,24.842,0,0,1,0,137.2V24.842A24.842,24.842,0,0,1,24.842,0Z" transform="translate(9 42.14)" fill="#f1b05b"/>
    </g>
    <g id="Microscope-DNA" transform="translate(85.275 0) rotate(16)">
      <path id="Shape" d="M84.225,80.111l-4.114,4.114a5.835,5.835,0,0,1-8.257,0L65.669,78.04,63.6,80.111a2.918,2.918,0,0,1-4.143,0c-13.1-12.984-31.22-30.987-49.6-49.6a2.918,2.918,0,0,1,0-4.143l2.072-2.072L1.711,14.083a5.836,5.836,0,0,1,0-8.257L5.826,1.711a5.836,5.836,0,0,1,8.257,0l10.3,10.3L26.454,9.94a2.918,2.918,0,0,1,4.143,0l49.6,49.6a2.918,2.918,0,0,1,0,4.143l-2.072,2.072,6.186,6.186a5.835,5.835,0,0,1-.088,8.17Z" transform="translate(0 0)" fill="#7f8c8d"/>
      <path id="Shape-2" data-name="Shape" d="M9.649,0A64.366,64.366,0,0,0,22.633,82.893L32.758,68.48A47,47,0,0,1,19.715,19.607L32.086,4.7Z" transform="translate(14.588 44.894)" fill="#285680"/>
      <path id="Shape-3" data-name="Shape" d="M14.589,0H119.628a14.589,14.589,0,0,1,14.589,14.589v8.753H0V14.589A14.589,14.589,0,0,1,14.589,0Z" transform="translate(20.414 145.878)" fill="#3b97d3"/>
      <path id="Shape-4" data-name="Shape" d="M35.013,38.923H0V33.087A35.013,35.013,0,0,1,21.533.759a9.716,9.716,0,0,1,13.48,8.987Z" transform="translate(35.003 106.955)" fill="#2980ba"/>
      <path id="Shape-5" data-name="Shape" d="M148.805,5.836H2.918A2.918,2.918,0,0,1,2.918,0H148.805a2.918,2.918,0,1,1,0,5.836Z" transform="translate(11.661 166.302)" fill="#35495e"/>
      <path id="Shape-6" data-name="Shape" d="M36.063,5.836H2.918A2.918,2.918,0,0,1,2.918,0H36.063a2.918,2.918,0,0,1,0,5.836Z" transform="translate(94.292 46.674)" fill="#4fba6f"/>
      <path id="Shape-7" data-name="Shape" d="M36.822,5.836H2.918A2.918,2.918,0,1,1,2.918,0h33.9a2.918,2.918,0,0,1,0,5.836Z" transform="translate(93.912 20.414)" fill="#fb7b76"/>
      <path id="Shape-8" data-name="Shape" d="M36.822,5.836H2.918A2.918,2.918,0,1,1,2.918,0h33.9a2.918,2.918,0,0,1,0,5.836Z" transform="translate(93.912 102.111)" fill="#4482c3"/>
      <path id="Shape-9" data-name="Shape" d="M43.766,5.836H2.918A2.918,2.918,0,0,1,2.918,0H43.766a2.918,2.918,0,0,1,0,5.836Z" transform="translate(90.44 61.263)" fill="#955ba5"/>
      <path id="Shape-10" data-name="Shape" d="M35.188,5.836H2.918A2.918,2.918,0,0,1,2.918,0h32.27a2.918,2.918,0,1,1,0,5.836Z" transform="translate(94.729 75.852)" fill="#e57e25"/>
      <g id="Group_74" data-name="Group 74" transform="translate(90.44 8.787)">
        <path id="Shape-11" data-name="Shape" d="M22.817,57.6C9.8,55.437,0,43.154,0,28.827S9.745,2.217,22.7.058A4.027,4.027,0,0,0,23.342,0h.467C36.851,2.072,46.684,14.589,46.684,28.8s-9.8,26.639-22.817,28.8a2.539,2.539,0,0,1-1.05,0Zm.525-51.761C13.334,7.674,5.836,17.507,5.836,28.8s7.5,21.125,17.507,22.963C33.35,49.923,40.849,40.09,40.849,28.8S33.35,7.7,23.342,5.835Z" transform="translate(0 26.216)" fill="#de7c0a"/>
        <path id="Shape-12" data-name="Shape" d="M22.511,32.052C9.585,29.63,1.357,16.471.015,3.224A2.932,2.932,0,1,1,5.85,2.641C6.93,13.057,13.145,24,23.123,26.216,33.1,24.028,39.317,13.057,40.4,2.641a2.932,2.932,0,0,1,5.836.584C44.861,16.792,36.4,29.747,23.707,32.052A2.684,2.684,0,0,1,22.511,32.052Z" transform="translate(0.277 0)" fill="#de7c0a"/>
        <path id="Shape-13" data-name="Shape" d="M43.285,32.15a2.918,2.918,0,0,1-2.918-2.626C39.317,19.02,33.044,8.108,23.123,5.89,13.174,8.108,6.959,18.962,5.85,29.466a2.932,2.932,0,1,1-5.836-.584C1.386,15.285,9.848,2.418,22.511.055a2.684,2.684,0,0,1,1.08,0C36.545,2.418,44.773,15.636,46.115,28.882a2.918,2.918,0,0,1-2.83,3.268Z" transform="translate(0.219 78.681)" fill="#de7c0a"/>
      </g>
      <path id="Shape-14" data-name="Shape" d="M50.377,71.123a2.918,2.918,0,0,0,4.143,0L71.035,54.608a2.918,2.918,0,0,0,0-4.143L21.433.863a2.918,2.918,0,0,0-4.143,0L.863,17.465a2.918,2.918,0,0,0,0,4.143Z" transform="translate(9.076 8.989)" fill="#3b97d3"/>
      <circle id="Oval" cx="13.13" cy="13.13" r="13.13" transform="translate(33.953 48.396)" fill="#35495e"/>
      <path id="Rectangle-path" d="M0,0H40.849V17.507H0Z" transform="translate(93.358 128.371)" fill="#285680"/>
      <rect id="Rectangle-path-2" data-name="Rectangle-path" width="58.703" height="11.853" rx="1" transform="translate(84.524 116.641)" fill="#35495e"/>
      <ellipse id="Oval-2" data-name="Oval" cx="3.104" cy="2.822" rx="3.104" ry="2.822" transform="translate(49.528 122.85)" fill="#3b97d3"/>
    </g>
  </g>
</svg>
