<svg xmlns="http://www.w3.org/2000/svg" xmlns:xlink="http://www.w3.org/1999/xlink" width="298.04" height="212.431" viewBox="0 0 298.04 212.431">
  <defs>
    <filter id="yellow_bg3" x="0" y="32.392" width="298.04" height="180.039" filterUnits="userSpaceOnUse">
      <feOffset dy="3" input="SourceAlpha"/>
      <feGaussianBlur stdDeviation="3" result="blur"/>
      <feFlood flood-opacity="0.161"/>
      <feComposite operator="in" in2="blur"/>
      <feComposite in="SourceGraphic"/>
    </filter>
  </defs>
  <g id="pills" transform="translate(9)">
    <g transform="matrix(1, 0, 0, 1, -9, 0)" filter="url(#yellow_bg3)">
      <path id="yellow_bg3-2" data-name="yellow bg3" d="M24.842,0H255.2A24.842,24.842,0,0,1,280.04,24.842V137.2A24.842,24.842,0,0,1,255.2,162.039H24.842A24.842,24.842,0,0,1,0,137.2V24.842A24.842,24.842,0,0,1,24.842,0Z" transform="translate(9 38.39)" fill="#f1b05b"/>
    </g>
    <g id="pills-2" data-name="pills" transform="translate(57.588 0)">
      <ellipse id="Ellipse_81" data-name="Ellipse 81" cx="5.897" cy="6.388" rx="5.897" ry="6.388" transform="translate(77.531 166.509)" fill="#7fdbd5"/>
      <g id="Group_79" data-name="Group 79" transform="translate(85.121 138.963)">
        <ellipse id="Ellipse_82" data-name="Ellipse 82" cx="5.612" cy="6.079" rx="5.612" ry="6.079" transform="translate(17.399 35.185)" fill="#38648c"/>
        <ellipse id="Ellipse_83" data-name="Ellipse 83" cx="5.612" cy="6.079" rx="5.612" ry="6.079" fill="#38648c"/>
      </g>
      <ellipse id="Ellipse_84" data-name="Ellipse 84" cx="7.072" cy="7.661" rx="7.072" ry="7.661" transform="translate(105.308 148.72)" fill="#7fdbd5"/>
      <ellipse id="Ellipse_85" data-name="Ellipse 85" cx="7.576" cy="8.207" rx="7.576" ry="8.207" transform="translate(83.157 190.793)" fill="#f28b74"/>
      <path id="Path_412" data-name="Path 412" d="M151.225,74.188l-25.668,24.76L158.075,138.5l25.668-24.76c10.083-9.727,10.978-26.466,2-37.389h0C176.762,65.43,161.308,64.461,151.225,74.188Z" transform="translate(-91.7 -40.172)" fill="#7fdbd5"/>
      <path id="Path_413" data-name="Path 413" d="M43.126,169.992l25.668-24.76,32.518,39.554-25.668,24.76c-10.083,9.727-25.537,8.757-34.517-2.165h0C32.148,196.458,33.043,179.718,43.126,169.992Z" transform="translate(-34.937 -86.456)" fill="#287d99"/>
      <path id="Path_414" data-name="Path 414" d="M129.12,76.358a23.53,23.53,0,0,0-19.343-8.842,28.323,28.323,0,0,0,2.625,21.8l8.095,14.046a6.057,6.057,0,0,1-1.085,7.42c-15.146,13.708-34.516,28.5-44.647,33-15.494,6.876-29.03-10.521-26.845-24.555L43.54,123.45c-10.034,9.679-11.29,26.393-2.485,37.387,8.946,11.171,24.567,12.234,34.731,2.429l51.336-49.52c10.083-9.727,10.978-26.466,2-37.389Z" transform="translate(-35.078 -40.177)" opacity="0.1"/>
      <path id="Path_415" data-name="Path 415" d="M252.453,40.509l18.2,31.581,41.477-28.048-18.2-31.581C286.779.055,271.7-3.724,260.244,4.021h0C248.791,11.766,245.3,28.1,252.453,40.509Z" transform="translate(-168.86 0)" fill="#76b7eb"/>
      <path id="Path_416" data-name="Path 416" d="M325.6,168.458l-18.2-31.581,41.477-28.048,18.2,31.581c7.15,12.407,3.662,28.743-7.792,36.488h0C347.827,184.643,332.746,180.865,325.6,168.458Z" transform="translate(-205.6 -64.786)" fill="#d1eff2"/>
      <path id="Path_417" data-name="Path 417" d="M322.54,117.908a24.872,24.872,0,0,0,3.077-2.461c-29.064-4.627-66.953-79.78-65.246-105.711-.042.028-.085.053-.127.081h0C248.791,17.563,245.3,33.9,252.452,46.305l36.4,63.163c7.151,12.407,22.232,16.185,33.685,8.44Z" transform="translate(-168.86 -5.796)" opacity="0.1"/>
      <path id="Path_418" data-name="Path 418" d="M142.779,281.274l29.766,13.356a2.1,2.1,0,0,0,2.811-1.262l17.065-44.626a2.4,2.4,0,0,0-1.165-3.045l-29.766-13.356c-12.474-5.6-26.775.82-31.942,14.332h0C124.381,260.186,130.305,275.677,142.779,281.274Z" transform="translate(-93.031 -137.108)" fill="#f28b74"/>
      <path id="Path_419" data-name="Path 419" d="M175.357,304.014l4.2-10.99C144.4,285.775,132.6,263.27,135.351,248.2a26.526,26.526,0,0,0-5.8,9.118h0c-5.167,13.512.757,29,13.231,34.6l29.766,13.356A2.1,2.1,0,0,0,175.357,304.014Z" transform="translate(-93.031 -147.754)" opacity="0.1"/>
      <path id="Path_420" data-name="Path 420" d="M351.326,281.274,321.56,294.63a2.1,2.1,0,0,1-2.811-1.262l-17.065-44.626a2.4,2.4,0,0,1,1.165-3.045l29.766-13.356c12.474-5.6,26.775.82,31.942,14.332h0C369.724,260.186,363.8,275.677,351.326,281.274Z" transform="translate(-201.921 -137.108)" fill="#76b7eb"/>
    </g>
  </g>
</svg>
