<svg xmlns="http://www.w3.org/2000/svg" xmlns:xlink="http://www.w3.org/1999/xlink" width="298.04" height="213.038" viewBox="0 0 298.04 213.038">
  <defs>
    <filter id="yellow_bg2" x="0" y="32.999" width="298.04" height="180.039" filterUnits="userSpaceOnUse">
      <feOffset dy="3" input="SourceAlpha"/>
      <feGaussianBlur stdDeviation="3" result="blur"/>
      <feFlood flood-opacity="0.161"/>
      <feComposite operator="in" in2="blur"/>
      <feComposite in="SourceGraphic"/>
    </filter>
  </defs>
  <g id="doctor" transform="translate(9)">
    <g transform="matrix(1, 0, 0, 1, -9, 0)" filter="url(#yellow_bg2)">
      <path id="yellow_bg2-2" data-name="yellow bg2" d="M24.842,0H255.2A24.842,24.842,0,0,1,280.04,24.842V137.2A24.842,24.842,0,0,1,255.2,162.039H24.842A24.842,24.842,0,0,1,0,137.2V24.842A24.842,24.842,0,0,1,24.842,0Z" transform="translate(9 39)" fill="#f1b05b"/>
    </g>
    <g id="doctor-2" data-name="doctor" transform="translate(68.881 0)">
      <path id="Path_393" data-name="Path 393" d="M216.3,2.361a6.441,6.441,0,0,0-9.26-.74c-4.983,3.9-20.144,15.749-43.605,8.045-18.937-6.219-33.742-7.56-45.262-4.1C107.25,8.841,99.372,16.588,94.744,28.6,83.1,36.557,77.83,49.28,79.494,65.464A79.328,79.328,0,0,0,90.1,96.756a2.993,2.993,0,0,0,4.153.954,3.047,3.047,0,0,0,1.4-2.576h97a3.047,3.047,0,0,0,1.4,2.576,2.971,2.971,0,0,0,1.6.468,3,3,0,0,0,2.551-1.423c4.345-6.976,10.423-23.862,10.7-40.119,9.02-10.79,11.408-23.655,12.025-30.471C221.886,15.775,220.063,6.432,216.3,2.361Z" transform="translate(-79.193 0)" fill="#3d5868"/>
      <path id="Path_394" data-name="Path 394" d="M375.132,2.361a6.441,6.441,0,0,0-9.26-.74c-.76.594-1.757,1.374-2.984,2.24,2.974,4.6,4.335,13.035,3.5,22.305-.617,6.816-3.006,19.681-12.025,30.471-.258,15.112-5.528,30.764-9.759,38.5h6.892a3.047,3.047,0,0,0,1.4,2.576,2.972,2.972,0,0,0,1.6.468,3,3,0,0,0,2.551-1.423c4.345-6.976,10.423-23.862,10.7-40.119,9.02-10.79,11.408-23.655,12.025-30.471C380.716,15.775,378.893,6.432,375.132,2.361Z" transform="translate(-238.024 0)" fill="#2a434f"/>
      <path id="Path_395" data-name="Path 395" d="M183.694,355.948H141.188a33.491,33.491,0,0,0-33.273,33.632v26.663a3.028,3.028,0,0,0,3.012,3.044H213.955a3.028,3.028,0,0,0,3.012-3.044V389.579A33.492,33.492,0,0,0,183.694,355.948Z" transform="translate(-96.382 -211.474)" fill="#f0eeee"/>
      <path id="Path_396" data-name="Path 396" d="M281.517,355.948H271.378a33.491,33.491,0,0,1,33.273,33.632v26.663a3.028,3.028,0,0,1-3.012,3.044h10.139a3.028,3.028,0,0,0,3.012-3.044V389.579A33.491,33.491,0,0,0,281.517,355.948Z" transform="translate(-194.205 -211.474)" fill="#d9d4d4"/>
      <rect id="Rectangle_27" data-name="Rectangle 27" width="33.806" height="60.297" transform="translate(49.156 147.516)" fill="#49b6f2"/>
      <g id="Group_75" data-name="Group 75" transform="translate(49.156 147.518)">
        <path id="Path_397" data-name="Path 397" d="M243.7,366.465v14.95L260.6,393.3V363.446Z" transform="translate(-226.797 -363.446)" fill="#68c8fc"/>
        <path id="Path_398" data-name="Path 398" d="M201.606,393.3l16.9-11.886v-14.95l-16.9-3.019Z" transform="translate(-201.606 -363.446)" fill="#68c8fc"/>
      </g>
      <path id="Path_399" data-name="Path 399" d="M225.279,363.395a3.028,3.028,0,0,1-3.012-3.044v-14.68a30.418,30.418,0,1,0-60.833,0v12.642a3.012,3.012,0,1,1-6.023,0V345.671a36.442,36.442,0,1,1,72.88,0v14.68A3.028,3.028,0,0,1,225.279,363.395Z" transform="translate(-124.805 -183.485)" fill="#19303f"/>
      <g id="Group_76" data-name="Group 76" transform="translate(2.428 90.917)">
        <path id="Path_400" data-name="Path 400" d="M201.606,267.734v36.8a17,17,0,0,0,16.9,17.086h0a17,17,0,0,0,16.9-17.086v-36.8Z" transform="translate(-154.878 -249.981)" fill="#fa9e3e"/>
        <path id="Path_401" data-name="Path 401" d="M96.6,224h19.824v22.977H96.6A11.489,11.489,0,0,1,96.6,224Z" transform="translate(-85.239 -223.996)" fill="#fa9e3e"/>
        <path id="Path_402" data-name="Path 402" d="M344.315,224H324.491v22.977h19.824a11.489,11.489,0,0,0,0-22.977Z" transform="translate(-228.418 -223.996)" fill="#fa9e3e"/>
      </g>
      <path id="Path_403" data-name="Path 403" d="M221.628,127.87v25.7c0,25.15-19.98,45.912-44.862,46-24.935.085-45.173-20.322-45.173-45.5V136.289a.918.918,0,0,1,.538-.832c10.893-5.029,14.528-18.076,15.488-27.418.2-2.015.285-3.857.288-5.409a.9.9,0,0,1,1.576-.6c1.269,1.437,3.241,3.562,5.822,6.01,11.9,11.3,36.727,29.5,65.117,18.972A.9.9,0,0,1,221.628,127.87Z" transform="translate(-110.552 -60.434)" fill="#ffb56b"/>
      <path id="Path_404" data-name="Path 404" d="M222.656,270.957a16.48,16.48,0,0,1-13.585-7.2,3.065,3.065,0,0,1,.761-4.236,2.992,2.992,0,0,1,4.191.77,10.43,10.43,0,0,0,17.268,0,2.991,2.991,0,0,1,4.19-.77,3.065,3.065,0,0,1,.762,4.236A16.483,16.483,0,0,1,222.656,270.957Z" transform="translate(-156.597 -153.863)" fill="#19303f"/>
      <path id="Path_405" data-name="Path 405" d="M275.751,195.138a40.583,40.583,0,0,1-38.064,40.7h0q.6.032,1.2.048h.008q.6.016,1.211.017h0q1.711,0,3.391-.128l.174-.014q1.026-.082,2.04-.209A45.345,45.345,0,0,0,285.119,190.4V162.886a51.341,51.341,0,0,1-9.367,2.751v29.5h0Z" transform="translate(-174.043 -96.773)" fill="#ef9245"/>
      <g id="Group_77" data-name="Group 77" transform="translate(41.234 87.658)">
        <path id="Path_406" data-name="Path 406" d="M293.535,222.868a3.028,3.028,0,0,1-3.012-3.044v-.812a3.012,3.012,0,1,1,6.023,0v.812A3.028,3.028,0,0,1,293.535,222.868Z" transform="translate(-246.896 -215.968)" fill="#19303f"/>
        <path id="Path_407" data-name="Path 407" d="M184.891,222.868a3.028,3.028,0,0,1-3.012-3.044v-.812a3.012,3.012,0,1,1,6.023,0v.812A3.028,3.028,0,0,1,184.891,222.868Z" transform="translate(-181.879 -215.968)" fill="#19303f"/>
      </g>
      <path id="Path_408" data-name="Path 408" d="M149.77,423.232a8.913,8.913,0,1,0,8.818,8.912A8.876,8.876,0,0,0,149.77,423.232Z" transform="translate(-116.152 -251.448)" fill="#78d6d1"/>
      <path id="Path_409" data-name="Path 409" d="M230.216,407.717l-9.048,6.362a12.445,12.445,0,0,0,18.1,0Z" transform="translate(-164.157 -242.231)" fill="#304a56"/>
      <g id="Group_78" data-name="Group 78" transform="translate(58.128 173.822)">
        <path id="Path_410" data-name="Path 410" d="M231.882,432.146a12.4,12.4,0,0,1-3.769-.584l-4.161,32.649h15.861l-4.161-32.649A12.4,12.4,0,0,1,231.882,432.146Z" transform="translate(-223.951 -430.219)" fill="#3d5868"/>
        <path id="Path_411" data-name="Path 411" d="M321,453.739H319.54a3.051,3.051,0,0,1-1.55-5.654v-8.72a4.972,4.972,0,1,0-9.943,0v8.72a3.051,3.051,0,0,1-1.55,5.654h-1.461a3.028,3.028,0,0,1-3.012-3.044v-11.33a11,11,0,1,1,21.989,0V450.7A3.027,3.027,0,0,1,321,453.739Z" transform="translate(-270.673 -428.253)" fill="#3d5868"/>
      </g>
    </g>
  </g>
</svg>
