<svg xmlns="http://www.w3.org/2000/svg" width="328" height="240.808" viewBox="0 0 328 240.808">
  <g id="Group_83" data-name="Group 83" transform="translate(-869.353 -8677.184)">
    <path id="Path_392" data-name="Path 392" d="M29.1,0H298.9A29.1,29.1,0,0,1,328,29.1v131.6a29.1,29.1,0,0,1-29.1,29.1H29.1A29.1,29.1,0,0,1,0,160.693V29.1A29.1,29.1,0,0,1,29.1,0Z" transform="translate(869.353 8726.217)" fill="#f1b05b"/>
    <g id="doctor" transform="translate(949.729 8677.184)">
      <path id="Path_393" data-name="Path 393" d="M239.783,2.736a7.6,7.6,0,0,0-10.846-.858c-5.836,4.514-23.594,18.25-51.073,9.322-22.18-7.206-39.52-8.761-53.014-4.755-12.794,3.8-22.022,12.776-27.442,26.694C83.769,42.361,77.6,57.1,79.546,75.858a91.278,91.278,0,0,0,12.422,36.259,3.525,3.525,0,0,0,6.509-1.879H212.092a3.525,3.525,0,0,0,6.509,1.879c5.089-8.083,12.208-27.651,12.533-46.489,10.565-12.5,13.362-27.41,14.085-35.308C246.323,18.28,244.189,7.453,239.783,2.736Z" transform="translate(-79.193 0)" fill="#3d5868"/>
      <path id="Path_394" data-name="Path 394" d="M380.361,2.736a7.6,7.6,0,0,0-10.846-.858c-.89.688-2.058,1.592-3.5,2.6,3.483,5.333,5.078,15.105,4.095,25.846-.723,7.9-3.521,22.805-14.085,35.308-.3,17.512-6.475,35.648-11.43,44.61h8.073a3.525,3.525,0,0,0,6.509,1.879c5.089-8.083,12.208-27.651,12.533-46.489,10.564-12.5,13.362-27.41,14.085-35.308C386.9,18.28,384.766,7.453,380.361,2.736Z" transform="translate(-219.771 0)" fill="#2a434f"/>
      <path id="Path_395" data-name="Path 395" d="M196.672,355.948H146.886a39.015,39.015,0,0,0-38.971,38.971v30.9a3.527,3.527,0,0,0,3.527,3.527H232.116a3.527,3.527,0,0,0,3.527-3.527v-30.9A39.016,39.016,0,0,0,196.672,355.948Z" transform="translate(-94.406 -188.536)" fill="#f0eeee"/>
      <path id="Path_396" data-name="Path 396" d="M283.253,355.948H271.378a39.015,39.015,0,0,1,38.971,38.971v30.9a3.527,3.527,0,0,1-3.527,3.527H318.7a3.527,3.527,0,0,0,3.527-3.527v-30.9A39.015,39.015,0,0,0,283.253,355.948Z" transform="translate(-180.988 -188.536)" fill="#d9d4d4"/>
      <rect id="Rectangle_27" data-name="Rectangle 27" width="39.596" height="69.87" transform="translate(57.575 170.937)" fill="#49b6f2"/>
      <g id="Group_75" data-name="Group 75" transform="translate(57.574 170.939)">
        <path id="Path_397" data-name="Path 397" d="M243.7,366.944v17.324l19.8,13.773v-34.6Z" transform="translate(-223.903 -363.446)" fill="#68c8fc"/>
        <path id="Path_398" data-name="Path 398" d="M201.606,398.041l19.8-13.773V366.944l-19.8-3.5Z" transform="translate(-201.606 -363.446)" fill="#68c8fc"/>
      </g>
      <path id="Path_399" data-name="Path 399" d="M237.245,372.057a3.527,3.527,0,0,1-3.527-3.527v-17.01a35.626,35.626,0,1,0-71.251,0v14.649a3.527,3.527,0,0,1-7.055,0V351.519a42.681,42.681,0,1,1,85.361,0v17.01A3.528,3.528,0,0,1,237.245,372.057Z" transform="translate(-119.564 -163.583)" fill="#19303f"/>
      <g id="Group_76" data-name="Group 76" transform="translate(2.843 105.352)">
        <path id="Path_400" data-name="Path 400" d="M201.606,267.734v42.643a19.8,19.8,0,0,0,19.8,19.8h0a19.8,19.8,0,0,0,19.8-19.8V267.734Z" transform="translate(-146.875 -247.163)" fill="#fa9e3e"/>
        <path id="Path_401" data-name="Path 401" d="M98.551,224H121.77v26.625H98.551a13.312,13.312,0,0,1,0-26.625Z" transform="translate(-85.239 -223.996)" fill="#fa9e3e"/>
        <path id="Path_402" data-name="Path 402" d="M347.71,224H324.491v26.625H347.71a13.312,13.312,0,0,0,0-26.625Z" transform="translate(-211.964 -223.996)" fill="#fa9e3e"/>
      </g>
      <path id="Path_403" data-name="Path 403" d="M237.048,132.022v29.783c0,29.143-23.4,53.2-52.545,53.3a52.728,52.728,0,0,1-52.91-52.727v-20.6a1.063,1.063,0,0,1,.63-.964c12.759-5.827,17.016-20.946,18.141-31.771.24-2.335.334-4.469.337-6.268a1.056,1.056,0,0,1,1.846-.7c1.486,1.665,3.8,4.128,6.819,6.965,13.936,13.092,43.017,34.186,76.269,21.984A1.055,1.055,0,0,1,237.048,132.022Z" transform="translate(-106.948 -53.879)" fill="#ffb56b"/>
      <path id="Path_404" data-name="Path 404" d="M225.074,272.859a19.361,19.361,0,0,1-15.912-8.343,3.528,3.528,0,0,1,5.8-4.017,12.291,12.291,0,0,0,20.225,0,3.528,3.528,0,0,1,5.8,4.017A19.364,19.364,0,0,1,225.074,272.859Z" transform="translate(-147.702 -137.174)" fill="#19303f"/>
      <path id="Path_405" data-name="Path 405" d="M282.27,200.259a47.242,47.242,0,0,1-44.583,47.166h0q.7.037,1.4.056h.009q.707.019,1.418.019h0q2,0,3.972-.148l.2-.016q1.2-.095,2.389-.242a52.737,52.737,0,0,0,46.163-52.321V162.886a60.629,60.629,0,0,1-10.972,3.188v34.185h0Z" transform="translate(-163.143 -86.276)" fill="#ef9245"/>
      <g id="Group_77" data-name="Group 77" transform="translate(48.296 101.576)">
        <path id="Path_406" data-name="Path 406" d="M294.05,223.964a3.527,3.527,0,0,1-3.527-3.527V219.5a3.527,3.527,0,0,1,7.055,0v.941A3.527,3.527,0,0,1,294.05,223.964Z" transform="translate(-239.425 -215.968)" fill="#19303f"/>
        <path id="Path_407" data-name="Path 407" d="M185.406,223.964a3.527,3.527,0,0,1-3.527-3.527V219.5a3.527,3.527,0,0,1,7.055,0v.941A3.528,3.528,0,0,1,185.406,223.964Z" transform="translate(-181.879 -215.968)" fill="#19303f"/>
      </g>
      <path id="Path_408" data-name="Path 408" d="M151.28,423.232a10.327,10.327,0,1,0,10.328,10.327A10.34,10.34,0,0,0,151.28,423.232Z" transform="translate(-111.905 -224.174)" fill="#78d6d1"/>
      <path id="Path_409" data-name="Path 409" d="M231.766,407.717l-10.6,7.372a14.685,14.685,0,0,0,21.2,0Z" transform="translate(-154.393 -215.956)" fill="#304a56"/>
      <g id="Group_78" data-name="Group 78" transform="translate(68.084 201.419)">
        <path id="Path_410" data-name="Path 410" d="M233.24,432.239a14.672,14.672,0,0,1-4.415-.677l-4.874,37.832h18.577l-4.874-37.832A14.669,14.669,0,0,1,233.24,432.239Z" transform="translate(-223.951 -430.006)" fill="#3d5868"/>
        <path id="Path_411" data-name="Path 411" d="M324.252,457.786H322.54a3.528,3.528,0,0,1-1.816-6.552v-10.1a5.823,5.823,0,0,0-11.646,0v10.1a3.528,3.528,0,0,1-1.816,6.552H305.55a3.527,3.527,0,0,1-3.527-3.527V441.13a12.878,12.878,0,0,1,25.755,0v13.128A3.527,3.527,0,0,1,324.252,457.786Z" transform="translate(-265.304 -428.253)" fill="#3d5868"/>
      </g>
    </g>
  </g>
</svg>
