<svg xmlns="http://www.w3.org/2000/svg" width="325.779" height="236.391" viewBox="0 0 325.779 236.391">
  <g id="Group_84" data-name="Group 84" transform="translate(-1282 -8577.595)">
    <path id="Path_392" data-name="Path 392" d="M28.9,0H296.879a28.9,28.9,0,0,1,28.9,28.9V159.605a28.9,28.9,0,0,1-28.9,28.9H28.9A28.9,28.9,0,0,1,0,159.605V28.9A28.9,28.9,0,0,1,28.9,0Z" transform="translate(1282 8625.481)" fill="#f1b05b"/>
    <g id="pills" transform="translate(1338.842 8577.596)">
      <circle id="Ellipse_81" data-name="Ellipse 81" cx="6.861" cy="6.861" r="6.861" transform="translate(90.195 178.824)" fill="#7fdbd5"/>
      <g id="Group_79" data-name="Group 79" transform="translate(99.024 149.241)">
        <circle id="Ellipse_82" data-name="Ellipse 82" cx="6.528" cy="6.528" r="6.528" transform="translate(20.241 37.787)" fill="#38648c"/>
        <circle id="Ellipse_83" data-name="Ellipse 83" cx="6.528" cy="6.528" r="6.528" fill="#38648c"/>
      </g>
      <circle id="Ellipse_84" data-name="Ellipse 84" cx="8.228" cy="8.228" r="8.228" transform="translate(122.508 159.72)" fill="#7fdbd5"/>
      <circle id="Ellipse_85" data-name="Ellipse 85" cx="8.814" cy="8.814" r="8.814" transform="translate(96.739 204.905)" fill="#f28b74"/>
      <path id="Path_412" data-name="Path 412" d="M155.417,74.684l-29.86,26.591,37.829,42.48,29.86-26.591a28.441,28.441,0,0,0,2.325-40.154h0A28.441,28.441,0,0,0,155.417,74.684Z" transform="translate(-86.17 -38.152)" fill="#7fdbd5"/>
      <path id="Path_413" data-name="Path 413" d="M44.464,171.823l29.86-26.591,37.829,42.48L82.293,214.3a28.441,28.441,0,0,1-40.154-2.325h0A28.441,28.441,0,0,1,44.464,171.823Z" transform="translate(-34.937 -82.109)" fill="#287d99"/>
      <path id="Path_414" data-name="Path 414" d="M144.466,77.014a28.381,28.381,0,0,0-22.5-9.5,28.367,28.367,0,0,0,3.053,23.413l9.417,15.084a6.145,6.145,0,0,1-1.262,7.969c-17.619,14.722-40.154,30.61-51.94,35.439-18.024,7.384-33.772-11.3-31.23-26.371l-5.094,4.536c-11.673,10.4-13.134,28.346-2.891,40.153a28.441,28.441,0,0,0,40.4,2.609l59.721-53.182a28.441,28.441,0,0,0,2.325-40.154Z" transform="translate(-35.065 -38.157)" opacity="0.1"/>
      <path id="Path_415" data-name="Path 415" d="M253.059,43.506l21.174,33.917L322.484,47.3,301.31,13.383a28.441,28.441,0,0,0-39.187-9.064h0A28.441,28.441,0,0,0,253.059,43.506Z" transform="translate(-155.813 0)" fill="#76b7eb"/>
      <path id="Path_416" data-name="Path 416" d="M328.568,172.869l-21.174-33.917,48.251-30.122,21.174,33.917a28.441,28.441,0,0,1-9.064,39.187h0A28.441,28.441,0,0,1,328.568,172.869Z" transform="translate(-188.974 -61.528)" fill="#d1eff2"/>
      <path id="Path_417" data-name="Path 417" d="M334.594,125.909a28.662,28.662,0,0,0,3.58-2.643c-33.811-4.969-77.888-85.681-75.9-113.53-.049.03-.1.057-.148.087h0a28.441,28.441,0,0,0-9.064,39.187l42.348,67.835a28.441,28.441,0,0,0,39.187,9.064Z" transform="translate(-155.813 -5.504)" opacity="0.1"/>
      <path id="Path_418" data-name="Path 418" d="M145.245,285.043l34.628,14.343a2.5,2.5,0,0,0,3.27-1.355L203,250.1a2.5,2.5,0,0,0-1.355-3.27l-34.628-14.343a28.441,28.441,0,0,0-37.16,15.392h0A28.441,28.441,0,0,0,145.245,285.043Z" transform="translate(-87.371 -130.214)" fill="#f28b74"/>
      <path id="Path_419" data-name="Path 419" d="M183.144,308.142l4.889-11.8c-40.9-7.784-54.631-31.954-51.43-48.138a28.323,28.323,0,0,0-6.749,9.792h0a28.441,28.441,0,0,0,15.392,37.16L179.874,309.5A2.5,2.5,0,0,0,183.144,308.142Z" transform="translate(-87.372 -140.324)" opacity="0.1"/>
      <path id="Path_420" data-name="Path 420" d="M359.461,285.043l-34.628,14.343a2.5,2.5,0,0,1-3.27-1.355L301.711,250.1a2.5,2.5,0,0,1,1.355-3.27l34.628-14.343a28.441,28.441,0,0,1,37.16,15.392h0A28.441,28.441,0,0,1,359.461,285.043Z" transform="translate(-185.654 -130.214)" fill="#76b7eb"/>
    </g>
  </g>
</svg>
