<svg xmlns="http://www.w3.org/2000/svg" width="330" height="248.122" viewBox="0 0 330 248.122">
  <g id="Group_82" data-name="Group 82" transform="translate(-140 -8558.37)">
    <path id="Path_392" data-name="Path 392" d="M29.274,0H300.726A29.274,29.274,0,0,1,330,29.274v132.4a29.274,29.274,0,0,1-29.274,29.274H29.274A29.274,29.274,0,0,1,0,161.673V29.274A29.274,29.274,0,0,1,29.274,0Z" transform="translate(140 8607.357)" fill="#f1b05b"/>
    <g id="_011---Microscope-DNA" data-name="011---Microscope-DNA" transform="translate(244.294 8558.37) rotate(16)">
      <path id="Shape" d="M99.277,94.428l-4.849,4.849a6.878,6.878,0,0,1-9.733,0L77.4,91.986l-2.442,2.442a3.439,3.439,0,0,1-4.884,0c-15.442-15.3-36.8-36.524-58.466-58.466a3.439,3.439,0,0,1,0-4.884l2.442-2.442L2.017,16.6a6.878,6.878,0,0,1,0-9.733L6.867,2.017a6.878,6.878,0,0,1,9.733,0l12.14,12.14,2.442-2.442a3.439,3.439,0,0,1,4.884,0L94.531,70.182a3.439,3.439,0,0,1,0,4.884l-2.442,2.442L99.38,84.8a6.878,6.878,0,0,1-.1,9.63Z" transform="translate(0 0)" fill="#7f8c8d"/>
      <path id="Shape-2" data-name="Shape" d="M11.373,0a75.868,75.868,0,0,0,15.3,97.707L38.612,80.717A55.405,55.405,0,0,1,23.238,23.111L37.82,5.537Z" transform="translate(17.194 52.917)" fill="#285680"/>
      <path id="Shape-3" data-name="Shape" d="M17.2,0h123.81a17.2,17.2,0,0,1,17.2,17.2V27.513H0V17.2A17.2,17.2,0,0,1,17.2,0Z" transform="translate(24.062 171.947)" fill="#3b97d3"/>
      <path id="Shape-4" data-name="Shape" d="M41.27,45.879H0V39A41.27,41.27,0,0,1,25.381.894,11.452,11.452,0,0,1,41.27,11.487Z" transform="translate(41.258 126.068)" fill="#2980ba"/>
      <path id="Shape-5" data-name="Shape" d="M175.4,6.878H3.439A3.439,3.439,0,1,1,3.439,0H175.4a3.439,3.439,0,1,1,0,6.878Z" transform="translate(13.745 196.021)" fill="#35495e"/>
      <path id="Shape-6" data-name="Shape" d="M42.508,6.878H3.439A3.439,3.439,0,0,1,3.439,0H42.508a3.439,3.439,0,1,1,0,6.878Z" transform="translate(111.142 55.015)" fill="#4fba6f"/>
      <path id="Shape-7" data-name="Shape" d="M43.4,6.878H3.439A3.439,3.439,0,1,1,3.439,0H43.4a3.439,3.439,0,0,1,0,6.878Z" transform="translate(110.695 24.062)" fill="#fb7b76"/>
      <path id="Shape-8" data-name="Shape" d="M43.4,6.878H3.439A3.439,3.439,0,1,1,3.439,0H43.4a3.439,3.439,0,0,1,0,6.878Z" transform="translate(110.695 120.359)" fill="#4482c3"/>
      <path id="Shape-9" data-name="Shape" d="M51.588,6.878H3.439A3.439,3.439,0,0,1,3.439,0H51.588a3.439,3.439,0,0,1,0,6.878Z" transform="translate(106.602 72.211)" fill="#955ba5"/>
      <path id="Shape-10" data-name="Shape" d="M41.476,6.878H3.439A3.439,3.439,0,0,1,3.439,0H41.476a3.439,3.439,0,1,1,0,6.878Z" transform="translate(111.658 89.407)" fill="#e57e25"/>
      <g id="Group_74" data-name="Group 74" transform="translate(106.602 10.357)">
        <path id="Shape-11" data-name="Shape" d="M26.894,67.889C11.556,65.344,0,50.865,0,33.979S11.487,2.614,26.757.069A4.746,4.746,0,0,0,27.513,0h.55C43.437,2.442,55.027,17.2,55.027,33.945s-11.556,31.4-26.894,33.945a2.992,2.992,0,0,1-1.238,0Zm.619-61.011C15.717,9.045,6.878,20.635,6.878,33.945s8.839,24.9,20.635,27.066c11.8-2.167,20.635-13.757,20.635-27.066S39.31,9.079,27.513,6.878Z" transform="translate(0 30.901)" fill="#de7c0a"/>
        <path id="Shape-12" data-name="Shape" d="M26.533,37.779C11.3,34.925,1.6,19.414.017,3.8A3.456,3.456,0,1,1,6.9,3.113c1.272,12.278,8.6,25.175,20.36,27.788C39.018,28.322,46.343,15.39,47.615,3.113a3.456,3.456,0,0,1,6.878.688C52.877,19.793,42.9,35.063,27.943,37.779A3.164,3.164,0,0,1,26.533,37.779Z" transform="translate(0.327 0)" fill="#de7c0a"/>
        <path id="Shape-13" data-name="Shape" d="M51.02,37.9a3.439,3.439,0,0,1-3.439-3.1C46.343,22.419,38.949,9.557,27.256,6.943,15.528,9.557,8.2,22.35,6.9,34.731a3.456,3.456,0,1,1-6.878-.688C1.634,18.017,11.607,2.85,26.533.065a3.164,3.164,0,0,1,1.272,0C43.076,2.85,52.774,18.43,54.356,34.044A3.439,3.439,0,0,1,51.02,37.9Z" transform="translate(0.258 92.742)" fill="#de7c0a"/>
      </g>
      <path id="Shape-14" data-name="Shape" d="M59.38,83.832a3.439,3.439,0,0,0,4.884,0L83.729,64.367a3.439,3.439,0,0,0,0-4.884L25.263,1.017a3.439,3.439,0,0,0-4.884,0L1.017,20.586a3.439,3.439,0,0,0,0,4.884Z" transform="translate(10.698 10.595)" fill="#3b97d3"/>
      <circle id="Oval" cx="15.476" cy="15.476" r="15.476" transform="translate(40.02 57.044)" fill="#35495e"/>
      <path id="Rectangle-path" d="M0,0H48.148V20.635H0Z" transform="translate(110.042 151.312)" fill="#285680"/>
      <rect id="Rectangle-path-2" data-name="Rectangle-path" width="69.194" height="13.972" rx="1" transform="translate(99.629 137.485)" fill="#35495e"/>
      <ellipse id="Oval-2" data-name="Oval" cx="3.659" cy="3.327" rx="3.659" ry="3.327" transform="translate(58.379 144.803)" fill="#3b97d3"/>
    </g>
  </g>
</svg>
