<svg xmlns="http://www.w3.org/2000/svg" width="199.397" height="209.091" viewBox="0 0 199.397 209.091">
  <g id="red_character" data-name="red character" transform="translate(-0.052 9.888) rotate(-9)">
    <g id="body" transform="translate(0 0)">
      <g id="main_body" data-name="main body" transform="translate(0.125 52.244)">
        <path id="Path_10036" data-name="Path 10036" d="M78.455.366C62.653,3.2,47.217,8.632,34.018,17.72S9.95,39.642,4.789,54.8C.907,66.085.222,78.187.04,90.107c-.137,7.581-.046,15.345,2.375,22.515,3.836,11.509,13.381,20.46,24.251,25.849s22.972,7.627,35.029,9.043a299.7,299.7,0,0,0,38.408,1.918c20.688-.365,43.34-3.928,57.133-19.41,8.4-9.5,12.285-22.378,12.6-35.074s-2.649-25.21-6.576-37.266c-5.617-17.354-13.975-34.983-29.274-44.848-7.809-5.069-16.9-7.672-25.849-10.23C94.393-1.37,79.414.046,73.477,1.371" transform="translate(0 0)" fill="#d93b39"/>
      </g>
      <g id="main_body-2" data-name="main body" transform="translate(0.125 52.129)">
        <path id="Path_10037" data-name="Path 10037" d="M78.455.344C62.653,3.175,47.217,8.61,34.018,17.7S9.95,39.665,4.789,54.828C.907,66.062.222,78.165.04,90.085-.1,97.666-.006,105.43,2.415,112.6c3.836,11.509,13.381,20.46,24.251,25.895s22.972,7.581,35.029,9A283.971,283.971,0,0,0,100.1,149.41c20.688-.365,43.34-3.928,57.133-19.41,8.4-9.5,12.285-22.378,12.6-35.074s-2.649-25.21-6.576-37.266c-5.617-17.354-13.975-34.983-29.274-44.848-7.809-5.024-16.9-7.673-25.849-10.23C94.393-1.392,79.414.07,73.477,1.394" transform="translate(0 0)" fill="#c2222d"/>
      </g>
      <path id="shadow" d="M0,0S12.468,18.542,46.948,29.594c23.977,7.718,58.5,14.8,106.867-3.014,0,0-2.42,12.285-41.514,17.811-22.332,3.106-63.938.959-87.914-10C6.394,26.123,2.74,11.006,0,0Z" transform="translate(1.124 155.001)" fill="#a82443"/>
      <g id="Highlight" transform="translate(65.071 62.821)">
        <path id="Path_10038" data-name="Path 10038" d="M29.356,44.912A36.992,36.992,0,0,0,17.847,33.084c-3.38-2.192-7.17-3.836-10.5-6.12s-6.3-5.526-7.124-9.5C-.923,11.985,2.548,6.276,7.343,3.353S18.03-.118,23.693.019A70.925,70.925,0,0,1,89.274,49.571a36.945,36.945,0,0,1,1.964,13.7,18.54,18.54,0,0,1-5.663,12.376A18.5,18.5,0,0,1,78.542,79.3C70.5,81.494,61.736,78.891,54.977,74s-11.828-11.737-16.3-18.77a31.512,31.512,0,0,0-8.632-9.271" transform="translate(0 0)" fill="#e07c7c"/>
        <path id="Path_10039" data-name="Path 10039" d="M1.009.459C-.5,1.92-.178,4.523,1.055,6.213s3.2,2.6,5.069,3.517c5.389,2.6,10.869,5.252,16.806,6.165a46.311,46.311,0,0,1,7.535,1.233c2.421.776,5.435,2.832,8.4,3.425a1.735,1.735,0,0,0,1.279-.046,1.461,1.461,0,0,0,.594-1.69,4.476,4.476,0,0,0-1.142-1.6A61.289,61.289,0,0,0,4.526.139c-1.461-.183-3.06-.32-4.293.5" transform="translate(27.433 1.159)" fill="#fff"/>
        <path id="Path_10040" data-name="Path 10040" d="M2.659.365c3.425.046,6.394,2.329,8.906,4.658a9.683,9.683,0,0,1,1.827,2.055,8.54,8.54,0,0,1,1,3.106,3.608,3.608,0,0,1-.091,2.192,1.447,1.447,0,0,1-1.735.913c-.639-.274-.868-.959-1.1-1.6A16.02,16.02,0,0,0,7.911,6.668C6.5,5.161,5.49,4.11,3.846,3.608L1.654,3.06a2.375,2.375,0,0,1-1.6-1.416A1.255,1.255,0,0,1,1.06,0" transform="translate(69.672 27.193)" fill="#fff"/>
      </g>
      <ellipse id="highlight-2" data-name="highlight" cx="2.74" cy="10.093" rx="2.74" ry="10.093" transform="translate(30.325 187.43) rotate(-69.2)" fill="#e07c7c"/>
      <ellipse id="highlight-3" data-name="highlight" cx="1.184" cy="3.507" rx="1.184" ry="3.507" transform="translate(53.407 193.694) rotate(-68.839)" fill="#e07c7c"/>
      <g id="left_circle" data-name="left circle" transform="translate(0)">
        <ellipse id="Ellipse_129" data-name="Ellipse 129" cx="31.603" cy="30.279" rx="31.603" ry="30.279" transform="matrix(1, -0.005, 0.005, 1, 0, 0.331)" fill="#ef48a0"/>
        <ellipse id="Ellipse_130" data-name="Ellipse 130" cx="31.603" cy="30.279" rx="31.603" ry="30.279" transform="matrix(1, -0.005, 0.005, 1, 0, 0.331)" fill="#c2222d"/>
        <path id="Path_10041" data-name="Path 10041" d="M2.012,12.27A2.673,2.673,0,0,1,0,9.621a4.85,4.85,0,0,1,1.37-3.243,27.443,27.443,0,0,1,2.695-2.42A17.962,17.962,0,0,1,7.081,1.446,9.956,9.956,0,0,1,10.506.4,30.964,30.964,0,0,1,43.388,17.659a15.938,15.938,0,0,1,1.735,5.891,8.038,8.038,0,0,1-1.69,5.754,6.8,6.8,0,0,1-7.353,2.055,12.194,12.194,0,0,1-2.969-1.781c-3.973-3.06-7.307-6.9-11.463-9.728A58.776,58.776,0,0,0,14.982,16.2c-4.2-2.055-8.586-4.156-13.244-3.973" transform="translate(15.964 6.042)" fill="#e07c7c"/>
        <g id="shadow-2" data-name="shadow" transform="translate(1.814 27.811)">
          <path id="Path_10042" data-name="Path 10042" d="M1.045.5C-.69,4.065-.051,8.358,1.41,12.011a28.224,28.224,0,0,0,5.48,8.677,12.331,12.331,0,0,0,3.562,2.786,14.934,14.934,0,0,0,4.065,1.187A139.79,139.79,0,0,0,31.324,27.31a33.465,33.465,0,0,0,13.29-1.142A21.876,21.876,0,0,0,58.041,13.016c-2.283.868-3.928,2.74-5.8,4.293a26.44,26.44,0,0,1-14.98,5.754,40.082,40.082,0,0,1-16.03-2.42c-3.654-1.233-7.307-2.969-9.728-5.937S8.352,8.358,8.124,4.8a3.745,3.745,0,0,0-.365-1.872,3.288,3.288,0,0,0-1.1-1.142A10.093,10.093,0,0,0,1.73,0" transform="translate(0)" fill="#a82443"/>
        </g>
        <g id="highlight-4" data-name="highlight" transform="translate(26.522 4.901)">
          <path id="Path_10043" data-name="Path 10043" d="M6.48,6.972a7.855,7.855,0,0,1-5.3-2.055C.314,4.095-.371,2.77.223,1.72S1.73.669,2.644.487A23.4,23.4,0,0,1,11,.3,21.659,21.659,0,0,1,17.623,3a17.255,17.255,0,0,1,5.435,3.973,6.128,6.128,0,0,1,1.05,6.348,1.37,1.37,0,0,1-.639.776,1.735,1.735,0,0,1-.959.183c-3.654-.137-6.211-3.425-9.317-5.343A13.381,13.381,0,0,0,6.48,6.972" transform="translate(0 0)" fill="#fff"/>
        </g>
        <g id="highlight-5" data-name="highlight" transform="translate(53.477 18.495)">
          <path id="Path_10044" data-name="Path 10044" d="M1.358.1a2.421,2.421,0,0,1,2.1.365,4.2,4.2,0,0,1,1.416,1.69A3.38,3.38,0,0,1,5.24,4.344a1.918,1.918,0,0,1-1.461,1.6,2.512,2.512,0,0,1-1.644-.5A4.978,4.978,0,0,1,.171,2.7,2.421,2.421,0,0,1,.079,1.193,1.461,1.461,0,0,1,1.13.143" transform="translate(0.224 0.223)" fill="#fff"/>
          <path id="Path_10045" data-name="Path 10045" d="M1.628.548a2.592,2.592,0,0,1,2.74,1.1A3.759,3.759,0,0,1,5.236,4.7a1.873,1.873,0,0,1-.822,1.05,1.6,1.6,0,0,1-1.507-.046A4.293,4.293,0,0,1,.9,3.608C.441,2.694.075.913,1.445.594c.274-.046.137-.5-.137-.411a1.507,1.507,0,0,0-1.142,1A2.649,2.649,0,0,0,.212,3.151,5.206,5.206,0,0,0,2.4,5.983a2.512,2.512,0,0,0,1.781.365,2.01,2.01,0,0,0,1.233-.959,3.562,3.562,0,0,0-.411-3.608A3.313,3.313,0,0,0,1.537.091c-.274.091-.183.548.091.457Z" transform="translate(0 0)" fill="#fff"/>
        </g>
      </g>
      <g id="middle_circle" data-name="middle circle" transform="translate(90.268 14.266)">
        <path id="Path_10046" data-name="Path 10046" d="M11.009.256c-4.11,1-7.4,4.384-9.134,8.312S-.134,16.879.049,21.127a11.126,11.126,0,0,0,1.187,5.161C2.652,28.662,5.529,29.8,8.224,30.4a36.307,36.307,0,0,0,10.184.868,13.153,13.153,0,0,0,5.161-1A12.61,12.61,0,0,0,28.5,26.013c2.923-4.065,4.339-9.5,2.649-14.249-1.187-3.2-3.608-5.754-6.165-8.038a13.016,13.016,0,0,0-3.471-2.375A14.432,14.432,0,0,0,17.54.393,21.779,21.779,0,0,0,11.1.164" transform="translate(0 0)" fill="#ef48a0"/>
        <path id="Path_10047" data-name="Path 10047" d="M11.009.22C6.9,1.27,3.611,4.65,1.875,8.532S-.134,16.844.049,21.137a10.942,10.942,0,0,0,1.187,5.115c1.416,2.42,4.293,3.517,6.987,4.156a36.308,36.308,0,0,0,10.184.868,15.026,15.026,0,0,0,5.161-1A13.4,13.4,0,0,0,28.5,26.023c2.923-4.065,4.339-9.545,2.649-14.249-1.187-3.2-3.608-5.8-6.165-8.038a12.194,12.194,0,0,0-3.471-2.42A14.386,14.386,0,0,0,17.54.4,20.343,20.343,0,0,0,11.1.174" transform="translate(0 0.036)" fill="#c2222d"/>
        <path id="Path_10048" data-name="Path 10048" d="M.732,5.318A1.187,1.187,0,0,1,0,4.176,2.649,2.649,0,0,1,.5,2.761l1-1.05A8.588,8.588,0,0,1,2.65.614,4.8,4.8,0,0,1,3.928.157a10.413,10.413,0,0,1,7.307,1.416c1.187.685,7.079,4.8,9.271,8.495S20.735,16,20.1,16.416c-1.507.913-7.261-3.288-7.627-3.608-1.507-1.324-2.74-2.969-4.293-4.2a29.827,29.827,0,0,0-2.558-1.6C4.065,6.14,2.376,5.227.64,5.272" transform="translate(8.725 2.473)" fill="#e07c7c"/>
        <path id="Path_10049" data-name="Path 10049" d="M.378.536a1.918,1.918,0,0,1,1.69-.5,4.887,4.887,0,0,1,1.69.685A10.23,10.23,0,0,1,6.087,2.363,4.293,4.293,0,0,1,7.366,4.921a.822.822,0,0,1-.091.457.548.548,0,0,1-.548.228A2.877,2.877,0,0,1,4.58,4.692c-.594-.594-1.05-1.279-1.6-1.918A3.06,3.06,0,0,0,.926,1.587C.561,1.541.1,1.541.013,1.176S.333.582.7.491" transform="translate(15.015 3.51)" fill="#fff"/>
        <path id="Path_10050" data-name="Path 10050" d="M.794.873c1-.959,2.466-.091,3.471.457A6.57,6.57,0,0,1,7,3.842a2.74,2.74,0,0,1,.274.868c.091.228.183.685-.091.822A2.719,2.719,0,0,1,5.5,5.166C5.087,4.892,3.9,3.2,2.94,2.38a3.151,3.151,0,0,0-1.6-.822A1.324,1.324,0,0,1,.52,1.421C.246,1.193.794.965.976.919S1.113.371.839.462-.3,1.1.109,1.65a.959.959,0,0,0,.639.32,3.151,3.151,0,0,1,1.1.228c1.461.639,2.009,2.329,3.243,3.243a2.877,2.877,0,0,0,1.964.594.868.868,0,0,0,.685-.411,1.69,1.69,0,0,0,.046-.959,5.614,5.614,0,0,0-2.74-3.38C3.808.508,1.8-.725.474.554a.228.228,0,1,0,.32.32Z" transform="translate(14.783 3.31)" fill="#fff"/>
        <path id="Path_10051" data-name="Path 10051" d="M.333.393A5.435,5.435,0,0,1,1.886,1.717c.365.5.913,1.187.594,1.827H2.89l-.639-.959a6.8,6.8,0,0,0-.685-.913C1.2,1.306.607.987.47.393S-.078.256.013.53A5.421,5.421,0,0,0,1.155,1.9a5.025,5.025,0,0,1,.639.822l.685,1.1c.091.091.32.137.411,0A3.8,3.8,0,0,0,2.342,1.58,5.3,5.3,0,0,0,.561.028C.287-.109.059.3.333.393Z" transform="translate(24.788 9.682)" fill="#fff"/>
        <path id="Path_10052" data-name="Path 10052" d="M.046.076A13.016,13.016,0,0,1,4.247.3,7.079,7.079,0,0,1,7.9,2.314,13.059,13.059,0,0,1,9.18,4.141a16.076,16.076,0,0,0,2.512,3.288,7.992,7.992,0,0,0,3.471,2.1l2.055.274,1.644.091c1.644.137,3.38.274,4.841-.548-2.284.913-3.928,3.06-6.257,3.745a9.538,9.538,0,0,1-4.932-.228,13.975,13.975,0,0,1-4.2-1.69A20.415,20.415,0,0,1,4.75,8.159a6.532,6.532,0,0,1-.868-1.1c-.228-.411-.365-.868-.548-1.279a4.11,4.11,0,0,0-1.05-1.461c-.32-.365-.731-.639-1.05-1A4.384,4.384,0,0,1,.639,2.085,7.717,7.717,0,0,1,0,.03" transform="translate(2.743 14.018)" fill="#a82443"/>
      </g>
      <g id="right_circle" data-name="right circle" transform="translate(132.504 52.262)">
        <g id="ear" transform="translate(0 0)">
          <path id="Path_10053" data-name="Path 10053" d="M.742,12.268C2.843,5.691,9.237.9,16.133.12a22.122,22.122,0,0,1,18.5,7.4c4.613,5.115,6.576,12.331,3.288,17.948a14.432,14.432,0,0,1-3.973,4.339,21.647,21.647,0,0,1-22.561,1.872A21.7,21.7,0,0,1,.012,12.131" transform="translate(0 0)" fill="#ef48a0"/>
        </g>
        <g id="ear-2" data-name="ear" transform="translate(0 0)">
          <path id="Path_10054" data-name="Path 10054" d="M.742,12.268C2.843,5.691,9.237.9,16.133.12a22.122,22.122,0,0,1,18.5,7.4c4.613,5.115,6.576,12.331,3.288,17.948a14.432,14.432,0,0,1-3.973,4.339,21.647,21.647,0,0,1-22.561,1.872A21.7,21.7,0,0,1,.012,12.131" transform="translate(0 0)" fill="#c2222d"/>
        </g>
        <path id="Path_10055" data-name="Path 10055" d="M5.46,3.037l-4.7.183a1.05,1.05,0,0,1-.548-.091c-.274-.183-.228-.548-.137-.822C.527,1.028,2.08.571,3.4.388A43.943,43.943,0,0,1,7.789.069c3.608-.137,7.353-.228,10.55,1.37a13.783,13.783,0,0,1,6.668,9.088,7.307,7.307,0,0,1,.137,3.151,3.836,3.836,0,0,1-1.735,2.6c-1.553.913-3.654.228-4.978-1A21.557,21.557,0,0,1,15.37,10.8a21.239,21.239,0,0,0-3.06-3.882C10.164,4.681,7.241,2.855,4.181,3.174" transform="translate(9.257 2.974)" fill="#e07c7c"/>
        <path id="Path_10056" data-name="Path 10056" d="M0,.211A7.444,7.444,0,0,1,5.3.9a22.515,22.515,0,0,1,4.43,3.06,3.654,3.654,0,0,1,.822.868A1.05,1.05,0,0,1,10.6,5.965c-.32.548-1.142.5-1.735.228C7.124,5.28,6.531,3,4.841,1.946S1.507,1.352.137.393" transform="translate(20.243 4.522)" fill="#fff"/>
        <path id="Path_10057" data-name="Path 10057" d="M.286.676a7.4,7.4,0,0,1,5.389.776A16.029,16.029,0,0,1,8.05,2.959,26.669,26.669,0,0,1,10.242,4.74a1.233,1.233,0,0,1,.5,1.187.776.776,0,0,1-.822.5A2.786,2.786,0,0,1,8.142,5.38c-.959-1-1.507-2.375-2.695-3.2S1.976,1.452.515.4A.247.247,0,0,0,.241.813C1.748,1.863,3.712,1.5,5.173,2.5S7.045,5.06,8.187,6.065a2.512,2.512,0,0,0,1.964.776A1.142,1.142,0,0,0,11.11,5.2a2.557,2.557,0,0,0-.822-1.05L9.1,3.188c-.822-.639-1.644-1.233-2.512-1.781A8.633,8.633,0,0,0,.149.219C-.125.31.012.721.286.676Z" transform="translate(20.003 4.285)" fill="#fff"/>
        <path id="Path_10058" data-name="Path 10058" d="M.548,5.929A8.4,8.4,0,0,0,3.425,3.144,8.141,8.141,0,0,1,4.932.951,5.219,5.219,0,0,1,8.495.038,4.612,4.612,0,0,1,10.55.769,4.156,4.156,0,0,1,11.6,2.048c1.142,2.009.868,4.476.959,6.8a18.862,18.862,0,0,0,1.1,5.48,4.8,4.8,0,0,0,1.279,2.192,4.293,4.293,0,0,0,3.014,1.05,12.7,12.7,0,0,0,3.2-.548l4.247-1.142a3.084,3.084,0,0,1-1.416,2.146,11.238,11.238,0,0,1-5.617,2.649,18.317,18.317,0,0,1-2.74-.046A7.119,7.119,0,0,1,11.737,19.4a8.219,8.219,0,0,1-1.37-1.69A50.327,50.327,0,0,0,0,6.295" transform="translate(9.785 10.677)" fill="#a82443"/>
      </g>
    </g>
    <g id="Face" transform="translate(25.557 85.401)">
      <g id="Cheek" transform="translate(13.29 54.256)">
        <ellipse id="Ellipse_131" data-name="Ellipse 131" cx="10.732" cy="6.165" rx="10.732" ry="6.165" transform="translate(0 1.324)" fill="#f377ba"/>
        <ellipse id="Ellipse_132" data-name="Ellipse 132" cx="10.732" cy="6.165" rx="10.732" ry="6.165" transform="translate(87.457 0)" fill="#f47fbe"/>
      </g>
      <g id="eye_Glasses" data-name="eye Glasses" transform="translate(0 0)">
        <circle id="Ellipse_133" data-name="Ellipse 133" cx="30.233" cy="30.233" r="30.233" transform="translate(0 2.375)" fill="#e2fcff" stroke="#000" stroke-miterlimit="10" stroke-width="3" opacity="0.52"/>
        <circle id="Ellipse_134" data-name="Ellipse 134" cx="30.233" cy="30.233" r="30.233" transform="translate(68.916)" fill="#e2fcff" stroke="#000" stroke-miterlimit="10" stroke-width="3" opacity="0.52"/>
        <g id="Group_132" data-name="Group 132" transform="translate(59.69 29.548)" opacity="0.52">
          <path id="Path_10059" data-name="Path 10059" d="M.685,1.37h8.54a.685.685,0,1,0,0-1.37H.685a.685.685,0,1,0,0,1.37Z"/>
        </g>
      </g>
      <g id="mouth" transform="translate(51.329 62.492)">
        <path id="Path_10060" data-name="Path 10060" d="M.183,2.245C.457.738,2.192-.084,3.7.007A13.815,13.815,0,0,1,8.038,1.423,23.612,23.612,0,0,0,22.332,2.747C25.484,2.016,28.544.692,31.74.692A3.471,3.471,0,0,1,33.8,1.1a3.534,3.534,0,0,1,1.324,2.74c.32,3.562-1.872,6.8-3.928,9.728s-3.608,4.978-6.257,6.485-5.709,1.735-8.677,1.69a15.607,15.607,0,0,1-6.85-1.187,14.469,14.469,0,0,1-6.85-7.581A44.606,44.606,0,0,1,0,2.838" transform="translate(0.232 0.252)" fill="#541339"/>
        <path id="Path_10061" data-name="Path 10061" d="M.6,2.542A3.011,3.011,0,0,1,3.337.487C4.524.35,6.4,1.081,7.767,1.72a24.661,24.661,0,0,0,9.225,2.055,23.567,23.567,0,0,0,4.75-.411,42.661,42.661,0,0,0,4.75-1.233,22.06,22.06,0,0,1,4.887-.959,4.385,4.385,0,0,1,2.283.274A2.238,2.238,0,0,1,34.895,3a7.4,7.4,0,0,1-.137,4.339,18.36,18.36,0,0,1-2.009,4.156c-.822,1.279-1.735,2.512-2.649,3.7a22.837,22.837,0,0,1-2.923,3.38,11.1,11.1,0,0,1-3.791,2.284,15.256,15.256,0,0,1-4.521.868,32.931,32.931,0,0,1-4.75-.046,13.792,13.792,0,0,1-4.658-1.233A13.427,13.427,0,0,1,3.7,14.6,29.109,29.109,0,0,1,.871,5.465L.46,3.044c-.046-.274-.5-.183-.457.137,1,6.074,2.283,12.97,7.718,16.761,2.695,1.872,5.983,2.283,9.18,2.283s6.439-.365,9.088-2.146,4.339-4.339,6.074-6.8,3.608-5.389,3.562-8.632a3.892,3.892,0,0,0-1.6-3.517A3.745,3.745,0,0,0,31.789.715a11.739,11.739,0,0,0-2.512.274c-1.69.32-3.334.868-5.024,1.324a23.2,23.2,0,0,1-5.024.913,23.429,23.429,0,0,1-9.865-1.37C6.808.944,3.565-1.249,1.054.944A2.558,2.558,0,0,0,.186,2.451.228.228,0,1,0,.6,2.542Z" transform="translate(0 0)" fill="#9f4068"/>
        <path id="Path_10062" data-name="Path 10062" d="M1.8.331A34.07,34.07,0,0,0,21.167.057c.228-.091.594-.091.639.137V.422C21.258,2.2,19.614,3.391,17.97,4.213A18.5,18.5,0,0,1,9.475,6.268,13.747,13.747,0,0,1,1.255,3.345,3.2,3.2,0,0,1,.067,1.838,1.438,1.438,0,0,1,.707.1,2.146,2.146,0,0,1,2.122.148L5.228.971" transform="translate(6.193 3.261)" fill="#fff"/>
        <path id="Path_10063" data-name="Path 10063" d="M2,.782A32.836,32.836,0,0,0,12.323,2.015a33.563,33.563,0,0,0,5.206-.548L20.087.919,21.275.554a1,1,0,0,1,.5-.091c.091.046.046,0,.046.137l-.137.32a6.529,6.529,0,0,1-3.06,3.014,18.359,18.359,0,0,1-4.75,1.872,15.117,15.117,0,0,1-9.819-.868A10.823,10.823,0,0,1,1.774,3.477C1.134,2.974.4,2.335.449,1.467A1.233,1.233,0,0,1,1,.554,1.92,1.92,0,0,1,2.413.645l3.014.776c.274.091.411-.365.137-.457L2.6.189C1.865.006.952-.222.4.463A1.735,1.735,0,0,0,.175,2.335a4.476,4.476,0,0,0,1.6,1.735,14.431,14.431,0,0,0,10,2.558,19.591,19.591,0,0,0,5.389-1.461,10.646,10.646,0,0,0,4.065-2.649,6.256,6.256,0,0,0,.685-.959,2.877,2.877,0,0,0,.365-1.05c.046-.913-1.324-.32-1.735-.228a29.776,29.776,0,0,1-5.617,1.1A34.206,34.206,0,0,1,3.509.691L2.139.371C1.819.28,1.728.737,2,.782Z" transform="translate(5.948 3.038)" fill="#fff"/>
        <path id="Path_10064" data-name="Path 10064" d="M0,3.787A7.531,7.531,0,0,1,6.165.042a18.733,18.733,0,0,1,7.4,1.279A5.6,5.6,0,0,1,16.3,2.828a1.461,1.461,0,0,1,.411,1.324c-.183.685-1,.959-1.69,1.142A29.092,29.092,0,0,1,.091,4.518" transform="translate(8.178 14.556)" fill="#d151aa"/>
        <path id="Path_10065" data-name="Path 10065" d="M.4,4.112A6.962,6.962,0,0,1,5.1.687a16.643,16.643,0,0,1,7.353.639A13.328,13.328,0,0,1,15.695,2.6a2.009,2.009,0,0,1,1,1.279c.137.548-.274.913-.731,1.142a6.713,6.713,0,0,1-1.6.365l-1.918.32a33.711,33.711,0,0,1-3.745.183A28.911,28.911,0,0,1,.35,4.477c-.274-.091-.411.365-.137.457A28.588,28.588,0,0,0,8.3,6.3a30.921,30.921,0,0,0,4.11-.137l1.964-.274a9.133,9.133,0,0,0,1.69-.457,1.827,1.827,0,0,0,1.05-.868,1.736,1.736,0,0,0-.274-1.507,5.657,5.657,0,0,0-2.923-1.735C11.356.5,8.57-.273,5.83.093S1.126,1.646.03,3.883C-.107,4.112.259,4.34.4,4.112Z" transform="translate(7.965 14.369)" fill="#d151aa"/>
      </g>
      <g id="eyes" transform="translate(24.616 13.255)">
        <g id="left_eye" data-name="left eye" transform="translate(0 3.288)">
          <g id="eye_outside" data-name="eye outside" transform="translate(0 0)">
            <path id="Path_10066" data-name="Path 10066" d="M0,31.758A113.854,113.854,0,0,1,1.6,12.029c.548-3.106,1.233-6.348,3.151-8.86S9.593-.667,12.287.338a7.5,7.5,0,0,1,3.334,2.969c2.695,4.11,3.2,9.225,3.608,14.066l1.233,14.386" transform="translate(0.226 0.2)" fill="#9f4068"/>
            <path id="Path_10067" data-name="Path 10067" d="M.457,31.958A120.337,120.337,0,0,1,1.37,16.75c.32-2.375.639-4.8,1.187-7.124A15.419,15.419,0,0,1,5.024,3.689,7.855,7.855,0,0,1,9.865.537,4.841,4.841,0,0,1,12.742.9a6.53,6.53,0,0,1,2.375,1.964C17.857,6.292,18.588,10.95,19,15.152c.5,4.978.868,9.91,1.279,14.888l.183,1.918a.228.228,0,1,0,.457,0c-.457-5.206-.868-10.413-1.324-15.619-.411-4.43-1-9.043-3.471-12.833C14.98,1.771,13.427.263,11.28.035A6.851,6.851,0,0,0,5.937,2a12.452,12.452,0,0,0-3.243,5.48,39.323,39.323,0,0,0-1.416,6.9A120.064,120.064,0,0,0,0,30.04v1.918a.228.228,0,1,0,.457,0Z" transform="translate(0 0)" fill="#631438"/>
          </g>
          <g id="eye_outside-2" data-name="eye outside" transform="translate(2.375 3.515)">
            <path id="Path_10068" data-name="Path 10068" d="M0,28.305A102.987,102.987,0,0,1,1.417,10.722c.457-2.786,1.1-5.663,2.786-7.9S8.5-.6,10.871.31a6.531,6.531,0,0,1,2.923,2.649c2.42,3.654,2.832,8.175,3.2,12.559l1.1,12.787" transform="translate(0.227 0.229)" fill="#541339"/>
            <path id="Path_10069" data-name="Path 10069" d="M.457,28.535a95.5,95.5,0,0,1,.822-13.518c.274-2.146.548-4.247,1-6.348A15.3,15.3,0,0,1,4.521,3.325,6.714,6.714,0,0,1,8.769.539,3.973,3.973,0,0,1,11.28.9,5.389,5.389,0,0,1,13.336,2.64c2.421,3.06,3.106,7.17,3.471,10.915.457,4.43.731,8.86,1.1,13.29l.183,1.69a.228.228,0,0,0,.457,0c-.411-4.658-.776-9.317-1.187-13.975-.365-3.928-.868-8.038-3.06-11.417A6.264,6.264,0,0,0,10.047.037,6.158,6.158,0,0,0,5.3,1.772,11.389,11.389,0,0,0,2.375,6.659,41.06,41.06,0,0,0,1.1,12.824,101.664,101.664,0,0,0,0,26.753v1.781a.228.228,0,0,0,.457,0Z" transform="translate(0 0)" fill="#9f4068"/>
          </g>
          <ellipse id="eye" cx="3.608" cy="6.348" rx="3.608" ry="6.348" transform="translate(9.271 8.53)" fill="#fff"/>
          <circle id="eye_hightligh" data-name="eye hightligh" cx="1.735" cy="1.735" r="1.735" transform="translate(3.608 22.002)" fill="#fff"/>
        </g>
        <g id="right_eye" data-name="right eye" transform="translate(66.175 0)">
          <g id="eye_outside-3" data-name="eye outside" transform="translate(0)">
            <path id="Path_10070" data-name="Path 10070" d="M0,31.758A118.969,118.969,0,0,1,1.6,12.029c.548-3.106,1.233-6.348,3.2-8.86S9.637-.667,12.285.338a7.337,7.337,0,0,1,3.334,3.014c2.74,4.065,3.2,9.18,3.608,14.066l1.233,14.34" transform="translate(0.228 0.2)" fill="#9f4068"/>
            <path id="Path_10071" data-name="Path 10071" d="M.457,31.958A120.345,120.345,0,0,1,1.416,16.75c.274-2.375.639-4.8,1.142-7.125A16.3,16.3,0,0,1,5.069,3.689,7.627,7.627,0,0,1,9.865.537,5.115,5.115,0,0,1,12.742.9a7.125,7.125,0,0,1,2.375,1.964c2.74,3.471,3.471,8.084,3.928,12.331.457,4.932.822,9.91,1.233,14.843l.183,1.918a.228.228,0,1,0,.457,0c-.457-5.206-.868-10.413-1.324-15.619-.411-4.43-1-9.043-3.471-12.833C14.98,1.771,13.427.263,11.326.035A6.852,6.852,0,0,0,5.983,2a11.874,11.874,0,0,0-3.288,5.48,40.189,40.189,0,0,0-1.416,6.9A120.055,120.055,0,0,0,0,30.04v1.918a.228.228,0,1,0,.457,0Z" transform="translate(0 0)" fill="#631438"/>
          </g>
          <g id="eye_outside-4" data-name="eye outside" transform="translate(2.375 3.571)">
            <path id="Path_10072" data-name="Path 10072" d="M0,28.305A102.982,102.982,0,0,1,1.417,10.722c.457-2.786,1.1-5.663,2.786-7.9S8.5-.6,10.871.31a7.2,7.2,0,0,1,2.968,2.649c2.375,3.654,2.786,8.221,3.151,12.559l1.1,12.787" transform="translate(0.227 0.174)" fill="#541339"/>
            <path id="Path_10073" data-name="Path 10073" d="M.457,28.479a111.37,111.37,0,0,1,.824-13.534A61.3,61.3,0,0,1,2.329,8.613,14.387,14.387,0,0,1,4.521,3.269,6.9,6.9,0,0,1,8.814.483,4.156,4.156,0,0,1,11.28.849a5.892,5.892,0,0,1,2.1,1.735c2.42,3.06,3.06,7.17,3.425,10.915s.776,8.86,1.142,13.29l.137,1.69a.228.228,0,0,0,.457,0c-.411-4.658-.776-9.317-1.187-13.975-.32-3.882-.868-8.038-3.06-11.372A5.917,5.917,0,0,0,10.047.027,6.158,6.158,0,0,0,5.3,1.762,11.5,11.5,0,0,0,2.375,6.6a35.939,35.939,0,0,0-1.233,6.165A101.748,101.748,0,0,0,0,26.743v1.735a.228.228,0,1,0,.457,0Z" transform="translate(0 0)" fill="#9f4068"/>
          </g>
          <ellipse id="eye-2" data-name="eye" cx="3.608" cy="6.348" rx="3.608" ry="6.348" transform="translate(9.271 8.53)" fill="#fff"/>
          <circle id="eye_hightligh-2" data-name="eye hightligh" cx="1.233" cy="1.233" r="1.233" transform="translate(8.221 22.824)" fill="#fff"/>
          <circle id="eye_hightligh-3" data-name="eye hightligh" cx="1.05" cy="1.05" r="1.05" transform="translate(6.12 17.892)" fill="#fff"/>
        </g>
      </g>
    </g>
  </g>
</svg>
