<svg xmlns="http://www.w3.org/2000/svg" width="75.638" height="79.945" viewBox="0 0 75.638 79.945">
  <g id="green_character" data-name="green character" transform="translate(20.381 -3.983) rotate(17)">
    <g id="Body" transform="translate(0 0)">
      <g id="main_body" data-name="main body" transform="translate(0 4.166)">
        <path id="Path_10004" data-name="Path 10004" d="M46.814,18.132c.335-.518,1.037-.488,1.555-.64a7.339,7.339,0,0,0,1.936-1.25,8.484,8.484,0,0,0,1.266-1.479,2.76,2.76,0,0,0,.488-2,6.923,6.923,0,0,0-.5-1.967A5.068,5.068,0,0,0,49.62,8.434a6.1,6.1,0,0,0-4.6-.884A5.9,5.9,0,0,0,42.56,8.571a4.559,4.559,0,0,0-1.616,2.089,5.284,5.284,0,0,0,.107,4.117,3,3,0,0,0,.5.656c.137.168.381.442.29.671a.534.534,0,0,1-.534.29,1.357,1.357,0,0,1-.595-.183A31.9,31.9,0,0,0,36.233,14.5a29.123,29.123,0,0,0-4.7-.945,52.849,52.849,0,0,0-8.508-.107c-.259.015-.579-.03-.625-.274s.122-.366.274-.5A5.687,5.687,0,0,0,24,11.1a6.119,6.119,0,0,0,.61-2.15,8.417,8.417,0,0,0,.107-1.86,7.286,7.286,0,0,0-3.583-5.565C16.685-1.218,9.686-.349,7.43,4.836a11.573,11.573,0,0,0-.656,2.287,13.142,13.142,0,0,0-.061,5c.335,1.647,1.327,3.644,3.034,4.315a6.1,6.1,0,0,0,1.738.366,7.2,7.2,0,0,0,1.982-.03c.442-.076,1.342-.671,1.449.122a.991.991,0,0,1-.2.7,7.261,7.261,0,0,1-2.348,1.875A23.145,23.145,0,0,0,9.9,21.379a24.945,24.945,0,0,0-4.025,3.995,19.243,19.243,0,0,0-1.723,2.912C1.361,33.776-.636,39.92.187,46a16.756,16.756,0,0,0,2.241,5.764,22.063,22.063,0,0,0,4.025,5.306,29.279,29.279,0,0,0,11.634,6.556,42.3,42.3,0,0,0,13.936,1.891,30.665,30.665,0,0,0,9.164-1.647,31.168,31.168,0,0,0,8.295-5.138c.595-.457,1.189-.93,1.753-1.449a19.081,19.081,0,0,0,1.357-1.4,32.46,32.46,0,0,0,4.376-5.992A15.365,15.365,0,0,0,59,41.018a27.964,27.964,0,0,0-2.241-9.332,31.545,31.545,0,0,0-1.738-3.141,30.265,30.265,0,0,0-2.226-3.339,62.927,62.927,0,0,0-5.306-5.169,3.019,3.019,0,0,1-.671-.854A1.083,1.083,0,0,1,46.814,18.132Z" transform="translate(0 0)" fill="#0aa8a0"/>
      </g>
      <g id="main_body-2" data-name="main body" transform="translate(0 4.166)">
        <path id="Path_10005" data-name="Path 10005" d="M46.814,18.132c.335-.518,1.037-.488,1.555-.64a7.339,7.339,0,0,0,1.936-1.25,8.484,8.484,0,0,0,1.266-1.479,2.76,2.76,0,0,0,.488-2,6.923,6.923,0,0,0-.5-1.967A5.068,5.068,0,0,0,49.62,8.434a6.1,6.1,0,0,0-4.6-.884A5.9,5.9,0,0,0,42.56,8.571a4.559,4.559,0,0,0-1.616,2.089,5.284,5.284,0,0,0,.107,4.117,3,3,0,0,0,.5.656c.137.168.381.442.29.671a.534.534,0,0,1-.534.29,1.357,1.357,0,0,1-.595-.183A31.9,31.9,0,0,0,36.233,14.5a29.123,29.123,0,0,0-4.7-.945,52.849,52.849,0,0,0-8.508-.107c-.259.015-.579-.03-.625-.274s.122-.366.274-.5A5.687,5.687,0,0,0,24,11.1a6.119,6.119,0,0,0,.61-2.15,8.417,8.417,0,0,0,.107-1.86,7.286,7.286,0,0,0-3.583-5.565C16.685-1.218,9.686-.349,7.43,4.836a11.573,11.573,0,0,0-.656,2.287,13.142,13.142,0,0,0-.061,5c.335,1.647,1.327,3.644,3.034,4.315a6.1,6.1,0,0,0,1.738.366,7.2,7.2,0,0,0,1.982-.03c.442-.076,1.342-.671,1.449.122a.991.991,0,0,1-.2.7,7.261,7.261,0,0,1-2.348,1.875A23.145,23.145,0,0,0,9.9,21.379a24.945,24.945,0,0,0-4.025,3.995,19.243,19.243,0,0,0-1.723,2.912C1.361,33.776-.636,39.92.187,46a16.756,16.756,0,0,0,2.241,5.764,22.063,22.063,0,0,0,4.025,5.306,29.279,29.279,0,0,0,11.634,6.556,42.3,42.3,0,0,0,13.936,1.891,30.665,30.665,0,0,0,9.164-1.647,31.168,31.168,0,0,0,8.295-5.138c.595-.457,1.189-.93,1.753-1.449a19.081,19.081,0,0,0,1.357-1.4,32.46,32.46,0,0,0,4.376-5.992A15.365,15.365,0,0,0,59,41.018a27.964,27.964,0,0,0-2.241-9.332,31.545,31.545,0,0,0-1.738-3.141,30.265,30.265,0,0,0-2.226-3.339,62.927,62.927,0,0,0-5.306-5.169,3.019,3.019,0,0,1-.671-.854A1.083,1.083,0,0,1,46.814,18.132Z" transform="translate(0 0)" fill="#bfd631"/>
      </g>
      <g id="highlight" transform="translate(0.789 6.325)">
        <g id="shadow" transform="translate(23.94 16.786)">
          <path id="Path_10006" data-name="Path 10006" d="M.19,5.636c-.5-.854.076-1.952.793-2.653C3.712.238,7.981-.2,11.839.07A20.209,20.209,0,0,1,21.917,3.15a21.164,21.164,0,0,1,2.806,2.44c3.812,3.858,7.044,8.767,7.105,14.2a2.18,2.18,0,0,1-.2,1.083,2.065,2.065,0,0,1-1.6.656c-1.967-.168-3.232-2.1-4.269-3.781a21.964,21.964,0,0,0-5.535-6.358,17.393,17.393,0,0,0-5.154-2.44,28.712,28.712,0,0,0-2.79-.7c-.473-.091-8.9-1.357-8.9-1.357S.876,6.794.19,5.636Z" transform="translate(0 0)" fill="#dbe298"/>
        </g>
        <g id="higthlight" transform="translate(32.987 18.337)">
          <path id="Path_10007" data-name="Path 10007" d="M.291,1.188a.473.473,0,0,1-.229-.152A.427.427,0,0,1,.153.486,1.174,1.174,0,0,1,.7.257,12.366,12.366,0,0,1,6.191.364a18.038,18.038,0,0,1,5.077,2.165,4.471,4.471,0,0,1,1.22.976A1.816,1.816,0,0,1,12.9,4.954a.4.4,0,0,1-.107.229.6.6,0,0,1-.213.122A1.9,1.9,0,0,1,11.5,5.2a16.148,16.148,0,0,1-2.44-1.144A25.387,25.387,0,0,0,6.786,2.789a14.9,14.9,0,0,0-2.424-.9,9.515,9.515,0,0,0-2.074-.244A5.032,5.032,0,0,1,.291,1.188Z" transform="translate(0 0)" fill="#fdfffd"/>
        </g>
        <g id="highlight-2" data-name="highlight" transform="translate(46.953 24.678)">
          <path id="Path_10008" data-name="Path 10008" d="M.52,1.617A1.875,1.875,0,0,1,.17,1.19a1.067,1.067,0,0,1-.122-.3A.915.915,0,0,1,.033.352.625.625,0,0,1,.627,0,1.357,1.357,0,0,1,1.3.23a9.6,9.6,0,0,1,1.51,1.327,1.734,1.734,0,0,1,.549.7,2.9,2.9,0,0,1,.046.381c0,.168,0,.351-.015.518a.168.168,0,0,1-.213.2A2.756,2.756,0,0,1,2.03,3.02a2.5,2.5,0,0,1-.854-.579C.932,2.2.764,1.876.52,1.617Z" transform="translate(0 0)" fill="#fff"/>
        </g>
        <g id="highlight-3" data-name="highlight" transform="translate(6.625 5.619)">
          <path id="Path_10009" data-name="Path 10009" d="M0,3.812A3.683,3.683,0,0,0,1.662,6.145,7.979,7.979,0,0,0,6.983,7.456a12.822,12.822,0,0,0,5.26-1.814,10.307,10.307,0,0,0,1.433-.976A7.609,7.609,0,0,0,16.33,0c0,2.44-2.485,5.367-4.147,6.6A12.6,12.6,0,0,1,7,8.386c-1.388.122-5.123-1.052-5.84-1.875A3.194,3.194,0,0,1,.046,3.8" transform="translate(0 0)" fill="#8aab49"/>
        </g>
        <g id="highlight-4" data-name="highlight" transform="translate(10.706 0)">
          <path id="Path_10010" data-name="Path 10010" d="M.021,1.624a1.052,1.052,0,0,1,.03-.534A1.306,1.306,0,0,1,.829.45,8.088,8.088,0,0,1,4.6.054,9.2,9.2,0,0,1,9.078,1.472a4.5,4.5,0,0,1,2.013,4.056,2.028,2.028,0,0,1-.61,1.281A2.694,2.694,0,0,1,8.5,7.266a4.609,4.609,0,0,1-2.7-.717A6.062,6.062,0,0,1,4.748,5.36,9.271,9.271,0,0,0,3.6,4.064a2.912,2.912,0,0,0-.579-.473c-.244-.137-.5-.229-.732-.366a4.21,4.21,0,0,0-.381-.213c-.412-.2-.854-.122-1.235-.4A1.525,1.525,0,0,1,.021,1.624Z" transform="translate(0 0)" fill="#dbe298"/>
        </g>
        <g id="highlight-5" data-name="highlight" transform="translate(12.206 0.069)">
          <path id="Path_10011" data-name="Path 10011" d="M.442,1.159C.182,1.022-.092.747.03.473s.3-.244.5-.29A9.545,9.545,0,0,1,5.168.412,2.135,2.135,0,0,1,5.9.747a.839.839,0,0,1,.32.717.793.793,0,0,1-.473.579A1.967,1.967,0,0,1,4.97,2.2a7.044,7.044,0,0,1-2.623-.518,3.217,3.217,0,0,0-.915-.229A2.485,2.485,0,0,1,.442,1.159Z" transform="translate(0 0)" fill="#fdfffd"/>
        </g>
        <g id="highlight-6" data-name="highlight" transform="translate(18.975 2.401)">
          <path id="Path_10012" data-name="Path 10012" d="M.306.763A.793.793,0,0,1,.031.443.335.335,0,0,1,.016.2.32.32,0,0,1,.291,0,.7.7,0,0,1,.641.077a2.287,2.287,0,0,1,.93.671,1.616,1.616,0,0,1,.366,1.067.427.427,0,0,1-.091.244.335.335,0,0,1-.244.076.656.656,0,0,1-.457-.2,2.257,2.257,0,0,1-.259-.5A1.8,1.8,0,0,0,.351.794" transform="translate(0 0)" fill="#fdfffd"/>
        </g>
        <g id="highlight-7" data-name="highlight" transform="translate(44.494 8.974)">
          <path id="Path_10013" data-name="Path 10013" d="M.082,1.037A.884.884,0,0,1,.113.229.843.843,0,0,1,.814,0,3.934,3.934,0,0,1,3.071.869,3.293,3.293,0,0,1,4.2,2.363,2.013,2.013,0,0,1,3.97,4.178a1.144,1.144,0,0,1-.412.351,1.449,1.449,0,0,1-.808.091,2.257,2.257,0,0,1-1.067-.381,1.342,1.342,0,0,1-.351-.366,1.3,1.3,0,0,1-.122-.64,3.22,3.22,0,0,0-.03-.381,1.57,1.57,0,0,0-.518-.839A3.309,3.309,0,0,1,.082,1.037Z" transform="translate(0 0)" fill="#dbe298"/>
        </g>
        <g id="highlight-8" data-name="highlight" transform="translate(45.476 9.264)">
          <path id="Path_10014" data-name="Path 10014" d="M.793,1.112A3.1,3.1,0,0,1,.274.762.823.823,0,0,1,0,.213.213.213,0,0,1,.061.06.183.183,0,0,1,.2.015a1.662,1.662,0,0,1,.976.168,5.871,5.871,0,0,1,.579.351l.4.244a1.845,1.845,0,0,1,.61,1.159.534.534,0,0,1-.076.457.412.412,0,0,1-.549,0,1.6,1.6,0,0,1-.381-.457,2.516,2.516,0,0,0-.839-.762" transform="translate(0 0)" fill="#fdfffd"/>
        </g>
        <path id="Shadow-2" data-name="Shadow" d="M.038,0S-.145,17.6,26.462,19.883c0,0,19.974,3.812,28.284-11.664,0,0-1.449,6.816-12.732,12.076S14.508,21.865,7.753,16.178-.252,5.2.038,0Z" transform="translate(0 40.963)" fill="#8aab49"/>
        <ellipse id="Ellipse_117" data-name="Ellipse 117" cx="0.579" cy="4.056" rx="0.579" ry="4.056" transform="matrix(0.196, -0.981, 0.981, 0.196, 14.439, 60.191)" fill="#fdfffd"/>
        <ellipse id="highlight-9" data-name="highlight" cx="0.396" cy="1.449" rx="0.396" ry="1.449" transform="matrix(0.196, -0.981, 0.981, 0.196, 22.444, 62.571)" fill="#fdfffd"/>
        <g id="mouth" transform="translate(30.566 44.846)">
          <path id="Path_10015" data-name="Path 10015" d="M.7,1H.669L.73.966H.9C.959.966.943,1,.867.951H.989C1,.966,1.081.981,1,.966s0,0,.015,0L1.081,1c.061.046,0,.015-.03-.015l.061.046c.015.015.03.03.03.046s-.046-.091,0-.015.015.03.03.061,0,.061-.015-.03L1.2,1.21c0,.015.015.091,0,.015s0,0,0,.015v.122c-.015-.091.015-.061,0-.015s-.015.03-.015.061a.079.079,0,0,1-.03.061c-.015.015.046-.091.015-.015s-.03.03-.03.046-.061.091-.015.015H1.111c-.015.015-.03.046-.061.061a.442.442,0,0,0-.091.488.457.457,0,0,0,.412.29h.076c.03,0,.107,0,.015-.015s0,.015.03.015H1.477L1.6,2.43l-.061-.046c.015.015.03.015.03.03l.061.046.03.03c.03.046-.046-.046-.046-.046l.046.061.03.061c.015.015.046.122.015.03s0,.015.015.03a.137.137,0,0,0,.015.076.168.168,0,0,0,.015.076c.015.046-.015-.076-.015-.076a.091.091,0,0,1,.015.061c0,.03.015.122-.015.137s.03-.107.015-.061v.03c-.015.03-.015.061-.03.091a.046.046,0,0,1-.015.03c0,.015.046-.091.03-.046l-.046.061-.046.061.03-.03-.03.046-.061.046c-.015.015-.091.076-.03.03s-.015.015-.03.015l-.091.061-.061.03h0L1.2,3.314H.776l-.2-.046a.451.451,0,1,0-.244.869,1.915,1.915,0,0,0,1.921-.4,1.372,1.372,0,0,0,.412-.93,1.509,1.509,0,0,0-.351-.945,1.113,1.113,0,0,0-.945-.427l.335.778A1.3,1.3,0,0,0,1.919.555,1.327,1.327,0,0,0,.242.143.473.473,0,0,0,.074.768.457.457,0,0,0,.7.936Z" transform="translate(0 0)" fill="#006b65"/>
        </g>
        <g id="highlight-10" data-name="highlight" transform="translate(39.956 11.489)">
          <path id="Path_10016" data-name="Path 10016" d="M.046,0A7.531,7.531,0,0,0,3.659,2.562,8.463,8.463,0,0,0,5.154,2.9a24.244,24.244,0,0,0,2.76.3,6.384,6.384,0,0,1-3.553.091,6.378,6.378,0,0,1-2.424-.839A6.535,6.535,0,0,1,.274.686,1.357,1.357,0,0,1,0,.107" transform="translate(0 0)" fill="#8aab49"/>
        </g>
      </g>
      <g id="middle_circle" data-name="middle circle" transform="translate(28.834 0)">
        <ellipse id="Ellipse_118" data-name="Ellipse 118" cx="5.901" cy="6.389" rx="5.901" ry="6.389" transform="matrix(1, -0.005, 0.005, 1, 0, 0.062)" fill="#bfd631"/>
        <path id="Path_10017" data-name="Path 10017" d="M.381,2.582A.6.6,0,0,1,0,2.018a1.083,1.083,0,0,1,.259-.671,5.413,5.413,0,0,1,.5-.518A3.72,3.72,0,0,1,1.327.295a1.677,1.677,0,0,1,.64-.213A5.215,5.215,0,0,1,5.581.752,6.236,6.236,0,0,1,8.112,3.725a3.888,3.888,0,0,1,.335,1.25,1.982,1.982,0,0,1-.32,1.22,1.189,1.189,0,0,1-1.372.427,2.3,2.3,0,0,1-.564-.381c-.732-.656-1.357-1.464-2.135-2.058a10.536,10.536,0,0,0-1.25-.762A4.868,4.868,0,0,0,.32,2.566" transform="translate(2.977 1.251)" fill="#dbe298"/>
        <g id="shadow-3" data-name="shadow" transform="translate(0.341 4.534)">
          <path id="Path_10018" data-name="Path 10018" d="M.2,1.4a3.453,3.453,0,0,0,.061,2.44,6.191,6.191,0,0,0,1.037,1.83A5.374,5.374,0,0,0,2.728,7.014a6.951,6.951,0,0,0,3.187.625,6.562,6.562,0,0,0,3.1-.778,5.705,5.705,0,0,0,1.845-2.806,3.848,3.848,0,0,0-1.083.915,4.651,4.651,0,0,1-2.806,1.2,7.014,7.014,0,0,1-3-.5A9.722,9.722,0,0,1,2.149,4.407,6.2,6.2,0,0,1,.837,2.241,6.87,6.87,0,0,1,.807,0" transform="translate(0 0)" fill="#8aab49"/>
        </g>
        <g id="highlight-11" data-name="highlight" transform="translate(4.952 1.007)">
          <path id="Path_10019" data-name="Path 10019" d="M1.212,1.468a1.357,1.357,0,0,1-.991-.442A.664.664,0,0,1,.038.355.61.61,0,0,1,.5.1,3.888,3.888,0,0,1,2.066.066,4.086,4.086,0,0,1,3.3.63a3.325,3.325,0,0,1,1.006.839A1.462,1.462,0,0,1,4.521,2.81a.366.366,0,0,1-.122.168.259.259,0,0,1-.183.03c-.686-.03-1.174-.717-1.753-1.128a2.3,2.3,0,0,0-1.25-.412" transform="translate(0 0)" fill="#fff"/>
        </g>
        <g id="highlight-12" data-name="highlight" transform="translate(10.036 3.924)">
          <path id="Path_10020" data-name="Path 10020" d="M.26.015a.473.473,0,0,1,.4.076A1.067,1.067,0,0,1,.916.457.93.93,0,0,1,.992.914a.4.4,0,0,1-.274.335A.412.412,0,0,1,.4,1.143,1.083,1.083,0,0,1,.031.564.564.564,0,0,1,.016.244.3.3,0,0,1,.214.03" transform="translate(0 0)" fill="#fff"/>
        </g>
      </g>
    </g>
    <g id="Face" transform="translate(11.501 32.178)">
      <g id="Eyes" transform="translate(1.845 0)">
        <g id="eye_right" data-name="eye right" transform="translate(0 1.022)">
          <ellipse id="eye_outside" data-name="eye outside" cx="2.928" cy="7.624" rx="2.928" ry="7.624" fill="#064138" stroke="#006b65" stroke-miterlimit="10" stroke-width="1"/>
          <ellipse id="highlight-13" data-name="highlight" cx="1.098" cy="1.845" rx="1.098" ry="1.845" transform="translate(2.607 6.114)" fill="#fff"/>
          <path id="highlight-14" data-name="highlight" d="M.547,0S-.46,4.391,1.324,7.365,4.618,5.672,4.618,5.672s-1.586,6.4-3.583,2.409A11.094,11.094,0,0,1,.547,0Z" transform="translate(0.414 4.757)" fill="#91b5af"/>
          <circle id="highlight-15" data-name="highlight" cx="1.052" cy="1.052" r="1.052" transform="translate(1.449 11.786)" fill="#fff"/>
        </g>
        <g id="eye_left" data-name="eye left" transform="translate(28.391 0)">
          <ellipse id="eye_outside-2" data-name="eye outside" cx="2.928" cy="7.624" rx="2.928" ry="7.624" fill="#064138" stroke="#006b65" stroke-miterlimit="10" stroke-width="1"/>
          <ellipse id="highlight-16" data-name="highlight" cx="1.098" cy="1.845" rx="1.098" ry="1.845" transform="translate(2.013 5.779)" fill="#fff"/>
          <path id="highlight-17" data-name="highlight" d="M4.056,0s1.022,4.376-.778,7.349S0,5.672,0,5.672s1.586,6.4,3.583,2.409A11.049,11.049,0,0,0,4.056,0Z" transform="translate(0.808 4.757)" fill="#91b5af"/>
          <circle id="highlight-18" data-name="highlight" cx="1.052" cy="1.052" r="1.052" transform="translate(2.287 11.786)" fill="#fff"/>
        </g>
      </g>
      <g id="Cheek" transform="translate(0 15.934)">
        <ellipse id="cheek-2" data-name="cheek" cx="3.812" cy="1.982" rx="3.812" ry="1.982" fill="#fdcdd1"/>
        <ellipse id="cheeek" cx="3.812" cy="1.982" rx="3.812" ry="1.982" transform="translate(30.434 0)" fill="#fdcdd1"/>
      </g>
    </g>
  </g>
</svg>
