<svg xmlns="http://www.w3.org/2000/svg" width="623.962" height="585.429" viewBox="0 0 623.962 585.429">
  <g id="male_female_icon" data-name="male&amp;female icon" transform="translate(-153.594 -7934.179)">
    <g id="blue_circle" data-name="blue circle" transform="matrix(-0.978, 0.208, -0.208, -0.978, 758, 8463.634)">
      <path id="blue_circle-2" data-name="blue circle" d="M211.9,0C328.927,0,423.8,94.87,423.8,211.9s-94.87,211.9-211.9,211.9S0,328.927,0,211.9,94.87,0,211.9,0Z" transform="matrix(0.978, 0.208, -0.208, 0.978, 88.112, 50.899)" fill="#50c2f4"/>
      <path id="blue_shadow" data-name="blue shadow" d="M221.006.1c102.715,3.313,205.7,105.78,200.379,203.032S431.96,40.3,218.9,48.231-7.005,294.133,2.022,184.7,118.291-3.212,221.006.1Z" transform="translate(269.221 0) rotate(48)" fill="#12a6ed"/>
    </g>
    <g id="male_female_icon-2" data-name="male&amp;female icon" transform="translate(-305.325 7653.984) rotate(-16)">
      <path id="Path_10988" data-name="Path 10988" d="M497.99,594.184c-22.023-16.574-45.825-26.269-73.779-26.269A117.288,117.288,0,0,0,307.058,685.077c0,59.487,44.6,108.643,102.092,116.071v71.363H379.387a15.069,15.069,0,0,0,0,30.137H409.15v23.419a15.061,15.061,0,1,0,30.122,0V902.649h29.76a15.069,15.069,0,0,0,0-30.137h-29.76V801.148c57.493-7.434,102.092-56.593,102.092-116.071C541.708,651.811,523.224,611.717,497.99,594.184ZM424.2,772.107a87.03,87.03,0,1,1,87.033-87.031A87.126,87.126,0,0,1,424.2,772.107Z" transform="translate(0 45.604)" fill="#fd67d6"/>
      <path id="Path_10989" data-name="Path 10989" d="M636.193,544.78A15.256,15.256,0,0,0,621.1,562.3c1.09,7.559,7.915,12.972,15.551,12.972h16.636l-62.726,62.726a118.439,118.439,0,0,0-193.2,91.978c0,60.129,45.029,109.826,103.12,117.426,14.232,1.518,30.669.03,30.669.03,58.18-7.526,103.307-57.268,103.307-117.456a117.782,117.782,0,0,0-22.941-69.821l63.326-63.326v13.035c0,7.645,5.431,14.479,13.005,15.552a15.26,15.26,0,0,0,17.489-15.091V555.554a10.771,10.771,0,0,0-10.771-10.774Zm-112.259,272.9a88.077,88.077,0,1,1,79.677-79.674A88.163,88.163,0,0,1,523.934,817.679Z" transform="translate(178.005)" fill="#1695b1"/>
    </g>
  </g>
</svg>
