<svg xmlns="http://www.w3.org/2000/svg" width="627.901" height="521.602" viewBox="0 0 627.901 521.602">
  <g id="mail_icons" data-name="mail icons" transform="translate(-1040.294 -7426)">
    <g id="pink_circle" data-name="pink circle" transform="matrix(-0.978, 0.208, -0.208, -0.978, 1647, 7892.634)">
      <path id="blue_circle" data-name="blue circle" d="M211.9,0C328.927,0,423.8,94.87,423.8,211.9s-94.87,211.9-211.9,211.9S0,328.927,0,211.9,94.87,0,211.9,0Z" transform="matrix(0.978, 0.208, -0.208, 0.978, 88.112, 50.899)" fill="#fccdfe"/>
      <path id="blue_shadow" data-name="blue shadow" d="M220.26,1.861C322.974,5.174,429.3,108,423.98,205.25S431.96,40.3,218.9,48.231-5.973,301.351,3.054,191.922,117.545-1.451,220.26,1.861Z" transform="translate(270.646 -0.719) rotate(48)" fill="#fd8adf"/>
    </g>
    <g id="mail_icons-2" data-name="mail icons" transform="translate(352.098 -519.237)">
      <path id="Path_10984" data-name="Path 10984" d="M820.908,357.64a15.955,15.955,0,0,0-15.782,18.319c1.138,7.9,8.277,13.566,16.264,13.566h17.4l-65.6,65.6a123.869,123.869,0,0,0-202.063,96.192c0,62.888,47.094,114.864,107.848,122.814,14.887,1.589,32.075.028,32.075.028,60.849-7.867,108.047-59.891,108.047-122.842a123.148,123.148,0,0,0-24-73.019l66.229-66.232V425.7c0,8,5.683,15.142,13.6,16.264a15.957,15.957,0,0,0,18.291-15.779V368.905a11.264,11.264,0,0,0-11.265-11.265ZM703.5,643.055a92.116,92.116,0,1,1,83.329-83.329A92.205,92.205,0,0,1,703.5,643.055Z" transform="translate(296.779 7587.598)" fill="#1695b1"/>
      <path id="Path_10985" data-name="Path 10985" d="M860.913,379.321a15.957,15.957,0,0,0-15.782,18.319c1.141,7.905,8.277,13.569,16.264,13.569h17.4l-65.6,65.6A123.872,123.872,0,0,0,611.129,573c0,62.888,47.094,114.861,107.848,122.813,14.887,1.589,32.075.028,32.075.028C811.9,687.978,859.1,635.952,859.1,573a123.183,123.183,0,0,0-23.993-73.022l66.229-66.229v13.632c0,8,5.68,15.142,13.6,16.264a15.961,15.961,0,0,0,18.291-15.782V390.589a11.267,11.267,0,0,0-11.265-11.268Zm-117.4,285.414a92.116,92.116,0,1,1,83.329-83.329A92.205,92.205,0,0,1,743.509,664.735Z" transform="translate(382.871 7634.254)" fill="#1695b1"/>
    </g>
  </g>
</svg>
