<svg xmlns="http://www.w3.org/2000/svg" width="553.085" height="552.547" viewBox="0 0 553.085 552.547">
  <g id="femail_icons" data-name="femail icons" transform="translate(-234.267 -6831.447)">
    <g id="green_circle" data-name="green circle" transform="translate(234.267 6830.447)">
      <path id="blue_circle" data-name="blue circle" d="M211.9,0C328.927,0,423.8,94.87,423.8,211.9s-94.87,211.9-211.9,211.9S0,328.927,0,211.9,94.87,0,211.9,0Z" transform="matrix(0.978, 0.208, -0.208, 0.978, 88.112, 50.899)" fill="#69b3c2"/>
      <path id="blue_shadow" data-name="blue shadow" d="M221.006.1C323.721,3.414,429.357,106.079,424.034,203.332S431.96,40.3,218.9,48.231-7.005,294.133,2.022,184.7,118.291-3.212,221.006.1Z" transform="translate(269.221 1) rotate(48)" fill="#1695b1"/>
    </g>
    <g id="femail_icons-2" data-name="femail icons" transform="translate(-57.603 6592.1)">
      <path id="Path_10986" data-name="Path 10986" d="M737.684,591.733c-19.211-14.456-39.976-22.912-64.361-22.912a102.152,102.152,0,0,0-13.14,203.462v62.255H634.219a13.144,13.144,0,0,0,0,26.288h25.963v20.433a13.139,13.139,0,1,0,26.277,0V860.826h25.963a13.144,13.144,0,0,0,0-26.288H686.46V772.282c50.156-6.485,89.063-49.367,89.063-101.257C775.822,642.008,759.7,607.029,737.684,591.733Zm-64.37,155.216a75.922,75.922,0,1,1,75.923-75.923A76.006,76.006,0,0,1,673.314,746.948Z" transform="translate(-252.519 -256.921)" fill="#fd67d6"/>
      <path id="Path_10987" data-name="Path 10987" d="M781.781,610.548c-19.211-14.457-39.977-22.912-64.362-22.912A102.153,102.153,0,0,0,704.28,791.1v62.253H678.319a13.145,13.145,0,0,0,0,26.29H704.28v20.43a13.139,13.139,0,1,0,26.277,0v-20.43H756.52a13.145,13.145,0,0,0,0-26.29H730.557V791.1c50.159-6.488,89.062-49.37,89.062-101.259C819.919,660.823,803.795,625.845,781.781,610.548Zm-64.37,155.216a75.922,75.922,0,1,1,75.925-75.923A76.006,76.006,0,0,1,717.411,765.763Z" transform="translate(-177.416 -224.874)" fill="#fd67d6"/>
    </g>
  </g>
</svg>
