<svg id="snapchat" xmlns="http://www.w3.org/2000/svg" width="31.572" height="29.6" viewBox="0 0 31.572 29.6">
  <g id="Group_3" data-name="Group 3">
    <path id="Path_3" data-name="Path 3" d="M30.953,38.092c-4.221-.695-6.123-5.018-6.2-5.2a.3.3,0,0,0-.018-.036,1.3,1.3,0,0,1-.148-1.074c.231-.541,1.115-.821,1.7-1.006.17-.053.33-.1.462-.156a3.573,3.573,0,0,0,1.259-.752,1.2,1.2,0,0,0,.383-.86,1.354,1.354,0,0,0-1.014-1.174,1.833,1.833,0,0,0-.687-.13,1.529,1.529,0,0,0-.639.13,3.588,3.588,0,0,1-1.316.375,1.208,1.208,0,0,1-.436-.095c.012-.2.024-.4.037-.61l.006-.091c.136-2.137.3-4.8-.4-6.374a8.574,8.574,0,0,0-1.932-2.765A8.079,8.079,0,0,0,19.7,16.75a9.131,9.131,0,0,0-3.605-.762h-.079l-.543.006a9.165,9.165,0,0,0-3.609.762,8.034,8.034,0,0,0-2.3,1.521,8.6,8.6,0,0,0-1.924,2.759c-.706,1.577-.539,4.235-.4,6.37v0c.014.229.03.468.043.7a1.265,1.265,0,0,1-.517.1,3.424,3.424,0,0,1-1.407-.377,1.264,1.264,0,0,0-.535-.111,1.891,1.891,0,0,0-.945.264,1.308,1.308,0,0,0-.669.854,1.179,1.179,0,0,0,.45,1.107,3.88,3.88,0,0,0,1.176.673c.134.053.294.1.462.156.584.185,1.47.466,1.7,1.006a1.314,1.314,0,0,1-.15,1.074.28.28,0,0,0-.016.036,10.449,10.449,0,0,1-1.591,2.459,8.925,8.925,0,0,1-1.918,1.693A7.058,7.058,0,0,1,.619,38.09a.737.737,0,0,0-.618.77.935.935,0,0,0,.077.322v0a1.972,1.972,0,0,0,1.07.914,12.214,12.214,0,0,0,3.088.8,3.746,3.746,0,0,1,.189.679c.051.237.1.482.182.74a.809.809,0,0,0,.847.616,4.122,4.122,0,0,0,.726-.1,8.258,8.258,0,0,1,1.656-.187,7.2,7.2,0,0,1,1.184.1,5.624,5.624,0,0,1,2.212,1.143,7.162,7.162,0,0,0,4.361,1.7q.08,0,.16-.006c.063,0,.144.006.227.006a7.173,7.173,0,0,0,4.361-1.7l0,0a5.644,5.644,0,0,1,2.212-1.141,7.2,7.2,0,0,1,1.184-.1,8.3,8.3,0,0,1,1.656.176,4,4,0,0,0,.726.089h.036a.8.8,0,0,0,.811-.606c.075-.255.128-.491.182-.734a3.875,3.875,0,0,1,.187-.675,12.3,12.3,0,0,0,3.088-.8,1.98,1.98,0,0,0,1.068-.912.938.938,0,0,0,.079-.326A.734.734,0,0,0,30.953,38.092Z" transform="translate(0 -15.988)" fill="#db3131"/>
  </g>
</svg>
