<svg id="snapchat" data-name="021-snapchat" xmlns="http://www.w3.org/2000/svg" width="38.702" height="36.285" viewBox="0 0 38.702 36.285">
<style type="text/css">
	.st1{fill-rule:evenodd;clip-rule:evenodd;fill:#c92c32;}

  #snapchat:hover .st1{
    cursor:pointer !important;
    fill:#601717 !important;
    transition: 600ms cubic-bezier(.99,0,.57,.94) !important;
  
 
    }
   
</style>
  <g id="Group_3" data-name="Group 3">
    <path id="Path_3"  class="st1" data-name="Path 3" d="M37.943,43.083c-5.174-.851-7.506-6.151-7.6-6.376a.366.366,0,0,0-.022-.044,1.6,1.6,0,0,1-.181-1.316c.283-.663,1.367-1.006,2.083-1.234.208-.065.4-.128.566-.191A4.38,4.38,0,0,0,34.331,33a1.466,1.466,0,0,0,.469-1.055,1.66,1.66,0,0,0-1.243-1.439,2.247,2.247,0,0,0-.842-.16,1.874,1.874,0,0,0-.784.16,4.4,4.4,0,0,1-1.613.46,1.481,1.481,0,0,1-.535-.116c.015-.242.029-.491.046-.747l.007-.111c.167-2.62.373-5.878-.493-7.813a10.51,10.51,0,0,0-2.368-3.389,9.9,9.9,0,0,0-2.833-1.867,11.192,11.192,0,0,0-4.419-.934h-.1L18.961,16a11.235,11.235,0,0,0-4.424.934,9.848,9.848,0,0,0-2.823,1.865,10.544,10.544,0,0,0-2.358,3.382c-.866,1.933-.66,5.191-.5,7.808v0c.017.281.036.573.053.859a1.55,1.55,0,0,1-.634.119A4.2,4.2,0,0,1,6.555,30.5a1.549,1.549,0,0,0-.656-.135,2.318,2.318,0,0,0-1.159.324,1.6,1.6,0,0,0-.82,1.047A1.445,1.445,0,0,0,4.472,33.1a4.757,4.757,0,0,0,1.442.825c.164.065.36.126.566.191.716.227,1.8.571,2.085,1.234a1.611,1.611,0,0,1-.184,1.316.342.342,0,0,0-.019.044,12.809,12.809,0,0,1-1.95,3.014A10.94,10.94,0,0,1,4.061,41.8a8.652,8.652,0,0,1-3.3,1.284A.9.9,0,0,0,0,44.024a1.146,1.146,0,0,0,.094.394v0a2.418,2.418,0,0,0,1.311,1.12,14.972,14.972,0,0,0,3.786.985,4.592,4.592,0,0,1,.232.832c.063.29.128.59.223.907a.992.992,0,0,0,1.038.755,5.053,5.053,0,0,0,.89-.123,10.123,10.123,0,0,1,2.03-.23,8.82,8.82,0,0,1,1.451.123,6.894,6.894,0,0,1,2.712,1.4,8.779,8.779,0,0,0,5.346,2.083q.1,0,.2-.007c.077,0,.177.007.278.007a8.793,8.793,0,0,0,5.346-2.08l0,0a6.919,6.919,0,0,1,2.712-1.4,8.821,8.821,0,0,1,1.451-.123,10.171,10.171,0,0,1,2.03.215,4.9,4.9,0,0,0,.89.109h.044a.98.98,0,0,0,.994-.743c.092-.312.157-.6.223-.9a4.75,4.75,0,0,1,.23-.827,15.076,15.076,0,0,0,3.786-.985A2.427,2.427,0,0,0,38.6,44.421a1.15,1.15,0,0,0,.1-.4A.9.9,0,0,0,37.943,43.083Z" transform="translate(0 -15.988)" fill="#c92c32"/>
  </g>
</svg>
