<svg id="Group_11" data-name="Group 11" xmlns="http://www.w3.org/2000/svg" width="31.574" height="25.654" viewBox="0 0 31.574 25.654">
  <path id="Path_7" data-name="Path 7" d="M31.574,51.037a13.5,13.5,0,0,1-3.73,1.022,6.437,6.437,0,0,0,2.848-3.578,12.936,12.936,0,0,1-4.1,1.567,6.472,6.472,0,0,0-11.2,4.426,6.665,6.665,0,0,0,.15,1.476A18.322,18.322,0,0,1,2.2,49.18a6.475,6.475,0,0,0,1.989,8.651,6.392,6.392,0,0,1-2.925-.8v.071a6.5,6.5,0,0,0,5.186,6.36,6.46,6.46,0,0,1-1.7.213,5.723,5.723,0,0,1-1.225-.111,6.535,6.535,0,0,0,6.048,4.509,13.006,13.006,0,0,1-8.026,2.761A12.125,12.125,0,0,1,0,70.749a18.223,18.223,0,0,0,9.93,2.9c11.911,0,18.423-9.867,18.423-18.419,0-.286-.01-.562-.024-.837A12.913,12.913,0,0,0,31.574,51.037Z" transform="translate(0 -48)" fill="#db3131"/>
</svg>
