<svg id="_013-twitter-1" data-name="013-twitter-1" xmlns="http://www.w3.org/2000/svg" width="38.703" height="31.447" viewBox="0 0 38.703 31.447">
  <g id="Group_11" data-name="Group 11">
    <path id="Path_7" data-name="Path 7" d="M38.7,51.723a16.542,16.542,0,0,1-4.572,1.253,7.89,7.89,0,0,0,3.491-4.386,15.857,15.857,0,0,1-5.031,1.921,7.934,7.934,0,0,0-13.725,5.426,8.17,8.17,0,0,0,.184,1.809,22.459,22.459,0,0,1-16.355-8.3,7.937,7.937,0,0,0,2.438,10.6,7.836,7.836,0,0,1-3.585-.977v.087a7.971,7.971,0,0,0,6.357,7.8,7.919,7.919,0,0,1-2.08.261,7.015,7.015,0,0,1-1.5-.135,8.01,8.01,0,0,0,7.414,5.527A15.943,15.943,0,0,1,1.9,75.995,14.86,14.86,0,0,1,0,75.886a22.338,22.338,0,0,0,12.172,3.561c14.6,0,22.583-12.095,22.583-22.579,0-.351-.012-.689-.029-1.026A15.829,15.829,0,0,0,38.7,51.723Z" transform="translate(0 -48)" fill="#c92c32"/>
  </g>
</svg>
