<svg xmlns="http://www.w3.org/2000/svg" width="740.675" height="942.212" viewBox="0 0 740.675 942.212">
  <g id="girl" transform="translate(-1082.379 -2930.546)">
    <g id="yellow_circle" data-name="yellow circle" transform="translate(1870.732 3170.507) rotate(98)">
      <path id="yellow_circle-2" data-name="yellow circle" d="M276.846,0c152.9,0,276.846,123.948,276.846,276.846S429.744,553.693,276.846,553.693,0,429.744,0,276.846,123.948,0,276.846,0Z" transform="matrix(0.978, 0.208, -0.208, 0.978, 115.119, 63.272)" fill="#fed831"/>
      <path id="yellow_shadow" data-name="yellow shadow" d="M288.745.132c134.2,4.328,268.751,138.2,261.8,265.263s13.816-212.742-264.55-202.38S-9.153,384.286,2.641,241.315,154.548-4.2,288.745.132Z" transform="matrix(0.695, 0.719, -0.719, 0.695, 342.574, 0)" fill="#fec731"/>
    </g>
    <g id="girl-2" data-name="girl" transform="translate(1227.902 2930.546)">
      <g id="Group_272" data-name="Group 272" transform="translate(0)">
        <g id="Group_259" data-name="Group 259" transform="translate(51.339)">
          <g id="Group_257" data-name="Group 257">
            <path id="Path_10861" data-name="Path 10861" d="M200.188,369.96a89.965,89.965,0,0,0-17.028-14.6c-16.912-11.563-48.526-36.018-81.31-61.952-10.968-63.035-21.222-127.3-21.785-130.84l1.083-10.531c2.207-12.076,2.342-30.657-4.206-41.042-1.136-1.8-9.64,30.137-12.4,29.152s-4.621-8.428-4.914-12.312a1.408,1.408,0,0,0-1.568-1.329c-1.6.186-3.863,1.171-3.825,5.254.057,5.654-.475,17.705,5.358,31.05C51,191.516,47.285,220.933,46.684,249.288a440.4,440.4,0,0,0,2.075,51.84,49.7,49.7,0,0,0,16.213,32.124,576.9,576.9,0,0,0,51.8,41.231c14.9,10.594,27.836,18.9,37.085,24.785,11.7,7.483,21.448,9.964,29.322,9.863C203.244,408.871,213.394,385.052,200.188,369.96Z" transform="translate(-46.595 -110.917)" fill="#fa9778"/>
            <path id="Path_10862" data-name="Path 10862" d="M167.021,237.8c-2.578,11.894-9.891,17.844-17.419,20.816a34.36,34.36,0,0,1-29.221-2.427L106.819,248.6,66.853,226.176l42.635-45.635s20.967,10.71,37.658,24.609c.818.667,1.606,1.335,2.4,2.031,6.432,5.616,11.985,11.654,15.08,17.661C166.929,229.242,167.93,233.611,167.021,237.8Z" transform="translate(-3.076 38.644)" fill="#a82443"/>
          </g>
          <g id="Group_258" data-name="Group 258" transform="translate(58.861 221.02)">
            <path id="Path_10863" data-name="Path 10863" d="M111.132,181.123,73.478,221.431l-8.186-6.072Z" transform="translate(-65.292 -181.123)" fill="#b26055"/>
          </g>
        </g>
        <g id="Group_267" data-name="Group 267" transform="translate(149.106 222.203)">
          <g id="Group_261" data-name="Group 261">
            <path id="Path_10864" data-name="Path 10864" d="M106.966,377.874S91.288,328.9,83.934,296.406s-5.39-65.333,13.654-76.777,29.076-11.777,34.948-34.456l35.209-3.674s5.739,21.911,33.968,22.9a29.942,29.942,0,0,1,19.528,7.76c7.341,6.9,13.65,19.843,9.511,44.02-8.28,48.352-28.859,90.944-25.683,120.41Z" transform="translate(-72.67 -181.499)" fill="#fa9778"/>
            <g id="Group_260" data-name="Group 260" transform="translate(0 18.07)">
              <path id="Path_10865" data-name="Path 10865" d="M103.009,253.52,97.6,235.475S82.254,234.527,80.657,243C80.657,243,77.947,252.031,103.009,253.52Z" transform="translate(-71.373 -83.69)" fill="#a82443"/>
              <path id="Path_10866" data-name="Path 10866" d="M126.125,193.334s-15.231,18.432-11.944,24,73.1-25.793,76.884-30.09c0,0,7.068,3.841,12.885,3.564s35.146,4.779,34.135,35.124c0,0-.164,26.287-12.136,64.43A272.972,272.972,0,0,0,213.559,360.7S107.1,330.363,90.665,342.5c-13.735,10.143,18.621,14.57,18.621,14.57l.642,2.068s-25.585,4.858-30.9-13.351,6.573-48.044,4.045-76.113S78.9,207.267,126.125,193.334Z" transform="translate(-77.65 -187.239)" fill="#c2222d"/>
            </g>
          </g>
          <g id="Group_266" data-name="Group 266" transform="translate(32.743 191.454)">
            <path id="Path_10868" data-name="Path 10868" d="M187.6,244.726l-98,2.508-1.554-4.92Z" transform="translate(-88.051 -242.314)" fill="#b26055"/>
          </g>
        </g>
        <g id="Group_271" data-name="Group 271" transform="translate(0 202.832)">
          <g id="Group_268" data-name="Group 268">
            <path id="Path_10869" data-name="Path 10869" d="M312.663,226.372a90.144,90.144,0,0,0-21.8,5.311c-19.257,6.983-57.564,18.388-97.756,29.879-57.586-27.874-115.757-57.047-118.968-58.656l-7.921-7.023c-8.519-8.84-23.526-19.792-35.782-20.535-2.125-.126,18.848,25.415,16.443,27.08-2.424,1.672-9.545-1.165-12.87-3.2a1.409,1.409,0,0,0-1.993.5c-.781,1.407-1.306,3.822,2.034,6.174,4.618,3.249,14.1,10.675,28.314,13.732,18.306,23.743,40.041,43.942,62.727,60.983A440.576,440.576,0,0,0,168.4,309.183a49.7,49.7,0,0,0,35.549,5.582,577.572,577.572,0,0,0,63.712-18.011c17.3-5.918,31.588-11.579,41.77-15.653,12.9-5.135,20.6-11.607,25.119-18.061C346.046,246.6,332.629,224.454,312.663,226.372Z" transform="translate(-30.287 -175.346)" fill="#fa9778"/>
            <path id="Path_10870" data-name="Path 10870" d="M100.75,208.716l10.625,61.54L167.6,245.71a34.366,34.366,0,0,0,19.588-21.823c2.194-7.782,1.854-17.23-6.057-26.457C164.44,177.958,100.75,208.716,100.75,208.716Z" transform="translate(121.078 -141.782)" fill="#a82443"/>
          </g>
          <g id="Group_269" data-name="Group 269" transform="translate(221.827 68.894)">
            <path id="Path_10871" data-name="Path 10871" d="M100.75,197.23l9.745,54.474-8.3,2.7Z" transform="translate(-100.75 -197.23)" fill="#b26055"/>
          </g>
        </g>
      </g>
      <g id="Group_283" data-name="Group 283" transform="translate(140.575 78.381)">
        <path id="Path_10873" data-name="Path 10873" d="M127.427,158.559a27.584,27.584,0,0,0-7.448,2.978,21.466,21.466,0,0,0-5.95,4.955l-1.344-1.659a24.668,24.668,0,0,1,6.366-2.484,9.49,9.49,0,0,1,3.677-.17,4.158,4.158,0,0,1,3.176,2.569,6.242,6.242,0,0,1-1.794,6.844,9.079,9.079,0,0,1-6.164,2.518,9.771,9.771,0,0,0,5.2-3.384c1.259-1.583,1.76-3.633.941-5.182-.589-1.489-2.572-1.448-4.555-1a27.657,27.657,0,0,0-5.808,2.2l-.06.028a1.078,1.078,0,0,1-1.288-1.687,19.712,19.712,0,0,1,6.929-4.9A20.231,20.231,0,0,1,127.427,158.559Z" transform="translate(4.873 -86.961)" fill="#450d20"/>
        <path id="Path_10874" data-name="Path 10874" d="M189.89,203.886c-1.527-4.792-6.646-8.632-11.746-7.364a8.951,8.951,0,0,0-1.5.617c.689-16.748-1.75-35.086-13.389-45.2-25.04-21.776-60.967-14.154-68.589,5.443-5.922,15.221-8.034,32.9-8.667,50.125-.283,7.335-.3,14.611-.217,21.555,0,.74.022,1.458.022,2.179a28.358,28.358,0,0,0,1.177,9.186c3.96,11.258,20.01,18.2,30.852,20.447a45.733,45.733,0,0,0,38.911-9.841,50.58,50.58,0,0,0,16.682-28.384,22.336,22.336,0,0,0,6.784-.674,17.345,17.345,0,0,0,7.9-6.6A13.8,13.8,0,0,0,189.89,203.886Z" transform="translate(-51.756 -129.471)" fill="#fa9778"/>
        <g id="Group_280" data-name="Group 280" transform="translate(38.195 42.558)">
          <g id="Group_276" data-name="Group 276" transform="translate(5.849 15.456)">
            <g id="Group_274" data-name="Group 274" transform="translate(0 0.001)">
              <path id="Path_10877" data-name="Path 10877" d="M96.437,161.664c0,3.636-1.439,6.583-3.214,6.583s-3.214-2.947-3.214-6.583,1.439-6.583,3.214-6.583S96.437,158.028,96.437,161.664Z" transform="translate(-86.617 -152.441)" fill="#450d20"/>
              <path id="Path_10878" data-name="Path 10878" d="M88.972,154.8a9.515,9.515,0,0,0,2.175,2.808,7.667,7.667,0,0,0,3.365,1.741l.054.013a1.191,1.191,0,1,0,.22-2.349A6.946,6.946,0,0,1,89.63,154.4l-.025-.025a.384.384,0,0,0-.633.425Z" transform="translate(-88.931 -154.242)" fill="#450d20"/>
            </g>
            <g id="Group_275" data-name="Group 275" transform="translate(31.236)">
              <path id="Path_10879" data-name="Path 10879" d="M98.853,161.664c0,3.636,1.439,6.583,3.214,6.583s3.214-2.947,3.214-6.583-1.439-6.583-3.214-6.583S98.853,158.028,98.853,161.664Z" transform="translate(-98.853 -152.44)" fill="#450d20"/>
              <path id="Path_10880" data-name="Path 10880" d="M106.113,154.4a6.946,6.946,0,0,1-5.157,2.613,1.189,1.189,0,1,0-.094,2.377,1.254,1.254,0,0,0,.309-.028l.06-.013a7.667,7.667,0,0,0,3.365-1.741,9.513,9.513,0,0,0,2.175-2.808.386.386,0,0,0-.17-.516.38.38,0,0,0-.466.091Z" transform="translate(-96.993 -154.242)" fill="#450d20"/>
            </g>
          </g>
          <g id="Group_277" data-name="Group 277" transform="translate(14.306 44.591)">
            <path id="Path_10881" data-name="Path 10881" d="M91.617,163.5a15.783,15.783,0,0,0,4.848,5.512,12.3,12.3,0,0,0,7.2,2.386,12.451,12.451,0,0,0,7.162-2.471,23.372,23.372,0,0,0,2.777-2.468c.756-.976,1.5-1.949,2.16-2.959-.995.727-1.9,1.5-2.811,2.251-1.011.614-1.914,1.372-2.94,1.886a13.25,13.25,0,0,1-6.356,1.807,12.949,12.949,0,0,1-6.381-1.722A27.665,27.665,0,0,1,91.617,163.5Z" transform="translate(-91.617 -163.497)" fill="#450d20"/>
            <path id="Path_10882" data-name="Path 10882" d="M94.376,167.2a5.273,5.273,0,0,0,3.384,1.146,5.532,5.532,0,0,0,3.387-1.146,17.587,17.587,0,0,1-3.391.381A14.712,14.712,0,0,1,94.376,167.2Z" transform="translate(-85.69 -155.534)" fill="#450d20"/>
          </g>
          <g id="Group_279" data-name="Group 279" transform="translate(0)">
            <g id="Group_278" data-name="Group 278">
              <path id="Path_10883" data-name="Path 10883" d="M98.375,151.182a7.652,7.652,0,0,1,4.98-1.845,15.373,15.373,0,0,1,5.3.756,12.9,12.9,0,0,1,4.672,2.676,13.572,13.572,0,0,1,3.189,4.086,1.538,1.538,0,0,1-2.383,1.883l-.132-.12a19.017,19.017,0,0,0-3.173-2.522,11.1,11.1,0,0,0-3.507-1.439,13.476,13.476,0,0,0-3.8-.368,14.727,14.727,0,0,1-4.061-.236l-.406-.1a1.61,1.61,0,0,1-.686-2.77Z" transform="translate(-63.962 -149.333)" fill="#9c3900"/>
              <path id="Path_10884" data-name="Path 10884" d="M105.415,151.182a7.652,7.652,0,0,0-4.98-1.845,15.4,15.4,0,0,0-5.308.756,12.948,12.948,0,0,0-4.672,2.676,13.561,13.561,0,0,0-3.186,4.086,1.538,1.538,0,0,0,2.383,1.883l.132-.12a18.891,18.891,0,0,1,3.173-2.522,11.1,11.1,0,0,1,3.507-1.439,13.476,13.476,0,0,1,3.8-.368,14.727,14.727,0,0,0,4.061-.236l.406-.1a1.61,1.61,0,0,0,.686-2.77Z" transform="translate(-87.073 -149.333)" fill="#9c3900"/>
            </g>
          </g>
          <path id="Path_10885" data-name="Path 10885" d="M98.062,153.978c-.57,2.478-.988,4.943-1.448,7.382-.475,2.43-.922,4.861-1.615,7.165-.161.579-.34,1.149-.545,1.7a6.062,6.062,0,0,0-.56,2.122,4.288,4.288,0,0,0,2.308,3.9,5.186,5.186,0,0,0,4.2.224,10.246,10.246,0,0,0,3.324-1.986c-2.308.869-5.006,1.543-6.627.318a2.537,2.537,0,0,1-1.143-2.349A4.868,4.868,0,0,1,96.435,171q.373-.921.652-1.861a35.038,35.038,0,0,0,1.209-7.571A40.22,40.22,0,0,0,98.062,153.978Z" transform="translate(-72.429 -139.354)" fill="#450d20"/>
          <path id="Path_10886" data-name="Path 10886" d="M127.427,158.559a27.584,27.584,0,0,0-7.448,2.978,21.466,21.466,0,0,0-5.95,4.955l-1.344-1.659a24.668,24.668,0,0,1,6.366-2.484,9.49,9.49,0,0,1,3.677-.17,4.158,4.158,0,0,1,3.176,2.569,6.242,6.242,0,0,1-1.794,6.844,9.079,9.079,0,0,1-6.164,2.518,9.771,9.771,0,0,0,5.2-3.384c1.259-1.583,1.76-3.633.941-5.182-.589-1.489-2.572-1.448-4.555-1a27.657,27.657,0,0,0-5.808,2.2l-.06.028a1.078,1.078,0,0,1-1.288-1.687,19.712,19.712,0,0,1,6.929-4.9A20.231,20.231,0,0,1,127.427,158.559Z" transform="translate(-33.322 -129.519)" fill="#450d20"/>
        </g>
        <g id="Group_281" data-name="Group 281" transform="translate(60.324 91.991)">
          <path id="Path_10887" data-name="Path 10887" d="M152.525,234.936c-8.6-21.776,2.131-63.718,3.088-69.335.044-.2.066-.371.11-.567L97.37,197.848a15.471,15.471,0,0,1,1.763,6.422v.022c.523,5.2-.217,11.824-1.262,17.856A166.512,166.512,0,0,1,94.1,238.5Z" transform="translate(-94.102 -165.035)" fill="#fa9778"/>
          <path id="Path_10888" data-name="Path 10888" d="M95.3,207.262c31.724,4,47.792-33.88,48.381-35.3-5.856,9.3-14.349,14-22.645,16.244a62.156,62.156,0,0,1-24.278,1.24c-.063-.022-.129-.022-.2-.044C97.084,194.61,96.344,201.23,95.3,207.262Z" transform="translate(-91.531 -150.148)" fill="#b26055"/>
        </g>
        <g id="Group_282" data-name="Group 282">
          <path id="Path_10889" data-name="Path 10889" d="M196.776,228.372S171,271.332,174.518,276.554s15.823-4.678,20.69-5.922,28.774-.047,29.508-26.41-6.268-113.056-48-97.681c0,0-7.193-18.395-38.212-7.011s-28.629,28.535-39.783,46.416-40.4,53.764-11.173,68.633c0,0-8.509,6.142-2.062,12.023s44.877,17.394,54.68,10.024c0,0,.649-6.366.129-9.586,0,0-22.446-4.839-29.429-18.568,0,0-1.949-2.352-1.716-33.836,0,0,1.549-26.684,4.492-37.082,0,0,34.579-3.5,49.58-12.227s17.4,7.131,14.563,16.783c-7.212,24.54,4.42,34.252,13.143,26.46,0,0,10.3-9.016,17.1-4.606,6.265,4.067,7.993,12.256,1.2,20.095a13.878,13.878,0,0,1-5.934,4.149A10.415,10.415,0,0,1,196.776,228.372Z" transform="translate(-74.94 -135.814)" fill="#9c3900"/>
        </g>
      </g>
      <g id="Group_291" data-name="Group 291" transform="translate(29.125 416.069)">
        <g id="Group_287" data-name="Group 287" transform="translate(182.305 59.409)">
          <path id="Path_10890" data-name="Path 10890" d="M398.619,639.472c-2.418-4.206-17.129-14.123-25.95-19.811h0L219.439,456.448l-29.3-190.412h-89.75c.519,5.9,1.08,11.941,1.713,18.221,1.294,12.967,5.541,33.912,11.642,59.6,7.76,32.772,18.555,73.276,30.153,114.863a131.966,131.966,0,0,0,42.928,66.142c16.839,13.962,36.644,30.342,49.41,40.781,57.384,46.851,104.67,84.389,108.693,87.578l-.422.586s-11.45,36.852-33.521,49.986a3.933,3.933,0,0,0-2.031,3.457c.072,1.924.973,4.4,4.839,5.327a3.814,3.814,0,0,0,3.233-.759L396.7,649.288A7.636,7.636,0,0,0,398.619,639.472Z" transform="translate(-91.134 -253.176)" fill="#f28e6f"/>
          <path id="Path_10891" data-name="Path 10891" d="M194.3,411.252l6.929,7.858-36.26,59.446a3.281,3.281,0,0,0,3.167,4.968h0a3.252,3.252,0,0,0,1.6-.636l91.9-68.784a10.142,10.142,0,0,0,1.706-14.758l-19.877-23.277Z" transform="translate(46.557 -16.812)" fill="#c2222d"/>
          <g id="Group_286" data-name="Group 286">
            <path id="Path_10892" data-name="Path 10892" d="M97.447,274.811S133.1,473.566,154.34,502.393s179.032,154,179.032,154l37.173-45.141L228.687,460.668,199.1,267.224S107.307,251.294,97.447,274.811Z" transform="translate(-97.447 -261.951)" fill="#2fa4e9"/>
            <g id="Group_284" data-name="Group 284" transform="translate(20.554 60.095)">
              <path id="Path_10893" data-name="Path 10893" d="M103.976,337.112s63.224-8.075,89.483-56.072c0,0-10.738,48.62-86.558,69.344Z" transform="translate(-103.976 -281.04)" fill="#0a93c3"/>
            </g>
          </g>
        </g>
        <g id="Group_290" data-name="Group 290" transform="translate(0 0)">
          <path id="Path_10895" data-name="Path 10895" d="M331.491,317.477c-9.936-42.538-44.1-74.4-44.1-74.4-98.345,36.566-191.121,107.6-231.9,141.314a38.286,38.286,0,0,0-10.436,45.412c38.03,83.375,115.427,205.322,125.07,220.424l0,.006s-15.649,35.275-39.1,45.758a3.926,3.926,0,0,0-2.418,3.2c-.151,1.917.456,4.48,4.187,5.855a3.821,3.821,0,0,0,3.3-.381l86.4-52.864a7.638,7.638,0,0,0,3.047-9.526c-1.911-4.451-7.505-14.44-15.586-21.115-4.637-10.055-71.06-154.174-80.2-179.592-.872-2.44,4.442-4.033,5.83-4.606A168.574,168.574,0,0,1,165,428.377q8.117-1.417,16.068-3.066c44.3-9.139,84.54-23.117,111.265-33.588A64.169,64.169,0,0,0,331.491,317.477Z" transform="translate(-35.123 -243.08)" fill="#fa9778"/>
          <path id="Path_10896" data-name="Path 10896" d="M102.774,386.358l7.08,12.514-42.679,55.02a3.281,3.281,0,0,0,2.594,5.292h0a3.275,3.275,0,0,0,1.659-.45l99.012-58.087a10.143,10.143,0,0,0,3.343-14.475l-17.151-25.355Z" transform="translate(18.337 9.836)" fill="#c2222d"/>
          <g id="Group_289" data-name="Group 289">
            <path id="Path_10897" data-name="Path 10897" d="M184.925,245.589l111.007-2.509s59.424,60.983,40.082,110.434-72.067,64.247-196.86,87.383l71.309,163.48-53.1,26.174L46.463,438.215a51.826,51.826,0,0,1-5.358-38.527h0a51.8,51.8,0,0,1,21.659-30.562l96.255-63.671a32.273,32.273,0,0,0,13.074-17.545Z" transform="translate(-39.538 -243.08)" fill="#2fa4e9"/>
          </g>
        </g>
      </g>
    </g>
    <g id="hightlights" transform="translate(1345.632 3248.174)">
      <path id="Path_10088" data-name="Path 10088" d="M23.481,18.108A26.513,26.513,0,0,1,14.3,24.2c-2.726,1.131-5.735,1.967-8.4,3.154S.831,30.186.174,32.231C-.737,35.069,2.043,38.007,5.9,39.5s8.549,1.8,13.049,1.715a79.191,79.191,0,0,0,32.558-7.357c9.325-4.536,16.38-10.977,19.887-18.156a12.669,12.669,0,0,0,1.581-7.053A8.633,8.633,0,0,0,68.427,2.3,17.711,17.711,0,0,0,62.833.41,32.977,32.977,0,0,0,43.964,3.122a44.044,44.044,0,0,0-13.008,9.669,22.081,22.081,0,0,1-6.911,4.776" transform="translate(104.347 45.965) rotate(-39)" fill="#d23941"/>
      <path id="Path_10161" data-name="Path 10161" d="M6.53,6.528a7.576,7.576,0,0,1-2.554,2.2c-.758.408-1.595.709-2.337,1.137A3.122,3.122,0,0,0,.048,11.62a2.516,2.516,0,0,0,1.592,2.621,7.762,7.762,0,0,0,3.629.618,17.966,17.966,0,0,0,9.055-2.652,13.563,13.563,0,0,0,5.531-6.545,5.706,5.706,0,0,0,.44-2.543A3.213,3.213,0,0,0,19.03.827a4.219,4.219,0,0,0-1.556-.68,7.322,7.322,0,0,0-5.248.978A13.107,13.107,0,0,0,8.609,4.611,6.4,6.4,0,0,1,6.687,6.333" transform="translate(146.558 24.174) rotate(-40)" fill="#e57d83"/>
      <path id="Path_10162" data-name="Path 10162" d="M2.071,2.07a2.4,2.4,0,0,1-.81.7c-.24.129-.506.225-.741.361a.99.99,0,0,0-.5.558.8.8,0,0,0,.5.831,2.462,2.462,0,0,0,1.151.2,5.7,5.7,0,0,0,2.872-.841A4.3,4.3,0,0,0,6.3,1.8,1.809,1.809,0,0,0,6.436.989a1.019,1.019,0,0,0-.4-.727A1.338,1.338,0,0,0,5.542.047a2.322,2.322,0,0,0-1.664.31A4.157,4.157,0,0,0,2.73,1.462a2.03,2.03,0,0,1-.61.546" transform="translate(145.775 38.879) rotate(-8)" fill="#e57d83"/>
      <path id="Path_9981" data-name="Path 9981" d="M2.08,140.547c7.467,8.008,40.555-.225,59.028-8.747,40.351-21.95,41.358-9.921,87.967-48.887C167.218,66.45,169.805,53.9,172.88,46.584c6.349-15.56,4.167-16.1-3.573-31.086C165.538,8.28,159.29,1.156,150.76.125c-4.86-.562-9.621.844-13.985,2.812-5.951,2.718-11.307,6.468-16.564,10.124-3.67,2.531,3.67,30-19.837,51.182-26.978,24.466-85.5,43.683-94.524,55.963C2.08,125.455-1.788,131.923.89,137.735" transform="translate(20.014 126.803) rotate(8)" fill="#60b3ec"/>
      <path id="Path_10163" data-name="Path 10163" d="M.371,33.171c1.332,1.89,7.234-.053,10.53-2.064,7.2-5.181,7.378-2.342,15.692-11.538a20.083,20.083,0,0,0,4.247-8.574c1.132-3.672.743-3.8-.637-7.337C29.53,1.954,28.415.273,26.893.029A3.813,3.813,0,0,0,24.4.693a19.306,19.306,0,0,0-2.955,2.389c-.655.6.655,7.08-3.539,12.08C13.093,20.937,2.653,25.472,1.043,28.37.371,29.609-.319,31.136.159,32.508" transform="matrix(0.97, -0.242, 0.242, 0.97, 151.242, 177.162)" fill="#a0d8ff"/>
      <path id="Path_10164" data-name="Path 10164" d="M2.584.047C3.822.256,3.949,2.04,3.949,6.379s-1.115,5.166-2.677,4.942S.026,8.838.026,4.5,1.345-.162,2.584.047Z" transform="matrix(0.454, 0.891, -0.891, 0.454, 156.061, 212.671)" fill="#a0d8fe"/>
    </g>
    <g id="Cheek" transform="matrix(0.999, -0.052, 0.052, 0.999, 1401.923, 3085.906)">
      <ellipse id="Ellipse_131" data-name="Ellipse 131" cx="9.194" cy="5.282" rx="9.194" ry="5.282" transform="translate(0 0)" fill="#f377ba"/>
      <ellipse id="Ellipse_132" data-name="Ellipse 132" cx="9.194" cy="5.282" rx="9.194" ry="5.282" transform="translate(43.438 0.347)" fill="#f47fbe"/>
    </g>
    <g id="hightlights-2" data-name="hightlights" transform="translate(1418.472 3070.605)">
      <g id="hightlights-3" data-name="hightlights" transform="translate(27.297 0.487)">
        <ellipse id="hightlights-4" data-name="hightlights" cx="1.427" cy="2.378" rx="1.427" ry="2.378" transform="translate(0 0.69) rotate(-14)" fill="#fff"/>
        <ellipse id="hightlights-5" data-name="hightlights" cx="0.476" cy="0.951" rx="0.476" ry="0.951" transform="translate(1.383 6.112) rotate(-14)" fill="#fff"/>
      </g>
      <g id="hightlights-6" data-name="hightlights" transform="matrix(1, -0.017, 0.017, 1, 0, 0.068)">
        <ellipse id="hightlights-7" data-name="hightlights" cx="1.427" cy="2.378" rx="1.427" ry="2.378" transform="translate(0 0.69) rotate(-14)" fill="#fff"/>
        <ellipse id="hightlights-8" data-name="hightlights" cx="0.476" cy="0.951" rx="0.476" ry="0.951" transform="translate(1.383 6.112) rotate(-14)" fill="#fff"/>
      </g>
    </g>
  </g>
</svg>
