<svg xmlns="http://www.w3.org/2000/svg" width="260.211" height="375.021" viewBox="0 0 260.211 375.021">
  <g id="GIRL" transform="translate(-4.91)">
    <g id="green_circle" data-name="green circle" transform="translate(30.663 19.243) rotate(7)">
      <path id="green_circle-2" data-name="green circle" d="M96.9,0A96.9,96.9,0,1,1,0,96.9,96.9,96.9,0,0,1,96.9,0Z" transform="matrix(0.978, 0.208, -0.208, 0.978, 40.292, 21.754)" fill="#bfd82c"/>
      <path id="green_shadow" data-name="green shadow" d="M101.061.046c46.969,1.515,94.063,48.371,91.629,92.842s4.836-74.46-92.593-70.833S-3.2,134.5.924,84.461,54.092-1.469,101.061.046Z" transform="translate(116.64 0) rotate(45)" fill="#9ab405"/>
    </g>
    <g id="girl-2" data-name="girl" transform="translate(32.42 0)">
      <g id="Group_142" data-name="Group 142" transform="translate(72.434 0)">
        <path id="Path_10092" data-name="Path 10092" d="M557.682,163.227c-.729-2.038-2.989-3.613-5.162-2.989A7.6,7.6,0,0,0,550.2,161.7c-1.023-7.311-3.537-15.208-9.45-18.624-12.362-7.146-26.915-.983-28.528,7.919-1.255,6.915-.7,14.557.446,21.884.481,3.124,1.068,6.2,1.674,9.125.061.312.129.613.187.918a12.2,12.2,0,0,0,1.249,3.785c2.6,4.431,9.945,6.05,14.71,6.11a19.682,19.682,0,0,0,15.63-7.347,21.861,21.861,0,0,0,4.743-13.88v-.046a9.573,9.573,0,0,0,2.928-.391,7.475,7.475,0,0,0,3.3-2.956A5.938,5.938,0,0,0,557.682,163.227Z" transform="translate(-501.156 -135.6)" fill="#fa9778"/>
        <g id="Group_141" data-name="Group 141" transform="translate(10.944 18.572)">
          <g id="Group_138" data-name="Group 138" transform="translate(3.101 6.109)">
            <g id="Group_136" data-name="Group 136" transform="translate(0 3.302)">
              <path id="Path_10095" data-name="Path 10095" d="M518.2,158.79c.3,1.536-.068,2.9-.818,3.044s-1.6-.98-1.9-2.516.068-2.9.818-3.044S517.9,157.256,518.2,158.79Z" transform="translate(-513.323 -155.665)" fill="#450d20"/>
              <path id="Path_10096" data-name="Path 10096" d="M514.029,156.127a4.046,4.046,0,0,0,1.148,1.007,3.286,3.286,0,0,0,1.564.46h.024a.512.512,0,1,0,.036-1.023.576.576,0,0,0-.135.013,2.978,2.978,0,0,1-2.392-.68l-.013-.009a.165.165,0,0,0-.232.027A.167.167,0,0,0,514.029,156.127Z" transform="translate(-513.994 -155.86)" fill="#450d20"/>
            </g>
            <g id="Group_137" data-name="Group 137" transform="translate(13.818)">
              <path id="Path_10097" data-name="Path 10097" d="M523.4,157.782c.3,1.536,1.148,2.662,1.9,2.516s1.117-1.508.818-3.044-1.147-2.662-1.9-2.516S523.1,156.246,523.4,157.782Z" transform="translate(-523.297 -153.109)" fill="#450d20"/>
              <path id="Path_10098" data-name="Path 10098" d="M526.245,153.735a2.989,2.989,0,0,1-1.965,1.526.512.512,0,1,0,.156,1.012.468.468,0,0,0,.128-.037l.024-.01a3.284,3.284,0,0,0,1.279-1.01,4.08,4.08,0,0,0,.688-1.365.166.166,0,0,0-.113-.205.163.163,0,0,0-.189.077Z" transform="translate(-523.03 -153.637)" fill="#450d20"/>
            </g>
          </g>
          <g id="Group_139" data-name="Group 139" transform="translate(9.031 19.082)">
            <path id="Path_10099" data-name="Path 10099" d="M517.987,164.348a6.786,6.786,0,0,0,2.5,1.931,5.288,5.288,0,0,0,3.237.419,5.366,5.366,0,0,0,2.824-1.631,10.2,10.2,0,0,0,.97-1.27c.239-.474.472-.946.67-1.426-.361.388-.68.789-1,1.181-.377.342-.7.735-1.087,1.037a5.7,5.7,0,0,1-2.539,1.285,5.575,5.575,0,0,1-2.837-.2A11.9,11.9,0,0,1,517.987,164.348Z" transform="translate(-517.987 -162.371)" fill="#450d20"/>
            <path id="Path_10100" data-name="Path 10100" d="M521.1,166.723a2.281,2.281,0,0,0,1.523.208,2.393,2.393,0,0,0,1.337-.762,7.583,7.583,0,0,1-1.4.438A6.268,6.268,0,0,1,521.1,166.723Z" transform="translate(-516.475 -160.527)" fill="#450d20"/>
          </g>
          <g id="Group_140" data-name="Group 140">
            <path id="Path_10101" data-name="Path 10101" d="M521.393,150.881a3.283,3.283,0,0,1,1.953-1.187,6.654,6.654,0,0,1,2.3-.117,5.588,5.588,0,0,1,2.193.749,5.833,5.833,0,0,1,1.681,1.466.662.662,0,0,1-.854.989l-.064-.04a8.287,8.287,0,0,0-1.548-.805,4.831,4.831,0,0,0-1.6-.321,5.884,5.884,0,0,0-1.634.156,6.285,6.285,0,0,1-1.734.233L521.91,152a.691.691,0,0,1-.658-.725A.682.682,0,0,1,521.393,150.881Z" transform="translate(-507.371 -149.525)" fill="#dd6d2f"/>
            <path id="Path_10102" data-name="Path 10102" d="M519.141,151.464a3.278,3.278,0,0,0-2.255-.371,6.612,6.612,0,0,0-2.181.753,5.575,5.575,0,0,0-1.754,1.514,5.836,5.836,0,0,0-1.012,1.988.662.662,0,0,0,1.162.6l.046-.061a8.056,8.056,0,0,1,1.135-1.325,4.759,4.759,0,0,1,1.362-.9,5.849,5.849,0,0,1,1.575-.466,6.287,6.287,0,0,0,1.7-.432l.165-.076a.691.691,0,0,0,.062-1.225Z" transform="translate(-511.907 -148.789)" fill="#dd6d2f"/>
          </g>
          <path id="Path_10103" data-name="Path 10103" d="M519.646,154.555c-.037,1.095-.012,2.169-.006,3.237s.008,2.13-.1,3.16c-.019.258-.049.514-.091.764a2.6,2.6,0,0,0-.062.943,1.844,1.844,0,0,0,1.3,1.459,2.229,2.229,0,0,0,1.791-.25,4.4,4.4,0,0,0,1.24-1.111c-.9.556-1.987,1.062-2.773.677a1.09,1.09,0,0,1-.674-.9,2.015,2.015,0,0,1,.083-.657q.082-.421.123-.839a15.061,15.061,0,0,0-.11-3.3A17.365,17.365,0,0,0,519.646,154.555Z" transform="translate(-508.286 -147.083)" fill="#450d20"/>
          <path id="Path_10104" data-name="Path 10104" d="M543.035,155.634a11.42,11.42,0,0,0-3.091,1.236,8.889,8.889,0,0,0-2.467,2.054l-.557-.689a10.376,10.376,0,0,1,2.64-1.029,3.963,3.963,0,0,1,1.526-.07A1.723,1.723,0,0,1,542.4,158.2a2.589,2.589,0,0,1-.744,2.839,3.767,3.767,0,0,1-2.558,1.044,4.052,4.052,0,0,0,2.16-1.4,2.033,2.033,0,0,0,.389-2.148c-.244-.618-1.066-.6-1.888-.417a11.466,11.466,0,0,0-2.411.912l-.024.012a.447.447,0,0,1-.533-.7,8.174,8.174,0,0,1,2.873-2.031A8.384,8.384,0,0,1,543.035,155.634Z" transform="translate(-499.883 -146.559)" fill="#450d20"/>
        </g>
        <path id="Path_10105" data-name="Path 10105" d="M538.821,148.975s4.219,17.265,12.322,16.214c0,0,5.4-6.086,8.959-2.123,0,0,4.892,7.028-5.854,9.944,0,0-7.3,6.763-.945,15.979,0,0,1.481,2.779.41,7.834s2.591,6.784,4.923,6.083,11.552-2.008,15.8-1.029c0,0,3.74-10.524-4.291-17.176s-1.754-14.1-4.531-19.7-3.32-13.059-14.624-16.029c0,0,.93-12.467-13.192-11.937s-31.5,3.583-26.976,19.48c0,0,.67,11.2-.732,15.334s-7.781,10.712-4.728,14.7,3.379,7,1.992,11.083,16.127,11.426,27.365,3.837a64.769,64.769,0,0,0-1.157-7.247,28.173,28.173,0,0,1-8.666-1.765,11.276,11.276,0,0,1-6.659-7.51,112.682,112.682,0,0,1-2.692-14.3s-.71-11.289-.523-13.37c0,0,12.163,4.416,24.159-8.3" transform="translate(-504.539 -137.022)" fill="#dd6d2f"/>
      </g>
      <g id="Group_155" data-name="Group 155" transform="translate(30.775 120.175)">
        <g id="Group_146" data-name="Group 146" transform="translate(58.063)">
          <path id="Path_10106" data-name="Path 10106" d="M598.394,449.9c-.48-2.032-5.33-7.929-8.268-11.358h0l-43.148-86.13L562.67,238.381,548.8,222.674c-3.526-.288-10.781-4.4-14.25-4.75-5.412,6.714-10.089,24.364-14.819,49.06-1.059,5.507-1.881,14.667-2.521,26.012-.781,13.723-1.291,30.648-1.621,48.2a65.615,65.615,0,0,0,11.053,37.7c4.865,7.276,10.244,15.3,13.844,20.606,17.911,26.371,32.8,47.66,34.068,49.47l-.245.189s-9.248,13.792-19.964,16.5a1.69,1.69,0,0,0-1.261,1.177,2.359,2.359,0,0,0,1.341,2.791,1.651,1.651,0,0,0,1.426.085L596.4,453.709A3.285,3.285,0,0,0,598.394,449.9Z" transform="translate(-515.582 -217.924)" fill="#fa9778"/>
          <g id="Group_144" data-name="Group 144" transform="translate(34.225 222.07)">
            <path id="Path_10107" data-name="Path 10107" d="M587.8,376.889a5.615,5.615,0,0,1-.064,1.058,2.568,2.568,0,0,1-.079.431,5.87,5.87,0,0,1-.431,1.24,5.226,5.226,0,0,1-2.756,2.585l-40.14,16.3a4.064,4.064,0,0,1-3.225-.065,3.366,3.366,0,0,1-.744-.406,3.536,3.536,0,0,1-.548-.456,4.243,4.243,0,0,1-1.1-2.011,2.217,2.217,0,0,1-.04-1.123c.365-1.292,23.164-8.932,33.244-12.261a11.236,11.236,0,0,0,6.778-6.229l3.773-8.526c2.377,1.162,4.021,4.779,5.04,7.9A5.994,5.994,0,0,1,587.8,376.889Z" transform="translate(-538.623 -367.422)" fill="#2fa4e9"/>
          </g>
          <g id="Group_145" data-name="Group 145" transform="translate(19.007 137.422)" opacity="0.65">
            <path id="Path_10109" data-name="Path 10109" d="M528.378,345.844l13.861-35.407-9.152,42.4Z" transform="translate(-528.378 -310.437)" fill="#a3614c"/>
          </g>
        </g>
        <g id="Group_150" data-name="Group 150" transform="translate(0 18.691)">
          <path id="Path_10110" data-name="Path 10110" d="M584.167,230.507,566.058,236,504.47,452.733c-2.549,1.567-15.114,8.884-25.209,7.3a1.752,1.752,0,0,0-1.677.608,2.441,2.441,0,0,0,.143,3.2,1.7,1.7,0,0,0,1.323.658l45.052,1.223a3.4,3.4,0,0,0,3.446-2.816,28.43,28.43,0,0,0-.409-10.567c2.057-5.373,54.493-142.226,67.956-171.583C608.507,251.507,584.167,230.507,584.167,230.507Z" transform="translate(-476.22 -230.507)" fill="#fa9778"/>
          <g id="Group_148" data-name="Group 148" transform="translate(0 221.738)">
            <path id="Path_10111" data-name="Path 10111" d="M529.392,389.013a5.382,5.382,0,0,1-.379,1.592,4.608,4.608,0,0,1-.431.915c-.079.129-.171.26-.261.391a6.538,6.538,0,0,1-.848.954,5.349,5.349,0,0,1-3.54,1.332l-43.324-.405a4.162,4.162,0,0,1-3.434-1.881c-.013-.025-.039-.052-.052-.077a3.8,3.8,0,0,1-.51-1.228c-.013-.039-.013-.065-.025-.1a4,4,0,0,1-.027-1.58,2.112,2.112,0,0,1,.406-1.044c.821-1.058,24.808.665,35.4,1.475a11.348,11.348,0,0,0,8.644-3.146l6.765-6.425C529.522,381.766,529.64,385.736,529.392,389.013Z" transform="translate(-476.494 -379.781)" fill="#2fa4e9"/>
          </g>
          <g id="Group_149" data-name="Group 149" transform="translate(61.873 98.13)" opacity="0.649">
            <path id="Path_10113" data-name="Path 10113" d="M519.788,296.568l33.574,5.032-35.215.743Z" transform="translate(-518.147 -296.568)" fill="#a3614c"/>
          </g>
        </g>
        <g id="Group_154" data-name="Group 154" transform="translate(48.587 23.189)">
          <path id="Path_10114" data-name="Path 10114" d="M523.591,235.9l52.821-2.365s21.405,18.362,7.112,49.046S560.09,332.2,560.09,332.2L509.2,325.078S519.083,257.446,523.591,235.9Z" transform="translate(-509.203 -233.535)" fill="#fed831"/>
          <g id="Group_153" data-name="Group 153" transform="translate(18.656 49.908)">
            <g id="Group_151" data-name="Group 151" transform="translate(1.078 0)">
              <path id="Path_10126" data-name="Path 10126" d="M9.87,0l8.77.115V1.42H0Z" transform="translate(0 11.253) rotate(-37.137)" fill="#fec731"/>
            </g>
            <g id="Group_152" data-name="Group 152" transform="translate(0 0.846)">
              <path id="Path_10125" data-name="Path 10125" d="M15.284.8,26.931,0V3.22H0Z" transform="translate(0 16.142) rotate(-36.826)" fill="#fec731"/>
            </g>
          </g>
        </g>
      </g>
      <g id="Group_162" data-name="Group 162" transform="translate(0 35.988)">
        <g id="Group_156" data-name="Group 156" transform="translate(83.41)">
          <path id="Path_10115" data-name="Path 10115" d="M571.935,195.634a12.893,12.893,0,0,0-8.516-3.042,18.214,18.214,0,0,1-7.386-1.429c-4.813-9-5.319-27.316-5.373-29.666,0-.086,0-.162,0-.248L528.7,179.891a6.677,6.677,0,0,1,1.271,2.57l0,.009a30.608,30.608,0,0,1,.928,7.646c.012.594.012,1.172.008,1.732-2.521,3.93-6.338,5.165-12.037,8.868-8.016,5.209-8.365,19.364-4.71,33.225S525.3,268.626,525.3,268.626l42.169-2.034c-1.811-12.623,6.395-31.251,9.223-52.17C578.105,203.961,575.2,198.491,571.935,195.634Z" transform="translate(-511.929 -161.249)" fill="#fa9778"/>
          <path id="Path_10116" data-name="Path 10116" d="M525,186.85c13.73-.906,17.415-18.228,17.547-18.874a16.1,16.1,0,0,1-8.235,8.717,26.787,26.787,0,0,1-10.154,2.515c-.03,0-.057,0-.086,0A30.608,30.608,0,0,1,525,186.85Z" transform="translate(-506.032 -157.983)" fill="rgba(69,13,32,0.61)" opacity="0.649"/>
        </g>
        <path id="Path_10117" data-name="Path 10117" d="M530.229,183.347s8.1,9.84,26.062-1.953c0,0,19.946-1.041,21.023,12.3s-10.238,45.766-8.062,62.959c0,0-27.952,8.053-46.727,4.569,0,0-12.721-44.612-10.963-57.669S522.178,188.63,530.229,183.347Z" transform="translate(-428.776 -151.479)" fill="#2fa4e9"/>
        <g id="Group_159" data-name="Group 159" transform="translate(0 37.058)">
          <path id="Path_10118" data-name="Path 10118" d="M560.6,195.285c-1.751-8.363-10.844-11.907-14.982-5.964a31.239,31.239,0,0,0-3.653,7.51c-3,8.512-10.3,25.642-17.6,42.264a485.341,485.341,0,0,1-45.87-20.989c-1.171-2.528-2.423-5.9-2.415-8.78.013-5.4-4.033.548-4.482,4.572,0,0-14.73-8.048-15.737-7.059s8.094,7.129,9.326,8.035c0,0-3.091,3.14-2.947,6.2.116,2.426,3.838,4.317,8.423,4.859l0,0c13.358,13.932,31,24.929,45.325,32.078q2.188,1.092,4.342,2.1c7.646,3.571,15.538,1.194,19.618-5.774,1.5-2.559,2.906-5.131,4.225-7.684,8.035-15.585,12.831-30.6,15.461-38.856A24.376,24.376,0,0,0,560.6,195.285Z" transform="translate(-455.777 -186.115)" fill="#fa9778"/>
          <path id="Path_10119" data-name="Path 10119" d="M534.591,190.132c-5.376,6.1-11.814,17.848-18.124,40.165,0,0-16.88-3.662-24.964-9.978,0,0-17.888,26.695-17.742,32.712,0,0,42.6,12.851,51.095,9.67s31.193-58.361,30.26-62.9c-.263-1.272-.441-2.7-.71-4.193A11.379,11.379,0,0,0,534.591,190.132Z" transform="translate(-447.046 -186.197)" fill="#2fa4e9"/>
          <g id="Group_157" data-name="Group 157" transform="translate(83.941 18.554)">
            <path id="Path_10120" data-name="Path 10120" d="M512.294,198.687s-.441,33.09,5.3,41.979l.845-1.551S512.784,211.585,512.294,198.687Z" transform="translate(-512.286 -198.687)" fill="#2988e7"/>
          </g>
          <g id="Group_158" data-name="Group 158" transform="translate(31.837 37.949)" opacity="0.65">
            <path id="Path_10121" data-name="Path 10121" d="M477.21,228.4l8.36-13.929-5.684-2.729Z" transform="translate(-477.21 -211.744)" fill="#8c4242"/>
          </g>
        </g>
        <g id="Group_161" data-name="Group 161" transform="translate(64.974 31.359)">
          <path id="Path_10122" data-name="Path 10122" d="M595.507,245.551c-.281-2.953-.642-5.862-1.065-8.7-2.6-17.341-7.484-32.329-10.177-40.561a24.374,24.374,0,0,0-6.527-10.723c-6.312-5.761-15.759-3.32-15.642,3.922a31.318,31.318,0,0,0,1.428,8.228c2.54,8.662,6.637,26.826,10.432,44.58a484.381,484.381,0,0,1-49.486,9.791c-2.427-1.365-5.414-3.367-7.093-5.71-3.149-4.392-2.95,2.8-.963,6.329,0,0-16.655,2.084-16.894,3.476s10.735,1.05,12.264,1.065c0,0-.673,4.354,1.237,6.756,1.511,1.9,5.637,1.258,9.673-.982v.006c18.982,3.492,39.724,2.1,55.527-.477q2.411-.394,4.748-.839C591.257,260.132,596.271,253.59,595.507,245.551Z" transform="translate(-499.517 -182.36)" fill="#fa9778"/>
          <path id="Path_10123" data-name="Path 10123" d="M544.092,193.434c-.308,8.125,2.129,21.3,11.35,42.577,0,0-15.394,7.834-25.652,8.053,0,0,3.018,31.99,6.936,36.56,0,0,41.132-16.974,45.7-24.808s-12.727-64.939-16.319-67.862c-1.006-.82-2.047-1.811-3.2-2.8A11.378,11.378,0,0,0,544.092,193.434Z" transform="translate(-484.822 -182.36)" fill="#2fa4e8"/>
          <g id="Group_160" data-name="Group 160" transform="translate(42.897 20.218)">
            <path id="Path_10124" data-name="Path 10124" d="M528.911,239.126l-2.374-6.176,26.861-6.836c-1.846-3.685-13-22.895-13-33.133l5.563,8.412c0,10.967,7.334,21.014,7.438,21.214l1.8,4.2-26.283,7.227,4.144,4.5Z" transform="translate(-526.537 -192.981)" fill="#2988e7"/>
          </g>
        </g>
      </g>
    </g>
    <g id="hightlights" transform="translate(118.537 81.043)">
      <path id="Path_10088" data-name="Path 10088" d="M22.494,17.346a25.4,25.4,0,0,1-8.8,5.834C11.083,24.264,8.2,25.064,5.645,26.2S.8,28.917.167,30.876c-.873,2.719,1.79,5.533,5.485,6.965s8.19,1.721,12.5,1.643A75.862,75.862,0,0,0,49.34,32.436C58.274,28.09,65.032,21.92,68.391,15.043a12.136,12.136,0,0,0,1.515-6.756A8.27,8.27,0,0,0,65.55,2.2,16.967,16.967,0,0,0,60.191.393a31.591,31.591,0,0,0-18.076,2.6,42.192,42.192,0,0,0-12.461,9.262,21.153,21.153,0,0,1-6.621,4.575" transform="translate(0 122.36) rotate(-39)" fill="#ffe67b"/>
      <path id="Path_10161" data-name="Path 10161" d="M8.676,8.673A10.066,10.066,0,0,1,5.282,11.59c-1.007.542-2.119.942-3.1,1.511A4.148,4.148,0,0,0,.064,15.438C-.272,16.8.755,18.2,2.18,18.921A10.313,10.313,0,0,0,7,19.742a23.87,23.87,0,0,0,12.03-3.524,18.02,18.02,0,0,0,7.348-8.7,7.581,7.581,0,0,0,.584-3.378A4.269,4.269,0,0,0,25.284,1.1,5.605,5.605,0,0,0,23.217.2a9.728,9.728,0,0,0-6.972,1.3,17.414,17.414,0,0,0-4.807,4.631A8.5,8.5,0,0,1,8.884,8.414" transform="matrix(0.588, -0.809, 0.809, 0.588, 38.916, 104.202)" fill="#fff6d1"/>
      <path id="Path_10162" data-name="Path 10162" d="M2.751,2.751a3.192,3.192,0,0,1-1.076.925c-.319.172-.672.3-.985.479A1.315,1.315,0,0,0,.02,4.9,1.06,1.06,0,0,0,.691,6a3.271,3.271,0,0,0,1.529.26A7.57,7.57,0,0,0,6.035,5.143a5.715,5.715,0,0,0,2.33-2.758,2.4,2.4,0,0,0,.185-1.071A1.354,1.354,0,0,0,8.018.349,1.778,1.778,0,0,0,7.363.062,3.085,3.085,0,0,0,5.152.474,5.522,5.522,0,0,0,3.627,1.943a2.7,2.7,0,0,1-.81.725" transform="translate(44.619 120.631) rotate(-22)" fill="#fff6d1"/>
      <path id="Path_9981" data-name="Path 9981" d="M.633.992c2.274-2.439,12.351.069,17.977,2.664C30.9,10.341,31.206,6.678,45.4,18.545c5.526,5.014,6.314,8.837,7.25,11.064,1.933,4.739,1.269,4.9-1.088,9.467-1.148,2.2-3.051,4.368-5.649,4.682a8.157,8.157,0,0,1-4.259-.856,32.99,32.99,0,0,1-5.045-3.083c-1.118-.771,1.118-9.135-6.041-15.587C22.352,16.78,4.53,10.927,1.781,7.187.633,5.589-.545,3.619.271,1.849" transform="matrix(0.719, 0.695, -0.695, 0.719, 52.834, 0)" fill="#60b3ec"/>
      <path id="Path_10163" data-name="Path 10163" d="M.141.293c.508-.72,2.757.02,4.013.787,2.743,1.974,2.812.892,5.98,4.4a7.654,7.654,0,0,1,1.618,3.268c.432,1.4.283,1.448-.243,2.8-.256.649-.681,1.29-1.261,1.383A1.453,1.453,0,0,1,9.3,12.67a7.357,7.357,0,0,1-1.126-.911c-.249-.228.249-2.7-1.349-4.6C4.99,4.956,1.011,3.227.4,2.123A2.055,2.055,0,0,1,.06.546" transform="translate(69.12 43.872) rotate(65)" fill="#a0d8ff"/>
      <path id="Path_10164" data-name="Path 10164" d="M.985.018c.472.08.521.759.521,2.413S1.08,4.4.485,4.315.01,3.368.01,1.714.513-.062.985.018Z" transform="matrix(0.966, -0.259, 0.259, 0.966, 66.901, 38.272)" fill="#a0d8fe"/>
    </g>
    <g id="Cheek" transform="translate(116.042 38.177) rotate(-11)">
      <ellipse id="Ellipse_131" data-name="Ellipse 131" cx="3.504" cy="2.013" rx="3.504" ry="2.013" transform="translate(0 0.432)" fill="#f377ba"/>
      <ellipse id="Ellipse_132" data-name="Ellipse 132" cx="3.504" cy="2.013" rx="3.504" ry="2.013" transform="translate(20.958 0)" fill="#f47fbe"/>
    </g>
    <g id="hightlights-2" data-name="hightlights" transform="translate(122.046 27.415)">
      <g id="hightlights-3" data-name="hightlights" transform="translate(11.991 0)">
        <ellipse id="hightlights-4" data-name="hightlights" cx="0.544" cy="0.906" rx="0.544" ry="0.906" transform="translate(0 0.263) rotate(-14)" fill="#fff"/>
        <ellipse id="hightlights-5" data-name="hightlights" cx="0.181" cy="0.363" rx="0.181" ry="0.363" transform="translate(0.527 2.329) rotate(-14)" fill="#fff"/>
      </g>
      <g id="hightlights-6" data-name="hightlights" transform="matrix(1, -0.017, 0.017, 1, 0, 1.826)">
        <ellipse id="hightlights-7" data-name="hightlights" cx="0.544" cy="0.906" rx="0.544" ry="0.906" transform="translate(0 0.263) rotate(-14)" fill="#fff"/>
        <ellipse id="hightlights-8" data-name="hightlights" cx="0.181" cy="0.363" rx="0.181" ry="0.363" transform="translate(0.527 2.329) rotate(-14)" fill="#fff"/>
      </g>
    </g>
  </g>
</svg>
