<svg xmlns="http://www.w3.org/2000/svg" width="397.332" height="397.626" viewBox="0 0 397.332 397.626">
  <g id="green_on_yellow" data-name="green on yellow" transform="matrix(0.899, -0.438, 0.438, 0.899, -146.949, 88.504)">
    <g id="Group_295" data-name="Group 295" transform="translate(0)">
      <g id="yellow_circle" data-name="yellow circle" transform="matrix(0.309, -0.951, 0.951, 0.309, 0, 397.974)">
        <path id="yellow_circle-2" data-name="yellow circle" d="M159.747,0A159.747,159.747,0,1,1,0,159.747,159.747,159.747,0,0,1,159.747,0Z" transform="matrix(0.978, 0.208, -0.208, 0.978, 66.427, 36.51)" fill="#fed831"/>
        <path id="yellow_shadow" data-name="yellow shadow" d="M166.613.076c77.435,2.5,155.076,79.746,151.063,153.063S325.649,30.382,165.025,36.361-5.281,221.742,1.524,139.245,89.178-2.421,166.613.076Z" transform="matrix(0.695, 0.719, -0.719, 0.695, 197.674, 0)" fill="#fec731"/>
      </g>
      <g id="green_character" data-name="green character" transform="matrix(0.978, 0.208, -0.208, 0.978, 198.569, 86.386)">
        <g id="Body" transform="translate(0 0)">
          <g id="main_body" data-name="main body" transform="translate(0 18.419)">
            <path id="Path_10004" data-name="Path 10004" d="M207,80.173c1.483-2.292,4.585-2.157,6.877-2.832s6.472-3.708,8.562-5.529a37.516,37.516,0,0,0,5.6-6.54,12.2,12.2,0,0,0,2.157-8.832,30.61,30.61,0,0,0-2.225-8.7c-1.686-4.517-4.719-7.686-8.562-10.45a26.966,26.966,0,0,0-20.361-3.91A26.092,26.092,0,0,0,188.19,37.9a20.159,20.159,0,0,0-7.147,9.237c-2.09,5.663-2.36,12.743.472,18.2a13.281,13.281,0,0,0,2.225,2.9c.607.742,1.686,1.955,1.281,2.966a2.36,2.36,0,0,1-2.36,1.281,6,6,0,0,1-2.629-.809,141.048,141.048,0,0,0-19.822-7.551,128.776,128.776,0,0,0-20.766-4.18c-12.608-1.618-25.013-.876-37.621-.472-1.146.067-2.562-.135-2.764-1.214s.539-1.618,1.214-2.225a25.148,25.148,0,0,0,5.866-6.944,27.059,27.059,0,0,0,2.7-9.506,37.217,37.217,0,0,0,.472-8.225c-.607-10.113-7.214-19.35-15.844-24.609C73.777-5.384,42.831-1.541,32.852,21.382a51.173,51.173,0,0,0-2.9,10.113,58.11,58.11,0,0,0-.27,22.114c1.483,7.281,5.866,16.114,13.417,19.08a26.968,26.968,0,0,0,7.686,1.618,31.823,31.823,0,0,0,8.765-.135c1.955-.337,5.933-2.967,6.4.539a4.382,4.382,0,0,1-.876,3.1C62.652,81.589,58.4,83.679,54.7,86.106a102.34,102.34,0,0,0-10.922,8.428c-6.4,5.461-12.81,10.922-17.8,17.664a85.087,85.087,0,0,0-7.619,12.877C6.019,149.347-2.813,176.518.827,203.419c1.281,9.439,5.461,17.26,9.911,25.485a97.557,97.557,0,0,0,17.8,23.463c14.293,13.821,32.5,22.991,51.442,28.991a187.024,187.024,0,0,0,61.623,8.36c13.754-.539,27.575-2.629,40.52-7.281s25.148-13.619,36.677-22.721c2.629-2.023,5.259-4.113,7.753-6.405a84.39,84.39,0,0,0,6-6.2c7.281-8.158,14.091-16.855,19.35-26.5,6.675-12.271,10.248-25.283,8.967-39.239s-3.843-28.317-9.911-41.262a139.485,139.485,0,0,0-7.686-13.889,133.833,133.833,0,0,0-9.843-14.765c-6.877-8.5-15.642-15.237-23.462-22.856A13.35,13.35,0,0,1,207,84.825,4.787,4.787,0,0,1,207,80.173Z" transform="translate(0 0)" fill="#0aa8a0"/>
          </g>
          <g id="main_body-2" data-name="main body" transform="translate(0 18.419)">
            <path id="Path_10005" data-name="Path 10005" d="M207,80.173c1.483-2.292,4.585-2.157,6.877-2.832s6.472-3.708,8.562-5.529a37.516,37.516,0,0,0,5.6-6.54,12.2,12.2,0,0,0,2.157-8.832,30.61,30.61,0,0,0-2.225-8.7c-1.686-4.517-4.719-7.686-8.562-10.45a26.966,26.966,0,0,0-20.361-3.91A26.092,26.092,0,0,0,188.19,37.9a20.159,20.159,0,0,0-7.147,9.237c-2.09,5.663-2.36,12.743.472,18.2a13.281,13.281,0,0,0,2.225,2.9c.607.742,1.686,1.955,1.281,2.966a2.36,2.36,0,0,1-2.36,1.281,6,6,0,0,1-2.629-.809,141.048,141.048,0,0,0-19.822-7.551,128.776,128.776,0,0,0-20.766-4.18c-12.608-1.618-25.013-.876-37.621-.472-1.146.067-2.562-.135-2.764-1.214s.539-1.618,1.214-2.225a25.148,25.148,0,0,0,5.866-6.944,27.059,27.059,0,0,0,2.7-9.506,37.217,37.217,0,0,0,.472-8.225c-.607-10.113-7.214-19.35-15.844-24.609C73.777-5.384,42.831-1.541,32.852,21.382a51.173,51.173,0,0,0-2.9,10.113,58.11,58.11,0,0,0-.27,22.114c1.483,7.281,5.866,16.114,13.417,19.08a26.968,26.968,0,0,0,7.686,1.618,31.823,31.823,0,0,0,8.765-.135c1.955-.337,5.933-2.967,6.4.539a4.382,4.382,0,0,1-.876,3.1C62.652,81.589,58.4,83.679,54.7,86.106a102.34,102.34,0,0,0-10.922,8.428c-6.4,5.461-12.81,10.922-17.8,17.664a85.087,85.087,0,0,0-7.619,12.877C6.019,149.347-2.813,176.518.827,203.419c1.281,9.439,5.461,17.26,9.911,25.485a97.557,97.557,0,0,0,17.8,23.463c14.293,13.821,32.5,22.991,51.442,28.991a187.024,187.024,0,0,0,61.623,8.36c13.754-.539,27.575-2.629,40.52-7.281s25.148-13.619,36.677-22.721c2.629-2.023,5.259-4.113,7.753-6.405a84.39,84.39,0,0,0,6-6.2c7.281-8.158,14.091-16.855,19.35-26.5,6.675-12.271,10.248-25.283,8.967-39.239s-3.843-28.317-9.911-41.262a139.485,139.485,0,0,0-7.686-13.889,133.833,133.833,0,0,0-9.843-14.765c-6.877-8.5-15.642-15.237-23.462-22.856A13.35,13.35,0,0,1,207,84.825,4.787,4.787,0,0,1,207,80.173Z" transform="translate(0 0)" fill="#bfd631"/>
          </g>
          <g id="highlight" transform="translate(3.491 27.968)">
            <g id="shadow" transform="translate(105.855 74.225)">
              <path id="Path_10006" data-name="Path 10006" d="M.838,24.919c-2.225-3.776.337-8.63,3.506-11.731C16.412,1.052,35.29-.9,52.348.311,68.057,1.524,84.035,4.963,96.913,13.93a93.583,93.583,0,0,1,12.405,10.787c16.855,17.057,31.148,38.767,31.418,62.769a9.641,9.641,0,0,1-.876,4.787c-.809,1.416-4.382,3.1-7.079,2.9-8.7-.742-14.293-9.3-18.878-16.72C107.228,67.866,99.61,57.618,89.429,50.337A76.905,76.905,0,0,0,66.641,39.549a126.963,126.963,0,0,0-12.338-3.1c-2.09-.4-39.374-6-39.374-6S3.872,30.043.838,24.919Z" transform="translate(0 0)" fill="#dbe298"/>
            </g>
            <g id="higthlight" transform="translate(145.861 81.083)">
              <path id="Path_10007" data-name="Path 10007" d="M1.285,5.251A2.09,2.09,0,0,1,.273,4.577a1.888,1.888,0,0,1,.4-2.427A5.191,5.191,0,0,1,3.105,1.138a54.678,54.678,0,0,1,24.271.472,79.758,79.758,0,0,1,22.451,9.574A19.767,19.767,0,0,1,55.221,15.5a8.032,8.032,0,0,1,1.82,6.4,1.753,1.753,0,0,1-.472,1.011,2.63,2.63,0,0,1-.944.539,8.385,8.385,0,0,1-4.787-.472,71.4,71.4,0,0,1-10.787-5.057,112.251,112.251,0,0,0-10.046-5.6,65.872,65.872,0,0,0-10.72-3.978,42.07,42.07,0,0,0-9.169-1.079A22.249,22.249,0,0,1,1.285,5.251Z" transform="translate(0 0)" fill="#fdfffd"/>
            </g>
            <g id="highlight-2" data-name="highlight" transform="translate(207.613 109.118)">
              <path id="Path_10008" data-name="Path 10008" d="M2.3,7.15A8.291,8.291,0,0,1,.751,5.263,4.72,4.72,0,0,1,.211,3.914a4.045,4.045,0,0,1-.067-2.36A2.764,2.764,0,0,1,2.773,0,6,6,0,0,1,5.74,1.015C8.3,2.566,10.257,4.858,12.415,6.881a7.666,7.666,0,0,1,2.427,3.1,12.809,12.809,0,0,1,.2,1.686c0,.742,0,1.551-.067,2.292a.742.742,0,0,1-.944.876c-1.888.135-3.371-.876-5.057-1.483A11.057,11.057,0,0,1,5.2,10.791C4.122,9.712,3.38,8.3,2.3,7.15Z" transform="translate(0 0)" fill="#fff"/>
            </g>
            <g id="highlight-3" data-name="highlight" transform="translate(29.294 24.846)">
              <path id="Path_10009" data-name="Path 10009" d="M0,16.855c.674,4.315,3.776,7.821,7.349,10.315,6.742,4.787,15.3,6.54,23.53,5.8s16.114-3.843,23.26-8.023a45.575,45.575,0,0,0,6.338-4.315A33.643,33.643,0,0,0,72.208,0c0,10.787-10.99,23.732-18.338,29.193s-20.091,7.619-22.923,7.888c-6.135.539-22.653-4.652-25.822-8.293s-5.8-7.147-4.922-12" transform="translate(0 0)" fill="#8aab49"/>
            </g>
            <g id="highlight-4" data-name="highlight" transform="translate(47.338 0)">
              <path id="Path_10010" data-name="Path 10010" d="M.093,7.182a4.652,4.652,0,0,1,.135-2.36A5.776,5.776,0,0,1,3.666,1.99C8.925-.167,14.723-.235,20.319.237c7.012.674,14.091,2.225,19.822,6.27s9.776,10.99,8.9,17.934a8.967,8.967,0,0,1-2.7,5.663c-2.292,2.09-5.663,2.157-8.765,2.023-4.18-.135-8.562-.607-11.934-3.169A26.8,26.8,0,0,1,20.993,23.7a40.992,40.992,0,0,0-5.057-5.731,12.877,12.877,0,0,0-2.562-2.09c-1.079-.607-2.225-1.011-3.236-1.618a18.614,18.614,0,0,0-1.686-.944c-1.82-.876-3.776-.539-5.461-1.753A6.742,6.742,0,0,1,.093,7.182Z" transform="translate(0 0)" fill="#dbe298"/>
            </g>
            <g id="highlight-5" data-name="highlight" transform="translate(53.973 0.304)">
              <path id="Path_10011" data-name="Path 10011" d="M1.952,5.125C.806,4.518-.407,3.3.132,2.091S1.48,1.013,2.357.81a42.206,42.206,0,0,1,20.5,1.011A9.439,9.439,0,0,1,26.089,3.3,3.708,3.708,0,0,1,27.5,6.474a3.506,3.506,0,0,1-2.09,2.562,8.7,8.7,0,0,1-3.438.674,31.148,31.148,0,0,1-11.6-2.292A14.226,14.226,0,0,0,6.335,6.406,10.989,10.989,0,0,1,1.952,5.125Z" transform="translate(0 0)" fill="#fdfffd"/>
            </g>
            <g id="highlight-6" data-name="highlight" transform="translate(83.902 10.617)">
              <path id="Path_10012" data-name="Path 10012" d="M1.352,3.374A3.506,3.506,0,0,1,.138,1.958,1.483,1.483,0,0,1,.071.88,1.416,1.416,0,0,1,1.285,0,3.1,3.1,0,0,1,2.835.34,10.113,10.113,0,0,1,6.948,3.307,7.147,7.147,0,0,1,8.566,8.026a1.887,1.887,0,0,1-.4,1.079,1.483,1.483,0,0,1-1.079.337A2.9,2.9,0,0,1,5.06,8.566,9.98,9.98,0,0,1,3.914,6.341a7.956,7.956,0,0,0-2.36-2.832" transform="translate(0 0)" fill="#fdfffd"/>
            </g>
            <g id="highlight-7" data-name="highlight" transform="translate(196.742 39.679)">
              <path id="Path_10013" data-name="Path 10013" d="M.363,4.585C-.042,3.438-.244,1.955.5,1.011A3.728,3.728,0,0,1,3.6,0a17.4,17.4,0,0,1,9.978,3.843,14.563,14.563,0,0,1,4.989,6.607,8.9,8.9,0,0,1-1.011,8.023,5.056,5.056,0,0,1-1.82,1.551,6.405,6.405,0,0,1-3.573.4,9.978,9.978,0,0,1-4.719-1.686,5.932,5.932,0,0,1-1.551-1.618,5.756,5.756,0,0,1-.539-2.832,14.242,14.242,0,0,0-.135-1.686C4.947,10.922,4,10.113,2.925,8.9A14.631,14.631,0,0,1,.363,4.585Z" transform="translate(0 0)" fill="#dbe298"/>
            </g>
            <g id="highlight-8" data-name="highlight" transform="translate(201.082 40.963)">
              <path id="Path_10014" data-name="Path 10014" d="M3.506,4.919A13.685,13.685,0,0,1,1.214,3.368,3.641,3.641,0,0,1,0,.941.944.944,0,0,1,.27.266a.809.809,0,0,1,.607-.2A7.349,7.349,0,0,1,5.191.806,25.956,25.956,0,0,1,7.754,2.356L9.506,3.435a8.158,8.158,0,0,1,2.7,5.124,2.36,2.36,0,0,1-.337,2.023,1.82,1.82,0,0,1-2.427,0A7.079,7.079,0,0,1,7.754,8.559,11.124,11.124,0,0,0,4.045,5.188" transform="translate(0 0)" fill="#fdfffd"/>
            </g>
            <path id="Shadow-2" data-name="Shadow" d="M.168,0s-.809,77.8,116.84,87.917c0,0,88.321,16.855,125.066-51.577,0,0-6.405,30.137-56.3,53.4S64.151,96.682,34.283,71.534-1.113,22.991.168,0Z" transform="translate(0 181.128)" fill="#8aab49"/>
            <ellipse id="Ellipse_117" data-name="Ellipse 117" cx="2.562" cy="17.934" rx="2.562" ry="17.934" transform="matrix(0.196, -0.981, 0.981, 0.196, 63.845, 266.148)" fill="#fdfffd"/>
            <ellipse id="highlight-9" data-name="highlight" cx="1.753" cy="6.405" rx="1.753" ry="6.405" transform="matrix(0.196, -0.981, 0.981, 0.196, 99.24, 276.671)" fill="#fdfffd"/>
            <g id="mouth" transform="translate(135.154 198.295)">
              <path id="Path_10015" data-name="Path 10015" d="M3.092,4.407H2.957l.27-.135h.742c.27,0,.2.135-.135-.067h.539c.067.067.4.135.067.067s0,0,.067,0l.27.135c.27.2,0,.067-.135-.067l.27.2c.067.067.135.135.135.2s-.2-.4,0-.067.067.135.135.27,0,.27-.067-.135l.2.539c0,.067.067.4,0,.067s0,0,0,.067v.539c-.067-.4.067-.27,0-.067s-.067.135-.067.27a.35.35,0,0,1-.135.27c-.067.067.2-.4.067-.067s-.135.135-.135.2-.27.4-.067.067H4.913c-.067.067-.135.2-.27.27a1.955,1.955,0,0,0-.4,2.158,2.023,2.023,0,0,0,1.82,1.281H6.4c.135,0,.472,0,.067-.067s0,.067.135.067H6.531l.539.337-.27-.2c.067.067.135.067.135.135l.27.2.135.135c.135.2-.2-.2-.2-.2l.2.27.135.27c.067.067.2.539.067.135s0,.067.067.135a.607.607,0,0,0,.067.337.742.742,0,0,0,.067.337c.067.2-.067-.337-.067-.337a.4.4,0,0,1,.067.27c0,.135.067.539-.067.607s.135-.472.067-.27V12.7c-.067.135-.067.27-.135.4a.2.2,0,0,1-.067.135c0,.067.2-.4.135-.2l-.2.27-.2.27.135-.135-.135.2-.27.2c-.067.067-.4.337-.135.135s-.067.067-.135.067l-.4.27-.27.135h0l-.742.2H3.429l-.876-.2A2,2,0,1,0,1.474,18.3a8.466,8.466,0,0,0,8.5-1.753,6.068,6.068,0,0,0,1.82-4.113,6.674,6.674,0,0,0-1.551-4.18,4.922,4.922,0,0,0-4.18-1.888L7.542,9.8a5.731,5.731,0,0,0,.944-7.349A5.866,5.866,0,0,0,1.07.632,2.09,2.09,0,0,0,.328,3.4a2.023,2.023,0,0,0,2.764.742Z" transform="translate(0 0)" fill="#006b65"/>
            </g>
            <g id="highlight-10" data-name="highlight" transform="translate(176.676 50.803)">
              <path id="Path_10016" data-name="Path 10016" d="M.2,0A33.3,33.3,0,0,0,16.181,11.327a37.42,37.42,0,0,0,6.607,1.483,107.2,107.2,0,0,0,12.2,1.348c-4.922,1.955-10.45,1.416-15.709.4-3.776-.674-7.551-1.618-10.72-3.708S3.3,5.933,1.214,3.034A6,6,0,0,1,0,.472" fill="#8aab49"/>
            </g>
          </g>
          <g id="middle_circle" data-name="middle circle" transform="translate(127.494 0)">
            <ellipse id="Ellipse_118" data-name="Ellipse 118" cx="26.092" cy="28.249" rx="26.092" ry="28.249" transform="matrix(1, -0.005, 0.005, 1, 0, 0.273)" fill="#bfd631"/>
            <path id="Path_10017" data-name="Path 10017" d="M1.686,11.416A2.633,2.633,0,0,1,0,8.921,4.787,4.787,0,0,1,1.146,5.955,23.937,23.937,0,0,1,3.371,3.662,16.451,16.451,0,0,1,5.866,1.3,7.417,7.417,0,0,1,8.7.359,23.058,23.058,0,0,1,24.676,3.325,27.575,27.575,0,0,1,35.868,16.472,17.191,17.191,0,0,1,37.351,22a8.765,8.765,0,0,1-1.416,5.394,5.259,5.259,0,0,1-6.068,1.888A10.181,10.181,0,0,1,27.373,27.6c-3.236-2.9-6-6.472-9.439-9.1a46.587,46.587,0,0,0-5.528-3.371c-3.438-1.955-7.079-3.91-10.99-3.776" transform="translate(13.164 5.53)" fill="#dbe298"/>
            <g id="shadow-3" data-name="shadow" transform="translate(1.507 20.047)">
              <path id="Path_10018" data-name="Path 10018" d="M.87,6.2c-1.416,3.371-.944,7.349.27,10.787a27.373,27.373,0,0,0,4.585,8.091c.4.472,3.236,4.315,6.338,5.933a30.737,30.737,0,0,0,14.091,2.764c2.292-.135,9.169-.4,13.686-3.438S47.054,20.9,48,17.934c-1.888.809-3.3,2.562-4.787,4.045a20.563,20.563,0,0,1-12.405,5.326,31.013,31.013,0,0,1-13.282-2.225c-2.966-1.214-8.023-5.6-8.023-5.6S4.983,14.7,3.7,9.911,3.837.067,3.567,0" transform="translate(0 0)" fill="#8aab49"/>
            </g>
            <g id="highlight-11" data-name="highlight" transform="translate(21.896 4.452)">
              <path id="Path_10019" data-name="Path 10019" d="M5.359,6.493A6,6,0,0,1,.977,4.538C.3,3.8-.3,2.515.168,1.571A2.7,2.7,0,0,1,2.19.425,17.192,17.192,0,0,1,9.135.29,18.069,18.069,0,0,1,14.6,2.785a14.7,14.7,0,0,1,4.45,3.708,6.467,6.467,0,0,1,.944,5.933,1.618,1.618,0,0,1-.539.742,1.146,1.146,0,0,1-.809.135c-3.034-.135-5.191-3.169-7.753-4.989a10.181,10.181,0,0,0-5.529-1.82" transform="translate(0 0)" fill="#fff"/>
            </g>
            <g id="highlight-12" data-name="highlight" transform="translate(44.376 17.352)">
              <path id="Path_10020" data-name="Path 10020" d="M1.15.066A2.09,2.09,0,0,1,2.9.4,4.718,4.718,0,0,1,4.05,2.021a4.113,4.113,0,0,1,.337,2.023A1.753,1.753,0,0,1,3.173,5.527a1.82,1.82,0,0,1-1.416-.472A4.787,4.787,0,0,1,.139,2.493,2.494,2.494,0,0,1,.072,1.077,1.348,1.348,0,0,1,.948.133" transform="translate(0 0)" fill="#fff"/>
            </g>
          </g>
        </g>
        <g id="Face" transform="translate(50.854 142.281)">
          <g id="Eyes" transform="translate(8.158 0)">
            <g id="eye_right" data-name="eye right" transform="translate(0 4.517)">
              <ellipse id="eye_outside" data-name="eye outside" cx="12.945" cy="33.71" rx="12.945" ry="33.71" fill="#064138" stroke="#006b65" stroke-miterlimit="10" stroke-width="1"/>
              <ellipse id="highlight-13" data-name="highlight" cx="4.854" cy="8.158" rx="4.854" ry="8.158" transform="translate(11.529 27.036)" fill="#fff"/>
              <path id="highlight-14" data-name="highlight" d="M2.418,0s-4.45,19.417,3.438,32.564,14.563-7.484,14.563-7.484S13.407,53.4,4.575,35.733,2.418,0,2.418,0Z" transform="translate(1.83 21.035)" fill="#91b5af"/>
              <ellipse id="highlight-15" data-name="highlight" cx="4.652" cy="4.652" rx="4.652" ry="4.652" transform="translate(6.405 52.116)" fill="#fff"/>
            </g>
            <g id="eye_left" data-name="eye left" transform="translate(125.538 0)">
              <ellipse id="eye_outside-2" data-name="eye outside" cx="12.945" cy="33.71" rx="12.945" ry="33.71" fill="#064138" stroke="#006b65" stroke-miterlimit="10" stroke-width="1"/>
              <ellipse id="highlight-16" data-name="highlight" cx="4.854" cy="8.158" rx="4.854" ry="8.158" transform="translate(8.9 25.553)" fill="#fff"/>
              <path id="highlight-17" data-name="highlight" d="M17.934,0S22.451,19.35,14.5,32.5,0,25.081,0,25.081,7.012,53.4,15.844,35.733,17.934,0,17.934,0Z" transform="translate(3.573 21.035)" fill="#91b5af"/>
              <ellipse id="highlight-18" data-name="highlight" cx="4.652" cy="4.652" rx="4.652" ry="4.652" transform="translate(10.113 52.116)" fill="#fff"/>
            </g>
          </g>
          <g id="Cheek" transform="translate(0 70.455)">
            <ellipse id="cheek-2" data-name="cheek" cx="16.855" cy="8.765" rx="16.855" ry="8.765" transform="translate(0 0)" fill="#fdcdd1"/>
            <ellipse id="cheeek" cx="16.855" cy="8.765" rx="16.855" ry="8.765" transform="translate(134.572 0)" fill="#fdcdd1"/>
          </g>
        </g>
      </g>
    </g>
  </g>
</svg>
