<svg xmlns="http://www.w3.org/2000/svg" width="191.887" height="226.434" viewBox="0 0 191.887 226.434">
  <g id="yellow_character" data-name="yellow character" transform="matrix(-0.998, 0.07, -0.07, -0.998, 191.887, 215.368)">
    <g id="body" transform="translate(0 0)">
      <g id="left_bottom_circle" data-name="left bottom circle" transform="translate(0)">
        <path id="Path_10074" data-name="Path 10074" d="M11.414,32.173c-4.29-1.061-7.689-4.567-9.463-8.613a28.872,28.872,0,0,1-1.894-13,11.368,11.368,0,0,1,1.23-5.326C2.763,2.753,5.722,1.6,8.536.951A38.415,38.415,0,0,1,19.05.05a15.029,15.029,0,0,1,5.355,1.057A13.008,13.008,0,0,1,29.469,5.5C32.532,9.7,34,15.339,32.226,20.23c-1.2,3.317-3.725,5.974-6.366,8.313a14.016,14.016,0,0,1-3.573,2.494,15.657,15.657,0,0,1-4.12.966,21.061,21.061,0,0,1-6.68.221" transform="translate(0 0.025)" fill="#ef48a0"/>
        <path id="Path_10075" data-name="Path 10075" d="M11.414,32.173c-4.29-1.062-7.689-4.567-9.463-8.614a28.869,28.869,0,0,1-1.894-13,11.365,11.365,0,0,1,1.23-5.326C2.763,2.754,5.722,1.6,8.536.952A38.437,38.437,0,0,1,19.05.05a15.038,15.038,0,0,1,5.355,1.057A13,13,0,0,1,29.469,5.5C32.532,9.7,34,15.339,32.226,20.23c-1.2,3.317-3.725,5.974-6.366,8.313a14.014,14.014,0,0,1-3.573,2.494,15.635,15.635,0,0,1-4.12.965,21.045,21.045,0,0,1-6.68.222" transform="translate(0)" fill="#f1b05b"/>
        <path id="Path_10076" data-name="Path 10076" d="M.791,11.6A1.2,1.2,0,0,0,0,12.787a2.366,2.366,0,0,0,.537,1.452,12.606,12.606,0,0,0,1.038,1.085,7.368,7.368,0,0,0,1.19,1.137,3.6,3.6,0,0,0,1.322.462A10.821,10.821,0,0,0,11.623,15.5c1.249-.754,7.319-4.97,9.6-8.8,1.905-3.207.249-6.146-.43-6.563C19.264-.8,13.266,3.525,12.906,3.846c-1.543,1.373-2.842,3.1-4.461,4.348A21.238,21.238,0,0,1,5.839,9.838c-1.632.922-3.349,1.866-5.165,1.8" transform="translate(9.022 12.779)" fill="#ffd19f"/>
        <path id="Path_10077" data-name="Path 10077" d="M.412,5.29a2,2,0,0,0,1.732.489A5.334,5.334,0,0,0,3.874,5.1a10.315,10.315,0,0,0,2.44-1.716A4.3,4.3,0,0,0,7.619.754.769.769,0,0,0,7.537.272.718.718,0,0,0,6.991.01,2.936,2.936,0,0,0,4.737.987c-.6.595-1.055,1.322-1.621,1.951A3.386,3.386,0,0,1,.978,4.188c-.375.03-.872.043-.965.407s.346.62.7.738" transform="translate(15.531 22.984)" fill="#fff" stroke="#fff" stroke-miterlimit="10" stroke-width="1"/>
        <path id="Path_10078" data-name="Path 10078" d="M.229,3.587A4.85,4.85,0,0,0,1.922,2.116a3.745,3.745,0,0,0,.624-.981A1.441,1.441,0,0,0,2.544,0L1.83,1.091a5.257,5.257,0,0,1-.6.8C.785,2.351.138,2.7,0,3.328" transform="translate(25.887 18.618)" fill="none" stroke="#fff" stroke-miterlimit="10" stroke-width="1"/>
        <path id="Path_10079" data-name="Path 10079" d="M.053,13.711A14.275,14.275,0,0,0,4.4,13.48a7.358,7.358,0,0,0,3.768-2.087A13.2,13.2,0,0,0,9.528,9.472,18.578,18.578,0,0,1,12.106,6.1a8.089,8.089,0,0,1,3.609-2.16,12.614,12.614,0,0,1,2.14-.29l1.669-.129c1.708-.132,3.529-.241,5.028.588C22.2,3.181,20.483.963,18.054.253a9.721,9.721,0,0,0-5.09.224A15.49,15.49,0,0,0,8.617,2.2a20.592,20.592,0,0,0-3.672,3.16,5.541,5.541,0,0,0-.916,1.1,13,13,0,0,0-.558,1.329,4.839,4.839,0,0,1-1.066,1.54,11.093,11.093,0,0,0-1.086,1.04,5.166,5.166,0,0,0-.651,1.246A8.887,8.887,0,0,0,0,13.73" transform="translate(2.824 4.164)" fill="#dd6d2f"/>
      </g>
      <g id="top_small_circle" data-name="top small circle" transform="translate(32.734 153.467)">
        <path id="Path_10080" data-name="Path 10080" d="M21.7,18.667a10.418,10.418,0,0,1-7.874,4.47,20.428,20.428,0,0,1-9.159-1.585,8.044,8.044,0,0,1-3.312-2C.009,18.016-.117,15.772.067,13.737A27.169,27.169,0,0,1,1.773,6.468,10.629,10.629,0,0,1,3.661,3.1,9.2,9.2,0,0,1,7.728.658c3.5-1.136,7.614-.881,10.514,1.385a15.1,15.1,0,0,1,4.191,6.11,9.912,9.912,0,0,1,.892,2.952,11.074,11.074,0,0,1-.257,2.983,14.908,14.908,0,0,1-1.32,4.541" transform="translate(0 0)" fill="#f1b05b"/>
        <path id="Path_10081" data-name="Path 10081" d="M3.626,16.3a.851.851,0,0,0,.623.792,1.677,1.677,0,0,0,1.095-.042,8.835,8.835,0,0,0,.958-.46,5.216,5.216,0,0,0,1.027-.55,2.539,2.539,0,0,0,.6-.788,7.656,7.656,0,0,0,.7-5.38C8.4,8.863,6.9,3.853,4.818,1.479A3.8,3.8,0,0,0,.309.325c-.966.819.628,5.805.764,6.117.584,1.34,1.458,2.592,1.944,3.956a15.025,15.025,0,0,1,.532,2.115,7.194,7.194,0,0,1,.072,3.869" transform="translate(12.479 1.734)" fill="#ffd19f"/>
        <path id="Path_10082" data-name="Path 10082" d="M2.23,5.907A1.415,1.415,0,0,0,2.94,4.85a3.771,3.771,0,0,0-.078-1.314,7.309,7.309,0,0,0-.618-2.018A3.04,3.04,0,0,0,.764.062.539.539,0,0,0,.422.012a.506.506,0,0,0-.3.309A2.076,2.076,0,0,0,.287,2.052c.268.535.657,1,.956,1.519a2.4,2.4,0,0,1,.37,1.713c-.062.259-.163.6.061.739s.493-.1.651-.31" transform="translate(17.841 8.857)" fill="#fff" stroke="#fff" stroke-miterlimit="10" stroke-width="1"/>
        <path id="Path_10083" data-name="Path 10083" d="M1.9,2.353A3.425,3.425,0,0,0,1.286.891,2.639,2.639,0,0,0,.764.256,1.018,1.018,0,0,0,0,.007l.577.72a3.719,3.719,0,0,1,.4.577c.212.4.305.915.7,1.145" transform="translate(16.323 4.234)" fill="none" stroke="#fff" stroke-miterlimit="10" stroke-width="1"/>
        <path id="Path_10084" data-name="Path 10084" d="M6.1,18.589a10.1,10.1,0,0,0,.8-2.977,5.208,5.208,0,0,0-.575-2.994,9.365,9.365,0,0,0-.994-1.335,13.119,13.119,0,0,1-1.7-2.475,5.725,5.725,0,0,1-.659-2.9,8.861,8.861,0,0,1,.275-1.5l.281-1.151A6.3,6.3,0,0,1,5.028,0C3.887,1.38,2.018,2.046,1.007,3.523A6.877,6.877,0,0,0,.038,7a10.966,10.966,0,0,0,.2,3.3,14.562,14.562,0,0,0,1.318,3.165,3.905,3.905,0,0,0,.538.858,9.131,9.131,0,0,0,.771.667,3.43,3.43,0,0,1,.8,1.055,7.823,7.823,0,0,0,.461.96,3.646,3.646,0,0,0,.7.712,6.277,6.277,0,0,0,1.277.915" transform="translate(4.105 2.676)" fill="#dd6d2f"/>
      </g>
      <g id="right_bottom_circle" data-name="right bottom circle" transform="translate(142.792 1.746)">
        <path id="ear" d="M.729,22.485C2.916,29.29,9.542,34.265,16.646,35.058a22.956,22.956,0,0,0,19.167-7.675c4.5-5.01,6.777-12.749,3.4-18.575a15.389,15.389,0,0,0-4.124-4.475A22.408,22.408,0,0,0,11.772,2.4,22.408,22.408,0,0,0,.014,22.629" transform="translate(0 0)" fill="#ef48a0"/>
        <path id="ear-2" data-name="ear" d="M.729,22.485C2.916,29.29,9.542,34.265,16.646,35.058a22.956,22.956,0,0,0,19.167-7.675c4.5-5.01,6.777-12.749,3.4-18.575a15.389,15.389,0,0,0-4.124-4.475A22.408,22.408,0,0,0,11.772,2.4,22.408,22.408,0,0,0,.014,22.629" transform="translate(0 0)" fill="#f1b05b"/>
        <path id="Path_10085" data-name="Path 10085" d="M5.663,14.125l-4.9-.195a.894.894,0,0,0-.557.1.752.752,0,0,0-.138.871c.481,1.321,2.084,1.8,3.477,1.977,1.5.2,3.01.263,4.52.323,3.71.146,7.595.207,10.92-1.445a13.6,13.6,0,0,0,6.895-9.362,8,8,0,0,0,.13-3.279A4,4,0,0,0,24.239.442C22.615-.511,20.452.19,19.076,1.475a21.411,21.411,0,0,0-3.188,4.638,23.219,23.219,0,0,1-3.149,4.015C10.5,12.413,7.491,14.3,4.309,13.987" transform="translate(9.553 14.829)" fill="#ffd19f"/>
        <path id="Path_10086" data-name="Path 10086" d="M0,6.425a7.91,7.91,0,0,0,5.47-.7A23.515,23.515,0,0,0,10.09,2.521a3.469,3.469,0,0,0,.857-.9A1.176,1.176,0,0,0,11,.44C10.638-.128,9.775-.084,9.177.222,7.371,1.148,6.77,3.552,5.034,4.6c-1.478.9-3.481.621-4.88,1.634" transform="translate(20.91 23.862)" fill="#fff" stroke="#fff" stroke-miterlimit="10" stroke-width="1"/>
        <path id="Path_10087" data-name="Path 10087" d="M.587,15.278a8.986,8.986,0,0,1,2.941,2.9,10.435,10.435,0,0,0,1.558,2.288A4.575,4.575,0,0,0,8.8,21.4a4.523,4.523,0,0,0,2.1-.778A4.124,4.124,0,0,0,12,19.331c1.181-2.085.881-4.646.991-7.04A19.372,19.372,0,0,1,14.127,6.6a5.7,5.7,0,0,1,1.331-2.288,4.485,4.485,0,0,1,3.109-1.064,13.339,13.339,0,0,1,3.306.589l4.408,1.176a3.194,3.194,0,0,0-1.493-2.255,11.71,11.71,0,0,0-5.811-2.7A13.959,13.959,0,0,0,16.163.1a7.094,7.094,0,0,0-4.024,1.267,8.018,8.018,0,0,0-1.4,1.755A53.206,53.206,0,0,1,0,14.921" transform="translate(10.102 2.696)" fill="#dd6d2f"/>
      </g>
      <path id="body-2" data-name="body" d="M168.91,94.948c-5.8,17.934-14.457,36.192-30.305,46.4-8.094,5.211-17.5,7.935-26.75,10.59-.664.191-1.332.366-2,.533a31.1,31.1,0,0,1,16.239,27.24c-.1,17.3-14.813,31.242-32.868,31.141s-32.613-14.208-32.516-31.508a30.994,30.994,0,0,1,15.036-26.183c-14.426-3.137-28.427-8.5-40.571-16.858-13.654-9.393-24.866-22.723-30.243-38.4C.93,86.24.231,73.728.035,61.4-.091,53.55,0,45.539,2.491,38.093,6.473,26.2,16.338,16.934,27.569,11.347s23.8-7.884,36.256-9.335A299.931,299.931,0,0,1,103.53.042c21.436.36,44.882,4.04,59.116,20.072,8.708,9.808,12.712,23.157,13.045,36.269S172.948,82.469,168.91,94.948Z" transform="translate(1.536 5.152)" fill="#f1b05b"/>
      <g id="Highlight" transform="translate(68.699 65.843)">
        <path id="Path_10088" data-name="Path 10088" d="M30.377,36.384A37.972,37.972,0,0,1,18.495,48.621c-3.527,2.273-7.42,3.952-10.871,6.338s-6.549,5.694-7.4,9.8c-1.179,5.7,2.418,11.606,7.407,14.609s11.06,3.609,16.881,3.446A73.842,73.842,0,0,0,66.634,68.034a73.841,73.841,0,0,0,25.728-36.48,37.461,37.461,0,0,0,2.046-14.172,19.067,19.067,0,0,0-5.882-12.77A18.177,18.177,0,0,0,81.288.825c-8.311-2.3-17.408.42-24.411,5.448S44.662,18.417,40.048,25.7a32.428,32.428,0,0,1-8.941,9.6" transform="translate(0 0)" fill="#ffd19f"/>
        <path id="Path_10089" data-name="Path 10089" d="M1.035,20.879c-1.532-1.52-1.238-4.2.058-5.931s3.315-2.726,5.259-3.664C11.92,8.6,17.591,5.877,23.7,4.933c2.618-.4,5.309-.481,7.831-1.3C34.516,2.673,37.147.71,40.221.081a2.006,2.006,0,0,1,1.331.064,1.5,1.5,0,0,1,.573,1.772,4.189,4.189,0,0,1-1.169,1.625A63.461,63.461,0,0,1,4.7,21.229a6.69,6.69,0,0,1-4.471-.52" transform="translate(28.401 60.287)" fill="#fff"/>
        <path id="Path_10090" data-name="Path 10090" d="M2.753,13.437c3.547-.031,6.61-2.4,9.211-4.808a10.269,10.269,0,0,0,1.909-2.163,9.143,9.143,0,0,0,1.036-3.2,4,4,0,0,0-.082-2.249,1.521,1.521,0,0,0-1.836-.93c-.621.261-.864.99-1.11,1.617A17.336,17.336,0,0,1,8.212,6.907a10.306,10.306,0,0,1-4.22,3.181c-.74.231-1.524.3-2.258.547a2.5,2.5,0,0,0-1.68,1.478,1.3,1.3,0,0,0,1.055,1.7" transform="translate(72.089 40.908)" fill="#fff"/>
      </g>
      <g id="shadow_main" data-name="shadow main" transform="translate(2.547 6.067)">
        <path id="shadow" d="M0,47.279s12.922-19.2,48.6-30.647c24.776-7.947,60.524-15.286,110.539,3.147,0,0-2.486-12.726-42.96-18.418C93.07-1.889,50.063.35,25.254,11.705,6.618,20.235,2.861,35.884,0,47.279Z" transform="translate(0 0)" fill="#dd6d2f"/>
        <ellipse id="highlight-2" data-name="highlight" cx="2.836" cy="10.449" rx="2.836" ry="10.449" transform="translate(49.739 6.186) rotate(69.169)" fill="#ffd19f"/>
        <ellipse id="highlight-3" data-name="highlight" cx="1.233" cy="3.637" rx="1.233" ry="3.637" transform="translate(61.564 5.876) rotate(69.169)" fill="#ffd19f"/>
      </g>
      <g id="top_highlights" data-name="top highlights" transform="translate(63.962 158.99)">
        <path id="Path_10091" data-name="Path 10091" d="M2.1,20.122A2.811,2.811,0,0,0,0,22.855a5.07,5.07,0,0,0,1.426,3.354,31.721,31.721,0,0,0,2.759,2.507,18.732,18.732,0,0,0,3.162,2.627,10.524,10.524,0,0,0,3.511,1.068,32.334,32.334,0,0,0,19.994-3.269A32.336,32.336,0,0,0,44.9,14.54a16.737,16.737,0,0,0,1.776-6.077,8.609,8.609,0,0,0-1.722-5.979,7.023,7.023,0,0,0-7.62-2.1,11.662,11.662,0,0,0-3.1,1.852C30.144,5.4,26.7,9.378,22.406,12.266a58.1,58.1,0,0,1-6.915,3.792c-4.33,2.126-8.886,4.3-13.707,4.135Z" transform="translate(14.632 18.145)" fill="#ffd19f"/>
        <path id="shadow-2" data-name="shadow" d="M1.078,27.927c-1.783-3.678-1.139-8.1.371-11.9A28.714,28.714,0,0,1,7.127,7.063a13.037,13.037,0,0,1,3.667-2.915,16.855,16.855,0,0,1,4.2-1.221A149.682,149.682,0,0,1,32.384.18a34.626,34.626,0,0,1,13.744,1.2A22.767,22.767,0,0,1,60.051,14.966c-2.353-.867-4.091-2.834-6.018-4.44A27.3,27.3,0,0,0,38.526,4.6,42.07,42.07,0,0,0,21.951,7.068c-3.767,1.293-7.538,3.08-10.038,6.182a17.785,17.785,0,0,0-3.5,10.226,4.645,4.645,0,0,1-.373,1.958,3.548,3.548,0,0,1-1.164,1.175,10.462,10.462,0,0,1-5.085,1.819Z" transform="translate(0 0)" fill="#dd6d2f"/>
        <path id="highlight-4" data-name="highlight" d="M6.708,7.578A7.908,7.908,0,0,0,1.226,9.714c-.9.852-1.613,2.222-.993,3.3a3.379,3.379,0,0,0,2.524,1.26,23.756,23.756,0,0,0,8.637.2,25.728,25.728,0,0,0,6.82-2.78,17.361,17.361,0,0,0,5.632-4.139C25.31,5.718,26,3.081,24.959.98A1.8,1.8,0,0,0,24.3.189,1.883,1.883,0,0,0,23.272,0c-3.759.152-6.431,3.554-9.633,5.53A13.709,13.709,0,0,1,6.707,7.563Z" transform="translate(25.553 37.365)" fill="#fff"/>
        <path id="highlight-5" data-name="highlight" d="M1.406,6.048a2.585,2.585,0,0,0,2.186-.373A4.329,4.329,0,0,0,5.027,3.918a3.7,3.7,0,0,0,.405-2.279A1.994,1.994,0,0,0,3.921.022,2.442,2.442,0,0,0,2.2.53,5.231,5.231,0,0,0,.152,3.35,2.809,2.809,0,0,0,.086,4.926,1.482,1.482,0,0,0,1.171,5.99" transform="translate(53.68 31.702)" fill="#fff" stroke="#fff" stroke-miterlimit="10" stroke-width="1"/>
      </g>
    </g>
    <g id="face" transform="translate(41.622 44.778)">
      <g id="Cheek" transform="translate(0 10.285)">
        <ellipse id="Ellipse_135" data-name="Ellipse 135" cx="11.106" cy="6.374" rx="11.106" ry="6.374" transform="translate(0 0)" fill="#f377ba"/>
        <ellipse id="Ellipse_136" data-name="Ellipse 136" cx="11.106" cy="6.374" rx="11.106" ry="6.374" transform="translate(90.432 1.352)" fill="#f47fbe"/>
      </g>
      <g id="mouth" transform="translate(53.462 0)">
        <path id="shadow-3" data-name="shadow" d="M6.173,7.521S7.228,5.3,5.106,2.346,0,1.5,0,1.5s3.919-3.517,6.117.231S6.173,7.521,6.173,7.521Z" transform="translate(10.407 0)" fill="#dd6d2f"/>
        <ellipse id="mouth-2" data-name="mouth" cx="5.445" cy="9.777" rx="5.445" ry="9.777" transform="translate(7.437 1.381) rotate(22.355)" fill="#541339"/>
      </g>
      <g id="eyes" transform="translate(10.946 32.712)">
        <g id="eye_left" data-name="eye left" transform="translate(56.924 3.674)">
          <ellipse id="eye_left_bg" data-name="eye left bg" cx="12.513" cy="21.323" rx="12.513" ry="21.323" transform="translate(3.745 0) rotate(5.038)" fill="#703305"/>
          <g id="highlight_white_left" data-name="highlight white left" transform="translate(3.108 2.331)">
            <path id="highlight-6" data-name="highlight" d="M14.1,38.529s6.567-14.049.636-27.485S0,12.248,0,12.248,11.621-11.026,17.716,6.592,14.1,38.529,14.1,38.529Z" transform="translate(1.083 0)" fill="#b2a090"/>
            <ellipse id="eye" cx="7.432" cy="3.746" rx="7.432" ry="3.746" transform="translate(10.466 23.055) rotate(84.247)" fill="#fff"/>
            <ellipse id="eye_hightligh" data-name="eye hightligh" cx="1.274" cy="1.439" rx="1.274" ry="1.439" transform="translate(1.49 19.265)" fill="#fff"/>
            <ellipse id="eye_hightligh-2" data-name="eye hightligh" cx="1.083" cy="1.223" rx="1.083" ry="1.223" transform="translate(0 25.734)" fill="#fff"/>
          </g>
        </g>
        <g id="eye_right" data-name="eye right" transform="translate(0 0)">
          <ellipse id="eye_right_bg" data-name="eye right bg" cx="12.513" cy="21.323" rx="12.513" ry="21.323" transform="translate(3.745 0) rotate(5.038)" fill="#703305"/>
          <g id="highlight_white_right" data-name="highlight white right" transform="translate(2.806 2.071)">
            <path id="highlight-7" data-name="highlight" d="M14.1,38.529s6.567-14.049.636-27.485S0,12.248,0,12.248,11.621-11.026,17.716,6.592,14.1,38.529,14.1,38.529Z" transform="translate(1.827 0)" fill="#b2a090"/>
            <ellipse id="eye-2" data-name="eye" cx="7.393" cy="3.766" rx="7.393" ry="3.766" transform="translate(10.01 21.962) rotate(77.757)" fill="#fff"/>
            <ellipse id="eye_hightligh-3" data-name="eye hightligh" cx="1.274" cy="1.439" rx="1.274" ry="1.439" transform="translate(0.703 19.265)" fill="#fff"/>
            <ellipse id="eye_hightligh-4" data-name="eye hightligh" cx="1.083" cy="1.223" rx="1.083" ry="1.223" transform="translate(0 25.937)" fill="#fff"/>
          </g>
        </g>
      </g>
    </g>
  </g>

</svg>
