<svg id="_002-youtube" data-name="002-youtube" xmlns="http://www.w3.org/2000/svg" width="38.703" height="26.609" viewBox="0 0 38.703 26.609">
  <g id="Group_1" data-name="Group 1">
    <path id="Path_1" data-name="Path 1" d="M37.059,82.564c-1.05-1.867-2.189-2.211-4.509-2.342C30.232,80.065,24.4,80,19.357,80s-10.888.065-13.2.22c-2.315.133-3.457.474-4.516,2.344C.556,84.429,0,87.642,0,93.3v.019c0,5.631.556,8.868,1.638,10.714,1.06,1.867,2.2,2.206,4.514,2.363,2.317.135,8.147.215,13.205.215s10.876-.08,13.2-.213c2.32-.157,3.459-.5,4.509-2.363,1.091-1.846,1.642-5.082,1.642-10.714V93.3C38.7,87.642,38.152,84.429,37.059,82.564Zm-22.545,18V86.047L26.609,93.3Z" transform="translate(0 -80)" fill="#c92c32"/>
  </g>
</svg>
