<svg id="youtube" xmlns="http://www.w3.org/2000/svg" width="31.574" height="21.707" viewBox="0 0 31.574 21.707">
  <g id="Group_1" data-name="Group 1">
    <path id="Path_1" data-name="Path 1" d="M30.232,82.092c-.856-1.523-1.786-1.8-3.678-1.91C24.663,80.053,19.909,80,15.791,80s-8.882.053-10.771.18c-1.889.109-2.82.387-3.684,1.912C.454,83.613,0,86.234,0,90.848v.016C0,95.457.454,98.1,1.336,99.6c.864,1.523,1.794,1.8,3.682,1.928,1.89.111,6.646.176,10.773.176s8.872-.065,10.765-.174c1.892-.128,2.822-.4,3.678-1.928.89-1.506,1.34-4.146,1.34-8.74V90.85C31.574,86.234,31.124,83.613,30.232,82.092ZM11.84,96.774V84.933l9.867,5.92Z" transform="translate(0 -80)" fill="#db3131"/>
  </g>
</svg>
